0
SECTION
2
HEADER
9
$INSUNITS
70
4
9
$ACADVER
1
AC1014
9
$HANDSEED
5
FFFF
0
ENDSEC
0
SECTION
2
TABLES
0
TABLE
2
VPORT
5
8
100
AcDbSymbolTable
0
ENDTAB
0
TABLE
2
LTYPE
5
5
100
AcDbSymbolTable
0
LTYPE
5
14
100
AcDbSymbolTableRecord
100
AcDbLinetypeTableRecord
2
BYBLOCK
70
0
0
LTYPE
5
15
100
AcDbSymbolTableRecord
100
AcDbLinetypeTableRecord
2
BYLAYER
70
0
0
ENDTAB
0
TABLE
2
LAYER
5
2
100
AcDbSymbolTable
70
2
0
LAYER
5
50
100
AcDbSymbolTableRecord
100
AcDbLayerTableRecord
2
0
70
0
6
CONTINUOUS
0
ENDTAB
0
TABLE
2
STYLE
5
3
100
AcDbSymbolTable
70
1
0
STYLE
5
11
100
AcDbSymbolTableRecord
100
AcDbTextStyleTableRecord
2
STANDARD
70
0
0
ENDTAB
0
TABLE
2
VIEW
5
6
100
AcDbSymbolTable
70
0
0
ENDTAB
0
TABLE
2
UCS
5
7
100
AcDbSymbolTable
70
0
0
ENDTAB
0
TABLE
2
APPID
5
9
100
AcDbSymbolTable
70
2
0
APPID
5
12
100
AcDbSymbolTableRecord
100
AcDbRegAppTableRecord
2
ACAD
70
0
0
ENDTAB
0
TABLE
2
DIMSTYLE
5
A
100
AcDbSymbolTable
70
1
0
ENDTAB
0
TABLE
2
BLOCK_RECORD
5
1
100
AcDbSymbolTable
70
1
0
BLOCK_RECORD
5
1F
100
AcDbSymbolTableRecord
100
AcDbBlockTableRecord
2
*MODEL_SPACE
0
BLOCK_RECORD
5
1B
100
AcDbSymbolTableRecord
100
AcDbBlockTableRecord
2
*PAPER_SPACE
0
ENDTAB
0
ENDSEC
0
SECTION
2
BLOCKS
0
BLOCK
5
20
100
AcDbEntity
100
AcDbBlockBegin
2
*MODEL_SPACE
0
ENDBLK
5
21
100
AcDbEntity
100
AcDbBlockEnd
0
BLOCK
5
1C
100
AcDbEntity
100
AcDbBlockBegin
2
*PAPER_SPACE
0
ENDBLK
5
1D
100
AcDbEntity
100
AcDbBlockEnd
0
ENDSEC
0
SECTION
2
ENTITIES
0
LINE
5
100
100
AcDbEntity
8
0
100
AcDbLine
10
0
20
0
30
0
11
-20.500000000000004
21
0
31
0
0
LINE
5
101
100
AcDbEntity
8
0
100
AcDbLine
10
0
20
0
30
0
11
0
21
20
31
0
0
LINE
5
102
100
AcDbEntity
8
0
100
AcDbLine
10
0
20
0
30
0
11
-20.500000000000004
21
0
31
0
0
LINE
5
103
100
AcDbEntity
8
0
100
AcDbLine
10
-20.500000000000004
20
0
30
0
11
-20.500000000000004
21
2
31
0
0
LINE
5
104
100
AcDbEntity
8
0
100
AcDbLine
10
-20.500000000000004
20
2
30
0
11
0
21
2
31
0
0
LINE
5
105
100
AcDbEntity
8
0
100
AcDbLine
10
0
20
2
30
0
11
0
21
0
31
0
0
LINE
5
106
100
AcDbEntity
8
0
100
AcDbLine
10
-1.170204965730982e-15
20
-10
30
0
11
-12.5
21
-10.000000000000044
31
0
0
LINE
5
107
100
AcDbEntity
8
0
100
AcDbLine
10
-12.5
20
0
30
0
11
-12.5
21
-20
31
0
0
LINE
5
108
100
AcDbEntity
8
0
100
AcDbLine
10
-20.500000000000004
20
0
30
0
11
-25.500000000000004
21
0
31
0
0
LINE
5
109
100
AcDbEntity
8
0
100
AcDbLine
10
-20.500000000000004
20
0
30
0
11
-20.500000000000004
21
5
31
0
0
LINE
5
110
100
AcDbEntity
8
0
100
AcDbLine
10
-20.500000000000004
20
2
30
0
11
-18.500000000000004
21
2
31
0
0
SPLINE
5
111
100
AcDbEntity
8
0
100
AcDbSpline
70
1064
71
5
72
26
73
20
74
0
42
0.000000001
43
0.0000000001
44
0.0000000001
40
0
40
0
40
0
40
0
40
0
40
0
40
0.066666666666666666
40
0.13333333333333333
40
0.20000000000000001
40
0.26666666666666666
40
0.33333333333333331
40
0.39999999999999997
40
0.46666666666666662
40
0.53333333333333333
40
0.59999999999999998
40
0.66666666666666663
40
0.73333333333333328
40
0.79999999999999993
40
0.86666666666666659
40
0.93333333333333324
40
1
40
1
40
1
40
1
40
1
40
1
10
-18.500000000000004
20
2
30
0
10
-18.262501800148023
20
2
30
0
10
-17.935095877502828
20
2.1883521615613875
30
0
10
-17.885798266252962
20
3.0299121070691379
30
0
10
-18.586085803692569
20
4.7325982850597645
30
0
10
-20.134444832052665
20
5.4456131325436887
30
0
10
-21.947271517772243
20
4.4350589460811491
30
0
10
-23.853426490235364
20
3.6988944287789915
30
0
10
-25.298720966131086
20
2.8071750109989653
30
0
10
-25.85015903157975
20
1.2789304641260286
30
0
10
-25.316122544805381
20
-1.3906722306875252
30
0
10
-24.113999273331626
20
-4.5365545531781937
30
0
10
-22.483410691192827
20
-7.820306367234223
30
0
10
-20.616205541723577
20
-10.969178394345729
30
0
10
-18.628961540706129
20
-13.834155708038784
30
0
10
-16.594580853785644
20
-16.328233841560451
30
0
10
-14.95703143044582
20
-18.00091601728904
30
0
10
-13.728633235888086
20
-19.0714377370359
30
0
10
-12.909565773396775
20
-19.704001358575145
30
0
10
-12.5
20
-20
30
0
0
LINE
5
112
100
AcDbEntity
8
0
100
AcDbLine
10
-17.022322329279024
20
5.6117435319826381
30
0
11
-23.977677670720972
21
4.3882564680173637
31
0
0
LINE
5
113
100
AcDbEntity
8
0
100
AcDbLine
10
-20.500000000000025
20
1.9999999999999996
30
0
11
-16.499999999999982
21
2
31
0
0
LINE
5
114
100
AcDbEntity
8
0
100
AcDbLine
10
-25.974011911833152
20
2.9867523509095446
30
0
11
-25.025988088166859
21
-2.9867523509095477
31
0
0
LINE
5
115
100
AcDbEntity
8
0
100
AcDbLine
10
-12.5
20
-20
30
0
11
0
21
-20
31
0
0
LINE
5
116
100
AcDbEntity
8
0
100
AcDbLine
10
-18.500000000000004
20
2
30
0
11
-20.500000000000025
21
1.9999999999999996
31
0
0
LINE
5
117
100
AcDbEntity
8
0
100
AcDbLine
10
-20.500000000000004
20
0
30
0
11
0
21
0
31
0
0
LINE
5
118
100
AcDbEntity
8
0
100
AcDbLine
10
0
20
-20
30
0
11
0
21
0
31
0
0
LINE
5
119
100
AcDbEntity
8
0
100
AcDbLine
10
0
20
-20
30
0
11
0
21
0
31
0
0
LINE
5
120
100
AcDbEntity
8
0
100
AcDbLine
10
12.5
20
-20
30
0
11
0
21
-20
31
0
0
SPLINE
5
121
100
AcDbEntity
8
0
100
AcDbSpline
70
1064
71
5
72
26
73
20
74
0
42
0.000000001
43
0.0000000001
44
0.0000000001
40
0
40
0
40
0
40
0
40
0
40
0
40
0.066666666666666666
40
0.13333333333333333
40
0.20000000000000001
40
0.26666666666666666
40
0.33333333333333331
40
0.39999999999999997
40
0.46666666666666662
40
0.53333333333333333
40
0.59999999999999998
40
0.66666666666666663
40
0.73333333333333328
40
0.79999999999999993
40
0.86666666666666659
40
0.93333333333333324
40
1
40
1
40
1
40
1
40
1
40
1
10
18.500000000000004
20
2
30
0
10
18.262501800148023
20
2
30
0
10
17.935095877502828
20
2.1883521615613875
30
0
10
17.885798266252962
20
3.0299121070691379
30
0
10
18.586085803692569
20
4.7325982850597645
30
0
10
20.134444832052665
20
5.4456131325436887
30
0
10
21.947271517772243
20
4.4350589460811491
30
0
10
23.853426490235364
20
3.6988944287789915
30
0
10
25.298720966131086
20
2.8071750109989653
30
0
10
25.85015903157975
20
1.2789304641260286
30
0
10
25.316122544805381
20
-1.3906722306875252
30
0
10
24.113999273331626
20
-4.5365545531781937
30
0
10
22.483410691192827
20
-7.820306367234223
30
0
10
20.616205541723577
20
-10.969178394345729
30
0
10
18.628961540706129
20
-13.834155708038784
30
0
10
16.594580853785644
20
-16.328233841560451
30
0
10
14.95703143044582
20
-18.00091601728904
30
0
10
13.728633235888086
20
-19.0714377370359
30
0
10
12.909565773396775
20
-19.704001358575145
30
0
10
12.5
20
-20
30
0
0
LINE
5
122
100
AcDbEntity
8
0
100
AcDbLine
10
20.500000000000025
20
1.9999999999999996
30
0
11
16.499999999999982
21
2
31
0
0
LINE
5
123
100
AcDbEntity
8
0
100
AcDbLine
10
17.022322329279024
20
5.6117435319826381
30
0
11
23.977677670720972
21
4.3882564680173637
31
0
0
LINE
5
124
100
AcDbEntity
8
0
100
AcDbLine
10
25.974011911833152
20
2.9867523509095446
30
0
11
25.025988088166859
21
-2.9867523509095477
31
0
0
LINE
5
125
100
AcDbEntity
8
0
100
AcDbLine
10
18.500000000000004
20
2
30
0
11
20.500000000000025
21
1.9999999999999996
31
0
0
LINE
5
126
100
AcDbEntity
8
0
100
AcDbLine
10
20.500000000000004
20
0
30
0
11
20.500000000000004
21
2
31
0
0
LINE
5
127
100
AcDbEntity
8
0
100
AcDbLine
10
0
20
0
30
0
11
20.500000000000004
21
0
31
0
0
CIRCLE
5
128
100
AcDbEntity
8
0
100
AcDbCircle
10
-1.170204965730982e-15
20
-10
30
0
40
9
0
ENDSEC
0
SECTION
2
OBJECTS
0
DICTIONARY
5
C
100
AcDbDictionary
3
ACAD_GROUP
350
D
3
ACAD_MLINESTYLE
350
17
0
DICTIONARY
5
D
100
AcDbDictionary
0
DICTIONARY
5
1A
330
C
100
AcDbDictionary
0
DICTIONARY
5
17
100
AcDbDictionary
0
ENDSEC
0
EOF
