0
SECTION
2
HEADER
9
$INSUNITS
70
4
9
$ACADVER
1
AC1014
9
$HANDSEED
5
FFFF
0
ENDSEC
0
SECTION
2
TABLES
0
TABLE
2
VPORT
5
8
100
AcDbSymbolTable
0
ENDTAB
0
TABLE
2
LTYPE
5
5
100
AcDbSymbolTable
0
LTYPE
5
14
100
AcDbSymbolTableRecord
100
AcDbLinetypeTableRecord
2
BYBLOCK
70
0
0
LTYPE
5
15
100
AcDbSymbolTableRecord
100
AcDbLinetypeTableRecord
2
BYLAYER
70
0
0
ENDTAB
0
TABLE
2
LAYER
5
2
100
AcDbSymbolTable
70
2
0
LAYER
5
50
100
AcDbSymbolTableRecord
100
AcDbLayerTableRecord
2
0
70
0
6
CONTINUOUS
0
ENDTAB
0
TABLE
2
STYLE
5
3
100
AcDbSymbolTable
70
1
0
STYLE
5
11
100
AcDbSymbolTableRecord
100
AcDbTextStyleTableRecord
2
STANDARD
70
0
0
ENDTAB
0
TABLE
2
VIEW
5
6
100
AcDbSymbolTable
70
0
0
ENDTAB
0
TABLE
2
UCS
5
7
100
AcDbSymbolTable
70
0
0
ENDTAB
0
TABLE
2
APPID
5
9
100
AcDbSymbolTable
70
2
0
APPID
5
12
100
AcDbSymbolTableRecord
100
AcDbRegAppTableRecord
2
ACAD
70
0
0
ENDTAB
0
TABLE
2
DIMSTYLE
5
A
100
AcDbSymbolTable
70
1
0
ENDTAB
0
TABLE
2
BLOCK_RECORD
5
1
100
AcDbSymbolTable
70
1
0
BLOCK_RECORD
5
1F
100
AcDbSymbolTableRecord
100
AcDbBlockTableRecord
2
*MODEL_SPACE
0
BLOCK_RECORD
5
1B
100
AcDbSymbolTableRecord
100
AcDbBlockTableRecord
2
*PAPER_SPACE
0
ENDTAB
0
ENDSEC
0
SECTION
2
BLOCKS
0
BLOCK
5
20
100
AcDbEntity
100
AcDbBlockBegin
2
*MODEL_SPACE
0
ENDBLK
5
21
100
AcDbEntity
100
AcDbBlockEnd
0
BLOCK
5
1C
100
AcDbEntity
100
AcDbBlockBegin
2
*PAPER_SPACE
0
ENDBLK
5
1D
100
AcDbEntity
100
AcDbBlockEnd
0
ENDSEC
0
SECTION
2
ENTITIES
0
LINE
5
100
100
AcDbEntity
8
0
100
AcDbLine
10
0
20
0
30
0
11
-20.500000000000004
21
0
31
0
0
LINE
5
101
100
AcDbEntity
8
0
100
AcDbLine
10
0
20
0
30
0
11
0
21
20
31
0
0
LINE
5
102
100
AcDbEntity
8
0
100
AcDbLine
10
0
20
0
30
0
11
-20.500000000000004
21
0
31
0
0
LINE
5
103
100
AcDbEntity
8
0
100
AcDbLine
10
-20.500000000000004
20
0
30
0
11
-20.500000000000004
21
2
31
0
0
LINE
5
104
100
AcDbEntity
8
0
100
AcDbLine
10
-20.500000000000004
20
2
30
0
11
0
21
2
31
0
0
LINE
5
105
100
AcDbEntity
8
0
100
AcDbLine
10
0
20
2
30
0
11
0
21
0
31
0
0
LINE
5
106
100
AcDbEntity
8
0
100
AcDbLine
10
-1.170204965730982e-15
20
-10
30
0
11
-12.5
21
-10.000000000000044
31
0
0
LINE
5
107
100
AcDbEntity
8
0
100
AcDbLine
10
-12.5
20
0
30
0
11
-12.5
21
-20
31
0
0
LINE
5
108
100
AcDbEntity
8
0
100
AcDbLine
10
-20.500000000000004
20
0
30
0
11
-25.500000000000004
21
0
31
0
0
LINE
5
109
100
AcDbEntity
8
0
100
AcDbLine
10
-20.500000000000004
20
0
30
0
11
-20.500000000000004
21
5
31
0
0
LINE
5
110
100
AcDbEntity
8
0
100
AcDbLine
10
-20.500000000000004
20
2
30
0
11
-18.500000000000004
21
2
31
0
0
SPLINE
5
111
100
AcDbEntity
8
0
100
AcDbSpline
70
1064
71
5
72
26
73
20
74
0
42
0.000000001
43
0.0000000001
44
0.0000000001
40
0
40
0
40
0
40
0
40
0
40
0
40
0.066666666666666666
40
0.13333333333333333
40
0.20000000000000001
40
0.26666666666666666
40
0.33333333333333331
40
0.39999999999999997
40
0.46666666666666662
40
0.53333333333333333
40
0.59999999999999998
40
0.66666666666666663
40
0.73333333333333328
40
0.79999999999999993
40
0.86666666666666659
40
0.93333333333333324
40
1
40
1
40
1
40
1
40
1
40
1
10
-18.500000000000004
20
2
30
0
10
-18.262501800148023
20
2
30
0
10
-17.935095877502828
20
2.1883521615613875
30
0
10
-17.885798266252962
20
3.0299121070691379
30
0
10
-18.586085803692569
20
4.7325982850597645
30
0
10
-20.134444832052665
20
5.4456131325436887
30
0
10
-21.947271517772243
20
4.4350589460811491
30
0
10
-23.853426490235364
20
3.6988944287789915
30
0
10
-25.298720966131086
20
2.8071750109989653
30
0
10
-25.85015903157975
20
1.2789304641260286
30
0
10
-25.316122544805381
20
-1.3906722306875252
30
0
10
-24.113999273331626
20
-4.5365545531781937
30
0
10
-22.483410691192827
20
-7.820306367234223
30
0
10
-20.616205541723577
20
-10.969178394345729
30
0
10
-18.628961540706129
20
-13.834155708038784
30
0
10
-16.594580853785644
20
-16.328233841560451
30
0
10
-14.95703143044582
20
-18.00091601728904
30
0
10
-13.728633235888086
20
-19.0714377370359
30
0
10
-12.909565773396775
20
-19.704001358575145
30
0
10
-12.5
20
-20
30
0
0
LINE
5
112
100
AcDbEntity
8
0
100
AcDbLine
10
-17.022322329279024
20
5.6117435319826381
30
0
11
-23.977677670720972
21
4.3882564680173637
31
0
0
LINE
5
113
100
AcDbEntity
8
0
100
AcDbLine
10
-20.500000000000025
20
1.9999999999999996
30
0
11
-16.499999999999982
21
2
31
0
0
LINE
5
114
100
AcDbEntity
8
0
100
AcDbLine
10
-25.974011911833152
20
2.9867523509095446
30
0
11
-25.025988088166859
21
-2.9867523509095477
31
0
0
LINE
5
115
100
AcDbEntity
8
0
100
AcDbLine
10
-12.5
20
-20
30
0
11
0
21
-20
31
0
0
LINE
5
116
100
AcDbEntity
8
0
100
AcDbLine
10
-18.500000000000004
20
2
30
0
11
-20.500000000000025
21
1.9999999999999996
31
0
0
LINE
5
117
100
AcDbEntity
8
0
100
AcDbLine
10
-20.500000000000004
20
0
30
0
11
0
21
0
31
0
0
LINE
5
118
100
AcDbEntity
8
0
100
AcDbLine
10
0
20
-20
30
0
11
0
21
0
31
0
0
LINE
5
119
100
AcDbEntity
8
0
100
AcDbLine
10
0
20
-20
30
0
11
0
21
0
31
0
0
LINE
5
120
100
AcDbEntity
8
0
100
AcDbLine
10
12.5
20
-20
30
0
11
0
21
-20
31
0
0
SPLINE
5
121
100
AcDbEntity
8
0
100
AcDbSpline
70
1064
71
5
72
26
73
20
74
0
42
0.000000001
43
0.0000000001
44
0.0000000001
40
0
40
0
40
0
40
0
40
0
40
0
40
0.066666666666666666
40
0.13333333333333333
40
0.20000000000000001
40
0.26666666666666666
40
0.33333333333333331
40
0.39999999999999997
40
0.46666666666666662
40
0.53333333333333333
40
0.59999999999999998
40
0.66666666666666663
40
0.73333333333333328
40
0.79999999999999993
40
0.86666666666666659
40
0.93333333333333324
40
1
40
1
40
1
40
1
40
1
40
1
10
18.500000000000004
20
2
30
0
10
18.262501800148023
20
2
30
0
10
17.935095877502828
20
2.1883521615613875
30
0
10
17.885798266252962
20
3.0299121070691379
30
0
10
18.586085803692569
20
4.7325982850597645
30
0
10
20.134444832052665
20
5.4456131325436887
30
0
10
21.947271517772243
20
4.4350589460811491
30
0
10
23.853426490235364
20
3.6988944287789915
30
0
10
25.298720966131086
20
2.8071750109989653
30
0
10
25.85015903157975
20
1.2789304641260286
30
0
10
25.316122544805381
20
-1.3906722306875252
30
0
10
24.113999273331626
20
-4.5365545531781937
30
0
10
22.483410691192827
20
-7.820306367234223
30
0
10
20.616205541723577
20
-10.969178394345729
30
0
10
18.628961540706129
20
-13.834155708038784
30
0
10
16.594580853785644
20
-16.328233841560451
30
0
10
14.95703143044582
20
-18.00091601728904
30
0
10
13.728633235888086
20
-19.0714377370359
30
0
10
12.909565773396775
20
-19.704001358575145
30
0
10
12.5
20
-20
30
0
0
LINE
5
122
100
AcDbEntity
8
0
100
AcDbLine
10
20.500000000000025
20
1.9999999999999996
30
0
11
16.499999999999982
21
2
31
0
0
LINE
5
123
100
AcDbEntity
8
0
100
AcDbLine
10
17.022322329279024
20
5.6117435319826381
30
0
11
23.977677670720972
21
4.3882564680173637
31
0
0
LINE
5
124
100
AcDbEntity
8
0
100
AcDbLine
10
25.974011911833152
20
2.9867523509095446
30
0
11
25.025988088166859
21
-2.9867523509095477
31
0
0
LINE
5
125
100
AcDbEntity
8
0
100
AcDbLine
10
18.500000000000004
20
2
30
0
11
20.500000000000025
21
1.9999999999999996
31
0
0
LINE
5
126
100
AcDbEntity
8
0
100
AcDbLine
10
20.500000000000004
20
0
30
0
11
20.500000000000004
21
2
31
0
0
LINE
5
127
100
AcDbEntity
8
0
100
AcDbLine
10
0
20
0
30
0
11
20.500000000000004
21
0
31
0
0
CIRCLE
5
128
100
AcDbEntity
8
0
100
AcDbCircle
10
-1.170204965730982e-15
20
-10
30
0
40
9
0
SPLINE
5
129
100
AcDbEntity
8
0
100
AcDbSpline
70
1064
71
5
72
26
73
20
74
0
42
0.000000001
43
0.0000000001
44
0.0000000001
40
0
40
0
40
0
40
0
40
0
40
0
40
0.066666666666666666
40
0.13333333333333333
40
0.20000000000000001
40
0.26666666666666666
40
0.33333333333333331
40
0.39999999999999997
40
0.46666666666666662
40
0.53333333333333333
40
0.59999999999999998
40
0.66666666666666663
40
0.73333333333333328
40
0.79999999999999993
40
0.86666666666666659
40
0.93333333333333324
40
1
40
1
40
1
40
1
40
1
40
1
10
81.5
20
2
30
0
10
81.740615958678958
20
2
30
0
10
82.069495599696836
20
2.1940346455101842
30
0
10
82.107243753266545
20
3.0595241947458032
30
0
10
81.372194771469054
20
4.8034819915189271
30
0
10
79.804468445894869
20
5.4330078658934502
30
0
10
77.952782312562505
20
4.3782743158937993
30
0
10
75.982822743231708
20
3.664021707831683
30
0
10
74.550310150430136
20
2.7706882248996849
30
0
10
74.143462858542421
20
1.1335530157348634
30
0
10
74.825468101272776
20
-1.7541810595158813
30
0
10
75.877427700236979
20
-5.2480448876449826
30
0
10
77.109067178330278
20
-8.9884260215219829
30
0
10
78.484059064687571
20
-12.583273563617448
30
0
10
80.163064986823599
20
-15.733276012261634
30
0
10
82.383840757329807
20
-18.179975954471619
30
0
10
84.80771444656483
20
-19.4222136268179
30
0
10
87.087598508595434
20
-19.894941269316977
30
0
10
88.826104836095823
20
-20
30
0
10
89.75
20
-20
30
0
0
LINE
5
130
100
AcDbEntity
8
0
100
AcDbLine
10
79.499999999999972
20
1.9999999999999998
30
0
11
83.500000000000014
21
2.0000000000000004
31
0
0
LINE
5
131
100
AcDbEntity
8
0
100
AcDbLine
10
82.977677670720965
20
5.6117435319826381
30
0
11
76.022322329279021
21
4.3882564680173637
31
0
0
LINE
5
132
100
AcDbEntity
8
0
100
AcDbLine
10
74.025988088166855
20
2.9867523509095446
30
0
11
74.974011911833145
21
-2.9867523509095477
31
0
0
SPLINE
5
133
100
AcDbEntity
8
0
100
AcDbSpline
70
1064
71
5
72
26
73
20
74
0
42
0.000000001
43
0.0000000001
44
0.0000000001
40
0
40
0
40
0
40
0
40
0
40
0
40
0.066666666666666666
40
0.13333333333333333
40
0.20000000000000001
40
0.26666666666666666
40
0.33333333333333331
40
0.39999999999999997
40
0.46666666666666662
40
0.53333333333333333
40
0.59999999999999998
40
0.66666666666666663
40
0.73333333333333328
40
0.79999999999999993
40
0.86666666666666659
40
0.93333333333333324
40
1
40
1
40
1
40
1
40
1
40
1
10
118.5
20
2
30
0
10
118.25938404132104
20
2
30
0
10
117.93050440030341
20
2.1940346455101842
30
0
10
117.89275624673533
20
3.0595241947458032
30
0
10
118.62780522853211
20
4.8034819915189271
30
0
10
120.19553155410435
20
5.4330078658934511
30
0
10
122.04721768743816
20
4.3782743158937985
30
0
10
124.01717725676878
20
3.664021707831683
30
0
10
125.44968984957018
20
2.7706882248996849
30
0
10
125.85653714145749
20
1.133553015734863
30
0
10
125.17453189872724
20
-1.7541810595158811
30
0
10
124.12257229976359
20
-5.2480448876449817
30
0
10
122.89093282167003
20
-8.9884260215219776
30
0
10
121.51594093531227
20
-12.583273563617439
30
0
10
119.83693501317553
20
-15.733276012261621
30
0
10
117.61615924266904
20
-18.179975954471608
30
0
10
115.19228555343435
20
-19.422213626817893
30
0
10
112.91240149140438
20
-19.894941269316977
30
0
10
111.17389516390418
20
-20
30
0
10
110.25
20
-20
30
0
0
LINE
5
134
100
AcDbEntity
8
0
100
AcDbLine
10
120.50000000000003
20
1.9999999999999996
30
0
11
116.49999999999999
21
2
31
0
0
LINE
5
135
100
AcDbEntity
8
0
100
AcDbLine
10
117.02232232927904
20
5.6117435319826381
30
0
11
123.97767767072096
21
4.3882564680173637
31
0
0
LINE
5
136
100
AcDbEntity
8
0
100
AcDbLine
10
125.97401191183316
20
2.9867523509095446
30
0
11
125.02598808816686
21
-2.9867523509095477
31
0
0
LINE
5
137
100
AcDbEntity
8
0
100
AcDbLine
10
100
20
0
30
0
11
79.5
21
0
31
0
0
LINE
5
138
100
AcDbEntity
8
0
100
AcDbLine
10
100
20
2
30
0
11
100
21
0
31
0
0
LINE
5
139
100
AcDbEntity
8
0
100
AcDbLine
10
100
20
0
30
0
11
120.5
21
0
31
0
0
LINE
5
140
100
AcDbEntity
8
0
100
AcDbLine
10
120.5
20
0
30
0
11
120.5
21
2
31
0
0
LINE
5
141
100
AcDbEntity
8
0
100
AcDbLine
10
118.5
20
2
30
0
11
120.50000000000003
21
1.9999999999999996
31
0
0
LINE
5
142
100
AcDbEntity
8
0
100
AcDbLine
10
79.5
20
0
30
0
11
79.5
21
5
31
0
0
LINE
5
143
100
AcDbEntity
8
0
100
AcDbLine
10
79.5
20
2
30
0
11
81.5
21
2
31
0
0
LINE
5
144
100
AcDbEntity
8
0
100
AcDbLine
10
89.75
20
-20
30
0
11
100
21
-20
31
0
0
LINE
5
145
100
AcDbEntity
8
0
100
AcDbLine
10
100
20
-20
30
0
11
100
21
0
31
0
0
LINE
5
146
100
AcDbEntity
8
0
100
AcDbLine
10
100
20
-20
30
0
11
100
21
0
31
0
0
LINE
5
147
100
AcDbEntity
8
0
100
AcDbLine
10
79.5
20
0
30
0
11
79.5
21
2
31
0
0
LINE
5
148
100
AcDbEntity
8
0
100
AcDbLine
10
79.5
20
0
30
0
11
100
21
0
31
0
0
LINE
5
149
100
AcDbEntity
8
0
100
AcDbLine
10
79.5
20
0
30
0
11
74.5
21
0
31
0
0
LINE
5
150
100
AcDbEntity
8
0
100
AcDbLine
10
100
20
0
30
0
11
100
21
20
31
0
0
LINE
5
151
100
AcDbEntity
8
0
100
AcDbLine
10
100
20
0
30
0
11
79.5
21
0
31
0
0
LINE
5
152
100
AcDbEntity
8
0
100
AcDbLine
10
79.5
20
2
30
0
11
100
21
2
31
0
0
LINE
5
153
100
AcDbEntity
8
0
100
AcDbLine
10
110.25
20
-20
30
0
11
100
21
-20
31
0
0
LINE
5
154
100
AcDbEntity
8
0
100
AcDbLine
10
89.75
20
0
30
0
11
89.75
21
-20
31
0
0
LINE
5
155
100
AcDbEntity
8
0
100
AcDbLine
10
100
20
-10
30
0
11
87.5
21
-10.000000000000044
31
0
0
LINE
5
156
100
AcDbEntity
8
0
100
AcDbLine
10
81.5
20
2
30
0
11
79.499999999999972
21
1.9999999999999996
31
0
0
LINE
5
157
100
AcDbEntity
8
0
100
AcDbLine
10
85.756837923162337
20
-19.999999999999993
30
0
11
93.743162076837621
21
-20
31
0
0
LINE
5
158
100
AcDbEntity
8
0
100
AcDbLine
10
114.24316207683766
20
-19.999999999999993
30
0
11
106.25683792316238
21
-20
31
0
0
CIRCLE
5
159
100
AcDbEntity
8
0
100
AcDbCircle
10
90.97163524946744
20
-9.9999999999999805
30
0
40
9
0
CIRCLE
5
160
100
AcDbEntity
8
0
100
AcDbCircle
10
109.02836475053256
20
-9.9999999999999787
30
0
40
9
0
LWPOLYLINE
5
161
100
AcDbEntity
8
0
100
AcDbPolyline
90
2
70
1
43
0.0
10
98.454950023015328
20
-5
10
101.54504997698467
20
-5
42
-0.47326094144755854
0
ARC
5
162
100
AcDbEntity
8
0
100
AcDbCircle
10
100.00000000000006
20
-16.266738794548544
30
0
40
1.9979506012398327
100
AcDbArc
50
39.347269095739271
51
140.65273090426223
0
ENDSEC
0
SECTION
2
OBJECTS
0
DICTIONARY
5
C
100
AcDbDictionary
3
ACAD_GROUP
350
D
3
ACAD_MLINESTYLE
350
17
0
DICTIONARY
5
D
100
AcDbDictionary
0
DICTIONARY
5
1A
330
C
100
AcDbDictionary
0
DICTIONARY
5
17
100
AcDbDictionary
0
ENDSEC
0
EOF
