%
M48
M72
T01C0.0150
T02C0.0236
T03C0.0276
T04C0.0315
T05C0.0354
T06C0.0394
T07C0.0400
T08C0.0420
T09C0.0984
%
T01
X16566Y2935
X6803Y6320
X6015Y7423
X8220Y8604
X5779Y9706
X8220Y10494
X13181Y9549
T02
X15385Y3191
X15385Y3702
X15385Y4214
X15385Y4726
T03
X10921Y6250
X11921Y6250
X11893Y9604
X10893Y9604
X8499Y12754
X7499Y12754
X26641Y3092
X25641Y3092
T04
X9799Y3675
X10783Y3675
X11767Y3675
T05
X13901Y6171
X16901Y6171
X18220Y6108
X21220Y6108
X24224Y8742
X23082Y9545
X22003Y10309
X24224Y11742
X23082Y12545
X22003Y13309
X13114Y13754
X13114Y12360
X10114Y12360
X10114Y13754
X9409Y10584
X9409Y7584
X36488Y10651
X36488Y13651
T06
X33559Y5061
X34559Y6061
X33559Y7061
T07
X18042Y3147
X20602Y3147
X20602Y4927
X18042Y4927
X27186Y5517
X27286Y6517
X27186Y7517
X27286Y8517
X27186Y9517
X27286Y10517
X27186Y11517
X27286Y12517
X26814Y14727
X27814Y14827
X25814Y14827
X24814Y14727
X23814Y14827
X37129Y8344
X37129Y7344
X37129Y6344
T08
X7822Y4273
X7822Y5773
X38216Y11679
X38216Y13179
T09
X7039Y1281
X38929Y1281
X38929Y16242
X7039Y16242
M30
