G75*
%MOIN*%
%OFA0B0*%
%FSLAX25Y25*%
%IPPOS*%
%LPD*%
%AMOC8*
5,1,8,0,0,1.08239X$1,22.5*
%
%ADD10C,0.00000*%
%ADD11C,0.00600*%
%ADD12C,0.00800*%
%ADD13C,0.00100*%
D10*
X0077595Y0001256D02*
X0396296Y0001256D01*
X0396296Y0136256D01*
X0077595Y0136256D01*
X0067595Y0092717D01*
X0032595Y0092717D01*
X0032595Y0045256D01*
X0067595Y0045256D01*
X0077595Y0001256D01*
D11*
X0138963Y0071556D02*
X0137895Y0072623D01*
X0138963Y0071556D02*
X0141098Y0071556D01*
X0142165Y0072623D01*
X0142165Y0073691D01*
X0141098Y0074759D01*
X0138963Y0074759D01*
X0137895Y0075826D01*
X0137895Y0076894D01*
X0138963Y0077961D01*
X0141098Y0077961D01*
X0142165Y0076894D01*
X0144341Y0076894D02*
X0144341Y0075826D01*
X0145408Y0074759D01*
X0147543Y0074759D01*
X0148611Y0073691D01*
X0148611Y0072623D01*
X0147543Y0071556D01*
X0145408Y0071556D01*
X0144341Y0072623D01*
X0150786Y0075826D02*
X0152921Y0071556D01*
X0155056Y0075826D01*
X0157232Y0075826D02*
X0159367Y0077961D01*
X0159367Y0071556D01*
X0157232Y0071556D02*
X0161502Y0071556D01*
X0148611Y0076894D02*
X0147543Y0077961D01*
X0145408Y0077961D01*
X0144341Y0076894D01*
D12*
X0086453Y0080370D02*
X0068737Y0080370D01*
X0068737Y0072693D01*
X0070705Y0072693D01*
X0070705Y0064819D01*
X0068737Y0064819D01*
X0068737Y0057142D01*
X0086453Y0057142D01*
X0086453Y0080370D01*
D13*
X0089456Y0070335D02*
X0090957Y0070335D01*
X0090957Y0070835D02*
X0090957Y0069834D01*
X0090457Y0069362D02*
X0089456Y0069362D01*
X0090207Y0069362D02*
X0090207Y0068361D01*
X0090457Y0068361D02*
X0090957Y0068862D01*
X0090457Y0069362D01*
X0090457Y0068361D02*
X0089456Y0068361D01*
X0089706Y0067889D02*
X0089456Y0067639D01*
X0089456Y0066888D01*
X0090957Y0066888D01*
X0090957Y0067639D01*
X0090707Y0067889D01*
X0090457Y0067889D01*
X0090207Y0067639D01*
X0090207Y0066888D01*
X0090207Y0066415D02*
X0090207Y0065415D01*
X0090457Y0064942D02*
X0090707Y0064942D01*
X0090957Y0064692D01*
X0090957Y0064192D01*
X0090707Y0063941D01*
X0090707Y0063469D02*
X0090207Y0063469D01*
X0089957Y0063219D01*
X0089957Y0062468D01*
X0089456Y0062468D02*
X0090957Y0062468D01*
X0090957Y0063219D01*
X0090707Y0063469D01*
X0089456Y0063941D02*
X0090457Y0064942D01*
X0089456Y0064942D02*
X0089456Y0063941D01*
X0090957Y0061996D02*
X0090957Y0061495D01*
X0090957Y0061746D02*
X0089706Y0061746D01*
X0089456Y0061495D01*
X0089456Y0061245D01*
X0089706Y0060995D01*
X0090207Y0067639D02*
X0089957Y0067889D01*
X0089706Y0067889D01*
M02*
