G75*
%MOIN*%
%OFA0B0*%
%FSLAX25Y25*%
%IPPOS*%
%LPD*%
%AMOC8*
5,1,8,0,0,1.08239X$1,22.5*
%
%ADD10C,0.00000*%
%ADD11C,0.00600*%
%ADD12C,0.00400*%
%ADD13C,0.00800*%
%ADD14C,0.00500*%
%ADD15R,0.04000X0.40000*%
%ADD16C,0.00100*%
D10*
X0061333Y0001000D02*
X0082199Y0001000D01*
X0082199Y0012811D01*
X0094010Y0012811D01*
X0094010Y0001000D01*
X0212121Y0001000D01*
X0212121Y0012811D01*
X0223932Y0012811D01*
X0223932Y0001000D01*
X0365664Y0001000D01*
X0365664Y0012811D01*
X0377475Y0012811D01*
X0377475Y0001000D01*
X0405034Y0001000D01*
X0405034Y0174228D01*
X0377475Y0174228D01*
X0377475Y0162417D01*
X0365664Y0162417D01*
X0365664Y0174228D01*
X0223932Y0174228D01*
X0223932Y0162417D01*
X0212121Y0162417D01*
X0212121Y0174228D01*
X0094010Y0174228D01*
X0094010Y0162417D01*
X0082199Y0162417D01*
X0082199Y0174228D01*
X0061333Y0174228D01*
X0050703Y0111236D01*
X0011333Y0111236D01*
X0011333Y0063992D01*
X0050703Y0063992D01*
X0061333Y0001000D01*
X0065467Y0012811D02*
X0065469Y0012951D01*
X0065475Y0013091D01*
X0065485Y0013230D01*
X0065499Y0013369D01*
X0065517Y0013508D01*
X0065538Y0013646D01*
X0065564Y0013784D01*
X0065594Y0013921D01*
X0065627Y0014056D01*
X0065665Y0014191D01*
X0065706Y0014325D01*
X0065751Y0014458D01*
X0065799Y0014589D01*
X0065852Y0014718D01*
X0065908Y0014847D01*
X0065967Y0014973D01*
X0066031Y0015098D01*
X0066097Y0015221D01*
X0066168Y0015342D01*
X0066241Y0015461D01*
X0066318Y0015578D01*
X0066399Y0015692D01*
X0066482Y0015804D01*
X0066569Y0015914D01*
X0066659Y0016022D01*
X0066751Y0016126D01*
X0066847Y0016228D01*
X0066946Y0016328D01*
X0067047Y0016424D01*
X0067151Y0016518D01*
X0067258Y0016608D01*
X0067367Y0016695D01*
X0067479Y0016780D01*
X0067593Y0016861D01*
X0067709Y0016939D01*
X0067827Y0017013D01*
X0067948Y0017084D01*
X0068070Y0017152D01*
X0068195Y0017216D01*
X0068321Y0017277D01*
X0068448Y0017334D01*
X0068578Y0017387D01*
X0068709Y0017437D01*
X0068841Y0017482D01*
X0068974Y0017525D01*
X0069109Y0017563D01*
X0069244Y0017597D01*
X0069381Y0017628D01*
X0069518Y0017655D01*
X0069656Y0017677D01*
X0069795Y0017696D01*
X0069934Y0017711D01*
X0070073Y0017722D01*
X0070213Y0017729D01*
X0070353Y0017732D01*
X0070493Y0017731D01*
X0070633Y0017726D01*
X0070772Y0017717D01*
X0070912Y0017704D01*
X0071051Y0017687D01*
X0071189Y0017666D01*
X0071327Y0017642D01*
X0071464Y0017613D01*
X0071600Y0017581D01*
X0071735Y0017544D01*
X0071869Y0017504D01*
X0072002Y0017460D01*
X0072133Y0017412D01*
X0072263Y0017361D01*
X0072392Y0017306D01*
X0072519Y0017247D01*
X0072644Y0017184D01*
X0072767Y0017119D01*
X0072889Y0017049D01*
X0073008Y0016976D01*
X0073126Y0016900D01*
X0073241Y0016821D01*
X0073354Y0016738D01*
X0073464Y0016652D01*
X0073572Y0016563D01*
X0073677Y0016471D01*
X0073780Y0016376D01*
X0073880Y0016278D01*
X0073977Y0016178D01*
X0074071Y0016074D01*
X0074163Y0015968D01*
X0074251Y0015860D01*
X0074336Y0015749D01*
X0074418Y0015635D01*
X0074497Y0015519D01*
X0074572Y0015402D01*
X0074644Y0015282D01*
X0074712Y0015160D01*
X0074777Y0015036D01*
X0074839Y0014910D01*
X0074897Y0014783D01*
X0074951Y0014654D01*
X0075002Y0014523D01*
X0075048Y0014391D01*
X0075091Y0014258D01*
X0075131Y0014124D01*
X0075166Y0013989D01*
X0075198Y0013852D01*
X0075225Y0013715D01*
X0075249Y0013577D01*
X0075269Y0013439D01*
X0075285Y0013300D01*
X0075297Y0013160D01*
X0075305Y0013021D01*
X0075309Y0012881D01*
X0075309Y0012741D01*
X0075305Y0012601D01*
X0075297Y0012462D01*
X0075285Y0012322D01*
X0075269Y0012183D01*
X0075249Y0012045D01*
X0075225Y0011907D01*
X0075198Y0011770D01*
X0075166Y0011633D01*
X0075131Y0011498D01*
X0075091Y0011364D01*
X0075048Y0011231D01*
X0075002Y0011099D01*
X0074951Y0010968D01*
X0074897Y0010839D01*
X0074839Y0010712D01*
X0074777Y0010586D01*
X0074712Y0010462D01*
X0074644Y0010340D01*
X0074572Y0010220D01*
X0074497Y0010103D01*
X0074418Y0009987D01*
X0074336Y0009873D01*
X0074251Y0009762D01*
X0074163Y0009654D01*
X0074071Y0009548D01*
X0073977Y0009444D01*
X0073880Y0009344D01*
X0073780Y0009246D01*
X0073677Y0009151D01*
X0073572Y0009059D01*
X0073464Y0008970D01*
X0073354Y0008884D01*
X0073241Y0008801D01*
X0073126Y0008722D01*
X0073008Y0008646D01*
X0072889Y0008573D01*
X0072767Y0008503D01*
X0072644Y0008438D01*
X0072519Y0008375D01*
X0072392Y0008316D01*
X0072263Y0008261D01*
X0072133Y0008210D01*
X0072002Y0008162D01*
X0071869Y0008118D01*
X0071735Y0008078D01*
X0071600Y0008041D01*
X0071464Y0008009D01*
X0071327Y0007980D01*
X0071189Y0007956D01*
X0071051Y0007935D01*
X0070912Y0007918D01*
X0070772Y0007905D01*
X0070633Y0007896D01*
X0070493Y0007891D01*
X0070353Y0007890D01*
X0070213Y0007893D01*
X0070073Y0007900D01*
X0069934Y0007911D01*
X0069795Y0007926D01*
X0069656Y0007945D01*
X0069518Y0007967D01*
X0069381Y0007994D01*
X0069244Y0008025D01*
X0069109Y0008059D01*
X0068974Y0008097D01*
X0068841Y0008140D01*
X0068709Y0008185D01*
X0068578Y0008235D01*
X0068448Y0008288D01*
X0068321Y0008345D01*
X0068195Y0008406D01*
X0068070Y0008470D01*
X0067948Y0008538D01*
X0067827Y0008609D01*
X0067709Y0008683D01*
X0067593Y0008761D01*
X0067479Y0008842D01*
X0067367Y0008927D01*
X0067258Y0009014D01*
X0067151Y0009104D01*
X0067047Y0009198D01*
X0066946Y0009294D01*
X0066847Y0009394D01*
X0066751Y0009496D01*
X0066659Y0009600D01*
X0066569Y0009708D01*
X0066482Y0009818D01*
X0066399Y0009930D01*
X0066318Y0010044D01*
X0066241Y0010161D01*
X0066168Y0010280D01*
X0066097Y0010401D01*
X0066031Y0010524D01*
X0065967Y0010649D01*
X0065908Y0010775D01*
X0065852Y0010904D01*
X0065799Y0011033D01*
X0065751Y0011164D01*
X0065706Y0011297D01*
X0065665Y0011431D01*
X0065627Y0011566D01*
X0065594Y0011701D01*
X0065564Y0011838D01*
X0065538Y0011976D01*
X0065517Y0012114D01*
X0065499Y0012253D01*
X0065485Y0012392D01*
X0065475Y0012531D01*
X0065469Y0012671D01*
X0065467Y0012811D01*
X0333616Y0050606D02*
X0333618Y0050694D01*
X0333624Y0050782D01*
X0333634Y0050870D01*
X0333648Y0050958D01*
X0333665Y0051044D01*
X0333687Y0051130D01*
X0333712Y0051214D01*
X0333742Y0051298D01*
X0333774Y0051380D01*
X0333811Y0051460D01*
X0333851Y0051539D01*
X0333895Y0051616D01*
X0333942Y0051691D01*
X0333992Y0051763D01*
X0334046Y0051834D01*
X0334102Y0051901D01*
X0334162Y0051967D01*
X0334224Y0052029D01*
X0334290Y0052089D01*
X0334357Y0052145D01*
X0334428Y0052199D01*
X0334500Y0052249D01*
X0334575Y0052296D01*
X0334652Y0052340D01*
X0334731Y0052380D01*
X0334811Y0052417D01*
X0334893Y0052449D01*
X0334977Y0052479D01*
X0335061Y0052504D01*
X0335147Y0052526D01*
X0335233Y0052543D01*
X0335321Y0052557D01*
X0335409Y0052567D01*
X0335497Y0052573D01*
X0335585Y0052575D01*
X0335673Y0052573D01*
X0335761Y0052567D01*
X0335849Y0052557D01*
X0335937Y0052543D01*
X0336023Y0052526D01*
X0336109Y0052504D01*
X0336193Y0052479D01*
X0336277Y0052449D01*
X0336359Y0052417D01*
X0336439Y0052380D01*
X0336518Y0052340D01*
X0336595Y0052296D01*
X0336670Y0052249D01*
X0336742Y0052199D01*
X0336813Y0052145D01*
X0336880Y0052089D01*
X0336946Y0052029D01*
X0337008Y0051967D01*
X0337068Y0051901D01*
X0337124Y0051834D01*
X0337178Y0051763D01*
X0337228Y0051691D01*
X0337275Y0051616D01*
X0337319Y0051539D01*
X0337359Y0051460D01*
X0337396Y0051380D01*
X0337428Y0051298D01*
X0337458Y0051214D01*
X0337483Y0051130D01*
X0337505Y0051044D01*
X0337522Y0050958D01*
X0337536Y0050870D01*
X0337546Y0050782D01*
X0337552Y0050694D01*
X0337554Y0050606D01*
X0337552Y0050518D01*
X0337546Y0050430D01*
X0337536Y0050342D01*
X0337522Y0050254D01*
X0337505Y0050168D01*
X0337483Y0050082D01*
X0337458Y0049998D01*
X0337428Y0049914D01*
X0337396Y0049832D01*
X0337359Y0049752D01*
X0337319Y0049673D01*
X0337275Y0049596D01*
X0337228Y0049521D01*
X0337178Y0049449D01*
X0337124Y0049378D01*
X0337068Y0049311D01*
X0337008Y0049245D01*
X0336946Y0049183D01*
X0336880Y0049123D01*
X0336813Y0049067D01*
X0336742Y0049013D01*
X0336670Y0048963D01*
X0336595Y0048916D01*
X0336518Y0048872D01*
X0336439Y0048832D01*
X0336359Y0048795D01*
X0336277Y0048763D01*
X0336193Y0048733D01*
X0336109Y0048708D01*
X0336023Y0048686D01*
X0335937Y0048669D01*
X0335849Y0048655D01*
X0335761Y0048645D01*
X0335673Y0048639D01*
X0335585Y0048637D01*
X0335497Y0048639D01*
X0335409Y0048645D01*
X0335321Y0048655D01*
X0335233Y0048669D01*
X0335147Y0048686D01*
X0335061Y0048708D01*
X0334977Y0048733D01*
X0334893Y0048763D01*
X0334811Y0048795D01*
X0334731Y0048832D01*
X0334652Y0048872D01*
X0334575Y0048916D01*
X0334500Y0048963D01*
X0334428Y0049013D01*
X0334357Y0049067D01*
X0334290Y0049123D01*
X0334224Y0049183D01*
X0334162Y0049245D01*
X0334102Y0049311D01*
X0334046Y0049378D01*
X0333992Y0049449D01*
X0333942Y0049521D01*
X0333895Y0049596D01*
X0333851Y0049673D01*
X0333811Y0049752D01*
X0333774Y0049832D01*
X0333742Y0049914D01*
X0333712Y0049998D01*
X0333687Y0050082D01*
X0333665Y0050168D01*
X0333648Y0050254D01*
X0333634Y0050342D01*
X0333624Y0050430D01*
X0333618Y0050518D01*
X0333616Y0050606D01*
X0343616Y0060606D02*
X0343618Y0060694D01*
X0343624Y0060782D01*
X0343634Y0060870D01*
X0343648Y0060958D01*
X0343665Y0061044D01*
X0343687Y0061130D01*
X0343712Y0061214D01*
X0343742Y0061298D01*
X0343774Y0061380D01*
X0343811Y0061460D01*
X0343851Y0061539D01*
X0343895Y0061616D01*
X0343942Y0061691D01*
X0343992Y0061763D01*
X0344046Y0061834D01*
X0344102Y0061901D01*
X0344162Y0061967D01*
X0344224Y0062029D01*
X0344290Y0062089D01*
X0344357Y0062145D01*
X0344428Y0062199D01*
X0344500Y0062249D01*
X0344575Y0062296D01*
X0344652Y0062340D01*
X0344731Y0062380D01*
X0344811Y0062417D01*
X0344893Y0062449D01*
X0344977Y0062479D01*
X0345061Y0062504D01*
X0345147Y0062526D01*
X0345233Y0062543D01*
X0345321Y0062557D01*
X0345409Y0062567D01*
X0345497Y0062573D01*
X0345585Y0062575D01*
X0345673Y0062573D01*
X0345761Y0062567D01*
X0345849Y0062557D01*
X0345937Y0062543D01*
X0346023Y0062526D01*
X0346109Y0062504D01*
X0346193Y0062479D01*
X0346277Y0062449D01*
X0346359Y0062417D01*
X0346439Y0062380D01*
X0346518Y0062340D01*
X0346595Y0062296D01*
X0346670Y0062249D01*
X0346742Y0062199D01*
X0346813Y0062145D01*
X0346880Y0062089D01*
X0346946Y0062029D01*
X0347008Y0061967D01*
X0347068Y0061901D01*
X0347124Y0061834D01*
X0347178Y0061763D01*
X0347228Y0061691D01*
X0347275Y0061616D01*
X0347319Y0061539D01*
X0347359Y0061460D01*
X0347396Y0061380D01*
X0347428Y0061298D01*
X0347458Y0061214D01*
X0347483Y0061130D01*
X0347505Y0061044D01*
X0347522Y0060958D01*
X0347536Y0060870D01*
X0347546Y0060782D01*
X0347552Y0060694D01*
X0347554Y0060606D01*
X0347552Y0060518D01*
X0347546Y0060430D01*
X0347536Y0060342D01*
X0347522Y0060254D01*
X0347505Y0060168D01*
X0347483Y0060082D01*
X0347458Y0059998D01*
X0347428Y0059914D01*
X0347396Y0059832D01*
X0347359Y0059752D01*
X0347319Y0059673D01*
X0347275Y0059596D01*
X0347228Y0059521D01*
X0347178Y0059449D01*
X0347124Y0059378D01*
X0347068Y0059311D01*
X0347008Y0059245D01*
X0346946Y0059183D01*
X0346880Y0059123D01*
X0346813Y0059067D01*
X0346742Y0059013D01*
X0346670Y0058963D01*
X0346595Y0058916D01*
X0346518Y0058872D01*
X0346439Y0058832D01*
X0346359Y0058795D01*
X0346277Y0058763D01*
X0346193Y0058733D01*
X0346109Y0058708D01*
X0346023Y0058686D01*
X0345937Y0058669D01*
X0345849Y0058655D01*
X0345761Y0058645D01*
X0345673Y0058639D01*
X0345585Y0058637D01*
X0345497Y0058639D01*
X0345409Y0058645D01*
X0345321Y0058655D01*
X0345233Y0058669D01*
X0345147Y0058686D01*
X0345061Y0058708D01*
X0344977Y0058733D01*
X0344893Y0058763D01*
X0344811Y0058795D01*
X0344731Y0058832D01*
X0344652Y0058872D01*
X0344575Y0058916D01*
X0344500Y0058963D01*
X0344428Y0059013D01*
X0344357Y0059067D01*
X0344290Y0059123D01*
X0344224Y0059183D01*
X0344162Y0059245D01*
X0344102Y0059311D01*
X0344046Y0059378D01*
X0343992Y0059449D01*
X0343942Y0059521D01*
X0343895Y0059596D01*
X0343851Y0059673D01*
X0343811Y0059752D01*
X0343774Y0059832D01*
X0343742Y0059914D01*
X0343712Y0059998D01*
X0343687Y0060082D01*
X0343665Y0060168D01*
X0343648Y0060254D01*
X0343634Y0060342D01*
X0343624Y0060430D01*
X0343618Y0060518D01*
X0343616Y0060606D01*
X0333616Y0070606D02*
X0333618Y0070694D01*
X0333624Y0070782D01*
X0333634Y0070870D01*
X0333648Y0070958D01*
X0333665Y0071044D01*
X0333687Y0071130D01*
X0333712Y0071214D01*
X0333742Y0071298D01*
X0333774Y0071380D01*
X0333811Y0071460D01*
X0333851Y0071539D01*
X0333895Y0071616D01*
X0333942Y0071691D01*
X0333992Y0071763D01*
X0334046Y0071834D01*
X0334102Y0071901D01*
X0334162Y0071967D01*
X0334224Y0072029D01*
X0334290Y0072089D01*
X0334357Y0072145D01*
X0334428Y0072199D01*
X0334500Y0072249D01*
X0334575Y0072296D01*
X0334652Y0072340D01*
X0334731Y0072380D01*
X0334811Y0072417D01*
X0334893Y0072449D01*
X0334977Y0072479D01*
X0335061Y0072504D01*
X0335147Y0072526D01*
X0335233Y0072543D01*
X0335321Y0072557D01*
X0335409Y0072567D01*
X0335497Y0072573D01*
X0335585Y0072575D01*
X0335673Y0072573D01*
X0335761Y0072567D01*
X0335849Y0072557D01*
X0335937Y0072543D01*
X0336023Y0072526D01*
X0336109Y0072504D01*
X0336193Y0072479D01*
X0336277Y0072449D01*
X0336359Y0072417D01*
X0336439Y0072380D01*
X0336518Y0072340D01*
X0336595Y0072296D01*
X0336670Y0072249D01*
X0336742Y0072199D01*
X0336813Y0072145D01*
X0336880Y0072089D01*
X0336946Y0072029D01*
X0337008Y0071967D01*
X0337068Y0071901D01*
X0337124Y0071834D01*
X0337178Y0071763D01*
X0337228Y0071691D01*
X0337275Y0071616D01*
X0337319Y0071539D01*
X0337359Y0071460D01*
X0337396Y0071380D01*
X0337428Y0071298D01*
X0337458Y0071214D01*
X0337483Y0071130D01*
X0337505Y0071044D01*
X0337522Y0070958D01*
X0337536Y0070870D01*
X0337546Y0070782D01*
X0337552Y0070694D01*
X0337554Y0070606D01*
X0337552Y0070518D01*
X0337546Y0070430D01*
X0337536Y0070342D01*
X0337522Y0070254D01*
X0337505Y0070168D01*
X0337483Y0070082D01*
X0337458Y0069998D01*
X0337428Y0069914D01*
X0337396Y0069832D01*
X0337359Y0069752D01*
X0337319Y0069673D01*
X0337275Y0069596D01*
X0337228Y0069521D01*
X0337178Y0069449D01*
X0337124Y0069378D01*
X0337068Y0069311D01*
X0337008Y0069245D01*
X0336946Y0069183D01*
X0336880Y0069123D01*
X0336813Y0069067D01*
X0336742Y0069013D01*
X0336670Y0068963D01*
X0336595Y0068916D01*
X0336518Y0068872D01*
X0336439Y0068832D01*
X0336359Y0068795D01*
X0336277Y0068763D01*
X0336193Y0068733D01*
X0336109Y0068708D01*
X0336023Y0068686D01*
X0335937Y0068669D01*
X0335849Y0068655D01*
X0335761Y0068645D01*
X0335673Y0068639D01*
X0335585Y0068637D01*
X0335497Y0068639D01*
X0335409Y0068645D01*
X0335321Y0068655D01*
X0335233Y0068669D01*
X0335147Y0068686D01*
X0335061Y0068708D01*
X0334977Y0068733D01*
X0334893Y0068763D01*
X0334811Y0068795D01*
X0334731Y0068832D01*
X0334652Y0068872D01*
X0334575Y0068916D01*
X0334500Y0068963D01*
X0334428Y0069013D01*
X0334357Y0069067D01*
X0334290Y0069123D01*
X0334224Y0069183D01*
X0334162Y0069245D01*
X0334102Y0069311D01*
X0334046Y0069378D01*
X0333992Y0069449D01*
X0333942Y0069521D01*
X0333895Y0069596D01*
X0333851Y0069673D01*
X0333811Y0069752D01*
X0333774Y0069832D01*
X0333742Y0069914D01*
X0333712Y0069998D01*
X0333687Y0070082D01*
X0333665Y0070168D01*
X0333648Y0070254D01*
X0333634Y0070342D01*
X0333624Y0070430D01*
X0333618Y0070518D01*
X0333616Y0070606D01*
X0384365Y0012811D02*
X0384367Y0012951D01*
X0384373Y0013091D01*
X0384383Y0013230D01*
X0384397Y0013369D01*
X0384415Y0013508D01*
X0384436Y0013646D01*
X0384462Y0013784D01*
X0384492Y0013921D01*
X0384525Y0014056D01*
X0384563Y0014191D01*
X0384604Y0014325D01*
X0384649Y0014458D01*
X0384697Y0014589D01*
X0384750Y0014718D01*
X0384806Y0014847D01*
X0384865Y0014973D01*
X0384929Y0015098D01*
X0384995Y0015221D01*
X0385066Y0015342D01*
X0385139Y0015461D01*
X0385216Y0015578D01*
X0385297Y0015692D01*
X0385380Y0015804D01*
X0385467Y0015914D01*
X0385557Y0016022D01*
X0385649Y0016126D01*
X0385745Y0016228D01*
X0385844Y0016328D01*
X0385945Y0016424D01*
X0386049Y0016518D01*
X0386156Y0016608D01*
X0386265Y0016695D01*
X0386377Y0016780D01*
X0386491Y0016861D01*
X0386607Y0016939D01*
X0386725Y0017013D01*
X0386846Y0017084D01*
X0386968Y0017152D01*
X0387093Y0017216D01*
X0387219Y0017277D01*
X0387346Y0017334D01*
X0387476Y0017387D01*
X0387607Y0017437D01*
X0387739Y0017482D01*
X0387872Y0017525D01*
X0388007Y0017563D01*
X0388142Y0017597D01*
X0388279Y0017628D01*
X0388416Y0017655D01*
X0388554Y0017677D01*
X0388693Y0017696D01*
X0388832Y0017711D01*
X0388971Y0017722D01*
X0389111Y0017729D01*
X0389251Y0017732D01*
X0389391Y0017731D01*
X0389531Y0017726D01*
X0389670Y0017717D01*
X0389810Y0017704D01*
X0389949Y0017687D01*
X0390087Y0017666D01*
X0390225Y0017642D01*
X0390362Y0017613D01*
X0390498Y0017581D01*
X0390633Y0017544D01*
X0390767Y0017504D01*
X0390900Y0017460D01*
X0391031Y0017412D01*
X0391161Y0017361D01*
X0391290Y0017306D01*
X0391417Y0017247D01*
X0391542Y0017184D01*
X0391665Y0017119D01*
X0391787Y0017049D01*
X0391906Y0016976D01*
X0392024Y0016900D01*
X0392139Y0016821D01*
X0392252Y0016738D01*
X0392362Y0016652D01*
X0392470Y0016563D01*
X0392575Y0016471D01*
X0392678Y0016376D01*
X0392778Y0016278D01*
X0392875Y0016178D01*
X0392969Y0016074D01*
X0393061Y0015968D01*
X0393149Y0015860D01*
X0393234Y0015749D01*
X0393316Y0015635D01*
X0393395Y0015519D01*
X0393470Y0015402D01*
X0393542Y0015282D01*
X0393610Y0015160D01*
X0393675Y0015036D01*
X0393737Y0014910D01*
X0393795Y0014783D01*
X0393849Y0014654D01*
X0393900Y0014523D01*
X0393946Y0014391D01*
X0393989Y0014258D01*
X0394029Y0014124D01*
X0394064Y0013989D01*
X0394096Y0013852D01*
X0394123Y0013715D01*
X0394147Y0013577D01*
X0394167Y0013439D01*
X0394183Y0013300D01*
X0394195Y0013160D01*
X0394203Y0013021D01*
X0394207Y0012881D01*
X0394207Y0012741D01*
X0394203Y0012601D01*
X0394195Y0012462D01*
X0394183Y0012322D01*
X0394167Y0012183D01*
X0394147Y0012045D01*
X0394123Y0011907D01*
X0394096Y0011770D01*
X0394064Y0011633D01*
X0394029Y0011498D01*
X0393989Y0011364D01*
X0393946Y0011231D01*
X0393900Y0011099D01*
X0393849Y0010968D01*
X0393795Y0010839D01*
X0393737Y0010712D01*
X0393675Y0010586D01*
X0393610Y0010462D01*
X0393542Y0010340D01*
X0393470Y0010220D01*
X0393395Y0010103D01*
X0393316Y0009987D01*
X0393234Y0009873D01*
X0393149Y0009762D01*
X0393061Y0009654D01*
X0392969Y0009548D01*
X0392875Y0009444D01*
X0392778Y0009344D01*
X0392678Y0009246D01*
X0392575Y0009151D01*
X0392470Y0009059D01*
X0392362Y0008970D01*
X0392252Y0008884D01*
X0392139Y0008801D01*
X0392024Y0008722D01*
X0391906Y0008646D01*
X0391787Y0008573D01*
X0391665Y0008503D01*
X0391542Y0008438D01*
X0391417Y0008375D01*
X0391290Y0008316D01*
X0391161Y0008261D01*
X0391031Y0008210D01*
X0390900Y0008162D01*
X0390767Y0008118D01*
X0390633Y0008078D01*
X0390498Y0008041D01*
X0390362Y0008009D01*
X0390225Y0007980D01*
X0390087Y0007956D01*
X0389949Y0007935D01*
X0389810Y0007918D01*
X0389670Y0007905D01*
X0389531Y0007896D01*
X0389391Y0007891D01*
X0389251Y0007890D01*
X0389111Y0007893D01*
X0388971Y0007900D01*
X0388832Y0007911D01*
X0388693Y0007926D01*
X0388554Y0007945D01*
X0388416Y0007967D01*
X0388279Y0007994D01*
X0388142Y0008025D01*
X0388007Y0008059D01*
X0387872Y0008097D01*
X0387739Y0008140D01*
X0387607Y0008185D01*
X0387476Y0008235D01*
X0387346Y0008288D01*
X0387219Y0008345D01*
X0387093Y0008406D01*
X0386968Y0008470D01*
X0386846Y0008538D01*
X0386725Y0008609D01*
X0386607Y0008683D01*
X0386491Y0008761D01*
X0386377Y0008842D01*
X0386265Y0008927D01*
X0386156Y0009014D01*
X0386049Y0009104D01*
X0385945Y0009198D01*
X0385844Y0009294D01*
X0385745Y0009394D01*
X0385649Y0009496D01*
X0385557Y0009600D01*
X0385467Y0009708D01*
X0385380Y0009818D01*
X0385297Y0009930D01*
X0385216Y0010044D01*
X0385139Y0010161D01*
X0385066Y0010280D01*
X0384995Y0010401D01*
X0384929Y0010524D01*
X0384865Y0010649D01*
X0384806Y0010775D01*
X0384750Y0010904D01*
X0384697Y0011033D01*
X0384649Y0011164D01*
X0384604Y0011297D01*
X0384563Y0011431D01*
X0384525Y0011566D01*
X0384492Y0011701D01*
X0384462Y0011838D01*
X0384436Y0011976D01*
X0384415Y0012114D01*
X0384397Y0012253D01*
X0384383Y0012392D01*
X0384373Y0012531D01*
X0384367Y0012671D01*
X0384365Y0012811D01*
X0384365Y0162417D02*
X0384367Y0162557D01*
X0384373Y0162697D01*
X0384383Y0162836D01*
X0384397Y0162975D01*
X0384415Y0163114D01*
X0384436Y0163252D01*
X0384462Y0163390D01*
X0384492Y0163527D01*
X0384525Y0163662D01*
X0384563Y0163797D01*
X0384604Y0163931D01*
X0384649Y0164064D01*
X0384697Y0164195D01*
X0384750Y0164324D01*
X0384806Y0164453D01*
X0384865Y0164579D01*
X0384929Y0164704D01*
X0384995Y0164827D01*
X0385066Y0164948D01*
X0385139Y0165067D01*
X0385216Y0165184D01*
X0385297Y0165298D01*
X0385380Y0165410D01*
X0385467Y0165520D01*
X0385557Y0165628D01*
X0385649Y0165732D01*
X0385745Y0165834D01*
X0385844Y0165934D01*
X0385945Y0166030D01*
X0386049Y0166124D01*
X0386156Y0166214D01*
X0386265Y0166301D01*
X0386377Y0166386D01*
X0386491Y0166467D01*
X0386607Y0166545D01*
X0386725Y0166619D01*
X0386846Y0166690D01*
X0386968Y0166758D01*
X0387093Y0166822D01*
X0387219Y0166883D01*
X0387346Y0166940D01*
X0387476Y0166993D01*
X0387607Y0167043D01*
X0387739Y0167088D01*
X0387872Y0167131D01*
X0388007Y0167169D01*
X0388142Y0167203D01*
X0388279Y0167234D01*
X0388416Y0167261D01*
X0388554Y0167283D01*
X0388693Y0167302D01*
X0388832Y0167317D01*
X0388971Y0167328D01*
X0389111Y0167335D01*
X0389251Y0167338D01*
X0389391Y0167337D01*
X0389531Y0167332D01*
X0389670Y0167323D01*
X0389810Y0167310D01*
X0389949Y0167293D01*
X0390087Y0167272D01*
X0390225Y0167248D01*
X0390362Y0167219D01*
X0390498Y0167187D01*
X0390633Y0167150D01*
X0390767Y0167110D01*
X0390900Y0167066D01*
X0391031Y0167018D01*
X0391161Y0166967D01*
X0391290Y0166912D01*
X0391417Y0166853D01*
X0391542Y0166790D01*
X0391665Y0166725D01*
X0391787Y0166655D01*
X0391906Y0166582D01*
X0392024Y0166506D01*
X0392139Y0166427D01*
X0392252Y0166344D01*
X0392362Y0166258D01*
X0392470Y0166169D01*
X0392575Y0166077D01*
X0392678Y0165982D01*
X0392778Y0165884D01*
X0392875Y0165784D01*
X0392969Y0165680D01*
X0393061Y0165574D01*
X0393149Y0165466D01*
X0393234Y0165355D01*
X0393316Y0165241D01*
X0393395Y0165125D01*
X0393470Y0165008D01*
X0393542Y0164888D01*
X0393610Y0164766D01*
X0393675Y0164642D01*
X0393737Y0164516D01*
X0393795Y0164389D01*
X0393849Y0164260D01*
X0393900Y0164129D01*
X0393946Y0163997D01*
X0393989Y0163864D01*
X0394029Y0163730D01*
X0394064Y0163595D01*
X0394096Y0163458D01*
X0394123Y0163321D01*
X0394147Y0163183D01*
X0394167Y0163045D01*
X0394183Y0162906D01*
X0394195Y0162766D01*
X0394203Y0162627D01*
X0394207Y0162487D01*
X0394207Y0162347D01*
X0394203Y0162207D01*
X0394195Y0162068D01*
X0394183Y0161928D01*
X0394167Y0161789D01*
X0394147Y0161651D01*
X0394123Y0161513D01*
X0394096Y0161376D01*
X0394064Y0161239D01*
X0394029Y0161104D01*
X0393989Y0160970D01*
X0393946Y0160837D01*
X0393900Y0160705D01*
X0393849Y0160574D01*
X0393795Y0160445D01*
X0393737Y0160318D01*
X0393675Y0160192D01*
X0393610Y0160068D01*
X0393542Y0159946D01*
X0393470Y0159826D01*
X0393395Y0159709D01*
X0393316Y0159593D01*
X0393234Y0159479D01*
X0393149Y0159368D01*
X0393061Y0159260D01*
X0392969Y0159154D01*
X0392875Y0159050D01*
X0392778Y0158950D01*
X0392678Y0158852D01*
X0392575Y0158757D01*
X0392470Y0158665D01*
X0392362Y0158576D01*
X0392252Y0158490D01*
X0392139Y0158407D01*
X0392024Y0158328D01*
X0391906Y0158252D01*
X0391787Y0158179D01*
X0391665Y0158109D01*
X0391542Y0158044D01*
X0391417Y0157981D01*
X0391290Y0157922D01*
X0391161Y0157867D01*
X0391031Y0157816D01*
X0390900Y0157768D01*
X0390767Y0157724D01*
X0390633Y0157684D01*
X0390498Y0157647D01*
X0390362Y0157615D01*
X0390225Y0157586D01*
X0390087Y0157562D01*
X0389949Y0157541D01*
X0389810Y0157524D01*
X0389670Y0157511D01*
X0389531Y0157502D01*
X0389391Y0157497D01*
X0389251Y0157496D01*
X0389111Y0157499D01*
X0388971Y0157506D01*
X0388832Y0157517D01*
X0388693Y0157532D01*
X0388554Y0157551D01*
X0388416Y0157573D01*
X0388279Y0157600D01*
X0388142Y0157631D01*
X0388007Y0157665D01*
X0387872Y0157703D01*
X0387739Y0157746D01*
X0387607Y0157791D01*
X0387476Y0157841D01*
X0387346Y0157894D01*
X0387219Y0157951D01*
X0387093Y0158012D01*
X0386968Y0158076D01*
X0386846Y0158144D01*
X0386725Y0158215D01*
X0386607Y0158289D01*
X0386491Y0158367D01*
X0386377Y0158448D01*
X0386265Y0158533D01*
X0386156Y0158620D01*
X0386049Y0158710D01*
X0385945Y0158804D01*
X0385844Y0158900D01*
X0385745Y0159000D01*
X0385649Y0159102D01*
X0385557Y0159206D01*
X0385467Y0159314D01*
X0385380Y0159424D01*
X0385297Y0159536D01*
X0385216Y0159650D01*
X0385139Y0159767D01*
X0385066Y0159886D01*
X0384995Y0160007D01*
X0384929Y0160130D01*
X0384865Y0160255D01*
X0384806Y0160381D01*
X0384750Y0160510D01*
X0384697Y0160639D01*
X0384649Y0160770D01*
X0384604Y0160903D01*
X0384563Y0161037D01*
X0384525Y0161172D01*
X0384492Y0161307D01*
X0384462Y0161444D01*
X0384436Y0161582D01*
X0384415Y0161720D01*
X0384397Y0161859D01*
X0384383Y0161998D01*
X0384373Y0162137D01*
X0384367Y0162277D01*
X0384365Y0162417D01*
X0065467Y0162417D02*
X0065469Y0162557D01*
X0065475Y0162697D01*
X0065485Y0162836D01*
X0065499Y0162975D01*
X0065517Y0163114D01*
X0065538Y0163252D01*
X0065564Y0163390D01*
X0065594Y0163527D01*
X0065627Y0163662D01*
X0065665Y0163797D01*
X0065706Y0163931D01*
X0065751Y0164064D01*
X0065799Y0164195D01*
X0065852Y0164324D01*
X0065908Y0164453D01*
X0065967Y0164579D01*
X0066031Y0164704D01*
X0066097Y0164827D01*
X0066168Y0164948D01*
X0066241Y0165067D01*
X0066318Y0165184D01*
X0066399Y0165298D01*
X0066482Y0165410D01*
X0066569Y0165520D01*
X0066659Y0165628D01*
X0066751Y0165732D01*
X0066847Y0165834D01*
X0066946Y0165934D01*
X0067047Y0166030D01*
X0067151Y0166124D01*
X0067258Y0166214D01*
X0067367Y0166301D01*
X0067479Y0166386D01*
X0067593Y0166467D01*
X0067709Y0166545D01*
X0067827Y0166619D01*
X0067948Y0166690D01*
X0068070Y0166758D01*
X0068195Y0166822D01*
X0068321Y0166883D01*
X0068448Y0166940D01*
X0068578Y0166993D01*
X0068709Y0167043D01*
X0068841Y0167088D01*
X0068974Y0167131D01*
X0069109Y0167169D01*
X0069244Y0167203D01*
X0069381Y0167234D01*
X0069518Y0167261D01*
X0069656Y0167283D01*
X0069795Y0167302D01*
X0069934Y0167317D01*
X0070073Y0167328D01*
X0070213Y0167335D01*
X0070353Y0167338D01*
X0070493Y0167337D01*
X0070633Y0167332D01*
X0070772Y0167323D01*
X0070912Y0167310D01*
X0071051Y0167293D01*
X0071189Y0167272D01*
X0071327Y0167248D01*
X0071464Y0167219D01*
X0071600Y0167187D01*
X0071735Y0167150D01*
X0071869Y0167110D01*
X0072002Y0167066D01*
X0072133Y0167018D01*
X0072263Y0166967D01*
X0072392Y0166912D01*
X0072519Y0166853D01*
X0072644Y0166790D01*
X0072767Y0166725D01*
X0072889Y0166655D01*
X0073008Y0166582D01*
X0073126Y0166506D01*
X0073241Y0166427D01*
X0073354Y0166344D01*
X0073464Y0166258D01*
X0073572Y0166169D01*
X0073677Y0166077D01*
X0073780Y0165982D01*
X0073880Y0165884D01*
X0073977Y0165784D01*
X0074071Y0165680D01*
X0074163Y0165574D01*
X0074251Y0165466D01*
X0074336Y0165355D01*
X0074418Y0165241D01*
X0074497Y0165125D01*
X0074572Y0165008D01*
X0074644Y0164888D01*
X0074712Y0164766D01*
X0074777Y0164642D01*
X0074839Y0164516D01*
X0074897Y0164389D01*
X0074951Y0164260D01*
X0075002Y0164129D01*
X0075048Y0163997D01*
X0075091Y0163864D01*
X0075131Y0163730D01*
X0075166Y0163595D01*
X0075198Y0163458D01*
X0075225Y0163321D01*
X0075249Y0163183D01*
X0075269Y0163045D01*
X0075285Y0162906D01*
X0075297Y0162766D01*
X0075305Y0162627D01*
X0075309Y0162487D01*
X0075309Y0162347D01*
X0075305Y0162207D01*
X0075297Y0162068D01*
X0075285Y0161928D01*
X0075269Y0161789D01*
X0075249Y0161651D01*
X0075225Y0161513D01*
X0075198Y0161376D01*
X0075166Y0161239D01*
X0075131Y0161104D01*
X0075091Y0160970D01*
X0075048Y0160837D01*
X0075002Y0160705D01*
X0074951Y0160574D01*
X0074897Y0160445D01*
X0074839Y0160318D01*
X0074777Y0160192D01*
X0074712Y0160068D01*
X0074644Y0159946D01*
X0074572Y0159826D01*
X0074497Y0159709D01*
X0074418Y0159593D01*
X0074336Y0159479D01*
X0074251Y0159368D01*
X0074163Y0159260D01*
X0074071Y0159154D01*
X0073977Y0159050D01*
X0073880Y0158950D01*
X0073780Y0158852D01*
X0073677Y0158757D01*
X0073572Y0158665D01*
X0073464Y0158576D01*
X0073354Y0158490D01*
X0073241Y0158407D01*
X0073126Y0158328D01*
X0073008Y0158252D01*
X0072889Y0158179D01*
X0072767Y0158109D01*
X0072644Y0158044D01*
X0072519Y0157981D01*
X0072392Y0157922D01*
X0072263Y0157867D01*
X0072133Y0157816D01*
X0072002Y0157768D01*
X0071869Y0157724D01*
X0071735Y0157684D01*
X0071600Y0157647D01*
X0071464Y0157615D01*
X0071327Y0157586D01*
X0071189Y0157562D01*
X0071051Y0157541D01*
X0070912Y0157524D01*
X0070772Y0157511D01*
X0070633Y0157502D01*
X0070493Y0157497D01*
X0070353Y0157496D01*
X0070213Y0157499D01*
X0070073Y0157506D01*
X0069934Y0157517D01*
X0069795Y0157532D01*
X0069656Y0157551D01*
X0069518Y0157573D01*
X0069381Y0157600D01*
X0069244Y0157631D01*
X0069109Y0157665D01*
X0068974Y0157703D01*
X0068841Y0157746D01*
X0068709Y0157791D01*
X0068578Y0157841D01*
X0068448Y0157894D01*
X0068321Y0157951D01*
X0068195Y0158012D01*
X0068070Y0158076D01*
X0067948Y0158144D01*
X0067827Y0158215D01*
X0067709Y0158289D01*
X0067593Y0158367D01*
X0067479Y0158448D01*
X0067367Y0158533D01*
X0067258Y0158620D01*
X0067151Y0158710D01*
X0067047Y0158804D01*
X0066946Y0158900D01*
X0066847Y0159000D01*
X0066751Y0159102D01*
X0066659Y0159206D01*
X0066569Y0159314D01*
X0066482Y0159424D01*
X0066399Y0159536D01*
X0066318Y0159650D01*
X0066241Y0159767D01*
X0066168Y0159886D01*
X0066097Y0160007D01*
X0066031Y0160130D01*
X0065967Y0160255D01*
X0065908Y0160381D01*
X0065852Y0160510D01*
X0065799Y0160639D01*
X0065751Y0160770D01*
X0065706Y0160903D01*
X0065665Y0161037D01*
X0065627Y0161172D01*
X0065594Y0161307D01*
X0065564Y0161444D01*
X0065538Y0161582D01*
X0065517Y0161720D01*
X0065499Y0161859D01*
X0065485Y0161998D01*
X0065475Y0162137D01*
X0065469Y0162277D01*
X0065467Y0162417D01*
D11*
X0216268Y0071644D02*
X0217335Y0072711D01*
X0219470Y0072711D01*
X0220538Y0071644D01*
X0222713Y0071644D02*
X0222713Y0070576D01*
X0223781Y0069509D01*
X0225916Y0069509D01*
X0226983Y0068441D01*
X0226983Y0067373D01*
X0225916Y0066306D01*
X0223781Y0066306D01*
X0222713Y0067373D01*
X0220538Y0067373D02*
X0219470Y0066306D01*
X0217335Y0066306D01*
X0216268Y0067373D01*
X0217335Y0069509D02*
X0219470Y0069509D01*
X0220538Y0068441D01*
X0220538Y0067373D01*
X0217335Y0069509D02*
X0216268Y0070576D01*
X0216268Y0071644D01*
X0222713Y0071644D02*
X0223781Y0072711D01*
X0225916Y0072711D01*
X0226983Y0071644D01*
X0229159Y0070576D02*
X0231294Y0066306D01*
X0233429Y0070576D01*
X0235604Y0071644D02*
X0236672Y0072711D01*
X0238807Y0072711D01*
X0239874Y0071644D01*
X0239874Y0070576D01*
X0235604Y0066306D01*
X0239874Y0066306D01*
X0242050Y0067373D02*
X0243117Y0066306D01*
X0246320Y0066306D01*
X0242050Y0067373D02*
X0242050Y0069509D01*
X0243117Y0070576D01*
X0246320Y0070576D01*
X0231300Y0063279D02*
X0231300Y0062211D01*
X0231300Y0060076D02*
X0231300Y0055806D01*
X0230233Y0055806D02*
X0232368Y0055806D01*
X0234530Y0055806D02*
X0238800Y0055806D01*
X0234530Y0055806D02*
X0234530Y0062211D01*
X0231300Y0060076D02*
X0230233Y0060076D01*
X0223787Y0062211D02*
X0223787Y0055806D01*
X0228058Y0055806D01*
X0231300Y0052779D02*
X0231300Y0051711D01*
X0231300Y0049576D02*
X0231300Y0045306D01*
X0230233Y0045306D02*
X0232368Y0045306D01*
X0234530Y0045306D02*
X0234530Y0051711D01*
X0237733Y0051711D01*
X0238800Y0050644D01*
X0238800Y0048509D01*
X0237733Y0047441D01*
X0234530Y0047441D01*
X0231300Y0049576D02*
X0230233Y0049576D01*
X0228058Y0051711D02*
X0228058Y0045306D01*
X0223787Y0045306D02*
X0223787Y0051711D01*
X0225923Y0049576D01*
X0228058Y0051711D01*
X0226983Y0041211D02*
X0226983Y0034806D01*
X0229159Y0035873D02*
X0230226Y0036941D01*
X0233429Y0036941D01*
X0233429Y0038009D02*
X0233429Y0034806D01*
X0230226Y0034806D01*
X0229159Y0035873D01*
X0232361Y0039076D02*
X0233429Y0038009D01*
X0232361Y0039076D02*
X0230226Y0039076D01*
X0226983Y0041211D02*
X0224848Y0039076D01*
X0222713Y0041211D01*
X0222713Y0034806D01*
X0235604Y0034806D02*
X0235604Y0041211D01*
X0238807Y0041211D01*
X0239874Y0040144D01*
X0239874Y0038009D01*
X0238807Y0036941D01*
X0235604Y0036941D01*
D12*
X0249689Y0024927D02*
X0251223Y0026461D01*
X0251223Y0021857D01*
X0249689Y0021857D02*
X0252758Y0021857D01*
X0254293Y0022625D02*
X0257362Y0025694D01*
X0257362Y0022625D01*
X0256595Y0021857D01*
X0255060Y0021857D01*
X0254293Y0022625D01*
X0254293Y0025694D01*
X0255060Y0026461D01*
X0256595Y0026461D01*
X0257362Y0025694D01*
X0258897Y0025694D02*
X0259664Y0026461D01*
X0261199Y0026461D01*
X0261966Y0025694D01*
X0258897Y0022625D01*
X0259664Y0021857D01*
X0261199Y0021857D01*
X0261966Y0022625D01*
X0261966Y0025694D01*
X0263501Y0024927D02*
X0263501Y0022625D01*
X0264268Y0021857D01*
X0266570Y0021857D01*
X0266570Y0024927D01*
X0268105Y0024159D02*
X0269639Y0024159D01*
X0268105Y0021857D02*
X0268105Y0026461D01*
X0271174Y0026461D01*
X0258897Y0025694D02*
X0258897Y0022625D01*
X0294512Y0043542D02*
X0296046Y0042007D01*
X0297581Y0043542D01*
X0297581Y0046611D01*
X0299116Y0045844D02*
X0299116Y0042774D01*
X0299883Y0042007D01*
X0301418Y0042007D01*
X0302185Y0042774D01*
X0302185Y0045844D01*
X0301418Y0046611D01*
X0299883Y0046611D01*
X0299116Y0045844D01*
X0303720Y0046611D02*
X0303720Y0042774D01*
X0304487Y0042007D01*
X0306021Y0042007D01*
X0306789Y0042774D01*
X0306789Y0046611D01*
X0308323Y0046611D02*
X0311393Y0046611D01*
X0309858Y0046611D02*
X0309858Y0042007D01*
X0314462Y0042774D02*
X0314462Y0045844D01*
X0312927Y0044309D02*
X0315997Y0044309D01*
X0294512Y0043542D02*
X0294512Y0046611D01*
X0264936Y0053031D02*
X0261867Y0053031D01*
X0261867Y0057635D01*
X0260332Y0056867D02*
X0259565Y0057635D01*
X0258030Y0057635D01*
X0257263Y0056867D01*
X0257263Y0053798D01*
X0258030Y0053031D01*
X0259565Y0053031D01*
X0260332Y0053798D01*
X0255728Y0053798D02*
X0254961Y0053031D01*
X0253426Y0053031D01*
X0252659Y0053798D01*
X0253426Y0055333D02*
X0254961Y0055333D01*
X0255728Y0054565D01*
X0255728Y0053798D01*
X0253426Y0055333D02*
X0252659Y0056100D01*
X0252659Y0056867D01*
X0253426Y0057635D01*
X0254961Y0057635D01*
X0255728Y0056867D01*
X0254961Y0063267D02*
X0253426Y0063267D01*
X0252659Y0064034D01*
X0253426Y0065569D02*
X0254961Y0065569D01*
X0255728Y0064802D01*
X0255728Y0064034D01*
X0254961Y0063267D01*
X0257263Y0064034D02*
X0258030Y0063267D01*
X0259565Y0063267D01*
X0260332Y0064034D01*
X0261867Y0063267D02*
X0261867Y0066336D01*
X0263401Y0067871D01*
X0264936Y0066336D01*
X0264936Y0063267D01*
X0264936Y0065569D02*
X0261867Y0065569D01*
X0260332Y0067104D02*
X0259565Y0067871D01*
X0258030Y0067871D01*
X0257263Y0067104D01*
X0257263Y0064034D01*
X0253426Y0065569D02*
X0252659Y0066336D01*
X0252659Y0067104D01*
X0253426Y0067871D01*
X0254961Y0067871D01*
X0255728Y0067104D01*
X0255748Y0093188D02*
X0254214Y0093188D01*
X0254981Y0093188D02*
X0254981Y0097792D01*
X0254214Y0097792D02*
X0255748Y0097792D01*
X0257283Y0097792D02*
X0260352Y0093188D01*
X0260352Y0097792D01*
X0261887Y0097792D02*
X0264956Y0097792D01*
X0263421Y0097792D02*
X0263421Y0093188D01*
X0257283Y0093188D02*
X0257283Y0097792D01*
X0258050Y0102637D02*
X0258818Y0103404D01*
X0258050Y0102637D02*
X0256516Y0102637D01*
X0255748Y0103404D01*
X0255748Y0106474D01*
X0256516Y0107241D01*
X0258050Y0107241D01*
X0258818Y0106474D01*
X0260352Y0106474D02*
X0261120Y0107241D01*
X0262654Y0107241D01*
X0263422Y0106474D01*
X0262654Y0104939D02*
X0263422Y0104172D01*
X0263422Y0103404D01*
X0262654Y0102637D01*
X0261120Y0102637D01*
X0260352Y0103404D01*
X0261120Y0104939D02*
X0262654Y0104939D01*
X0261120Y0104939D02*
X0260352Y0105706D01*
X0260352Y0106474D01*
X0259585Y0112873D02*
X0261120Y0114408D01*
X0261120Y0117477D01*
X0262654Y0116710D02*
X0263421Y0117477D01*
X0264956Y0117477D01*
X0265723Y0116710D01*
X0265723Y0115943D01*
X0264956Y0115175D01*
X0265723Y0114408D01*
X0265723Y0113641D01*
X0264956Y0112873D01*
X0263421Y0112873D01*
X0262654Y0113641D01*
X0264189Y0115175D02*
X0264956Y0115175D01*
X0259585Y0112873D02*
X0258050Y0114408D01*
X0258050Y0117477D01*
X0256516Y0116710D02*
X0256516Y0115943D01*
X0255748Y0115175D01*
X0256516Y0114408D01*
X0256516Y0113641D01*
X0255748Y0112873D01*
X0254214Y0112873D01*
X0253446Y0113641D01*
X0254981Y0115175D02*
X0255748Y0115175D01*
X0256516Y0116710D02*
X0255748Y0117477D01*
X0254214Y0117477D01*
X0253446Y0116710D01*
X0253426Y0123109D02*
X0254961Y0123109D01*
X0255728Y0123877D01*
X0255728Y0125411D01*
X0254194Y0125411D01*
X0255728Y0126946D02*
X0254961Y0127713D01*
X0253426Y0127713D01*
X0252659Y0126946D01*
X0252659Y0123877D01*
X0253426Y0123109D01*
X0257263Y0123109D02*
X0257263Y0127713D01*
X0260332Y0123109D01*
X0260332Y0127713D01*
X0261867Y0127713D02*
X0264169Y0127713D01*
X0264936Y0126946D01*
X0264936Y0123877D01*
X0264169Y0123109D01*
X0261867Y0123109D01*
X0261867Y0127713D01*
X0263622Y0135708D02*
X0263622Y0140312D01*
X0265924Y0140312D01*
X0266692Y0139544D01*
X0266692Y0138010D01*
X0265924Y0137243D01*
X0263622Y0137243D01*
X0265157Y0137243D02*
X0266692Y0135708D01*
X0268226Y0135708D02*
X0271296Y0140312D01*
X0268226Y0140312D02*
X0271296Y0135708D01*
X0253912Y0136475D02*
X0253145Y0135708D01*
X0251610Y0135708D01*
X0250843Y0136475D01*
X0249309Y0137243D02*
X0247774Y0135708D01*
X0246239Y0137243D01*
X0246239Y0140312D01*
X0244705Y0139544D02*
X0243937Y0140312D01*
X0242403Y0140312D01*
X0241635Y0139544D01*
X0243170Y0138010D02*
X0243937Y0138010D01*
X0244705Y0137243D01*
X0244705Y0136475D01*
X0243937Y0135708D01*
X0242403Y0135708D01*
X0241635Y0136475D01*
X0243937Y0138010D02*
X0244705Y0138777D01*
X0244705Y0139544D01*
X0249309Y0140312D02*
X0249309Y0137243D01*
X0250843Y0139544D02*
X0251610Y0140312D01*
X0253145Y0140312D01*
X0253912Y0139544D01*
X0253912Y0138777D01*
X0253145Y0138010D01*
X0253912Y0137243D01*
X0253912Y0136475D01*
X0253145Y0138010D02*
X0252378Y0138010D01*
X0253386Y0155393D02*
X0255688Y0155393D01*
X0256455Y0156160D01*
X0256455Y0159230D01*
X0255688Y0159997D01*
X0253386Y0159997D01*
X0253386Y0155393D01*
X0257990Y0156160D02*
X0258757Y0155393D01*
X0260292Y0155393D01*
X0261059Y0156160D01*
X0261059Y0156928D01*
X0260292Y0157695D01*
X0259525Y0157695D01*
X0260292Y0157695D02*
X0261059Y0158462D01*
X0261059Y0159230D01*
X0260292Y0159997D01*
X0258757Y0159997D01*
X0257990Y0159230D01*
X0243676Y0159230D02*
X0243676Y0156160D01*
X0242909Y0155393D01*
X0240607Y0155393D01*
X0240607Y0159997D01*
X0242909Y0159997D01*
X0243676Y0159230D01*
X0239072Y0159997D02*
X0239072Y0155393D01*
X0236003Y0159997D01*
X0236003Y0155393D01*
X0234468Y0156160D02*
X0234468Y0157695D01*
X0232934Y0157695D01*
X0234468Y0159230D02*
X0233701Y0159997D01*
X0232166Y0159997D01*
X0231399Y0159230D01*
X0231399Y0156160D01*
X0232166Y0155393D01*
X0233701Y0155393D01*
X0234468Y0156160D01*
X0273859Y0159997D02*
X0276928Y0159997D01*
X0278462Y0159997D02*
X0281532Y0155393D01*
X0278462Y0155393D02*
X0281532Y0159997D01*
X0275393Y0159997D02*
X0275393Y0155393D01*
X0302305Y0134013D02*
X0302305Y0130943D01*
X0303840Y0129409D01*
X0305375Y0130943D01*
X0305375Y0134013D01*
X0306909Y0134013D02*
X0308444Y0134013D01*
X0307677Y0134013D02*
X0307677Y0129409D01*
X0308444Y0129409D02*
X0306909Y0129409D01*
X0309979Y0129409D02*
X0309979Y0134013D01*
X0313048Y0129409D01*
X0313048Y0134013D01*
X0314583Y0131711D02*
X0317652Y0131711D01*
X0316117Y0133245D02*
X0316117Y0130176D01*
X0336911Y0130176D02*
X0337678Y0129409D01*
X0339213Y0129409D01*
X0339980Y0130176D01*
X0339980Y0131711D01*
X0338446Y0131711D01*
X0339980Y0133245D02*
X0339213Y0134013D01*
X0337678Y0134013D01*
X0336911Y0133245D01*
X0336911Y0130176D01*
X0341515Y0129409D02*
X0341515Y0134013D01*
X0344584Y0129409D01*
X0344584Y0134013D01*
X0346119Y0134013D02*
X0348421Y0134013D01*
X0349188Y0133245D01*
X0349188Y0130176D01*
X0348421Y0129409D01*
X0346119Y0129409D01*
X0346119Y0134013D01*
X0369825Y0132580D02*
X0371359Y0131046D01*
X0370592Y0129511D02*
X0373661Y0126442D01*
X0374429Y0127209D01*
X0374429Y0128744D01*
X0373661Y0129511D01*
X0370592Y0129511D01*
X0369825Y0128744D01*
X0369825Y0127209D01*
X0370592Y0126442D01*
X0373661Y0126442D01*
X0373661Y0124907D02*
X0370592Y0124907D01*
X0373661Y0121838D01*
X0374429Y0122605D01*
X0374429Y0124140D01*
X0373661Y0124907D01*
X0370592Y0124907D02*
X0369825Y0124140D01*
X0369825Y0122605D01*
X0370592Y0121838D01*
X0373661Y0121838D01*
X0372127Y0120303D02*
X0372127Y0117234D01*
X0369825Y0119536D01*
X0374429Y0119536D01*
X0374429Y0115699D02*
X0369825Y0115699D01*
X0369825Y0112630D02*
X0374429Y0115699D01*
X0374429Y0112630D02*
X0369825Y0112630D01*
X0374429Y0111095D02*
X0374429Y0108026D01*
X0374429Y0109561D02*
X0369825Y0109561D01*
X0371359Y0108026D01*
X0358079Y0105077D02*
X0358079Y0104309D01*
X0355010Y0104309D01*
X0355010Y0103542D02*
X0355010Y0105077D01*
X0355777Y0105844D01*
X0357312Y0105844D01*
X0358079Y0105077D01*
X0357312Y0102775D02*
X0355777Y0102775D01*
X0355010Y0103542D01*
X0353475Y0102775D02*
X0351940Y0102775D01*
X0352708Y0102775D02*
X0352708Y0107379D01*
X0351940Y0107379D01*
X0350406Y0105844D02*
X0350406Y0102775D01*
X0348104Y0102775D01*
X0347336Y0103542D01*
X0347336Y0105844D01*
X0345802Y0105844D02*
X0343500Y0105844D01*
X0342732Y0105077D01*
X0342732Y0103542D01*
X0343500Y0102775D01*
X0345802Y0102775D01*
X0345802Y0107379D01*
X0341198Y0105077D02*
X0340430Y0105844D01*
X0338896Y0105844D01*
X0338129Y0105077D01*
X0338129Y0103542D01*
X0338896Y0102775D01*
X0340430Y0102775D01*
X0341198Y0103542D01*
X0341198Y0105077D01*
X0336594Y0105077D02*
X0336594Y0102775D01*
X0335059Y0102775D02*
X0335059Y0105077D01*
X0335827Y0105844D01*
X0336594Y0105077D01*
X0335059Y0105077D02*
X0334292Y0105844D01*
X0333525Y0105844D01*
X0333525Y0102775D01*
X0327386Y0103542D02*
X0326619Y0102775D01*
X0325084Y0102775D01*
X0324317Y0103542D01*
X0324317Y0104309D01*
X0325084Y0105077D01*
X0326619Y0105077D01*
X0327386Y0104309D01*
X0327386Y0103542D01*
X0326619Y0105077D02*
X0327386Y0105844D01*
X0327386Y0106611D01*
X0326619Y0107379D01*
X0325084Y0107379D01*
X0324317Y0106611D01*
X0324317Y0105844D01*
X0325084Y0105077D01*
X0322782Y0106611D02*
X0319713Y0103542D01*
X0320480Y0102775D01*
X0322015Y0102775D01*
X0322782Y0103542D01*
X0322782Y0106611D01*
X0322015Y0107379D01*
X0320480Y0107379D01*
X0319713Y0106611D01*
X0319713Y0103542D01*
X0318178Y0103542D02*
X0318178Y0104309D01*
X0317411Y0105077D01*
X0315109Y0105077D01*
X0315109Y0103542D01*
X0315876Y0102775D01*
X0317411Y0102775D01*
X0318178Y0103542D01*
X0316644Y0106611D02*
X0315109Y0105077D01*
X0313574Y0105844D02*
X0312807Y0105077D01*
X0313574Y0104309D01*
X0313574Y0103542D01*
X0312807Y0102775D01*
X0311272Y0102775D01*
X0310505Y0103542D01*
X0312040Y0105077D02*
X0312807Y0105077D01*
X0313574Y0105844D02*
X0313574Y0106611D01*
X0312807Y0107379D01*
X0311272Y0107379D01*
X0310505Y0106611D01*
X0308970Y0107379D02*
X0305901Y0107379D01*
X0304366Y0107379D02*
X0302832Y0105844D01*
X0301297Y0107379D01*
X0301297Y0102775D01*
X0304366Y0102775D02*
X0304366Y0107379D01*
X0307436Y0107379D02*
X0307436Y0102775D01*
X0316644Y0106611D02*
X0318178Y0107379D01*
X0369825Y0132580D02*
X0374429Y0132580D01*
X0374429Y0131046D02*
X0374429Y0134115D01*
X0388557Y0134010D02*
X0388557Y0135544D01*
X0388557Y0134777D02*
X0393161Y0134777D01*
X0393161Y0134010D02*
X0393161Y0135544D01*
X0393161Y0137079D02*
X0388557Y0137079D01*
X0388557Y0139381D01*
X0389324Y0140148D01*
X0392394Y0140148D01*
X0393161Y0139381D01*
X0393161Y0137079D01*
X0392394Y0132475D02*
X0389324Y0132475D01*
X0388557Y0131708D01*
X0388557Y0130173D01*
X0389324Y0129406D01*
X0392394Y0129406D01*
X0393161Y0130173D01*
X0393161Y0131708D01*
X0392394Y0132475D01*
X0393161Y0127871D02*
X0388557Y0127871D01*
X0388557Y0124802D02*
X0393161Y0127871D01*
X0393161Y0124802D02*
X0388557Y0124802D01*
X0388557Y0123267D02*
X0388557Y0120198D01*
X0393161Y0120198D01*
X0393161Y0123267D01*
X0390859Y0121733D02*
X0390859Y0120198D01*
X0393161Y0118663D02*
X0393161Y0115594D01*
X0388557Y0115594D01*
X0389324Y0114059D02*
X0388557Y0113292D01*
X0388557Y0111757D01*
X0389324Y0110990D01*
X0392394Y0110990D01*
X0393161Y0111757D01*
X0393161Y0113292D01*
X0392394Y0114059D01*
X0389324Y0114059D01*
X0389324Y0109456D02*
X0388557Y0108688D01*
X0388557Y0107154D01*
X0389324Y0106386D01*
X0390092Y0106386D01*
X0390859Y0107154D01*
X0390859Y0108688D01*
X0391626Y0109456D01*
X0392394Y0109456D01*
X0393161Y0108688D01*
X0393161Y0107154D01*
X0392394Y0106386D01*
X0353145Y0047398D02*
X0350843Y0047398D01*
X0350843Y0042794D01*
X0353145Y0042794D01*
X0353912Y0043562D01*
X0353912Y0046631D01*
X0353145Y0047398D01*
X0349309Y0047398D02*
X0349309Y0042794D01*
X0346239Y0047398D01*
X0346239Y0042794D01*
X0344705Y0043562D02*
X0344705Y0045096D01*
X0343170Y0045096D01*
X0344705Y0043562D02*
X0343937Y0042794D01*
X0342403Y0042794D01*
X0341635Y0043562D01*
X0341635Y0046631D01*
X0342403Y0047398D01*
X0343937Y0047398D01*
X0344705Y0046631D01*
X0187393Y0078153D02*
X0187393Y0081222D01*
X0186626Y0082757D02*
X0187393Y0083524D01*
X0187393Y0085059D01*
X0186626Y0085826D01*
X0185859Y0085826D01*
X0185091Y0085059D01*
X0185091Y0083524D01*
X0184324Y0082757D01*
X0183557Y0082757D01*
X0182789Y0083524D01*
X0182789Y0085059D01*
X0183557Y0085826D01*
X0182789Y0087361D02*
X0182789Y0089663D01*
X0183557Y0090430D01*
X0185091Y0090430D01*
X0185859Y0089663D01*
X0185859Y0087361D01*
X0187393Y0087361D02*
X0182789Y0087361D01*
X0183557Y0091965D02*
X0184324Y0091965D01*
X0185091Y0092732D01*
X0185091Y0094267D01*
X0185859Y0095034D01*
X0186626Y0095034D01*
X0187393Y0094267D01*
X0187393Y0092732D01*
X0186626Y0091965D01*
X0185859Y0091965D01*
X0185091Y0092732D01*
X0185091Y0094267D02*
X0184324Y0095034D01*
X0183557Y0095034D01*
X0182789Y0094267D01*
X0182789Y0092732D01*
X0183557Y0091965D01*
X0183557Y0096568D02*
X0182789Y0097336D01*
X0182789Y0098870D01*
X0183557Y0099638D01*
X0184324Y0099638D01*
X0187393Y0096568D01*
X0187393Y0099638D01*
X0186626Y0101172D02*
X0187393Y0101940D01*
X0187393Y0103474D01*
X0186626Y0104242D01*
X0185859Y0104242D01*
X0185091Y0103474D01*
X0185091Y0101172D01*
X0186626Y0101172D01*
X0185091Y0101172D02*
X0183557Y0102707D01*
X0182789Y0104242D01*
X0185091Y0105776D02*
X0185091Y0108078D01*
X0185859Y0108846D01*
X0186626Y0108846D01*
X0187393Y0108078D01*
X0187393Y0106544D01*
X0186626Y0105776D01*
X0185091Y0105776D01*
X0183557Y0107311D01*
X0182789Y0108846D01*
X0182789Y0110380D02*
X0184324Y0111915D01*
X0182789Y0113450D01*
X0187393Y0113450D01*
X0186626Y0114984D02*
X0187393Y0115751D01*
X0187393Y0117286D01*
X0186626Y0118053D01*
X0183557Y0118053D01*
X0182789Y0117286D01*
X0182789Y0115751D01*
X0183557Y0114984D01*
X0186626Y0114984D01*
X0187393Y0110380D02*
X0182789Y0110380D01*
X0182789Y0119588D02*
X0182789Y0121890D01*
X0183557Y0122657D01*
X0186626Y0122657D01*
X0187393Y0121890D01*
X0187393Y0119588D01*
X0182789Y0119588D01*
X0134288Y0093068D02*
X0132753Y0092300D01*
X0131218Y0090766D01*
X0133520Y0090766D01*
X0134288Y0089998D01*
X0134288Y0089231D01*
X0133520Y0088464D01*
X0131986Y0088464D01*
X0131218Y0089231D01*
X0131218Y0090766D01*
X0129684Y0092300D02*
X0129684Y0089231D01*
X0128916Y0088464D01*
X0126614Y0088464D01*
X0126614Y0093068D01*
X0128916Y0093068D01*
X0129684Y0092300D01*
X0116847Y0101291D02*
X0116847Y0105894D01*
X0119916Y0105894D01*
X0118382Y0103593D02*
X0116847Y0103593D01*
X0115312Y0104360D02*
X0115312Y0101291D01*
X0113010Y0101291D01*
X0112243Y0102058D01*
X0112243Y0104360D01*
X0109174Y0105894D02*
X0109174Y0101291D01*
X0107639Y0101291D02*
X0110709Y0101291D01*
X0107639Y0104360D02*
X0109174Y0105894D01*
X0090560Y0112761D02*
X0067540Y0112761D01*
X0068507Y0111965D02*
X0067740Y0111198D01*
X0067740Y0110431D01*
X0068507Y0109663D01*
X0070042Y0109663D01*
X0070809Y0108896D01*
X0070809Y0108129D01*
X0070042Y0107361D01*
X0068507Y0107361D01*
X0067740Y0108129D01*
X0068507Y0111965D02*
X0070042Y0111965D01*
X0070809Y0111198D01*
X0072344Y0111965D02*
X0075413Y0111965D01*
X0073879Y0111965D02*
X0073879Y0107361D01*
X0076948Y0107361D02*
X0079250Y0107361D01*
X0080017Y0108129D01*
X0080017Y0111198D01*
X0079250Y0111965D01*
X0076948Y0111965D01*
X0076948Y0107361D01*
X0081552Y0107361D02*
X0081552Y0111965D01*
X0083854Y0111965D01*
X0084621Y0111198D01*
X0084621Y0110431D01*
X0083854Y0109663D01*
X0081552Y0109663D01*
X0081552Y0107361D02*
X0083854Y0107361D01*
X0084621Y0108129D01*
X0084621Y0108896D01*
X0083854Y0109663D01*
X0086156Y0111198D02*
X0087690Y0109663D01*
X0087690Y0107361D01*
X0087690Y0109663D02*
X0089225Y0111198D01*
X0089225Y0111965D01*
X0086156Y0111965D02*
X0086156Y0111198D01*
X0085469Y0093068D02*
X0087003Y0093068D01*
X0087771Y0092300D01*
X0087771Y0091533D01*
X0087003Y0090766D01*
X0087771Y0089998D01*
X0087771Y0089231D01*
X0087003Y0088464D01*
X0085469Y0088464D01*
X0084701Y0089231D01*
X0083167Y0089998D02*
X0081632Y0088464D01*
X0080098Y0089998D01*
X0080098Y0093068D01*
X0078563Y0092300D02*
X0077796Y0093068D01*
X0076261Y0093068D01*
X0075494Y0092300D01*
X0077028Y0090766D02*
X0077796Y0090766D01*
X0078563Y0089998D01*
X0078563Y0089231D01*
X0077796Y0088464D01*
X0076261Y0088464D01*
X0075494Y0089231D01*
X0077796Y0090766D02*
X0078563Y0091533D01*
X0078563Y0092300D01*
X0083167Y0093068D02*
X0083167Y0089998D01*
X0084701Y0092300D02*
X0085469Y0093068D01*
X0086236Y0090766D02*
X0087003Y0090766D01*
X0068573Y0093864D02*
X0050157Y0093864D01*
X0051124Y0093068D02*
X0050357Y0092300D01*
X0050357Y0089231D01*
X0051124Y0088464D01*
X0052659Y0088464D01*
X0053426Y0089231D01*
X0054961Y0088464D02*
X0054961Y0093068D01*
X0053426Y0092300D02*
X0052659Y0093068D01*
X0051124Y0093068D01*
X0054961Y0090766D02*
X0058030Y0090766D01*
X0059565Y0089998D02*
X0061867Y0089998D01*
X0062634Y0090766D01*
X0062634Y0092300D01*
X0061867Y0093068D01*
X0059565Y0093068D01*
X0059565Y0088464D01*
X0058030Y0088464D02*
X0058030Y0093068D01*
X0064169Y0092300D02*
X0064169Y0089231D01*
X0064936Y0088464D01*
X0066471Y0088464D01*
X0067238Y0089231D01*
X0067238Y0090766D01*
X0065703Y0090766D01*
X0064169Y0092300D02*
X0064936Y0093068D01*
X0066471Y0093068D01*
X0067238Y0092300D01*
X0062634Y0088464D02*
X0061099Y0089998D01*
X0059565Y0082044D02*
X0059565Y0078975D01*
X0061099Y0077440D01*
X0062634Y0078975D01*
X0062634Y0082044D01*
X0058030Y0082044D02*
X0054961Y0082044D01*
X0054961Y0079742D01*
X0056496Y0080509D01*
X0057263Y0080509D01*
X0058030Y0079742D01*
X0058030Y0078207D01*
X0057263Y0077440D01*
X0055728Y0077440D01*
X0054961Y0078207D01*
X0071557Y0067891D02*
X0072324Y0068658D01*
X0073859Y0068658D01*
X0074626Y0067891D01*
X0074626Y0066356D02*
X0073091Y0066356D01*
X0074626Y0066356D02*
X0074626Y0064822D01*
X0073859Y0064054D01*
X0072324Y0064054D01*
X0071557Y0064822D01*
X0071557Y0067891D01*
X0076160Y0068658D02*
X0079230Y0064054D01*
X0079230Y0068658D01*
X0080764Y0068658D02*
X0083066Y0068658D01*
X0083834Y0067891D01*
X0083834Y0064822D01*
X0083066Y0064054D01*
X0080764Y0064054D01*
X0080764Y0068658D01*
X0076160Y0068658D02*
X0076160Y0064054D01*
X0067297Y0056965D02*
X0067297Y0053896D01*
X0067297Y0055430D02*
X0071901Y0055430D01*
X0071901Y0052361D02*
X0068832Y0052361D01*
X0067297Y0050826D01*
X0068832Y0049292D01*
X0071901Y0049292D01*
X0071134Y0047757D02*
X0071901Y0046990D01*
X0071901Y0044688D01*
X0067297Y0044688D01*
X0067297Y0046990D01*
X0068064Y0047757D01*
X0068832Y0047757D01*
X0069599Y0046990D01*
X0069599Y0044688D01*
X0069599Y0046990D02*
X0070366Y0047757D01*
X0071134Y0047757D01*
X0069599Y0049292D02*
X0069599Y0052361D01*
X0077695Y0037970D02*
X0077695Y0034900D01*
X0076161Y0036435D02*
X0079230Y0036435D01*
X0088799Y0026926D02*
X0088032Y0026159D01*
X0088032Y0023089D01*
X0088799Y0022322D01*
X0090334Y0022322D01*
X0091101Y0023089D01*
X0091101Y0026159D01*
X0090334Y0026926D01*
X0088799Y0026926D01*
X0092636Y0026926D02*
X0095705Y0022322D01*
X0095705Y0026926D01*
X0092636Y0026926D02*
X0092636Y0022322D01*
X0116438Y0023089D02*
X0117206Y0022322D01*
X0118740Y0022322D01*
X0119508Y0023089D01*
X0119508Y0026159D01*
X0118740Y0026926D01*
X0117206Y0026926D01*
X0116438Y0026159D01*
X0116438Y0023089D01*
X0121042Y0022322D02*
X0121042Y0026926D01*
X0124112Y0026926D01*
X0125646Y0026926D02*
X0128716Y0026926D01*
X0127181Y0024624D02*
X0125646Y0024624D01*
X0125646Y0022322D02*
X0125646Y0026926D01*
X0122577Y0024624D02*
X0121042Y0024624D01*
X0147147Y0022322D02*
X0150216Y0022322D01*
X0151751Y0022322D02*
X0154820Y0022322D01*
X0156355Y0022322D02*
X0158657Y0022322D01*
X0159424Y0023089D01*
X0159424Y0026159D01*
X0158657Y0026926D01*
X0156355Y0026926D01*
X0156355Y0022322D01*
X0151751Y0022322D02*
X0151751Y0026926D01*
X0154820Y0026926D01*
X0153286Y0024624D02*
X0151751Y0024624D01*
X0147147Y0026926D02*
X0147147Y0022322D01*
X0119425Y0066960D02*
X0119425Y0071564D01*
X0122494Y0071564D01*
X0120959Y0069262D02*
X0119425Y0069262D01*
X0117890Y0070029D02*
X0117890Y0066960D01*
X0115588Y0066960D01*
X0114821Y0067727D01*
X0114821Y0070029D01*
X0113286Y0070796D02*
X0110217Y0067727D01*
X0110984Y0066960D01*
X0112519Y0066960D01*
X0113286Y0067727D01*
X0113286Y0070796D01*
X0112519Y0071564D01*
X0110984Y0071564D01*
X0110217Y0070796D01*
X0110217Y0067727D01*
X0108682Y0066960D02*
X0105613Y0066960D01*
X0107147Y0066960D02*
X0107147Y0071564D01*
X0105613Y0070029D01*
X0182789Y0078153D02*
X0187393Y0078153D01*
X0185091Y0078153D02*
X0185091Y0079687D01*
X0182789Y0081222D02*
X0182789Y0078153D01*
X0085212Y0131999D02*
X0085212Y0136603D01*
X0088281Y0136603D01*
X0086747Y0134301D02*
X0085212Y0134301D01*
X0083677Y0135068D02*
X0083677Y0131999D01*
X0081375Y0131999D01*
X0080608Y0132767D01*
X0080608Y0135068D01*
X0079073Y0135836D02*
X0076004Y0132767D01*
X0076771Y0131999D01*
X0078306Y0131999D01*
X0079073Y0132767D01*
X0079073Y0135836D01*
X0078306Y0136603D01*
X0076771Y0136603D01*
X0076004Y0135836D01*
X0076004Y0132767D01*
X0074470Y0131999D02*
X0071400Y0131999D01*
X0072935Y0131999D02*
X0072935Y0136603D01*
X0071400Y0135068D01*
D13*
X0067200Y0127535D02*
X0067204Y0127849D01*
X0067215Y0128163D01*
X0067235Y0128476D01*
X0067262Y0128789D01*
X0067296Y0129101D01*
X0067338Y0129412D01*
X0067388Y0129722D01*
X0067446Y0130031D01*
X0067511Y0130338D01*
X0067583Y0130644D01*
X0067663Y0130948D01*
X0067751Y0131249D01*
X0067846Y0131549D01*
X0067948Y0131846D01*
X0068057Y0132140D01*
X0068174Y0132431D01*
X0068298Y0132720D01*
X0068428Y0133006D01*
X0068566Y0133288D01*
X0068711Y0133567D01*
X0068862Y0133842D01*
X0069020Y0134113D01*
X0069185Y0134380D01*
X0069356Y0134644D01*
X0069534Y0134902D01*
X0069718Y0135157D01*
X0069908Y0135407D01*
X0070104Y0135652D01*
X0070307Y0135892D01*
X0070515Y0136128D01*
X0070728Y0136358D01*
X0070948Y0136582D01*
X0071172Y0136802D01*
X0071402Y0137015D01*
X0071638Y0137223D01*
X0071878Y0137426D01*
X0072123Y0137622D01*
X0072373Y0137812D01*
X0072628Y0137996D01*
X0072886Y0138174D01*
X0073150Y0138345D01*
X0073417Y0138510D01*
X0073688Y0138668D01*
X0073963Y0138819D01*
X0074242Y0138964D01*
X0074524Y0139102D01*
X0074810Y0139232D01*
X0075099Y0139356D01*
X0075390Y0139473D01*
X0075684Y0139582D01*
X0075981Y0139684D01*
X0076281Y0139779D01*
X0076582Y0139867D01*
X0076886Y0139947D01*
X0077192Y0140019D01*
X0077499Y0140084D01*
X0077808Y0140142D01*
X0078118Y0140192D01*
X0078429Y0140234D01*
X0078741Y0140268D01*
X0079054Y0140295D01*
X0079367Y0140315D01*
X0079681Y0140326D01*
X0079995Y0140330D01*
X0080309Y0140326D01*
X0080623Y0140315D01*
X0080936Y0140295D01*
X0081249Y0140268D01*
X0081561Y0140234D01*
X0081872Y0140192D01*
X0082182Y0140142D01*
X0082491Y0140084D01*
X0082798Y0140019D01*
X0083104Y0139947D01*
X0083408Y0139867D01*
X0083709Y0139779D01*
X0084009Y0139684D01*
X0084306Y0139582D01*
X0084600Y0139473D01*
X0084891Y0139356D01*
X0085180Y0139232D01*
X0085466Y0139102D01*
X0085748Y0138964D01*
X0086027Y0138819D01*
X0086302Y0138668D01*
X0086573Y0138510D01*
X0086840Y0138345D01*
X0087104Y0138174D01*
X0087362Y0137996D01*
X0087617Y0137812D01*
X0087867Y0137622D01*
X0088112Y0137426D01*
X0088352Y0137223D01*
X0088588Y0137015D01*
X0088818Y0136802D01*
X0089042Y0136582D01*
X0089262Y0136358D01*
X0089475Y0136128D01*
X0089683Y0135892D01*
X0089886Y0135652D01*
X0090082Y0135407D01*
X0090272Y0135157D01*
X0090456Y0134902D01*
X0090634Y0134644D01*
X0090805Y0134380D01*
X0090970Y0134113D01*
X0091128Y0133842D01*
X0091279Y0133567D01*
X0091424Y0133288D01*
X0091562Y0133006D01*
X0091692Y0132720D01*
X0091816Y0132431D01*
X0091933Y0132140D01*
X0092042Y0131846D01*
X0092144Y0131549D01*
X0092239Y0131249D01*
X0092327Y0130948D01*
X0092407Y0130644D01*
X0092479Y0130338D01*
X0092544Y0130031D01*
X0092602Y0129722D01*
X0092652Y0129412D01*
X0092694Y0129101D01*
X0092728Y0128789D01*
X0092755Y0128476D01*
X0092775Y0128163D01*
X0092786Y0127849D01*
X0092790Y0127535D01*
X0092786Y0127221D01*
X0092775Y0126907D01*
X0092755Y0126594D01*
X0092728Y0126281D01*
X0092694Y0125969D01*
X0092652Y0125658D01*
X0092602Y0125348D01*
X0092544Y0125039D01*
X0092479Y0124732D01*
X0092407Y0124426D01*
X0092327Y0124122D01*
X0092239Y0123821D01*
X0092144Y0123521D01*
X0092042Y0123224D01*
X0091933Y0122930D01*
X0091816Y0122639D01*
X0091692Y0122350D01*
X0091562Y0122064D01*
X0091424Y0121782D01*
X0091279Y0121503D01*
X0091128Y0121228D01*
X0090970Y0120957D01*
X0090805Y0120690D01*
X0090634Y0120426D01*
X0090456Y0120168D01*
X0090272Y0119913D01*
X0090082Y0119663D01*
X0089886Y0119418D01*
X0089683Y0119178D01*
X0089475Y0118942D01*
X0089262Y0118712D01*
X0089042Y0118488D01*
X0088818Y0118268D01*
X0088588Y0118055D01*
X0088352Y0117847D01*
X0088112Y0117644D01*
X0087867Y0117448D01*
X0087617Y0117258D01*
X0087362Y0117074D01*
X0087104Y0116896D01*
X0086840Y0116725D01*
X0086573Y0116560D01*
X0086302Y0116402D01*
X0086027Y0116251D01*
X0085748Y0116106D01*
X0085466Y0115968D01*
X0085180Y0115838D01*
X0084891Y0115714D01*
X0084600Y0115597D01*
X0084306Y0115488D01*
X0084009Y0115386D01*
X0083709Y0115291D01*
X0083408Y0115203D01*
X0083104Y0115123D01*
X0082798Y0115051D01*
X0082491Y0114986D01*
X0082182Y0114928D01*
X0081872Y0114878D01*
X0081561Y0114836D01*
X0081249Y0114802D01*
X0080936Y0114775D01*
X0080623Y0114755D01*
X0080309Y0114744D01*
X0079995Y0114740D01*
X0079681Y0114744D01*
X0079367Y0114755D01*
X0079054Y0114775D01*
X0078741Y0114802D01*
X0078429Y0114836D01*
X0078118Y0114878D01*
X0077808Y0114928D01*
X0077499Y0114986D01*
X0077192Y0115051D01*
X0076886Y0115123D01*
X0076582Y0115203D01*
X0076281Y0115291D01*
X0075981Y0115386D01*
X0075684Y0115488D01*
X0075390Y0115597D01*
X0075099Y0115714D01*
X0074810Y0115838D01*
X0074524Y0115968D01*
X0074242Y0116106D01*
X0073963Y0116251D01*
X0073688Y0116402D01*
X0073417Y0116560D01*
X0073150Y0116725D01*
X0072886Y0116896D01*
X0072628Y0117074D01*
X0072373Y0117258D01*
X0072123Y0117448D01*
X0071878Y0117644D01*
X0071638Y0117847D01*
X0071402Y0118055D01*
X0071172Y0118268D01*
X0070948Y0118488D01*
X0070728Y0118712D01*
X0070515Y0118942D01*
X0070307Y0119178D01*
X0070104Y0119418D01*
X0069908Y0119663D01*
X0069718Y0119913D01*
X0069534Y0120168D01*
X0069356Y0120426D01*
X0069185Y0120690D01*
X0069020Y0120957D01*
X0068862Y0121228D01*
X0068711Y0121503D01*
X0068566Y0121782D01*
X0068428Y0122064D01*
X0068298Y0122350D01*
X0068174Y0122639D01*
X0068057Y0122930D01*
X0067948Y0123224D01*
X0067846Y0123521D01*
X0067751Y0123821D01*
X0067663Y0124122D01*
X0067583Y0124426D01*
X0067511Y0124732D01*
X0067446Y0125039D01*
X0067388Y0125348D01*
X0067338Y0125658D01*
X0067296Y0125969D01*
X0067262Y0126281D01*
X0067235Y0126594D01*
X0067215Y0126907D01*
X0067204Y0127221D01*
X0067200Y0127535D01*
X0082495Y0122535D02*
X0087495Y0122535D01*
X0105136Y0123598D02*
X0106136Y0123598D01*
X0106136Y0126598D01*
X0126136Y0126598D01*
X0126136Y0123598D01*
X0127136Y0123598D01*
X0126136Y0123598D02*
X0126136Y0120598D01*
X0106136Y0120598D01*
X0106136Y0123598D01*
X0108626Y0124927D02*
X0109326Y0125627D01*
X0110727Y0125627D01*
X0111428Y0124927D01*
X0111428Y0124226D01*
X0110727Y0123525D01*
X0111428Y0122825D01*
X0111428Y0122124D01*
X0110727Y0121424D01*
X0109326Y0121424D01*
X0108626Y0122124D01*
X0110027Y0123525D02*
X0110727Y0123525D01*
X0113230Y0122124D02*
X0116032Y0124927D01*
X0116032Y0122124D01*
X0115331Y0121424D01*
X0113930Y0121424D01*
X0113230Y0122124D01*
X0113230Y0124927D01*
X0113930Y0125627D01*
X0115331Y0125627D01*
X0116032Y0124927D01*
X0117834Y0124927D02*
X0118534Y0125627D01*
X0119935Y0125627D01*
X0120636Y0124927D01*
X0117834Y0122124D01*
X0118534Y0121424D01*
X0119935Y0121424D01*
X0120636Y0122124D01*
X0120636Y0124927D01*
X0122437Y0125627D02*
X0122437Y0121424D01*
X0122437Y0122825D02*
X0124539Y0121424D01*
X0122437Y0122825D02*
X0124539Y0124226D01*
X0117834Y0124927D02*
X0117834Y0122124D01*
X0126136Y0134535D02*
X0106136Y0134535D01*
X0106136Y0137535D01*
X0105136Y0137535D01*
X0106136Y0137535D02*
X0106136Y0140535D01*
X0126136Y0140535D01*
X0126136Y0137535D01*
X0127136Y0137535D01*
X0126136Y0137535D02*
X0126136Y0134535D01*
X0124287Y0135510D02*
X0122185Y0136911D01*
X0124287Y0138313D01*
X0122185Y0139714D02*
X0122185Y0135510D01*
X0120384Y0136211D02*
X0119683Y0135510D01*
X0118282Y0135510D01*
X0117582Y0136211D01*
X0120384Y0139013D01*
X0120384Y0136211D01*
X0117582Y0136211D02*
X0117582Y0139013D01*
X0118282Y0139714D01*
X0119683Y0139714D01*
X0120384Y0139013D01*
X0115780Y0139013D02*
X0112978Y0136211D01*
X0113678Y0135510D01*
X0115079Y0135510D01*
X0115780Y0136211D01*
X0115780Y0139013D01*
X0115079Y0139714D01*
X0113678Y0139714D01*
X0112978Y0139013D01*
X0112978Y0136211D01*
X0111176Y0135510D02*
X0108374Y0135510D01*
X0109775Y0135510D02*
X0109775Y0139714D01*
X0108374Y0138313D01*
X0094089Y0101843D02*
X0094089Y0100843D01*
X0097089Y0100843D01*
X0097089Y0080843D01*
X0094089Y0080843D01*
X0094089Y0079843D01*
X0094089Y0080843D02*
X0091089Y0080843D01*
X0091089Y0100843D01*
X0094089Y0100843D01*
X0093462Y0093067D02*
X0094863Y0090965D01*
X0096264Y0093067D01*
X0096264Y0090965D02*
X0092060Y0090965D01*
X0092761Y0089163D02*
X0092060Y0088463D01*
X0092060Y0087061D01*
X0092761Y0086361D01*
X0092761Y0089163D02*
X0093462Y0089163D01*
X0096264Y0086361D01*
X0096264Y0089163D01*
X0101137Y0096039D02*
X0101141Y0096353D01*
X0101152Y0096667D01*
X0101172Y0096980D01*
X0101199Y0097293D01*
X0101233Y0097605D01*
X0101275Y0097916D01*
X0101325Y0098226D01*
X0101383Y0098535D01*
X0101448Y0098842D01*
X0101520Y0099148D01*
X0101600Y0099452D01*
X0101688Y0099753D01*
X0101783Y0100053D01*
X0101885Y0100350D01*
X0101994Y0100644D01*
X0102111Y0100935D01*
X0102235Y0101224D01*
X0102365Y0101510D01*
X0102503Y0101792D01*
X0102648Y0102071D01*
X0102799Y0102346D01*
X0102957Y0102617D01*
X0103122Y0102884D01*
X0103293Y0103148D01*
X0103471Y0103406D01*
X0103655Y0103661D01*
X0103845Y0103911D01*
X0104041Y0104156D01*
X0104244Y0104396D01*
X0104452Y0104632D01*
X0104665Y0104862D01*
X0104885Y0105086D01*
X0105109Y0105306D01*
X0105339Y0105519D01*
X0105575Y0105727D01*
X0105815Y0105930D01*
X0106060Y0106126D01*
X0106310Y0106316D01*
X0106565Y0106500D01*
X0106823Y0106678D01*
X0107087Y0106849D01*
X0107354Y0107014D01*
X0107625Y0107172D01*
X0107900Y0107323D01*
X0108179Y0107468D01*
X0108461Y0107606D01*
X0108747Y0107736D01*
X0109036Y0107860D01*
X0109327Y0107977D01*
X0109621Y0108086D01*
X0109918Y0108188D01*
X0110218Y0108283D01*
X0110519Y0108371D01*
X0110823Y0108451D01*
X0111129Y0108523D01*
X0111436Y0108588D01*
X0111745Y0108646D01*
X0112055Y0108696D01*
X0112366Y0108738D01*
X0112678Y0108772D01*
X0112991Y0108799D01*
X0113304Y0108819D01*
X0113618Y0108830D01*
X0113932Y0108834D01*
X0114246Y0108830D01*
X0114560Y0108819D01*
X0114873Y0108799D01*
X0115186Y0108772D01*
X0115498Y0108738D01*
X0115809Y0108696D01*
X0116119Y0108646D01*
X0116428Y0108588D01*
X0116735Y0108523D01*
X0117041Y0108451D01*
X0117345Y0108371D01*
X0117646Y0108283D01*
X0117946Y0108188D01*
X0118243Y0108086D01*
X0118537Y0107977D01*
X0118828Y0107860D01*
X0119117Y0107736D01*
X0119403Y0107606D01*
X0119685Y0107468D01*
X0119964Y0107323D01*
X0120239Y0107172D01*
X0120510Y0107014D01*
X0120777Y0106849D01*
X0121041Y0106678D01*
X0121299Y0106500D01*
X0121554Y0106316D01*
X0121804Y0106126D01*
X0122049Y0105930D01*
X0122289Y0105727D01*
X0122525Y0105519D01*
X0122755Y0105306D01*
X0122979Y0105086D01*
X0123199Y0104862D01*
X0123412Y0104632D01*
X0123620Y0104396D01*
X0123823Y0104156D01*
X0124019Y0103911D01*
X0124209Y0103661D01*
X0124393Y0103406D01*
X0124571Y0103148D01*
X0124742Y0102884D01*
X0124907Y0102617D01*
X0125065Y0102346D01*
X0125216Y0102071D01*
X0125361Y0101792D01*
X0125499Y0101510D01*
X0125629Y0101224D01*
X0125753Y0100935D01*
X0125870Y0100644D01*
X0125979Y0100350D01*
X0126081Y0100053D01*
X0126176Y0099753D01*
X0126264Y0099452D01*
X0126344Y0099148D01*
X0126416Y0098842D01*
X0126481Y0098535D01*
X0126539Y0098226D01*
X0126589Y0097916D01*
X0126631Y0097605D01*
X0126665Y0097293D01*
X0126692Y0096980D01*
X0126712Y0096667D01*
X0126723Y0096353D01*
X0126727Y0096039D01*
X0126723Y0095725D01*
X0126712Y0095411D01*
X0126692Y0095098D01*
X0126665Y0094785D01*
X0126631Y0094473D01*
X0126589Y0094162D01*
X0126539Y0093852D01*
X0126481Y0093543D01*
X0126416Y0093236D01*
X0126344Y0092930D01*
X0126264Y0092626D01*
X0126176Y0092325D01*
X0126081Y0092025D01*
X0125979Y0091728D01*
X0125870Y0091434D01*
X0125753Y0091143D01*
X0125629Y0090854D01*
X0125499Y0090568D01*
X0125361Y0090286D01*
X0125216Y0090007D01*
X0125065Y0089732D01*
X0124907Y0089461D01*
X0124742Y0089194D01*
X0124571Y0088930D01*
X0124393Y0088672D01*
X0124209Y0088417D01*
X0124019Y0088167D01*
X0123823Y0087922D01*
X0123620Y0087682D01*
X0123412Y0087446D01*
X0123199Y0087216D01*
X0122979Y0086992D01*
X0122755Y0086772D01*
X0122525Y0086559D01*
X0122289Y0086351D01*
X0122049Y0086148D01*
X0121804Y0085952D01*
X0121554Y0085762D01*
X0121299Y0085578D01*
X0121041Y0085400D01*
X0120777Y0085229D01*
X0120510Y0085064D01*
X0120239Y0084906D01*
X0119964Y0084755D01*
X0119685Y0084610D01*
X0119403Y0084472D01*
X0119117Y0084342D01*
X0118828Y0084218D01*
X0118537Y0084101D01*
X0118243Y0083992D01*
X0117946Y0083890D01*
X0117646Y0083795D01*
X0117345Y0083707D01*
X0117041Y0083627D01*
X0116735Y0083555D01*
X0116428Y0083490D01*
X0116119Y0083432D01*
X0115809Y0083382D01*
X0115498Y0083340D01*
X0115186Y0083306D01*
X0114873Y0083279D01*
X0114560Y0083259D01*
X0114246Y0083248D01*
X0113932Y0083244D01*
X0113618Y0083248D01*
X0113304Y0083259D01*
X0112991Y0083279D01*
X0112678Y0083306D01*
X0112366Y0083340D01*
X0112055Y0083382D01*
X0111745Y0083432D01*
X0111436Y0083490D01*
X0111129Y0083555D01*
X0110823Y0083627D01*
X0110519Y0083707D01*
X0110218Y0083795D01*
X0109918Y0083890D01*
X0109621Y0083992D01*
X0109327Y0084101D01*
X0109036Y0084218D01*
X0108747Y0084342D01*
X0108461Y0084472D01*
X0108179Y0084610D01*
X0107900Y0084755D01*
X0107625Y0084906D01*
X0107354Y0085064D01*
X0107087Y0085229D01*
X0106823Y0085400D01*
X0106565Y0085578D01*
X0106310Y0085762D01*
X0106060Y0085952D01*
X0105815Y0086148D01*
X0105575Y0086351D01*
X0105339Y0086559D01*
X0105109Y0086772D01*
X0104885Y0086992D01*
X0104665Y0087216D01*
X0104452Y0087446D01*
X0104244Y0087682D01*
X0104041Y0087922D01*
X0103845Y0088167D01*
X0103655Y0088417D01*
X0103471Y0088672D01*
X0103293Y0088930D01*
X0103122Y0089194D01*
X0102957Y0089461D01*
X0102799Y0089732D01*
X0102648Y0090007D01*
X0102503Y0090286D01*
X0102365Y0090568D01*
X0102235Y0090854D01*
X0102111Y0091143D01*
X0101994Y0091434D01*
X0101885Y0091728D01*
X0101783Y0092025D01*
X0101688Y0092325D01*
X0101600Y0092626D01*
X0101520Y0092930D01*
X0101448Y0093236D01*
X0101383Y0093543D01*
X0101325Y0093852D01*
X0101275Y0094162D01*
X0101233Y0094473D01*
X0101199Y0094785D01*
X0101172Y0095098D01*
X0101152Y0095411D01*
X0101141Y0095725D01*
X0101137Y0096039D01*
X0116432Y0091039D02*
X0121432Y0091039D01*
X0144010Y0064709D02*
X0144010Y0061709D01*
X0143010Y0061709D01*
X0144010Y0061709D02*
X0144010Y0058709D01*
X0164010Y0058709D01*
X0164010Y0061709D01*
X0165010Y0061709D01*
X0164010Y0061709D02*
X0164010Y0064709D01*
X0144010Y0064709D01*
X0148550Y0062486D02*
X0149951Y0063887D01*
X0149951Y0059683D01*
X0148550Y0059683D02*
X0151352Y0059683D01*
X0153154Y0060384D02*
X0155956Y0063186D01*
X0155956Y0060384D01*
X0155255Y0059683D01*
X0153854Y0059683D01*
X0153154Y0060384D01*
X0153154Y0063186D01*
X0153854Y0063887D01*
X0155255Y0063887D01*
X0155956Y0063186D01*
X0157758Y0063887D02*
X0157758Y0059683D01*
X0157758Y0061085D02*
X0159859Y0062486D01*
X0157758Y0061085D02*
X0159859Y0059683D01*
X0184723Y0052370D02*
X0201723Y0052370D01*
X0202129Y0058904D02*
X0200728Y0058904D01*
X0200027Y0059605D01*
X0202830Y0062407D01*
X0202830Y0059605D01*
X0202129Y0058904D01*
X0200027Y0059605D02*
X0200027Y0062407D01*
X0200728Y0063108D01*
X0202129Y0063108D01*
X0202830Y0062407D01*
X0198226Y0062407D02*
X0195423Y0059605D01*
X0196124Y0058904D01*
X0197525Y0058904D01*
X0198226Y0059605D01*
X0198226Y0062407D01*
X0197525Y0063108D01*
X0196124Y0063108D01*
X0195423Y0062407D01*
X0195423Y0059605D01*
X0193622Y0059605D02*
X0192921Y0058904D01*
X0191520Y0058904D01*
X0190820Y0059605D01*
X0192221Y0061006D02*
X0192921Y0061006D01*
X0193622Y0060305D01*
X0193622Y0059605D01*
X0192921Y0061006D02*
X0193622Y0061706D01*
X0193622Y0062407D01*
X0192921Y0063108D01*
X0191520Y0063108D01*
X0190820Y0062407D01*
X0187199Y0061079D02*
X0186199Y0061079D01*
X0187199Y0061079D02*
X0187199Y0058079D01*
X0207199Y0058079D01*
X0207199Y0061079D01*
X0208199Y0061079D01*
X0207199Y0061079D02*
X0207199Y0064079D01*
X0187199Y0064079D01*
X0187199Y0061079D01*
X0181223Y0044370D02*
X0181223Y0036441D01*
X0186223Y0040370D02*
X0186225Y0040542D01*
X0186231Y0040713D01*
X0186242Y0040885D01*
X0186257Y0041056D01*
X0186276Y0041227D01*
X0186299Y0041397D01*
X0186326Y0041567D01*
X0186358Y0041736D01*
X0186393Y0041904D01*
X0186433Y0042071D01*
X0186477Y0042237D01*
X0186524Y0042402D01*
X0186576Y0042566D01*
X0186632Y0042728D01*
X0186692Y0042889D01*
X0186756Y0043049D01*
X0186824Y0043207D01*
X0186895Y0043363D01*
X0186970Y0043517D01*
X0187050Y0043670D01*
X0187132Y0043820D01*
X0187219Y0043969D01*
X0187309Y0044115D01*
X0187403Y0044259D01*
X0187500Y0044401D01*
X0187601Y0044540D01*
X0187705Y0044677D01*
X0187812Y0044811D01*
X0187923Y0044942D01*
X0188036Y0045071D01*
X0188153Y0045197D01*
X0188273Y0045320D01*
X0188396Y0045440D01*
X0188522Y0045557D01*
X0188651Y0045670D01*
X0188782Y0045781D01*
X0188916Y0045888D01*
X0189053Y0045992D01*
X0189192Y0046093D01*
X0189334Y0046190D01*
X0189478Y0046284D01*
X0189624Y0046374D01*
X0189773Y0046461D01*
X0189923Y0046543D01*
X0190076Y0046623D01*
X0190230Y0046698D01*
X0190386Y0046769D01*
X0190544Y0046837D01*
X0190704Y0046901D01*
X0190865Y0046961D01*
X0191027Y0047017D01*
X0191191Y0047069D01*
X0191356Y0047116D01*
X0191522Y0047160D01*
X0191689Y0047200D01*
X0191857Y0047235D01*
X0192026Y0047267D01*
X0192196Y0047294D01*
X0192366Y0047317D01*
X0192537Y0047336D01*
X0192708Y0047351D01*
X0192880Y0047362D01*
X0193051Y0047368D01*
X0193223Y0047370D01*
X0193395Y0047368D01*
X0193566Y0047362D01*
X0193738Y0047351D01*
X0193909Y0047336D01*
X0194080Y0047317D01*
X0194250Y0047294D01*
X0194420Y0047267D01*
X0194589Y0047235D01*
X0194757Y0047200D01*
X0194924Y0047160D01*
X0195090Y0047116D01*
X0195255Y0047069D01*
X0195419Y0047017D01*
X0195581Y0046961D01*
X0195742Y0046901D01*
X0195902Y0046837D01*
X0196060Y0046769D01*
X0196216Y0046698D01*
X0196370Y0046623D01*
X0196523Y0046543D01*
X0196673Y0046461D01*
X0196822Y0046374D01*
X0196968Y0046284D01*
X0197112Y0046190D01*
X0197254Y0046093D01*
X0197393Y0045992D01*
X0197530Y0045888D01*
X0197664Y0045781D01*
X0197795Y0045670D01*
X0197924Y0045557D01*
X0198050Y0045440D01*
X0198173Y0045320D01*
X0198293Y0045197D01*
X0198410Y0045071D01*
X0198523Y0044942D01*
X0198634Y0044811D01*
X0198741Y0044677D01*
X0198845Y0044540D01*
X0198946Y0044401D01*
X0199043Y0044259D01*
X0199137Y0044115D01*
X0199227Y0043969D01*
X0199314Y0043820D01*
X0199396Y0043670D01*
X0199476Y0043517D01*
X0199551Y0043363D01*
X0199622Y0043207D01*
X0199690Y0043049D01*
X0199754Y0042889D01*
X0199814Y0042728D01*
X0199870Y0042566D01*
X0199922Y0042402D01*
X0199969Y0042237D01*
X0200013Y0042071D01*
X0200053Y0041904D01*
X0200088Y0041736D01*
X0200120Y0041567D01*
X0200147Y0041397D01*
X0200170Y0041227D01*
X0200189Y0041056D01*
X0200204Y0040885D01*
X0200215Y0040713D01*
X0200221Y0040542D01*
X0200223Y0040370D01*
X0200221Y0040198D01*
X0200215Y0040027D01*
X0200204Y0039855D01*
X0200189Y0039684D01*
X0200170Y0039513D01*
X0200147Y0039343D01*
X0200120Y0039173D01*
X0200088Y0039004D01*
X0200053Y0038836D01*
X0200013Y0038669D01*
X0199969Y0038503D01*
X0199922Y0038338D01*
X0199870Y0038174D01*
X0199814Y0038012D01*
X0199754Y0037851D01*
X0199690Y0037691D01*
X0199622Y0037533D01*
X0199551Y0037377D01*
X0199476Y0037223D01*
X0199396Y0037070D01*
X0199314Y0036920D01*
X0199227Y0036771D01*
X0199137Y0036625D01*
X0199043Y0036481D01*
X0198946Y0036339D01*
X0198845Y0036200D01*
X0198741Y0036063D01*
X0198634Y0035929D01*
X0198523Y0035798D01*
X0198410Y0035669D01*
X0198293Y0035543D01*
X0198173Y0035420D01*
X0198050Y0035300D01*
X0197924Y0035183D01*
X0197795Y0035070D01*
X0197664Y0034959D01*
X0197530Y0034852D01*
X0197393Y0034748D01*
X0197254Y0034647D01*
X0197112Y0034550D01*
X0196968Y0034456D01*
X0196822Y0034366D01*
X0196673Y0034279D01*
X0196523Y0034197D01*
X0196370Y0034117D01*
X0196216Y0034042D01*
X0196060Y0033971D01*
X0195902Y0033903D01*
X0195742Y0033839D01*
X0195581Y0033779D01*
X0195419Y0033723D01*
X0195255Y0033671D01*
X0195090Y0033624D01*
X0194924Y0033580D01*
X0194757Y0033540D01*
X0194589Y0033505D01*
X0194420Y0033473D01*
X0194250Y0033446D01*
X0194080Y0033423D01*
X0193909Y0033404D01*
X0193738Y0033389D01*
X0193566Y0033378D01*
X0193395Y0033372D01*
X0193223Y0033370D01*
X0193051Y0033372D01*
X0192880Y0033378D01*
X0192708Y0033389D01*
X0192537Y0033404D01*
X0192366Y0033423D01*
X0192196Y0033446D01*
X0192026Y0033473D01*
X0191857Y0033505D01*
X0191689Y0033540D01*
X0191522Y0033580D01*
X0191356Y0033624D01*
X0191191Y0033671D01*
X0191027Y0033723D01*
X0190865Y0033779D01*
X0190704Y0033839D01*
X0190544Y0033903D01*
X0190386Y0033971D01*
X0190230Y0034042D01*
X0190076Y0034117D01*
X0189923Y0034197D01*
X0189773Y0034279D01*
X0189624Y0034366D01*
X0189478Y0034456D01*
X0189334Y0034550D01*
X0189192Y0034647D01*
X0189053Y0034748D01*
X0188916Y0034852D01*
X0188782Y0034959D01*
X0188651Y0035070D01*
X0188522Y0035183D01*
X0188396Y0035300D01*
X0188273Y0035420D01*
X0188153Y0035543D01*
X0188036Y0035669D01*
X0187923Y0035798D01*
X0187812Y0035929D01*
X0187705Y0036063D01*
X0187601Y0036200D01*
X0187500Y0036339D01*
X0187403Y0036481D01*
X0187309Y0036625D01*
X0187219Y0036771D01*
X0187132Y0036920D01*
X0187050Y0037070D01*
X0186970Y0037223D01*
X0186895Y0037377D01*
X0186824Y0037533D01*
X0186756Y0037691D01*
X0186692Y0037851D01*
X0186632Y0038012D01*
X0186576Y0038174D01*
X0186524Y0038338D01*
X0186477Y0038503D01*
X0186433Y0038669D01*
X0186393Y0038836D01*
X0186358Y0039004D01*
X0186326Y0039173D01*
X0186299Y0039343D01*
X0186276Y0039513D01*
X0186257Y0039684D01*
X0186242Y0039855D01*
X0186231Y0040027D01*
X0186225Y0040198D01*
X0186223Y0040370D01*
X0205223Y0044370D02*
X0205223Y0036323D01*
X0201723Y0028370D02*
X0184723Y0028370D01*
X0121707Y0057496D02*
X0116707Y0057496D01*
X0101412Y0062496D02*
X0101416Y0062810D01*
X0101427Y0063124D01*
X0101447Y0063437D01*
X0101474Y0063750D01*
X0101508Y0064062D01*
X0101550Y0064373D01*
X0101600Y0064683D01*
X0101658Y0064992D01*
X0101723Y0065299D01*
X0101795Y0065605D01*
X0101875Y0065909D01*
X0101963Y0066210D01*
X0102058Y0066510D01*
X0102160Y0066807D01*
X0102269Y0067101D01*
X0102386Y0067392D01*
X0102510Y0067681D01*
X0102640Y0067967D01*
X0102778Y0068249D01*
X0102923Y0068528D01*
X0103074Y0068803D01*
X0103232Y0069074D01*
X0103397Y0069341D01*
X0103568Y0069605D01*
X0103746Y0069863D01*
X0103930Y0070118D01*
X0104120Y0070368D01*
X0104316Y0070613D01*
X0104519Y0070853D01*
X0104727Y0071089D01*
X0104940Y0071319D01*
X0105160Y0071543D01*
X0105384Y0071763D01*
X0105614Y0071976D01*
X0105850Y0072184D01*
X0106090Y0072387D01*
X0106335Y0072583D01*
X0106585Y0072773D01*
X0106840Y0072957D01*
X0107098Y0073135D01*
X0107362Y0073306D01*
X0107629Y0073471D01*
X0107900Y0073629D01*
X0108175Y0073780D01*
X0108454Y0073925D01*
X0108736Y0074063D01*
X0109022Y0074193D01*
X0109311Y0074317D01*
X0109602Y0074434D01*
X0109896Y0074543D01*
X0110193Y0074645D01*
X0110493Y0074740D01*
X0110794Y0074828D01*
X0111098Y0074908D01*
X0111404Y0074980D01*
X0111711Y0075045D01*
X0112020Y0075103D01*
X0112330Y0075153D01*
X0112641Y0075195D01*
X0112953Y0075229D01*
X0113266Y0075256D01*
X0113579Y0075276D01*
X0113893Y0075287D01*
X0114207Y0075291D01*
X0114521Y0075287D01*
X0114835Y0075276D01*
X0115148Y0075256D01*
X0115461Y0075229D01*
X0115773Y0075195D01*
X0116084Y0075153D01*
X0116394Y0075103D01*
X0116703Y0075045D01*
X0117010Y0074980D01*
X0117316Y0074908D01*
X0117620Y0074828D01*
X0117921Y0074740D01*
X0118221Y0074645D01*
X0118518Y0074543D01*
X0118812Y0074434D01*
X0119103Y0074317D01*
X0119392Y0074193D01*
X0119678Y0074063D01*
X0119960Y0073925D01*
X0120239Y0073780D01*
X0120514Y0073629D01*
X0120785Y0073471D01*
X0121052Y0073306D01*
X0121316Y0073135D01*
X0121574Y0072957D01*
X0121829Y0072773D01*
X0122079Y0072583D01*
X0122324Y0072387D01*
X0122564Y0072184D01*
X0122800Y0071976D01*
X0123030Y0071763D01*
X0123254Y0071543D01*
X0123474Y0071319D01*
X0123687Y0071089D01*
X0123895Y0070853D01*
X0124098Y0070613D01*
X0124294Y0070368D01*
X0124484Y0070118D01*
X0124668Y0069863D01*
X0124846Y0069605D01*
X0125017Y0069341D01*
X0125182Y0069074D01*
X0125340Y0068803D01*
X0125491Y0068528D01*
X0125636Y0068249D01*
X0125774Y0067967D01*
X0125904Y0067681D01*
X0126028Y0067392D01*
X0126145Y0067101D01*
X0126254Y0066807D01*
X0126356Y0066510D01*
X0126451Y0066210D01*
X0126539Y0065909D01*
X0126619Y0065605D01*
X0126691Y0065299D01*
X0126756Y0064992D01*
X0126814Y0064683D01*
X0126864Y0064373D01*
X0126906Y0064062D01*
X0126940Y0063750D01*
X0126967Y0063437D01*
X0126987Y0063124D01*
X0126998Y0062810D01*
X0127002Y0062496D01*
X0126998Y0062182D01*
X0126987Y0061868D01*
X0126967Y0061555D01*
X0126940Y0061242D01*
X0126906Y0060930D01*
X0126864Y0060619D01*
X0126814Y0060309D01*
X0126756Y0060000D01*
X0126691Y0059693D01*
X0126619Y0059387D01*
X0126539Y0059083D01*
X0126451Y0058782D01*
X0126356Y0058482D01*
X0126254Y0058185D01*
X0126145Y0057891D01*
X0126028Y0057600D01*
X0125904Y0057311D01*
X0125774Y0057025D01*
X0125636Y0056743D01*
X0125491Y0056464D01*
X0125340Y0056189D01*
X0125182Y0055918D01*
X0125017Y0055651D01*
X0124846Y0055387D01*
X0124668Y0055129D01*
X0124484Y0054874D01*
X0124294Y0054624D01*
X0124098Y0054379D01*
X0123895Y0054139D01*
X0123687Y0053903D01*
X0123474Y0053673D01*
X0123254Y0053449D01*
X0123030Y0053229D01*
X0122800Y0053016D01*
X0122564Y0052808D01*
X0122324Y0052605D01*
X0122079Y0052409D01*
X0121829Y0052219D01*
X0121574Y0052035D01*
X0121316Y0051857D01*
X0121052Y0051686D01*
X0120785Y0051521D01*
X0120514Y0051363D01*
X0120239Y0051212D01*
X0119960Y0051067D01*
X0119678Y0050929D01*
X0119392Y0050799D01*
X0119103Y0050675D01*
X0118812Y0050558D01*
X0118518Y0050449D01*
X0118221Y0050347D01*
X0117921Y0050252D01*
X0117620Y0050164D01*
X0117316Y0050084D01*
X0117010Y0050012D01*
X0116703Y0049947D01*
X0116394Y0049889D01*
X0116084Y0049839D01*
X0115773Y0049797D01*
X0115461Y0049763D01*
X0115148Y0049736D01*
X0114835Y0049716D01*
X0114521Y0049705D01*
X0114207Y0049701D01*
X0113893Y0049705D01*
X0113579Y0049716D01*
X0113266Y0049736D01*
X0112953Y0049763D01*
X0112641Y0049797D01*
X0112330Y0049839D01*
X0112020Y0049889D01*
X0111711Y0049947D01*
X0111404Y0050012D01*
X0111098Y0050084D01*
X0110794Y0050164D01*
X0110493Y0050252D01*
X0110193Y0050347D01*
X0109896Y0050449D01*
X0109602Y0050558D01*
X0109311Y0050675D01*
X0109022Y0050799D01*
X0108736Y0050929D01*
X0108454Y0051067D01*
X0108175Y0051212D01*
X0107900Y0051363D01*
X0107629Y0051521D01*
X0107362Y0051686D01*
X0107098Y0051857D01*
X0106840Y0052035D01*
X0106585Y0052219D01*
X0106335Y0052409D01*
X0106090Y0052605D01*
X0105850Y0052808D01*
X0105614Y0053016D01*
X0105384Y0053229D01*
X0105160Y0053449D01*
X0104940Y0053673D01*
X0104727Y0053903D01*
X0104519Y0054139D01*
X0104316Y0054379D01*
X0104120Y0054624D01*
X0103930Y0054874D01*
X0103746Y0055129D01*
X0103568Y0055387D01*
X0103397Y0055651D01*
X0103232Y0055918D01*
X0103074Y0056189D01*
X0102923Y0056464D01*
X0102778Y0056743D01*
X0102640Y0057025D01*
X0102510Y0057311D01*
X0102386Y0057600D01*
X0102269Y0057891D01*
X0102160Y0058185D01*
X0102058Y0058482D01*
X0101963Y0058782D01*
X0101875Y0059083D01*
X0101795Y0059387D01*
X0101723Y0059693D01*
X0101658Y0060000D01*
X0101600Y0060309D01*
X0101550Y0060619D01*
X0101508Y0060930D01*
X0101474Y0061242D01*
X0101447Y0061555D01*
X0101427Y0061868D01*
X0101416Y0062182D01*
X0101412Y0062496D01*
X0217034Y0108087D02*
X0220034Y0108087D01*
X0220034Y0107087D01*
X0220034Y0108087D02*
X0223034Y0108087D01*
X0223034Y0128087D01*
X0220034Y0128087D01*
X0220034Y0129087D01*
X0220034Y0128087D02*
X0217034Y0128087D01*
X0217034Y0108087D01*
X0219257Y0111051D02*
X0217856Y0112452D01*
X0222059Y0112452D01*
X0222059Y0111051D02*
X0222059Y0113853D01*
X0221359Y0115655D02*
X0218556Y0115655D01*
X0217856Y0116356D01*
X0217856Y0117757D01*
X0218556Y0118457D01*
X0221359Y0115655D01*
X0222059Y0116356D01*
X0222059Y0117757D01*
X0221359Y0118457D01*
X0218556Y0118457D01*
X0217856Y0120259D02*
X0222059Y0120259D01*
X0220658Y0120259D02*
X0219257Y0122361D01*
X0220658Y0120259D02*
X0222059Y0122361D01*
X0227822Y0120449D02*
X0230822Y0120449D01*
X0230822Y0121449D01*
X0230822Y0120449D02*
X0233822Y0120449D01*
X0233822Y0100449D01*
X0230822Y0100449D01*
X0230822Y0099449D01*
X0230822Y0100449D02*
X0227822Y0100449D01*
X0227822Y0120449D01*
X0230044Y0114723D02*
X0231446Y0112621D01*
X0232847Y0114723D01*
X0232847Y0112621D02*
X0228643Y0112621D01*
X0229344Y0110820D02*
X0232146Y0108017D01*
X0232847Y0108718D01*
X0232847Y0110119D01*
X0232146Y0110820D01*
X0229344Y0110820D01*
X0228643Y0110119D01*
X0228643Y0108718D01*
X0229344Y0108017D01*
X0232146Y0108017D01*
X0232847Y0106216D02*
X0232847Y0103413D01*
X0232847Y0104814D02*
X0228643Y0104814D01*
X0230044Y0103413D01*
X0240060Y0103662D02*
X0240060Y0102261D01*
X0240761Y0101560D01*
X0243563Y0101560D01*
X0240761Y0104363D01*
X0243563Y0104363D01*
X0244264Y0103662D01*
X0244264Y0102261D01*
X0243563Y0101560D01*
X0244264Y0099759D02*
X0244264Y0096957D01*
X0244264Y0098358D02*
X0240060Y0098358D01*
X0241462Y0096957D01*
X0242239Y0092417D02*
X0239239Y0092417D01*
X0239239Y0112417D01*
X0242239Y0112417D01*
X0242239Y0113417D01*
X0242239Y0112417D02*
X0245239Y0112417D01*
X0245239Y0092417D01*
X0242239Y0092417D01*
X0242239Y0091417D01*
X0267357Y0092673D02*
X0267357Y0097673D01*
X0269857Y0100173D01*
X0267357Y0102673D01*
X0267357Y0107673D01*
X0269857Y0110173D01*
X0267357Y0112673D01*
X0267357Y0117673D01*
X0269857Y0120173D01*
X0267357Y0122673D01*
X0267357Y0127673D01*
X0269857Y0130173D01*
X0274857Y0130173D01*
X0277357Y0127673D01*
X0277357Y0122673D01*
X0274857Y0120173D01*
X0277357Y0117673D01*
X0277357Y0112673D01*
X0274857Y0110173D01*
X0277357Y0107673D01*
X0277357Y0102673D01*
X0274857Y0100173D01*
X0277357Y0097673D01*
X0277357Y0092673D01*
X0274857Y0090173D01*
X0277357Y0087673D01*
X0277357Y0082673D01*
X0274857Y0080173D01*
X0277357Y0077673D01*
X0277357Y0072673D01*
X0274857Y0070173D01*
X0277357Y0067673D01*
X0277357Y0062673D01*
X0274857Y0060173D01*
X0277357Y0057673D01*
X0277357Y0052673D01*
X0274857Y0050173D01*
X0269857Y0050173D01*
X0267357Y0052673D01*
X0267357Y0057673D01*
X0269857Y0060173D01*
X0267357Y0062673D01*
X0267357Y0067673D01*
X0269857Y0070173D01*
X0267357Y0072673D01*
X0267357Y0077673D01*
X0269857Y0080173D01*
X0267357Y0082673D01*
X0267357Y0087673D01*
X0269857Y0090173D01*
X0267357Y0092673D01*
X0240761Y0104363D02*
X0240060Y0103662D01*
X0240060Y0106164D02*
X0244264Y0106164D01*
X0242863Y0106164D02*
X0241462Y0108266D01*
X0242863Y0106164D02*
X0244264Y0108266D01*
X0245644Y0142772D02*
X0243144Y0145272D01*
X0240644Y0142772D01*
X0235644Y0142772D01*
X0233144Y0145272D01*
X0233144Y0150272D01*
X0235644Y0152772D01*
X0240644Y0152772D01*
X0243144Y0150272D01*
X0245644Y0152772D01*
X0250644Y0152772D01*
X0253144Y0150272D01*
X0255644Y0152772D01*
X0260644Y0152772D01*
X0263144Y0150272D01*
X0265644Y0152772D01*
X0270644Y0152772D01*
X0273144Y0150272D01*
X0275644Y0152772D01*
X0280644Y0152772D01*
X0283144Y0150272D01*
X0283144Y0145272D01*
X0280644Y0142772D01*
X0275644Y0142772D01*
X0273144Y0145272D01*
X0270644Y0142772D01*
X0265644Y0142772D01*
X0263144Y0145272D01*
X0260644Y0142772D01*
X0255644Y0142772D01*
X0253144Y0145272D01*
X0250644Y0142772D01*
X0245644Y0142772D01*
X0361877Y0131512D02*
X0361877Y0111512D01*
X0364877Y0111512D01*
X0364877Y0110512D01*
X0364877Y0111512D02*
X0367877Y0111512D01*
X0367877Y0131512D01*
X0364877Y0131512D01*
X0364877Y0132512D01*
X0364877Y0131512D02*
X0361877Y0131512D01*
X0362377Y0114012D02*
X0367377Y0114012D01*
X0369794Y0093441D02*
X0379294Y0093441D01*
X0383294Y0093441D01*
X0383294Y0053441D01*
X0379294Y0053441D01*
X0379294Y0093441D01*
X0369793Y0093441D02*
X0369678Y0093442D01*
X0369563Y0093439D01*
X0369448Y0093432D01*
X0369333Y0093421D01*
X0369219Y0093406D01*
X0369105Y0093388D01*
X0368992Y0093366D01*
X0368879Y0093340D01*
X0368768Y0093310D01*
X0368658Y0093276D01*
X0368548Y0093239D01*
X0368441Y0093198D01*
X0368334Y0093153D01*
X0368230Y0093105D01*
X0368126Y0093053D01*
X0368025Y0092998D01*
X0367926Y0092939D01*
X0367828Y0092878D01*
X0367733Y0092812D01*
X0367640Y0092744D01*
X0367550Y0092673D01*
X0367462Y0092598D01*
X0367376Y0092521D01*
X0367293Y0092441D01*
X0367213Y0092358D01*
X0367136Y0092272D01*
X0367061Y0092184D01*
X0366990Y0092094D01*
X0366922Y0092001D01*
X0366856Y0091906D01*
X0366795Y0091808D01*
X0366736Y0091709D01*
X0366681Y0091608D01*
X0366629Y0091504D01*
X0366581Y0091400D01*
X0366536Y0091293D01*
X0366495Y0091186D01*
X0366458Y0091076D01*
X0366424Y0090966D01*
X0366394Y0090855D01*
X0366368Y0090742D01*
X0366346Y0090629D01*
X0366328Y0090515D01*
X0366313Y0090401D01*
X0366302Y0090286D01*
X0366295Y0090171D01*
X0366292Y0090056D01*
X0366293Y0089941D01*
X0366294Y0089941D02*
X0366294Y0088441D01*
X0366294Y0058441D02*
X0366294Y0056941D01*
X0366293Y0056940D02*
X0366292Y0056825D01*
X0366295Y0056710D01*
X0366302Y0056595D01*
X0366313Y0056480D01*
X0366328Y0056366D01*
X0366346Y0056252D01*
X0366368Y0056139D01*
X0366394Y0056026D01*
X0366424Y0055915D01*
X0366458Y0055805D01*
X0366495Y0055695D01*
X0366536Y0055588D01*
X0366581Y0055481D01*
X0366629Y0055377D01*
X0366681Y0055273D01*
X0366736Y0055172D01*
X0366795Y0055073D01*
X0366856Y0054975D01*
X0366922Y0054880D01*
X0366990Y0054787D01*
X0367061Y0054697D01*
X0367136Y0054609D01*
X0367213Y0054523D01*
X0367293Y0054440D01*
X0367376Y0054360D01*
X0367462Y0054283D01*
X0367550Y0054208D01*
X0367640Y0054137D01*
X0367733Y0054069D01*
X0367828Y0054003D01*
X0367926Y0053942D01*
X0368025Y0053883D01*
X0368126Y0053828D01*
X0368230Y0053776D01*
X0368334Y0053728D01*
X0368441Y0053683D01*
X0368548Y0053642D01*
X0368658Y0053605D01*
X0368768Y0053571D01*
X0368879Y0053541D01*
X0368992Y0053515D01*
X0369105Y0053493D01*
X0369219Y0053475D01*
X0369333Y0053460D01*
X0369448Y0053449D01*
X0369563Y0053442D01*
X0369678Y0053439D01*
X0369793Y0053440D01*
X0369794Y0053441D02*
X0379294Y0053441D01*
X0248617Y0030921D02*
X0248621Y0031235D01*
X0248632Y0031549D01*
X0248652Y0031862D01*
X0248679Y0032175D01*
X0248713Y0032487D01*
X0248755Y0032798D01*
X0248805Y0033108D01*
X0248863Y0033417D01*
X0248928Y0033724D01*
X0249000Y0034030D01*
X0249080Y0034334D01*
X0249168Y0034635D01*
X0249263Y0034935D01*
X0249365Y0035232D01*
X0249474Y0035526D01*
X0249591Y0035817D01*
X0249715Y0036106D01*
X0249845Y0036392D01*
X0249983Y0036674D01*
X0250128Y0036953D01*
X0250279Y0037228D01*
X0250437Y0037499D01*
X0250602Y0037766D01*
X0250773Y0038030D01*
X0250951Y0038288D01*
X0251135Y0038543D01*
X0251325Y0038793D01*
X0251521Y0039038D01*
X0251724Y0039278D01*
X0251932Y0039514D01*
X0252145Y0039744D01*
X0252365Y0039968D01*
X0252589Y0040188D01*
X0252819Y0040401D01*
X0253055Y0040609D01*
X0253295Y0040812D01*
X0253540Y0041008D01*
X0253790Y0041198D01*
X0254045Y0041382D01*
X0254303Y0041560D01*
X0254567Y0041731D01*
X0254834Y0041896D01*
X0255105Y0042054D01*
X0255380Y0042205D01*
X0255659Y0042350D01*
X0255941Y0042488D01*
X0256227Y0042618D01*
X0256516Y0042742D01*
X0256807Y0042859D01*
X0257101Y0042968D01*
X0257398Y0043070D01*
X0257698Y0043165D01*
X0257999Y0043253D01*
X0258303Y0043333D01*
X0258609Y0043405D01*
X0258916Y0043470D01*
X0259225Y0043528D01*
X0259535Y0043578D01*
X0259846Y0043620D01*
X0260158Y0043654D01*
X0260471Y0043681D01*
X0260784Y0043701D01*
X0261098Y0043712D01*
X0261412Y0043716D01*
X0261726Y0043712D01*
X0262040Y0043701D01*
X0262353Y0043681D01*
X0262666Y0043654D01*
X0262978Y0043620D01*
X0263289Y0043578D01*
X0263599Y0043528D01*
X0263908Y0043470D01*
X0264215Y0043405D01*
X0264521Y0043333D01*
X0264825Y0043253D01*
X0265126Y0043165D01*
X0265426Y0043070D01*
X0265723Y0042968D01*
X0266017Y0042859D01*
X0266308Y0042742D01*
X0266597Y0042618D01*
X0266883Y0042488D01*
X0267165Y0042350D01*
X0267444Y0042205D01*
X0267719Y0042054D01*
X0267990Y0041896D01*
X0268257Y0041731D01*
X0268521Y0041560D01*
X0268779Y0041382D01*
X0269034Y0041198D01*
X0269284Y0041008D01*
X0269529Y0040812D01*
X0269769Y0040609D01*
X0270005Y0040401D01*
X0270235Y0040188D01*
X0270459Y0039968D01*
X0270679Y0039744D01*
X0270892Y0039514D01*
X0271100Y0039278D01*
X0271303Y0039038D01*
X0271499Y0038793D01*
X0271689Y0038543D01*
X0271873Y0038288D01*
X0272051Y0038030D01*
X0272222Y0037766D01*
X0272387Y0037499D01*
X0272545Y0037228D01*
X0272696Y0036953D01*
X0272841Y0036674D01*
X0272979Y0036392D01*
X0273109Y0036106D01*
X0273233Y0035817D01*
X0273350Y0035526D01*
X0273459Y0035232D01*
X0273561Y0034935D01*
X0273656Y0034635D01*
X0273744Y0034334D01*
X0273824Y0034030D01*
X0273896Y0033724D01*
X0273961Y0033417D01*
X0274019Y0033108D01*
X0274069Y0032798D01*
X0274111Y0032487D01*
X0274145Y0032175D01*
X0274172Y0031862D01*
X0274192Y0031549D01*
X0274203Y0031235D01*
X0274207Y0030921D01*
X0274203Y0030607D01*
X0274192Y0030293D01*
X0274172Y0029980D01*
X0274145Y0029667D01*
X0274111Y0029355D01*
X0274069Y0029044D01*
X0274019Y0028734D01*
X0273961Y0028425D01*
X0273896Y0028118D01*
X0273824Y0027812D01*
X0273744Y0027508D01*
X0273656Y0027207D01*
X0273561Y0026907D01*
X0273459Y0026610D01*
X0273350Y0026316D01*
X0273233Y0026025D01*
X0273109Y0025736D01*
X0272979Y0025450D01*
X0272841Y0025168D01*
X0272696Y0024889D01*
X0272545Y0024614D01*
X0272387Y0024343D01*
X0272222Y0024076D01*
X0272051Y0023812D01*
X0271873Y0023554D01*
X0271689Y0023299D01*
X0271499Y0023049D01*
X0271303Y0022804D01*
X0271100Y0022564D01*
X0270892Y0022328D01*
X0270679Y0022098D01*
X0270459Y0021874D01*
X0270235Y0021654D01*
X0270005Y0021441D01*
X0269769Y0021233D01*
X0269529Y0021030D01*
X0269284Y0020834D01*
X0269034Y0020644D01*
X0268779Y0020460D01*
X0268521Y0020282D01*
X0268257Y0020111D01*
X0267990Y0019946D01*
X0267719Y0019788D01*
X0267444Y0019637D01*
X0267165Y0019492D01*
X0266883Y0019354D01*
X0266597Y0019224D01*
X0266308Y0019100D01*
X0266017Y0018983D01*
X0265723Y0018874D01*
X0265426Y0018772D01*
X0265126Y0018677D01*
X0264825Y0018589D01*
X0264521Y0018509D01*
X0264215Y0018437D01*
X0263908Y0018372D01*
X0263599Y0018314D01*
X0263289Y0018264D01*
X0262978Y0018222D01*
X0262666Y0018188D01*
X0262353Y0018161D01*
X0262040Y0018141D01*
X0261726Y0018130D01*
X0261412Y0018126D01*
X0261098Y0018130D01*
X0260784Y0018141D01*
X0260471Y0018161D01*
X0260158Y0018188D01*
X0259846Y0018222D01*
X0259535Y0018264D01*
X0259225Y0018314D01*
X0258916Y0018372D01*
X0258609Y0018437D01*
X0258303Y0018509D01*
X0257999Y0018589D01*
X0257698Y0018677D01*
X0257398Y0018772D01*
X0257101Y0018874D01*
X0256807Y0018983D01*
X0256516Y0019100D01*
X0256227Y0019224D01*
X0255941Y0019354D01*
X0255659Y0019492D01*
X0255380Y0019637D01*
X0255105Y0019788D01*
X0254834Y0019946D01*
X0254567Y0020111D01*
X0254303Y0020282D01*
X0254045Y0020460D01*
X0253790Y0020644D01*
X0253540Y0020834D01*
X0253295Y0021030D01*
X0253055Y0021233D01*
X0252819Y0021441D01*
X0252589Y0021654D01*
X0252365Y0021874D01*
X0252145Y0022098D01*
X0251932Y0022328D01*
X0251724Y0022564D01*
X0251521Y0022804D01*
X0251325Y0023049D01*
X0251135Y0023299D01*
X0250951Y0023554D01*
X0250773Y0023812D01*
X0250602Y0024076D01*
X0250437Y0024343D01*
X0250279Y0024614D01*
X0250128Y0024889D01*
X0249983Y0025168D01*
X0249845Y0025450D01*
X0249715Y0025736D01*
X0249591Y0026025D01*
X0249474Y0026316D01*
X0249365Y0026610D01*
X0249263Y0026907D01*
X0249168Y0027207D01*
X0249080Y0027508D01*
X0249000Y0027812D01*
X0248928Y0028118D01*
X0248863Y0028425D01*
X0248805Y0028734D01*
X0248755Y0029044D01*
X0248713Y0029355D01*
X0248679Y0029667D01*
X0248652Y0029980D01*
X0248632Y0030293D01*
X0248621Y0030607D01*
X0248617Y0030921D01*
X0253912Y0035921D02*
X0258912Y0035921D01*
D14*
X0290467Y0014780D02*
X0358971Y0014780D01*
X0358971Y0162024D01*
X0290467Y0162024D01*
X0290467Y0014780D01*
X0315664Y0041945D02*
X0315664Y0079346D01*
X0355034Y0079346D01*
X0355034Y0049819D01*
X0362121Y0049819D01*
X0362121Y0043520D01*
X0355428Y0043520D01*
X0355034Y0041945D02*
X0315664Y0041945D01*
X0355034Y0041945D02*
X0355034Y0049819D01*
X0377160Y0111787D02*
X0377160Y0136787D01*
X0387160Y0136787D01*
X0387160Y0111787D01*
X0377160Y0111787D01*
X0284307Y0112307D02*
X0281304Y0112307D01*
X0279803Y0113809D01*
X0281304Y0115310D01*
X0284307Y0115310D01*
X0284307Y0116911D02*
X0284307Y0119163D01*
X0283556Y0119914D01*
X0280554Y0119914D01*
X0279803Y0119163D01*
X0279803Y0116911D01*
X0284307Y0116911D01*
X0282055Y0115310D02*
X0282055Y0112307D01*
X0279803Y0121515D02*
X0284307Y0124518D01*
X0284307Y0126119D02*
X0284307Y0129122D01*
X0284307Y0126119D02*
X0279803Y0126119D01*
X0279803Y0124518D02*
X0284307Y0121515D01*
X0205034Y0158244D02*
X0142042Y0158244D01*
X0142042Y0071630D01*
X0205034Y0071630D01*
X0205034Y0158244D01*
X0124759Y0042654D02*
X0090900Y0042654D01*
X0090900Y0028874D01*
X0124759Y0028874D01*
X0124759Y0042654D01*
X0149916Y0029740D02*
X0149676Y0029840D01*
X0149438Y0029945D01*
X0149202Y0030057D01*
X0148970Y0030174D01*
X0148741Y0030296D01*
X0148514Y0030424D01*
X0148291Y0030558D01*
X0148071Y0030697D01*
X0147855Y0030842D01*
X0147642Y0030992D01*
X0147433Y0031147D01*
X0147228Y0031307D01*
X0147027Y0031472D01*
X0146830Y0031642D01*
X0146637Y0031817D01*
X0146449Y0031996D01*
X0146265Y0032180D01*
X0146086Y0032368D01*
X0145911Y0032561D01*
X0145741Y0032758D01*
X0145576Y0032959D01*
X0145416Y0033165D01*
X0145261Y0033373D01*
X0145111Y0033586D01*
X0144967Y0033803D01*
X0144827Y0034022D01*
X0144694Y0034246D01*
X0144565Y0034472D01*
X0144443Y0034701D01*
X0144326Y0034934D01*
X0144215Y0035169D01*
X0144109Y0035407D01*
X0144010Y0035647D01*
X0143916Y0035890D01*
X0143828Y0036135D01*
X0143747Y0036382D01*
X0143671Y0036631D01*
X0143602Y0036882D01*
X0143539Y0037134D01*
X0143482Y0037388D01*
X0143431Y0037643D01*
X0143387Y0037899D01*
X0143348Y0038157D01*
X0143317Y0038415D01*
X0143291Y0038674D01*
X0143272Y0038933D01*
X0143259Y0039193D01*
X0143253Y0039453D01*
X0143253Y0039714D01*
X0143259Y0039974D01*
X0143272Y0040234D01*
X0143291Y0040493D01*
X0143317Y0040752D01*
X0143348Y0041010D01*
X0143387Y0041267D01*
X0143431Y0041524D01*
X0143482Y0041779D01*
X0143539Y0042033D01*
X0143602Y0042285D01*
X0143672Y0042536D01*
X0143747Y0042785D01*
X0143829Y0043032D01*
X0143916Y0043277D01*
X0144010Y0043520D01*
X0144110Y0043760D01*
X0144215Y0043998D01*
X0144326Y0044233D01*
X0144443Y0044465D01*
X0144566Y0044695D01*
X0144694Y0044921D01*
X0144828Y0045144D01*
X0144967Y0045364D01*
X0145112Y0045581D01*
X0145262Y0045793D01*
X0145417Y0046002D01*
X0145577Y0046207D01*
X0145742Y0046408D01*
X0145912Y0046605D01*
X0146086Y0046798D01*
X0146266Y0046987D01*
X0146450Y0047171D01*
X0146638Y0047350D01*
X0146831Y0047525D01*
X0147028Y0047695D01*
X0147229Y0047860D01*
X0147434Y0048020D01*
X0147643Y0048175D01*
X0147856Y0048325D01*
X0148072Y0048469D01*
X0148292Y0048608D01*
X0148515Y0048742D01*
X0148742Y0048870D01*
X0148971Y0048993D01*
X0149203Y0049110D01*
X0149439Y0049221D01*
X0149676Y0049327D01*
X0149917Y0049426D01*
X0150160Y0049520D01*
X0150404Y0049607D01*
X0150652Y0049689D01*
X0150900Y0049765D01*
X0151151Y0049834D01*
X0151404Y0049897D01*
X0151657Y0049954D01*
X0151913Y0050005D01*
X0152169Y0050049D01*
X0152426Y0050088D01*
X0152685Y0050119D01*
X0152943Y0050145D01*
X0153203Y0050164D01*
X0153463Y0050177D01*
X0153723Y0050183D01*
X0153983Y0050183D01*
X0154243Y0050177D01*
X0154503Y0050164D01*
X0154763Y0050145D01*
X0155021Y0050119D01*
X0155280Y0050088D01*
X0155537Y0050049D01*
X0155793Y0050005D01*
X0156049Y0049954D01*
X0156302Y0049897D01*
X0156555Y0049834D01*
X0156806Y0049765D01*
X0157054Y0049689D01*
X0157302Y0049607D01*
X0157546Y0049520D01*
X0157789Y0049426D01*
X0158030Y0049327D01*
X0158267Y0049221D01*
X0158503Y0049110D01*
X0158735Y0048993D01*
X0158964Y0048870D01*
X0159191Y0048742D01*
X0159414Y0048608D01*
X0159634Y0048469D01*
X0159850Y0048325D01*
X0160063Y0048175D01*
X0160272Y0048020D01*
X0160477Y0047860D01*
X0160678Y0047695D01*
X0160875Y0047525D01*
X0161068Y0047350D01*
X0161256Y0047171D01*
X0161440Y0046987D01*
X0161620Y0046798D01*
X0161794Y0046605D01*
X0161964Y0046408D01*
X0162129Y0046207D01*
X0162289Y0046002D01*
X0162444Y0045793D01*
X0162594Y0045581D01*
X0162739Y0045364D01*
X0162878Y0045144D01*
X0163012Y0044921D01*
X0163140Y0044695D01*
X0163263Y0044465D01*
X0163380Y0044233D01*
X0163491Y0043998D01*
X0163596Y0043760D01*
X0163696Y0043520D01*
X0163790Y0043277D01*
X0163877Y0043032D01*
X0163959Y0042785D01*
X0164034Y0042536D01*
X0164104Y0042285D01*
X0164167Y0042033D01*
X0164224Y0041779D01*
X0164275Y0041524D01*
X0164319Y0041267D01*
X0164358Y0041010D01*
X0164389Y0040752D01*
X0164415Y0040493D01*
X0164434Y0040234D01*
X0164447Y0039974D01*
X0164453Y0039714D01*
X0164453Y0039453D01*
X0164447Y0039193D01*
X0164434Y0038933D01*
X0164415Y0038674D01*
X0164389Y0038415D01*
X0164358Y0038157D01*
X0164319Y0037899D01*
X0164275Y0037643D01*
X0164224Y0037388D01*
X0164167Y0037134D01*
X0164104Y0036882D01*
X0164035Y0036631D01*
X0163959Y0036382D01*
X0163878Y0036135D01*
X0163790Y0035890D01*
X0163696Y0035647D01*
X0163597Y0035407D01*
X0163491Y0035169D01*
X0163380Y0034934D01*
X0163263Y0034701D01*
X0163141Y0034472D01*
X0163012Y0034246D01*
X0162879Y0034022D01*
X0162739Y0033803D01*
X0162595Y0033586D01*
X0162445Y0033373D01*
X0162290Y0033165D01*
X0162130Y0032959D01*
X0161965Y0032758D01*
X0161795Y0032561D01*
X0161620Y0032368D01*
X0161441Y0032180D01*
X0161257Y0031996D01*
X0161069Y0031817D01*
X0160876Y0031642D01*
X0160679Y0031472D01*
X0160478Y0031307D01*
X0160273Y0031147D01*
X0160064Y0030992D01*
X0159851Y0030842D01*
X0159635Y0030697D01*
X0159415Y0030558D01*
X0159192Y0030424D01*
X0158965Y0030296D01*
X0158736Y0030174D01*
X0158504Y0030057D01*
X0158268Y0029945D01*
X0158030Y0029840D01*
X0157790Y0029740D01*
X0149916Y0029740D01*
X0179425Y0026049D02*
X0179425Y0021545D01*
X0181677Y0021545D01*
X0182428Y0022296D01*
X0182428Y0023047D01*
X0181677Y0023797D01*
X0179425Y0023797D01*
X0181677Y0023797D02*
X0182428Y0024548D01*
X0182428Y0025298D01*
X0181677Y0026049D01*
X0179425Y0026049D01*
X0184029Y0026049D02*
X0184029Y0022296D01*
X0184780Y0021545D01*
X0186281Y0021545D01*
X0187032Y0022296D01*
X0187032Y0026049D01*
X0188633Y0026049D02*
X0191635Y0026049D01*
X0190134Y0026049D02*
X0190134Y0021545D01*
X0194738Y0021545D02*
X0194738Y0026049D01*
X0193237Y0026049D02*
X0196239Y0026049D01*
X0197841Y0025298D02*
X0197841Y0022296D01*
X0198591Y0021545D01*
X0200093Y0021545D01*
X0200843Y0022296D01*
X0200843Y0025298D01*
X0200093Y0026049D01*
X0198591Y0026049D01*
X0197841Y0025298D01*
X0202445Y0026049D02*
X0205447Y0021545D01*
X0205447Y0026049D01*
X0202445Y0026049D02*
X0202445Y0021545D01*
X0114719Y0020213D02*
X0114719Y0028874D01*
X0106845Y0028874D02*
X0106845Y0020213D01*
X0114719Y0020213D01*
X0106845Y0020213D02*
X0100940Y0020213D01*
X0100940Y0028874D01*
D15*
X0381294Y0073441D03*
D16*
X0034750Y0068915D02*
X0034750Y0068665D01*
X0034500Y0068415D01*
X0033750Y0068415D01*
X0033277Y0068915D02*
X0033027Y0069165D01*
X0032527Y0069165D01*
X0032276Y0068915D01*
X0032276Y0067914D01*
X0032527Y0067664D01*
X0033027Y0067664D01*
X0033277Y0067914D01*
X0033750Y0067664D02*
X0034500Y0067664D01*
X0034750Y0067914D01*
X0034750Y0068165D01*
X0034500Y0068415D01*
X0034750Y0068915D02*
X0034500Y0069165D01*
X0033750Y0069165D01*
X0033750Y0067664D01*
X0031804Y0068415D02*
X0031554Y0068165D01*
X0030803Y0068165D01*
X0030331Y0068165D02*
X0030331Y0067914D01*
X0030080Y0067664D01*
X0029330Y0067664D01*
X0029330Y0069165D01*
X0030080Y0069165D01*
X0030331Y0068915D01*
X0030331Y0068665D01*
X0030080Y0068415D01*
X0029330Y0068415D01*
X0028857Y0068165D02*
X0028607Y0068415D01*
X0028107Y0068415D01*
X0027857Y0068665D01*
X0027857Y0068915D01*
X0028107Y0069165D01*
X0028607Y0069165D01*
X0028857Y0068915D01*
X0028857Y0068165D02*
X0028857Y0067914D01*
X0028607Y0067664D01*
X0028107Y0067664D01*
X0027857Y0067914D01*
X0027384Y0067914D02*
X0027384Y0069165D01*
X0026383Y0069165D02*
X0026383Y0067914D01*
X0026634Y0067664D01*
X0027134Y0067664D01*
X0027384Y0067914D01*
X0030080Y0068415D02*
X0030331Y0068165D01*
X0030803Y0067664D02*
X0030803Y0069165D01*
X0031554Y0069165D01*
X0031804Y0068915D01*
X0031804Y0068415D01*
X0030331Y0107664D02*
X0029330Y0107664D01*
X0029830Y0107664D02*
X0029830Y0109165D01*
X0029330Y0108665D01*
X0028857Y0108915D02*
X0028857Y0108415D01*
X0028607Y0108165D01*
X0027857Y0108165D01*
X0027857Y0107664D02*
X0027857Y0109165D01*
X0028607Y0109165D01*
X0028857Y0108915D01*
X0027384Y0109165D02*
X0026884Y0109165D01*
X0027134Y0109165D02*
X0027134Y0107914D01*
X0026884Y0107664D01*
X0026634Y0107664D01*
X0026383Y0107914D01*
M02*
