%
M48
M72
T01C0.02400
T02C0.02756
T03C0.03000
T04C0.03150
T05C0.03200
T06C0.03543
T07C0.04000
%
T01
X91095Y76856
T02
X122595Y31256
X132595Y31256
X96532Y43421
X88658Y43421
X75430Y64819
X75430Y72693
X87595Y111256
X97595Y111256
X117595Y111256
X127595Y111256
X353658Y114091
X361532Y114091
X362595Y66256
X352595Y66256
T03
X312595Y63756
X312595Y68756
X312595Y73756
X312595Y78756
T04
X107438Y21256
X97595Y21256
X87753Y21256
T05
X375095Y46256
X382595Y41256
X382595Y51256
X382595Y81256
X375095Y86256
X382595Y91256
T06
X287595Y31256
X257595Y31256
X252595Y21256
X222595Y21256
X232595Y11256
X242595Y11256
X272595Y11256
X282595Y21256
X207595Y31256
X177595Y31256
X177595Y21256
X192595Y21256
X202595Y11256
X177595Y11256
X147595Y11256
X147595Y21256
X107595Y56256
X107595Y86256
X207595Y116256
X217595Y126256
X247595Y126256
X257595Y126256
X287595Y126256
X237595Y116256
X332595Y85256
X342595Y101256
X372595Y101256
X332595Y57256
T07
X357595Y26256
X347595Y26256
X337595Y26256
X282095Y41256
X283095Y51256
X282095Y61256
X283095Y71256
X282095Y81256
X283095Y91256
X282095Y101256
X283095Y111256
X187595Y120756
X177595Y121756
X167595Y120756
X157595Y121756
X147595Y120756
M30
