G75*
%MOIN*%
%OFA0B0*%
%FSLAX25Y25*%
%IPPOS*%
%LPD*%
%AMOC8*
5,1,8,0,0,1.08239X$1,22.5*
%
%ADD10C,0.00000*%
%ADD11C,0.07300*%
%ADD12R,0.07300X0.07300*%
%ADD13C,0.08200*%
%ADD14C,0.05800*%
%ADD15C,0.07099*%
%ADD16C,0.05950*%
%ADD17R,0.04737X0.08674*%
%ADD18R,0.05524X0.02965*%
%ADD19R,0.04698X0.03517*%
%ADD20C,0.06343*%
%ADD21C,0.06800*%
%ADD22R,0.30328X0.06706*%
%ADD23R,0.26391X0.04737*%
%ADD24R,0.08200X0.08200*%
%ADD25C,0.04800*%
D10*
X0077595Y0001256D02*
X0396296Y0001256D01*
X0396296Y0136256D01*
X0077595Y0136256D01*
X0067595Y0092717D01*
X0032595Y0092717D01*
X0032595Y0045256D01*
X0067595Y0045256D01*
X0077595Y0001256D01*
D11*
X0132595Y0031256D03*
X0362595Y0066256D03*
X0127595Y0111256D03*
X0097595Y0111256D03*
D12*
X0087595Y0111256D03*
X0117595Y0111256D03*
X0352595Y0066256D03*
X0122595Y0031256D03*
D13*
X0147595Y0021256D03*
X0147595Y0011256D03*
X0177595Y0011256D03*
X0202595Y0011256D03*
X0192595Y0021256D03*
X0177595Y0021256D03*
X0177595Y0031256D03*
X0207595Y0031256D03*
X0222595Y0021256D03*
X0252595Y0021256D03*
X0257595Y0031256D03*
X0287595Y0031256D03*
X0282595Y0021256D03*
X0272595Y0011256D03*
X0242595Y0011256D03*
X0232595Y0011256D03*
X0282095Y0041256D03*
X0283095Y0051256D03*
X0282095Y0061256D03*
X0283095Y0071256D03*
X0282095Y0081256D03*
X0283095Y0091256D03*
X0282095Y0101256D03*
X0237595Y0116256D03*
X0247595Y0126256D03*
X0257595Y0126256D03*
X0287595Y0126256D03*
X0217595Y0126256D03*
X0207595Y0116256D03*
X0187595Y0120756D03*
X0177595Y0121756D03*
X0167595Y0120756D03*
X0157595Y0121756D03*
X0147595Y0120756D03*
X0107595Y0086256D03*
X0107595Y0056256D03*
X0342595Y0101256D03*
X0372595Y0101256D03*
X0382595Y0091256D03*
X0375095Y0086256D03*
X0382595Y0081256D03*
X0382595Y0051256D03*
X0375095Y0046256D03*
X0382595Y0041256D03*
D14*
X0315095Y0063756D02*
X0310095Y0063756D01*
X0310095Y0068756D02*
X0315095Y0068756D01*
X0315095Y0073756D02*
X0310095Y0073756D01*
X0310095Y0078756D02*
X0315095Y0078756D01*
D15*
X0353658Y0114091D03*
X0361532Y0114091D03*
X0096532Y0043421D03*
X0088658Y0043421D03*
X0075430Y0064819D03*
X0075430Y0072693D03*
D16*
X0087753Y0021256D03*
X0097595Y0021256D03*
X0107438Y0021256D03*
D17*
X0208422Y0039760D03*
X0216296Y0039760D03*
X0224170Y0039760D03*
X0232044Y0039760D03*
X0239918Y0039760D03*
X0247792Y0039760D03*
X0255666Y0039760D03*
X0263540Y0039760D03*
X0263540Y0102752D03*
X0255666Y0102752D03*
X0247792Y0102752D03*
X0239918Y0102752D03*
X0232044Y0102752D03*
X0224170Y0102752D03*
X0216296Y0102752D03*
X0208422Y0102752D03*
D18*
X0097714Y0069996D03*
X0097714Y0066256D03*
X0097714Y0062516D03*
X0087477Y0062516D03*
X0087477Y0066256D03*
X0087477Y0069996D03*
D19*
X0087516Y0082516D03*
X0087516Y0086256D03*
X0087516Y0089996D03*
X0097713Y0089996D03*
X0097713Y0082516D03*
D20*
X0332595Y0085256D03*
X0332595Y0057256D03*
D21*
X0337595Y0029256D02*
X0337595Y0023256D01*
X0347595Y0023256D02*
X0347595Y0029256D01*
X0357595Y0029256D02*
X0357595Y0023256D01*
D22*
X0051808Y0054976D03*
X0051808Y0082535D03*
D23*
X0053776Y0072693D03*
X0053776Y0064819D03*
D24*
X0283095Y0111256D03*
D25*
X0091095Y0076856D03*
M02*
