G75*
%MOIN*%
%OFA0B0*%
%FSLAX25Y25*%
%IPPOS*%
%LPD*%
%AMOC8*
5,1,8,0,0,1.08239X$1,22.5*
%
%ADD10C,0.00000*%
%ADD11C,0.00800*%
%ADD12C,0.00300*%
%ADD13C,0.00100*%
%ADD14C,0.00500*%
%ADD15C,0.00600*%
%ADD16C,0.00400*%
%ADD17C,0.01000*%
%ADD18C,0.00039*%
%ADD19C,0.00295*%
%ADD20C,0.00200*%
%ADD21R,0.40000X0.04000*%
D10*
X0077595Y0001256D02*
X0396296Y0001256D01*
X0396296Y0136256D01*
X0077595Y0136256D01*
X0067595Y0092717D01*
X0032595Y0092717D01*
X0032595Y0045256D01*
X0067595Y0045256D01*
X0077595Y0001256D01*
D11*
X0151595Y0011256D02*
X0152595Y0011256D01*
X0152595Y0014256D01*
X0172595Y0014256D01*
X0172595Y0011256D01*
X0173595Y0011256D01*
X0172595Y0011256D02*
X0172595Y0008256D01*
X0152595Y0008256D01*
X0152595Y0011256D01*
X0152595Y0018256D02*
X0152595Y0021256D01*
X0151595Y0021256D01*
X0152595Y0021256D02*
X0152595Y0024256D01*
X0172595Y0024256D01*
X0172595Y0021256D01*
X0173595Y0021256D01*
X0172595Y0021256D02*
X0172595Y0018256D01*
X0152595Y0018256D01*
X0135095Y0026256D02*
X0130095Y0026256D01*
X0114800Y0031256D02*
X0114804Y0031570D01*
X0114815Y0031884D01*
X0114835Y0032197D01*
X0114862Y0032510D01*
X0114896Y0032822D01*
X0114938Y0033133D01*
X0114988Y0033443D01*
X0115046Y0033752D01*
X0115111Y0034059D01*
X0115183Y0034365D01*
X0115263Y0034669D01*
X0115351Y0034970D01*
X0115446Y0035270D01*
X0115548Y0035567D01*
X0115657Y0035861D01*
X0115774Y0036152D01*
X0115898Y0036441D01*
X0116028Y0036727D01*
X0116166Y0037009D01*
X0116311Y0037288D01*
X0116462Y0037563D01*
X0116620Y0037834D01*
X0116785Y0038101D01*
X0116956Y0038365D01*
X0117134Y0038623D01*
X0117318Y0038878D01*
X0117508Y0039128D01*
X0117704Y0039373D01*
X0117907Y0039613D01*
X0118115Y0039849D01*
X0118328Y0040079D01*
X0118548Y0040303D01*
X0118772Y0040523D01*
X0119002Y0040736D01*
X0119238Y0040944D01*
X0119478Y0041147D01*
X0119723Y0041343D01*
X0119973Y0041533D01*
X0120228Y0041717D01*
X0120486Y0041895D01*
X0120750Y0042066D01*
X0121017Y0042231D01*
X0121288Y0042389D01*
X0121563Y0042540D01*
X0121842Y0042685D01*
X0122124Y0042823D01*
X0122410Y0042953D01*
X0122699Y0043077D01*
X0122990Y0043194D01*
X0123284Y0043303D01*
X0123581Y0043405D01*
X0123881Y0043500D01*
X0124182Y0043588D01*
X0124486Y0043668D01*
X0124792Y0043740D01*
X0125099Y0043805D01*
X0125408Y0043863D01*
X0125718Y0043913D01*
X0126029Y0043955D01*
X0126341Y0043989D01*
X0126654Y0044016D01*
X0126967Y0044036D01*
X0127281Y0044047D01*
X0127595Y0044051D01*
X0127909Y0044047D01*
X0128223Y0044036D01*
X0128536Y0044016D01*
X0128849Y0043989D01*
X0129161Y0043955D01*
X0129472Y0043913D01*
X0129782Y0043863D01*
X0130091Y0043805D01*
X0130398Y0043740D01*
X0130704Y0043668D01*
X0131008Y0043588D01*
X0131309Y0043500D01*
X0131609Y0043405D01*
X0131906Y0043303D01*
X0132200Y0043194D01*
X0132491Y0043077D01*
X0132780Y0042953D01*
X0133066Y0042823D01*
X0133348Y0042685D01*
X0133627Y0042540D01*
X0133902Y0042389D01*
X0134173Y0042231D01*
X0134440Y0042066D01*
X0134704Y0041895D01*
X0134962Y0041717D01*
X0135217Y0041533D01*
X0135467Y0041343D01*
X0135712Y0041147D01*
X0135952Y0040944D01*
X0136188Y0040736D01*
X0136418Y0040523D01*
X0136642Y0040303D01*
X0136862Y0040079D01*
X0137075Y0039849D01*
X0137283Y0039613D01*
X0137486Y0039373D01*
X0137682Y0039128D01*
X0137872Y0038878D01*
X0138056Y0038623D01*
X0138234Y0038365D01*
X0138405Y0038101D01*
X0138570Y0037834D01*
X0138728Y0037563D01*
X0138879Y0037288D01*
X0139024Y0037009D01*
X0139162Y0036727D01*
X0139292Y0036441D01*
X0139416Y0036152D01*
X0139533Y0035861D01*
X0139642Y0035567D01*
X0139744Y0035270D01*
X0139839Y0034970D01*
X0139927Y0034669D01*
X0140007Y0034365D01*
X0140079Y0034059D01*
X0140144Y0033752D01*
X0140202Y0033443D01*
X0140252Y0033133D01*
X0140294Y0032822D01*
X0140328Y0032510D01*
X0140355Y0032197D01*
X0140375Y0031884D01*
X0140386Y0031570D01*
X0140390Y0031256D01*
X0140386Y0030942D01*
X0140375Y0030628D01*
X0140355Y0030315D01*
X0140328Y0030002D01*
X0140294Y0029690D01*
X0140252Y0029379D01*
X0140202Y0029069D01*
X0140144Y0028760D01*
X0140079Y0028453D01*
X0140007Y0028147D01*
X0139927Y0027843D01*
X0139839Y0027542D01*
X0139744Y0027242D01*
X0139642Y0026945D01*
X0139533Y0026651D01*
X0139416Y0026360D01*
X0139292Y0026071D01*
X0139162Y0025785D01*
X0139024Y0025503D01*
X0138879Y0025224D01*
X0138728Y0024949D01*
X0138570Y0024678D01*
X0138405Y0024411D01*
X0138234Y0024147D01*
X0138056Y0023889D01*
X0137872Y0023634D01*
X0137682Y0023384D01*
X0137486Y0023139D01*
X0137283Y0022899D01*
X0137075Y0022663D01*
X0136862Y0022433D01*
X0136642Y0022209D01*
X0136418Y0021989D01*
X0136188Y0021776D01*
X0135952Y0021568D01*
X0135712Y0021365D01*
X0135467Y0021169D01*
X0135217Y0020979D01*
X0134962Y0020795D01*
X0134704Y0020617D01*
X0134440Y0020446D01*
X0134173Y0020281D01*
X0133902Y0020123D01*
X0133627Y0019972D01*
X0133348Y0019827D01*
X0133066Y0019689D01*
X0132780Y0019559D01*
X0132491Y0019435D01*
X0132200Y0019318D01*
X0131906Y0019209D01*
X0131609Y0019107D01*
X0131309Y0019012D01*
X0131008Y0018924D01*
X0130704Y0018844D01*
X0130398Y0018772D01*
X0130091Y0018707D01*
X0129782Y0018649D01*
X0129472Y0018599D01*
X0129161Y0018557D01*
X0128849Y0018523D01*
X0128536Y0018496D01*
X0128223Y0018476D01*
X0127909Y0018465D01*
X0127595Y0018461D01*
X0127281Y0018465D01*
X0126967Y0018476D01*
X0126654Y0018496D01*
X0126341Y0018523D01*
X0126029Y0018557D01*
X0125718Y0018599D01*
X0125408Y0018649D01*
X0125099Y0018707D01*
X0124792Y0018772D01*
X0124486Y0018844D01*
X0124182Y0018924D01*
X0123881Y0019012D01*
X0123581Y0019107D01*
X0123284Y0019209D01*
X0122990Y0019318D01*
X0122699Y0019435D01*
X0122410Y0019559D01*
X0122124Y0019689D01*
X0121842Y0019827D01*
X0121563Y0019972D01*
X0121288Y0020123D01*
X0121017Y0020281D01*
X0120750Y0020446D01*
X0120486Y0020617D01*
X0120228Y0020795D01*
X0119973Y0020979D01*
X0119723Y0021169D01*
X0119478Y0021365D01*
X0119238Y0021568D01*
X0119002Y0021776D01*
X0118772Y0021989D01*
X0118548Y0022209D01*
X0118328Y0022433D01*
X0118115Y0022663D01*
X0117907Y0022899D01*
X0117704Y0023139D01*
X0117508Y0023384D01*
X0117318Y0023634D01*
X0117134Y0023889D01*
X0116956Y0024147D01*
X0116785Y0024411D01*
X0116620Y0024678D01*
X0116462Y0024949D01*
X0116311Y0025224D01*
X0116166Y0025503D01*
X0116028Y0025785D01*
X0115898Y0026071D01*
X0115774Y0026360D01*
X0115657Y0026651D01*
X0115548Y0026945D01*
X0115446Y0027242D01*
X0115351Y0027542D01*
X0115263Y0027843D01*
X0115183Y0028147D01*
X0115111Y0028453D01*
X0115046Y0028760D01*
X0114988Y0029069D01*
X0114938Y0029379D01*
X0114896Y0029690D01*
X0114862Y0030002D01*
X0114835Y0030315D01*
X0114815Y0030628D01*
X0114804Y0030942D01*
X0114800Y0031256D01*
X0104209Y0032398D02*
X0080981Y0032398D01*
X0080981Y0050114D01*
X0088658Y0050114D01*
X0088658Y0048146D01*
X0096532Y0048146D01*
X0096532Y0050114D01*
X0104209Y0050114D01*
X0104209Y0032398D01*
X0181595Y0031256D02*
X0182595Y0031256D01*
X0182595Y0034256D01*
X0202595Y0034256D01*
X0202595Y0031256D01*
X0203595Y0031256D01*
X0202595Y0031256D02*
X0202595Y0028256D01*
X0182595Y0028256D01*
X0182595Y0031256D01*
X0197595Y0024256D02*
X0197595Y0021256D01*
X0196595Y0021256D01*
X0197595Y0021256D02*
X0197595Y0018256D01*
X0217595Y0018256D01*
X0217595Y0021256D01*
X0218595Y0021256D01*
X0217595Y0021256D02*
X0217595Y0024256D01*
X0197595Y0024256D01*
X0207595Y0014256D02*
X0207595Y0011256D01*
X0206595Y0011256D01*
X0207595Y0011256D02*
X0207595Y0008256D01*
X0227595Y0008256D01*
X0227595Y0011256D01*
X0228595Y0011256D01*
X0227595Y0011256D02*
X0227595Y0014256D01*
X0207595Y0014256D01*
X0246595Y0011256D02*
X0247595Y0011256D01*
X0247595Y0014256D01*
X0267595Y0014256D01*
X0267595Y0011256D01*
X0268595Y0011256D01*
X0267595Y0011256D02*
X0267595Y0008256D01*
X0247595Y0008256D01*
X0247595Y0011256D01*
X0257595Y0018256D02*
X0257595Y0021256D01*
X0256595Y0021256D01*
X0257595Y0021256D02*
X0257595Y0024256D01*
X0277595Y0024256D01*
X0277595Y0021256D01*
X0278595Y0021256D01*
X0277595Y0021256D02*
X0277595Y0018256D01*
X0257595Y0018256D01*
X0262595Y0028256D02*
X0262595Y0031256D01*
X0261595Y0031256D01*
X0262595Y0031256D02*
X0262595Y0034256D01*
X0282595Y0034256D01*
X0282595Y0031256D01*
X0283595Y0031256D01*
X0282595Y0031256D02*
X0282595Y0028256D01*
X0262595Y0028256D01*
X0277595Y0038756D02*
X0280095Y0036256D01*
X0285095Y0036256D01*
X0287595Y0038756D01*
X0287595Y0043756D01*
X0285095Y0046256D01*
X0287595Y0048756D01*
X0287595Y0053756D01*
X0285095Y0056256D01*
X0287595Y0058756D01*
X0287595Y0063756D01*
X0285095Y0066256D01*
X0287595Y0068756D01*
X0287595Y0073756D01*
X0285095Y0076256D01*
X0287595Y0078756D01*
X0287595Y0083756D01*
X0285095Y0086256D01*
X0287595Y0088756D01*
X0287595Y0093756D01*
X0285095Y0096256D01*
X0287595Y0098756D01*
X0287595Y0103756D01*
X0285095Y0106256D01*
X0287595Y0108756D01*
X0287595Y0113756D01*
X0285095Y0116256D01*
X0280095Y0116256D01*
X0277595Y0113756D01*
X0277595Y0108756D01*
X0280095Y0106256D01*
X0277595Y0103756D01*
X0277595Y0098756D01*
X0280095Y0096256D01*
X0277595Y0093756D01*
X0277595Y0088756D01*
X0280095Y0086256D01*
X0277595Y0083756D01*
X0277595Y0078756D01*
X0280095Y0076256D01*
X0277595Y0073756D01*
X0277595Y0068756D01*
X0280095Y0066256D01*
X0277595Y0063756D01*
X0277595Y0058756D01*
X0280095Y0056256D01*
X0277595Y0053756D01*
X0277595Y0048756D01*
X0280095Y0046256D01*
X0277595Y0043756D01*
X0277595Y0038756D01*
X0327595Y0038256D02*
X0327595Y0034256D01*
X0367595Y0034256D01*
X0367595Y0038256D01*
X0327595Y0038256D01*
X0327595Y0034256D02*
X0327595Y0024756D01*
X0327595Y0024755D02*
X0327594Y0024640D01*
X0327597Y0024525D01*
X0327604Y0024410D01*
X0327615Y0024295D01*
X0327630Y0024181D01*
X0327648Y0024067D01*
X0327670Y0023954D01*
X0327696Y0023841D01*
X0327726Y0023730D01*
X0327760Y0023620D01*
X0327797Y0023510D01*
X0327838Y0023403D01*
X0327883Y0023296D01*
X0327931Y0023192D01*
X0327983Y0023088D01*
X0328038Y0022987D01*
X0328097Y0022888D01*
X0328158Y0022790D01*
X0328224Y0022695D01*
X0328292Y0022602D01*
X0328363Y0022512D01*
X0328438Y0022424D01*
X0328515Y0022338D01*
X0328595Y0022255D01*
X0328678Y0022175D01*
X0328764Y0022098D01*
X0328852Y0022023D01*
X0328942Y0021952D01*
X0329035Y0021884D01*
X0329130Y0021818D01*
X0329228Y0021757D01*
X0329327Y0021698D01*
X0329428Y0021643D01*
X0329532Y0021591D01*
X0329636Y0021543D01*
X0329743Y0021498D01*
X0329850Y0021457D01*
X0329960Y0021420D01*
X0330070Y0021386D01*
X0330181Y0021356D01*
X0330294Y0021330D01*
X0330407Y0021308D01*
X0330521Y0021290D01*
X0330635Y0021275D01*
X0330750Y0021264D01*
X0330865Y0021257D01*
X0330980Y0021254D01*
X0331095Y0021255D01*
X0331095Y0021256D02*
X0332595Y0021256D01*
X0362595Y0021256D02*
X0364095Y0021256D01*
X0364096Y0021255D02*
X0364211Y0021254D01*
X0364326Y0021257D01*
X0364441Y0021264D01*
X0364556Y0021275D01*
X0364670Y0021290D01*
X0364784Y0021308D01*
X0364897Y0021330D01*
X0365010Y0021356D01*
X0365121Y0021386D01*
X0365231Y0021420D01*
X0365341Y0021457D01*
X0365448Y0021498D01*
X0365555Y0021543D01*
X0365659Y0021591D01*
X0365763Y0021643D01*
X0365864Y0021698D01*
X0365963Y0021757D01*
X0366061Y0021818D01*
X0366156Y0021884D01*
X0366249Y0021952D01*
X0366339Y0022023D01*
X0366427Y0022098D01*
X0366513Y0022175D01*
X0366596Y0022255D01*
X0366676Y0022338D01*
X0366753Y0022424D01*
X0366828Y0022512D01*
X0366899Y0022602D01*
X0366967Y0022695D01*
X0367033Y0022790D01*
X0367094Y0022888D01*
X0367153Y0022987D01*
X0367208Y0023088D01*
X0367260Y0023192D01*
X0367308Y0023296D01*
X0367353Y0023403D01*
X0367394Y0023510D01*
X0367431Y0023620D01*
X0367465Y0023730D01*
X0367495Y0023841D01*
X0367521Y0023954D01*
X0367543Y0024067D01*
X0367561Y0024181D01*
X0367576Y0024295D01*
X0367587Y0024410D01*
X0367594Y0024525D01*
X0367597Y0024640D01*
X0367596Y0024755D01*
X0367595Y0024756D02*
X0367595Y0034256D01*
X0383595Y0035804D02*
X0383595Y0037383D01*
X0389095Y0038010D02*
X0389095Y0054502D01*
X0383595Y0055129D02*
X0383595Y0056708D01*
X0365095Y0061256D02*
X0360095Y0061256D01*
X0344800Y0066256D02*
X0344804Y0066570D01*
X0344815Y0066884D01*
X0344835Y0067197D01*
X0344862Y0067510D01*
X0344896Y0067822D01*
X0344938Y0068133D01*
X0344988Y0068443D01*
X0345046Y0068752D01*
X0345111Y0069059D01*
X0345183Y0069365D01*
X0345263Y0069669D01*
X0345351Y0069970D01*
X0345446Y0070270D01*
X0345548Y0070567D01*
X0345657Y0070861D01*
X0345774Y0071152D01*
X0345898Y0071441D01*
X0346028Y0071727D01*
X0346166Y0072009D01*
X0346311Y0072288D01*
X0346462Y0072563D01*
X0346620Y0072834D01*
X0346785Y0073101D01*
X0346956Y0073365D01*
X0347134Y0073623D01*
X0347318Y0073878D01*
X0347508Y0074128D01*
X0347704Y0074373D01*
X0347907Y0074613D01*
X0348115Y0074849D01*
X0348328Y0075079D01*
X0348548Y0075303D01*
X0348772Y0075523D01*
X0349002Y0075736D01*
X0349238Y0075944D01*
X0349478Y0076147D01*
X0349723Y0076343D01*
X0349973Y0076533D01*
X0350228Y0076717D01*
X0350486Y0076895D01*
X0350750Y0077066D01*
X0351017Y0077231D01*
X0351288Y0077389D01*
X0351563Y0077540D01*
X0351842Y0077685D01*
X0352124Y0077823D01*
X0352410Y0077953D01*
X0352699Y0078077D01*
X0352990Y0078194D01*
X0353284Y0078303D01*
X0353581Y0078405D01*
X0353881Y0078500D01*
X0354182Y0078588D01*
X0354486Y0078668D01*
X0354792Y0078740D01*
X0355099Y0078805D01*
X0355408Y0078863D01*
X0355718Y0078913D01*
X0356029Y0078955D01*
X0356341Y0078989D01*
X0356654Y0079016D01*
X0356967Y0079036D01*
X0357281Y0079047D01*
X0357595Y0079051D01*
X0357909Y0079047D01*
X0358223Y0079036D01*
X0358536Y0079016D01*
X0358849Y0078989D01*
X0359161Y0078955D01*
X0359472Y0078913D01*
X0359782Y0078863D01*
X0360091Y0078805D01*
X0360398Y0078740D01*
X0360704Y0078668D01*
X0361008Y0078588D01*
X0361309Y0078500D01*
X0361609Y0078405D01*
X0361906Y0078303D01*
X0362200Y0078194D01*
X0362491Y0078077D01*
X0362780Y0077953D01*
X0363066Y0077823D01*
X0363348Y0077685D01*
X0363627Y0077540D01*
X0363902Y0077389D01*
X0364173Y0077231D01*
X0364440Y0077066D01*
X0364704Y0076895D01*
X0364962Y0076717D01*
X0365217Y0076533D01*
X0365467Y0076343D01*
X0365712Y0076147D01*
X0365952Y0075944D01*
X0366188Y0075736D01*
X0366418Y0075523D01*
X0366642Y0075303D01*
X0366862Y0075079D01*
X0367075Y0074849D01*
X0367283Y0074613D01*
X0367486Y0074373D01*
X0367682Y0074128D01*
X0367872Y0073878D01*
X0368056Y0073623D01*
X0368234Y0073365D01*
X0368405Y0073101D01*
X0368570Y0072834D01*
X0368728Y0072563D01*
X0368879Y0072288D01*
X0369024Y0072009D01*
X0369162Y0071727D01*
X0369292Y0071441D01*
X0369416Y0071152D01*
X0369533Y0070861D01*
X0369642Y0070567D01*
X0369744Y0070270D01*
X0369839Y0069970D01*
X0369927Y0069669D01*
X0370007Y0069365D01*
X0370079Y0069059D01*
X0370144Y0068752D01*
X0370202Y0068443D01*
X0370252Y0068133D01*
X0370294Y0067822D01*
X0370328Y0067510D01*
X0370355Y0067197D01*
X0370375Y0066884D01*
X0370386Y0066570D01*
X0370390Y0066256D01*
X0370386Y0065942D01*
X0370375Y0065628D01*
X0370355Y0065315D01*
X0370328Y0065002D01*
X0370294Y0064690D01*
X0370252Y0064379D01*
X0370202Y0064069D01*
X0370144Y0063760D01*
X0370079Y0063453D01*
X0370007Y0063147D01*
X0369927Y0062843D01*
X0369839Y0062542D01*
X0369744Y0062242D01*
X0369642Y0061945D01*
X0369533Y0061651D01*
X0369416Y0061360D01*
X0369292Y0061071D01*
X0369162Y0060785D01*
X0369024Y0060503D01*
X0368879Y0060224D01*
X0368728Y0059949D01*
X0368570Y0059678D01*
X0368405Y0059411D01*
X0368234Y0059147D01*
X0368056Y0058889D01*
X0367872Y0058634D01*
X0367682Y0058384D01*
X0367486Y0058139D01*
X0367283Y0057899D01*
X0367075Y0057663D01*
X0366862Y0057433D01*
X0366642Y0057209D01*
X0366418Y0056989D01*
X0366188Y0056776D01*
X0365952Y0056568D01*
X0365712Y0056365D01*
X0365467Y0056169D01*
X0365217Y0055979D01*
X0364962Y0055795D01*
X0364704Y0055617D01*
X0364440Y0055446D01*
X0364173Y0055281D01*
X0363902Y0055123D01*
X0363627Y0054972D01*
X0363348Y0054827D01*
X0363066Y0054689D01*
X0362780Y0054559D01*
X0362491Y0054435D01*
X0362200Y0054318D01*
X0361906Y0054209D01*
X0361609Y0054107D01*
X0361309Y0054012D01*
X0361008Y0053924D01*
X0360704Y0053844D01*
X0360398Y0053772D01*
X0360091Y0053707D01*
X0359782Y0053649D01*
X0359472Y0053599D01*
X0359161Y0053557D01*
X0358849Y0053523D01*
X0358536Y0053496D01*
X0358223Y0053476D01*
X0357909Y0053465D01*
X0357595Y0053461D01*
X0357281Y0053465D01*
X0356967Y0053476D01*
X0356654Y0053496D01*
X0356341Y0053523D01*
X0356029Y0053557D01*
X0355718Y0053599D01*
X0355408Y0053649D01*
X0355099Y0053707D01*
X0354792Y0053772D01*
X0354486Y0053844D01*
X0354182Y0053924D01*
X0353881Y0054012D01*
X0353581Y0054107D01*
X0353284Y0054209D01*
X0352990Y0054318D01*
X0352699Y0054435D01*
X0352410Y0054559D01*
X0352124Y0054689D01*
X0351842Y0054827D01*
X0351563Y0054972D01*
X0351288Y0055123D01*
X0351017Y0055281D01*
X0350750Y0055446D01*
X0350486Y0055617D01*
X0350228Y0055795D01*
X0349973Y0055979D01*
X0349723Y0056169D01*
X0349478Y0056365D01*
X0349238Y0056568D01*
X0349002Y0056776D01*
X0348772Y0056989D01*
X0348548Y0057209D01*
X0348328Y0057433D01*
X0348115Y0057663D01*
X0347907Y0057899D01*
X0347704Y0058139D01*
X0347508Y0058384D01*
X0347318Y0058634D01*
X0347134Y0058889D01*
X0346956Y0059147D01*
X0346785Y0059411D01*
X0346620Y0059678D01*
X0346462Y0059949D01*
X0346311Y0060224D01*
X0346166Y0060503D01*
X0346028Y0060785D01*
X0345898Y0061071D01*
X0345774Y0061360D01*
X0345657Y0061651D01*
X0345548Y0061945D01*
X0345446Y0062242D01*
X0345351Y0062542D01*
X0345263Y0062843D01*
X0345183Y0063147D01*
X0345111Y0063453D01*
X0345046Y0063760D01*
X0344988Y0064069D01*
X0344938Y0064379D01*
X0344896Y0064690D01*
X0344862Y0065002D01*
X0344835Y0065315D01*
X0344815Y0065628D01*
X0344804Y0065942D01*
X0344800Y0066256D01*
X0335595Y0064256D02*
X0332595Y0064256D01*
X0332595Y0061256D01*
X0332595Y0064256D02*
X0329595Y0064256D01*
X0329595Y0078256D01*
X0332595Y0078256D01*
X0332595Y0081256D01*
X0332595Y0078256D02*
X0335595Y0078256D01*
X0335595Y0064256D01*
X0335095Y0076256D02*
X0330095Y0076256D01*
X0372562Y0083160D02*
X0372640Y0082918D01*
X0372723Y0082678D01*
X0372813Y0082440D01*
X0372908Y0082204D01*
X0373010Y0081970D01*
X0373116Y0081739D01*
X0373228Y0081511D01*
X0373346Y0081285D01*
X0373469Y0081062D01*
X0373598Y0080843D01*
X0373732Y0080626D01*
X0373871Y0080413D01*
X0374015Y0080203D01*
X0374164Y0079997D01*
X0374318Y0079795D01*
X0374477Y0079596D01*
X0374641Y0079401D01*
X0374810Y0079211D01*
X0374983Y0079024D01*
X0375160Y0078842D01*
X0375342Y0078664D01*
X0375528Y0078490D01*
X0375719Y0078321D01*
X0375913Y0078157D01*
X0376111Y0077997D01*
X0376313Y0077842D01*
X0376519Y0077693D01*
X0376728Y0077548D01*
X0376941Y0077408D01*
X0377157Y0077274D01*
X0377376Y0077145D01*
X0377599Y0077021D01*
X0377824Y0076903D01*
X0378052Y0076790D01*
X0378283Y0076682D01*
X0378516Y0076581D01*
X0378752Y0076485D01*
X0378990Y0076394D01*
X0379230Y0076310D01*
X0379472Y0076231D01*
X0379716Y0076158D01*
X0379961Y0076092D01*
X0380208Y0076031D01*
X0380457Y0075976D01*
X0380707Y0075927D01*
X0380958Y0075884D01*
X0381209Y0075848D01*
X0381462Y0075817D01*
X0381715Y0075793D01*
X0381969Y0075775D01*
X0382223Y0075763D01*
X0382478Y0075757D01*
X0382732Y0075757D01*
X0382987Y0075763D01*
X0383241Y0075776D01*
X0383495Y0075795D01*
X0383748Y0075820D01*
X0384001Y0075851D01*
X0384252Y0075888D01*
X0384503Y0075931D01*
X0384753Y0075980D01*
X0385001Y0076035D01*
X0385248Y0076097D01*
X0385494Y0076164D01*
X0385737Y0076237D01*
X0385979Y0076316D01*
X0386219Y0076401D01*
X0386457Y0076492D01*
X0386693Y0076589D01*
X0386926Y0076691D01*
X0387156Y0076798D01*
X0387384Y0076912D01*
X0387609Y0077031D01*
X0387831Y0077155D01*
X0388050Y0077284D01*
X0388266Y0077419D01*
X0388479Y0077559D01*
X0388688Y0077704D01*
X0388893Y0077855D01*
X0389095Y0078010D01*
X0389095Y0094502D01*
X0383595Y0095129D02*
X0383595Y0096708D01*
X0368595Y0101256D02*
X0367595Y0101256D01*
X0367595Y0098256D01*
X0347595Y0098256D01*
X0347595Y0101256D01*
X0346595Y0101256D01*
X0347595Y0101256D02*
X0347595Y0104256D01*
X0367595Y0104256D01*
X0367595Y0101256D01*
X0350095Y0098756D02*
X0350095Y0103756D01*
X0353658Y0107398D02*
X0345981Y0107398D01*
X0345981Y0125114D01*
X0369209Y0125114D01*
X0369209Y0107398D01*
X0361532Y0107398D01*
X0361532Y0109366D01*
X0353658Y0109366D01*
X0353658Y0107398D01*
X0383595Y0087383D02*
X0383595Y0085129D01*
X0389095Y0094502D02*
X0388893Y0094657D01*
X0388688Y0094807D01*
X0388479Y0094953D01*
X0388266Y0095093D01*
X0388050Y0095228D01*
X0387831Y0095357D01*
X0387609Y0095481D01*
X0387384Y0095600D01*
X0387156Y0095713D01*
X0386926Y0095821D01*
X0386693Y0095923D01*
X0386457Y0096020D01*
X0386219Y0096111D01*
X0385980Y0096196D01*
X0385738Y0096275D01*
X0385494Y0096348D01*
X0385249Y0096415D01*
X0385002Y0096477D01*
X0384753Y0096532D01*
X0384503Y0096581D01*
X0384253Y0096624D01*
X0384001Y0096661D01*
X0383748Y0096692D01*
X0383495Y0096717D01*
X0383241Y0096736D01*
X0382987Y0096749D01*
X0382733Y0096755D01*
X0382478Y0096755D01*
X0382224Y0096749D01*
X0381969Y0096737D01*
X0381716Y0096719D01*
X0381462Y0096695D01*
X0381210Y0096664D01*
X0380958Y0096628D01*
X0380707Y0096585D01*
X0380457Y0096536D01*
X0380209Y0096481D01*
X0379962Y0096420D01*
X0379716Y0096354D01*
X0379472Y0096281D01*
X0379230Y0096202D01*
X0378990Y0096118D01*
X0378752Y0096027D01*
X0378516Y0095931D01*
X0378283Y0095830D01*
X0378052Y0095722D01*
X0377824Y0095610D01*
X0377599Y0095491D01*
X0377377Y0095367D01*
X0377157Y0095238D01*
X0376941Y0095104D01*
X0376728Y0094964D01*
X0376519Y0094819D01*
X0376313Y0094670D01*
X0376111Y0094515D01*
X0375913Y0094355D01*
X0375719Y0094191D01*
X0375528Y0094022D01*
X0375342Y0093849D01*
X0375160Y0093671D01*
X0374983Y0093488D01*
X0374810Y0093302D01*
X0374641Y0093111D01*
X0374477Y0092916D01*
X0374318Y0092717D01*
X0374164Y0092515D01*
X0374015Y0092309D01*
X0373871Y0092099D01*
X0373732Y0091886D01*
X0373598Y0091669D01*
X0373469Y0091450D01*
X0373346Y0091227D01*
X0373229Y0091001D01*
X0373116Y0090773D01*
X0373010Y0090542D01*
X0372909Y0090308D01*
X0372813Y0090072D01*
X0372724Y0089834D01*
X0372640Y0089594D01*
X0372562Y0089352D01*
X0383595Y0077383D02*
X0383595Y0075804D01*
X0383595Y0047383D02*
X0383595Y0045129D01*
X0389095Y0054502D02*
X0388893Y0054657D01*
X0388688Y0054807D01*
X0388479Y0054953D01*
X0388266Y0055093D01*
X0388050Y0055228D01*
X0387831Y0055357D01*
X0387609Y0055481D01*
X0387384Y0055600D01*
X0387156Y0055713D01*
X0386926Y0055821D01*
X0386693Y0055923D01*
X0386457Y0056020D01*
X0386219Y0056111D01*
X0385980Y0056196D01*
X0385738Y0056275D01*
X0385494Y0056348D01*
X0385249Y0056415D01*
X0385002Y0056477D01*
X0384753Y0056532D01*
X0384503Y0056581D01*
X0384253Y0056624D01*
X0384001Y0056661D01*
X0383748Y0056692D01*
X0383495Y0056717D01*
X0383241Y0056736D01*
X0382987Y0056749D01*
X0382733Y0056755D01*
X0382478Y0056755D01*
X0382224Y0056749D01*
X0381969Y0056737D01*
X0381716Y0056719D01*
X0381462Y0056695D01*
X0381210Y0056664D01*
X0380958Y0056628D01*
X0380707Y0056585D01*
X0380457Y0056536D01*
X0380209Y0056481D01*
X0379962Y0056420D01*
X0379716Y0056354D01*
X0379472Y0056281D01*
X0379230Y0056202D01*
X0378990Y0056118D01*
X0378752Y0056027D01*
X0378516Y0055931D01*
X0378283Y0055830D01*
X0378052Y0055722D01*
X0377824Y0055610D01*
X0377599Y0055491D01*
X0377377Y0055367D01*
X0377157Y0055238D01*
X0376941Y0055104D01*
X0376728Y0054964D01*
X0376519Y0054819D01*
X0376313Y0054670D01*
X0376111Y0054515D01*
X0375913Y0054355D01*
X0375719Y0054191D01*
X0375528Y0054022D01*
X0375342Y0053849D01*
X0375160Y0053671D01*
X0374983Y0053488D01*
X0374810Y0053302D01*
X0374641Y0053111D01*
X0374477Y0052916D01*
X0374318Y0052717D01*
X0374164Y0052515D01*
X0374015Y0052309D01*
X0373871Y0052099D01*
X0373732Y0051886D01*
X0373598Y0051669D01*
X0373469Y0051450D01*
X0373346Y0051227D01*
X0373229Y0051001D01*
X0373116Y0050773D01*
X0373010Y0050542D01*
X0372909Y0050308D01*
X0372813Y0050072D01*
X0372724Y0049834D01*
X0372640Y0049594D01*
X0372562Y0049352D01*
X0372562Y0043160D02*
X0372640Y0042918D01*
X0372723Y0042678D01*
X0372813Y0042440D01*
X0372908Y0042204D01*
X0373010Y0041970D01*
X0373116Y0041739D01*
X0373228Y0041511D01*
X0373346Y0041285D01*
X0373469Y0041062D01*
X0373598Y0040843D01*
X0373732Y0040626D01*
X0373871Y0040413D01*
X0374015Y0040203D01*
X0374164Y0039997D01*
X0374318Y0039795D01*
X0374477Y0039596D01*
X0374641Y0039401D01*
X0374810Y0039211D01*
X0374983Y0039024D01*
X0375160Y0038842D01*
X0375342Y0038664D01*
X0375528Y0038490D01*
X0375719Y0038321D01*
X0375913Y0038157D01*
X0376111Y0037997D01*
X0376313Y0037842D01*
X0376519Y0037693D01*
X0376728Y0037548D01*
X0376941Y0037408D01*
X0377157Y0037274D01*
X0377376Y0037145D01*
X0377599Y0037021D01*
X0377824Y0036903D01*
X0378052Y0036790D01*
X0378283Y0036682D01*
X0378516Y0036581D01*
X0378752Y0036485D01*
X0378990Y0036394D01*
X0379230Y0036310D01*
X0379472Y0036231D01*
X0379716Y0036158D01*
X0379961Y0036092D01*
X0380208Y0036031D01*
X0380457Y0035976D01*
X0380707Y0035927D01*
X0380958Y0035884D01*
X0381209Y0035848D01*
X0381462Y0035817D01*
X0381715Y0035793D01*
X0381969Y0035775D01*
X0382223Y0035763D01*
X0382478Y0035757D01*
X0382732Y0035757D01*
X0382987Y0035763D01*
X0383241Y0035776D01*
X0383495Y0035795D01*
X0383748Y0035820D01*
X0384001Y0035851D01*
X0384252Y0035888D01*
X0384503Y0035931D01*
X0384753Y0035980D01*
X0385001Y0036035D01*
X0385248Y0036097D01*
X0385494Y0036164D01*
X0385737Y0036237D01*
X0385979Y0036316D01*
X0386219Y0036401D01*
X0386457Y0036492D01*
X0386693Y0036589D01*
X0386926Y0036691D01*
X0387156Y0036798D01*
X0387384Y0036912D01*
X0387609Y0037031D01*
X0387831Y0037155D01*
X0388050Y0037284D01*
X0388266Y0037419D01*
X0388479Y0037559D01*
X0388688Y0037704D01*
X0388893Y0037855D01*
X0389095Y0038010D01*
X0232595Y0113256D02*
X0212595Y0113256D01*
X0212595Y0116256D01*
X0211595Y0116256D01*
X0212595Y0116256D02*
X0212595Y0119256D01*
X0232595Y0119256D01*
X0232595Y0116256D01*
X0233595Y0116256D01*
X0232595Y0116256D02*
X0232595Y0113256D01*
X0222595Y0123256D02*
X0222595Y0126256D01*
X0221595Y0126256D01*
X0222595Y0126256D02*
X0222595Y0129256D01*
X0242595Y0129256D01*
X0242595Y0126256D01*
X0243595Y0126256D01*
X0242595Y0126256D02*
X0242595Y0123256D01*
X0222595Y0123256D01*
X0192595Y0123756D02*
X0192595Y0118756D01*
X0190095Y0116256D01*
X0185095Y0116256D01*
X0182595Y0118756D01*
X0180095Y0116256D01*
X0175095Y0116256D01*
X0172595Y0118756D01*
X0170095Y0116256D01*
X0165095Y0116256D01*
X0162595Y0118756D01*
X0160095Y0116256D01*
X0155095Y0116256D01*
X0152595Y0118756D01*
X0150095Y0116256D01*
X0145095Y0116256D01*
X0142595Y0118756D01*
X0142595Y0123756D01*
X0145095Y0126256D01*
X0150095Y0126256D01*
X0152595Y0123756D01*
X0155095Y0126256D01*
X0160095Y0126256D01*
X0162595Y0123756D01*
X0165095Y0126256D01*
X0170095Y0126256D01*
X0172595Y0123756D01*
X0175095Y0126256D01*
X0180095Y0126256D01*
X0182595Y0123756D01*
X0185095Y0126256D01*
X0190095Y0126256D01*
X0192595Y0123756D01*
X0130095Y0106256D02*
X0125095Y0106256D01*
X0109800Y0111256D02*
X0109804Y0111570D01*
X0109815Y0111884D01*
X0109835Y0112197D01*
X0109862Y0112510D01*
X0109896Y0112822D01*
X0109938Y0113133D01*
X0109988Y0113443D01*
X0110046Y0113752D01*
X0110111Y0114059D01*
X0110183Y0114365D01*
X0110263Y0114669D01*
X0110351Y0114970D01*
X0110446Y0115270D01*
X0110548Y0115567D01*
X0110657Y0115861D01*
X0110774Y0116152D01*
X0110898Y0116441D01*
X0111028Y0116727D01*
X0111166Y0117009D01*
X0111311Y0117288D01*
X0111462Y0117563D01*
X0111620Y0117834D01*
X0111785Y0118101D01*
X0111956Y0118365D01*
X0112134Y0118623D01*
X0112318Y0118878D01*
X0112508Y0119128D01*
X0112704Y0119373D01*
X0112907Y0119613D01*
X0113115Y0119849D01*
X0113328Y0120079D01*
X0113548Y0120303D01*
X0113772Y0120523D01*
X0114002Y0120736D01*
X0114238Y0120944D01*
X0114478Y0121147D01*
X0114723Y0121343D01*
X0114973Y0121533D01*
X0115228Y0121717D01*
X0115486Y0121895D01*
X0115750Y0122066D01*
X0116017Y0122231D01*
X0116288Y0122389D01*
X0116563Y0122540D01*
X0116842Y0122685D01*
X0117124Y0122823D01*
X0117410Y0122953D01*
X0117699Y0123077D01*
X0117990Y0123194D01*
X0118284Y0123303D01*
X0118581Y0123405D01*
X0118881Y0123500D01*
X0119182Y0123588D01*
X0119486Y0123668D01*
X0119792Y0123740D01*
X0120099Y0123805D01*
X0120408Y0123863D01*
X0120718Y0123913D01*
X0121029Y0123955D01*
X0121341Y0123989D01*
X0121654Y0124016D01*
X0121967Y0124036D01*
X0122281Y0124047D01*
X0122595Y0124051D01*
X0122909Y0124047D01*
X0123223Y0124036D01*
X0123536Y0124016D01*
X0123849Y0123989D01*
X0124161Y0123955D01*
X0124472Y0123913D01*
X0124782Y0123863D01*
X0125091Y0123805D01*
X0125398Y0123740D01*
X0125704Y0123668D01*
X0126008Y0123588D01*
X0126309Y0123500D01*
X0126609Y0123405D01*
X0126906Y0123303D01*
X0127200Y0123194D01*
X0127491Y0123077D01*
X0127780Y0122953D01*
X0128066Y0122823D01*
X0128348Y0122685D01*
X0128627Y0122540D01*
X0128902Y0122389D01*
X0129173Y0122231D01*
X0129440Y0122066D01*
X0129704Y0121895D01*
X0129962Y0121717D01*
X0130217Y0121533D01*
X0130467Y0121343D01*
X0130712Y0121147D01*
X0130952Y0120944D01*
X0131188Y0120736D01*
X0131418Y0120523D01*
X0131642Y0120303D01*
X0131862Y0120079D01*
X0132075Y0119849D01*
X0132283Y0119613D01*
X0132486Y0119373D01*
X0132682Y0119128D01*
X0132872Y0118878D01*
X0133056Y0118623D01*
X0133234Y0118365D01*
X0133405Y0118101D01*
X0133570Y0117834D01*
X0133728Y0117563D01*
X0133879Y0117288D01*
X0134024Y0117009D01*
X0134162Y0116727D01*
X0134292Y0116441D01*
X0134416Y0116152D01*
X0134533Y0115861D01*
X0134642Y0115567D01*
X0134744Y0115270D01*
X0134839Y0114970D01*
X0134927Y0114669D01*
X0135007Y0114365D01*
X0135079Y0114059D01*
X0135144Y0113752D01*
X0135202Y0113443D01*
X0135252Y0113133D01*
X0135294Y0112822D01*
X0135328Y0112510D01*
X0135355Y0112197D01*
X0135375Y0111884D01*
X0135386Y0111570D01*
X0135390Y0111256D01*
X0135386Y0110942D01*
X0135375Y0110628D01*
X0135355Y0110315D01*
X0135328Y0110002D01*
X0135294Y0109690D01*
X0135252Y0109379D01*
X0135202Y0109069D01*
X0135144Y0108760D01*
X0135079Y0108453D01*
X0135007Y0108147D01*
X0134927Y0107843D01*
X0134839Y0107542D01*
X0134744Y0107242D01*
X0134642Y0106945D01*
X0134533Y0106651D01*
X0134416Y0106360D01*
X0134292Y0106071D01*
X0134162Y0105785D01*
X0134024Y0105503D01*
X0133879Y0105224D01*
X0133728Y0104949D01*
X0133570Y0104678D01*
X0133405Y0104411D01*
X0133234Y0104147D01*
X0133056Y0103889D01*
X0132872Y0103634D01*
X0132682Y0103384D01*
X0132486Y0103139D01*
X0132283Y0102899D01*
X0132075Y0102663D01*
X0131862Y0102433D01*
X0131642Y0102209D01*
X0131418Y0101989D01*
X0131188Y0101776D01*
X0130952Y0101568D01*
X0130712Y0101365D01*
X0130467Y0101169D01*
X0130217Y0100979D01*
X0129962Y0100795D01*
X0129704Y0100617D01*
X0129440Y0100446D01*
X0129173Y0100281D01*
X0128902Y0100123D01*
X0128627Y0099972D01*
X0128348Y0099827D01*
X0128066Y0099689D01*
X0127780Y0099559D01*
X0127491Y0099435D01*
X0127200Y0099318D01*
X0126906Y0099209D01*
X0126609Y0099107D01*
X0126309Y0099012D01*
X0126008Y0098924D01*
X0125704Y0098844D01*
X0125398Y0098772D01*
X0125091Y0098707D01*
X0124782Y0098649D01*
X0124472Y0098599D01*
X0124161Y0098557D01*
X0123849Y0098523D01*
X0123536Y0098496D01*
X0123223Y0098476D01*
X0122909Y0098465D01*
X0122595Y0098461D01*
X0122281Y0098465D01*
X0121967Y0098476D01*
X0121654Y0098496D01*
X0121341Y0098523D01*
X0121029Y0098557D01*
X0120718Y0098599D01*
X0120408Y0098649D01*
X0120099Y0098707D01*
X0119792Y0098772D01*
X0119486Y0098844D01*
X0119182Y0098924D01*
X0118881Y0099012D01*
X0118581Y0099107D01*
X0118284Y0099209D01*
X0117990Y0099318D01*
X0117699Y0099435D01*
X0117410Y0099559D01*
X0117124Y0099689D01*
X0116842Y0099827D01*
X0116563Y0099972D01*
X0116288Y0100123D01*
X0116017Y0100281D01*
X0115750Y0100446D01*
X0115486Y0100617D01*
X0115228Y0100795D01*
X0114973Y0100979D01*
X0114723Y0101169D01*
X0114478Y0101365D01*
X0114238Y0101568D01*
X0114002Y0101776D01*
X0113772Y0101989D01*
X0113548Y0102209D01*
X0113328Y0102433D01*
X0113115Y0102663D01*
X0112907Y0102899D01*
X0112704Y0103139D01*
X0112508Y0103384D01*
X0112318Y0103634D01*
X0112134Y0103889D01*
X0111956Y0104147D01*
X0111785Y0104411D01*
X0111620Y0104678D01*
X0111462Y0104949D01*
X0111311Y0105224D01*
X0111166Y0105503D01*
X0111028Y0105785D01*
X0110898Y0106071D01*
X0110774Y0106360D01*
X0110657Y0106651D01*
X0110548Y0106945D01*
X0110446Y0107242D01*
X0110351Y0107542D01*
X0110263Y0107843D01*
X0110183Y0108147D01*
X0110111Y0108453D01*
X0110046Y0108760D01*
X0109988Y0109069D01*
X0109938Y0109379D01*
X0109896Y0109690D01*
X0109862Y0110002D01*
X0109835Y0110315D01*
X0109815Y0110628D01*
X0109804Y0110942D01*
X0109800Y0111256D01*
X0100095Y0106256D02*
X0095095Y0106256D01*
X0079800Y0111256D02*
X0079804Y0111570D01*
X0079815Y0111884D01*
X0079835Y0112197D01*
X0079862Y0112510D01*
X0079896Y0112822D01*
X0079938Y0113133D01*
X0079988Y0113443D01*
X0080046Y0113752D01*
X0080111Y0114059D01*
X0080183Y0114365D01*
X0080263Y0114669D01*
X0080351Y0114970D01*
X0080446Y0115270D01*
X0080548Y0115567D01*
X0080657Y0115861D01*
X0080774Y0116152D01*
X0080898Y0116441D01*
X0081028Y0116727D01*
X0081166Y0117009D01*
X0081311Y0117288D01*
X0081462Y0117563D01*
X0081620Y0117834D01*
X0081785Y0118101D01*
X0081956Y0118365D01*
X0082134Y0118623D01*
X0082318Y0118878D01*
X0082508Y0119128D01*
X0082704Y0119373D01*
X0082907Y0119613D01*
X0083115Y0119849D01*
X0083328Y0120079D01*
X0083548Y0120303D01*
X0083772Y0120523D01*
X0084002Y0120736D01*
X0084238Y0120944D01*
X0084478Y0121147D01*
X0084723Y0121343D01*
X0084973Y0121533D01*
X0085228Y0121717D01*
X0085486Y0121895D01*
X0085750Y0122066D01*
X0086017Y0122231D01*
X0086288Y0122389D01*
X0086563Y0122540D01*
X0086842Y0122685D01*
X0087124Y0122823D01*
X0087410Y0122953D01*
X0087699Y0123077D01*
X0087990Y0123194D01*
X0088284Y0123303D01*
X0088581Y0123405D01*
X0088881Y0123500D01*
X0089182Y0123588D01*
X0089486Y0123668D01*
X0089792Y0123740D01*
X0090099Y0123805D01*
X0090408Y0123863D01*
X0090718Y0123913D01*
X0091029Y0123955D01*
X0091341Y0123989D01*
X0091654Y0124016D01*
X0091967Y0124036D01*
X0092281Y0124047D01*
X0092595Y0124051D01*
X0092909Y0124047D01*
X0093223Y0124036D01*
X0093536Y0124016D01*
X0093849Y0123989D01*
X0094161Y0123955D01*
X0094472Y0123913D01*
X0094782Y0123863D01*
X0095091Y0123805D01*
X0095398Y0123740D01*
X0095704Y0123668D01*
X0096008Y0123588D01*
X0096309Y0123500D01*
X0096609Y0123405D01*
X0096906Y0123303D01*
X0097200Y0123194D01*
X0097491Y0123077D01*
X0097780Y0122953D01*
X0098066Y0122823D01*
X0098348Y0122685D01*
X0098627Y0122540D01*
X0098902Y0122389D01*
X0099173Y0122231D01*
X0099440Y0122066D01*
X0099704Y0121895D01*
X0099962Y0121717D01*
X0100217Y0121533D01*
X0100467Y0121343D01*
X0100712Y0121147D01*
X0100952Y0120944D01*
X0101188Y0120736D01*
X0101418Y0120523D01*
X0101642Y0120303D01*
X0101862Y0120079D01*
X0102075Y0119849D01*
X0102283Y0119613D01*
X0102486Y0119373D01*
X0102682Y0119128D01*
X0102872Y0118878D01*
X0103056Y0118623D01*
X0103234Y0118365D01*
X0103405Y0118101D01*
X0103570Y0117834D01*
X0103728Y0117563D01*
X0103879Y0117288D01*
X0104024Y0117009D01*
X0104162Y0116727D01*
X0104292Y0116441D01*
X0104416Y0116152D01*
X0104533Y0115861D01*
X0104642Y0115567D01*
X0104744Y0115270D01*
X0104839Y0114970D01*
X0104927Y0114669D01*
X0105007Y0114365D01*
X0105079Y0114059D01*
X0105144Y0113752D01*
X0105202Y0113443D01*
X0105252Y0113133D01*
X0105294Y0112822D01*
X0105328Y0112510D01*
X0105355Y0112197D01*
X0105375Y0111884D01*
X0105386Y0111570D01*
X0105390Y0111256D01*
X0105386Y0110942D01*
X0105375Y0110628D01*
X0105355Y0110315D01*
X0105328Y0110002D01*
X0105294Y0109690D01*
X0105252Y0109379D01*
X0105202Y0109069D01*
X0105144Y0108760D01*
X0105079Y0108453D01*
X0105007Y0108147D01*
X0104927Y0107843D01*
X0104839Y0107542D01*
X0104744Y0107242D01*
X0104642Y0106945D01*
X0104533Y0106651D01*
X0104416Y0106360D01*
X0104292Y0106071D01*
X0104162Y0105785D01*
X0104024Y0105503D01*
X0103879Y0105224D01*
X0103728Y0104949D01*
X0103570Y0104678D01*
X0103405Y0104411D01*
X0103234Y0104147D01*
X0103056Y0103889D01*
X0102872Y0103634D01*
X0102682Y0103384D01*
X0102486Y0103139D01*
X0102283Y0102899D01*
X0102075Y0102663D01*
X0101862Y0102433D01*
X0101642Y0102209D01*
X0101418Y0101989D01*
X0101188Y0101776D01*
X0100952Y0101568D01*
X0100712Y0101365D01*
X0100467Y0101169D01*
X0100217Y0100979D01*
X0099962Y0100795D01*
X0099704Y0100617D01*
X0099440Y0100446D01*
X0099173Y0100281D01*
X0098902Y0100123D01*
X0098627Y0099972D01*
X0098348Y0099827D01*
X0098066Y0099689D01*
X0097780Y0099559D01*
X0097491Y0099435D01*
X0097200Y0099318D01*
X0096906Y0099209D01*
X0096609Y0099107D01*
X0096309Y0099012D01*
X0096008Y0098924D01*
X0095704Y0098844D01*
X0095398Y0098772D01*
X0095091Y0098707D01*
X0094782Y0098649D01*
X0094472Y0098599D01*
X0094161Y0098557D01*
X0093849Y0098523D01*
X0093536Y0098496D01*
X0093223Y0098476D01*
X0092909Y0098465D01*
X0092595Y0098461D01*
X0092281Y0098465D01*
X0091967Y0098476D01*
X0091654Y0098496D01*
X0091341Y0098523D01*
X0091029Y0098557D01*
X0090718Y0098599D01*
X0090408Y0098649D01*
X0090099Y0098707D01*
X0089792Y0098772D01*
X0089486Y0098844D01*
X0089182Y0098924D01*
X0088881Y0099012D01*
X0088581Y0099107D01*
X0088284Y0099209D01*
X0087990Y0099318D01*
X0087699Y0099435D01*
X0087410Y0099559D01*
X0087124Y0099689D01*
X0086842Y0099827D01*
X0086563Y0099972D01*
X0086288Y0100123D01*
X0086017Y0100281D01*
X0085750Y0100446D01*
X0085486Y0100617D01*
X0085228Y0100795D01*
X0084973Y0100979D01*
X0084723Y0101169D01*
X0084478Y0101365D01*
X0084238Y0101568D01*
X0084002Y0101776D01*
X0083772Y0101989D01*
X0083548Y0102209D01*
X0083328Y0102433D01*
X0083115Y0102663D01*
X0082907Y0102899D01*
X0082704Y0103139D01*
X0082508Y0103384D01*
X0082318Y0103634D01*
X0082134Y0103889D01*
X0081956Y0104147D01*
X0081785Y0104411D01*
X0081620Y0104678D01*
X0081462Y0104949D01*
X0081311Y0105224D01*
X0081166Y0105503D01*
X0081028Y0105785D01*
X0080898Y0106071D01*
X0080774Y0106360D01*
X0080657Y0106651D01*
X0080548Y0106945D01*
X0080446Y0107242D01*
X0080351Y0107542D01*
X0080263Y0107843D01*
X0080183Y0108147D01*
X0080111Y0108453D01*
X0080046Y0108760D01*
X0079988Y0109069D01*
X0079938Y0109379D01*
X0079896Y0109690D01*
X0079862Y0110002D01*
X0079835Y0110315D01*
X0079815Y0110628D01*
X0079804Y0110942D01*
X0079800Y0111256D01*
X0104595Y0081256D02*
X0107595Y0081256D01*
X0107595Y0082256D01*
X0107595Y0081256D02*
X0110595Y0081256D01*
X0110595Y0061256D01*
X0107595Y0061256D01*
X0107595Y0060256D01*
X0107595Y0061256D02*
X0104595Y0061256D01*
X0104595Y0081256D01*
X0095786Y0071856D02*
X0089405Y0071856D01*
X0089405Y0071483D01*
X0095786Y0071483D02*
X0095786Y0071856D01*
X0095786Y0061029D02*
X0095786Y0060656D01*
X0089405Y0060656D01*
X0089405Y0061029D01*
X0262595Y0123256D02*
X0262595Y0126256D01*
X0261595Y0126256D01*
X0262595Y0126256D02*
X0262595Y0129256D01*
X0282595Y0129256D01*
X0282595Y0126256D01*
X0283595Y0126256D01*
X0282595Y0126256D02*
X0282595Y0123256D01*
X0262595Y0123256D01*
D12*
X0350513Y0082141D02*
X0351480Y0083108D01*
X0351480Y0080206D01*
X0350513Y0080206D02*
X0352448Y0080206D01*
X0353459Y0080690D02*
X0355394Y0082625D01*
X0355394Y0080690D01*
X0354910Y0080206D01*
X0353943Y0080206D01*
X0353459Y0080690D01*
X0353459Y0082625D01*
X0353943Y0083108D01*
X0354910Y0083108D01*
X0355394Y0082625D01*
X0356406Y0082625D02*
X0356889Y0083108D01*
X0357857Y0083108D01*
X0358341Y0082625D01*
X0356406Y0080690D01*
X0356889Y0080206D01*
X0357857Y0080206D01*
X0358341Y0080690D01*
X0358341Y0082625D01*
X0359352Y0082141D02*
X0359352Y0080690D01*
X0359836Y0080206D01*
X0361287Y0080206D01*
X0361287Y0082141D01*
X0362299Y0081657D02*
X0363266Y0081657D01*
X0362299Y0080206D02*
X0362299Y0083108D01*
X0364234Y0083108D01*
X0356406Y0082625D02*
X0356406Y0080690D01*
X0134234Y0048108D02*
X0132299Y0048108D01*
X0132299Y0045206D01*
X0131287Y0045206D02*
X0131287Y0047141D01*
X0132299Y0046657D02*
X0133266Y0046657D01*
X0131287Y0045206D02*
X0129836Y0045206D01*
X0129352Y0045690D01*
X0129352Y0047141D01*
X0128341Y0047625D02*
X0126406Y0045690D01*
X0126889Y0045206D01*
X0127857Y0045206D01*
X0128341Y0045690D01*
X0128341Y0047625D01*
X0127857Y0048108D01*
X0126889Y0048108D01*
X0126406Y0047625D01*
X0126406Y0045690D01*
X0125394Y0045206D02*
X0123459Y0045206D01*
X0124427Y0045206D02*
X0124427Y0048108D01*
X0123459Y0047141D01*
X0123341Y0125206D02*
X0121406Y0125206D01*
X0122373Y0125206D02*
X0122373Y0128108D01*
X0121406Y0127141D01*
X0124352Y0127141D02*
X0124352Y0125690D01*
X0124836Y0125206D01*
X0126287Y0125206D01*
X0126287Y0127141D01*
X0127299Y0126657D02*
X0128266Y0126657D01*
X0127299Y0125206D02*
X0127299Y0128108D01*
X0129234Y0128108D01*
X0099234Y0128108D02*
X0097299Y0128108D01*
X0097299Y0125206D01*
X0096287Y0125206D02*
X0096287Y0127141D01*
X0097299Y0126657D02*
X0098266Y0126657D01*
X0096287Y0125206D02*
X0094836Y0125206D01*
X0094352Y0125690D01*
X0094352Y0127141D01*
X0093341Y0127625D02*
X0091406Y0125690D01*
X0091889Y0125206D01*
X0092857Y0125206D01*
X0093341Y0125690D01*
X0093341Y0127625D01*
X0092857Y0128108D01*
X0091889Y0128108D01*
X0091406Y0127625D01*
X0091406Y0125690D01*
X0090394Y0125206D02*
X0088459Y0125206D01*
X0089427Y0125206D02*
X0089427Y0128108D01*
X0088459Y0127141D01*
D13*
X0092949Y0104707D02*
X0092699Y0104457D01*
X0092699Y0103456D01*
X0092949Y0103206D01*
X0093449Y0103206D01*
X0093699Y0103456D01*
X0094172Y0103456D02*
X0094422Y0103206D01*
X0094923Y0103206D01*
X0095173Y0103456D01*
X0095173Y0103706D01*
X0094923Y0103957D01*
X0094672Y0103957D01*
X0094923Y0103957D02*
X0095173Y0104207D01*
X0095173Y0104457D01*
X0094923Y0104707D01*
X0094422Y0104707D01*
X0094172Y0104457D01*
X0093699Y0104457D02*
X0093449Y0104707D01*
X0092949Y0104707D01*
X0122699Y0104457D02*
X0122699Y0103456D01*
X0122949Y0103206D01*
X0123449Y0103206D01*
X0123699Y0103456D01*
X0124172Y0103957D02*
X0124923Y0104707D01*
X0124923Y0103206D01*
X0125173Y0103957D02*
X0124172Y0103957D01*
X0123699Y0104457D02*
X0123449Y0104707D01*
X0122949Y0104707D01*
X0122699Y0104457D01*
X0104145Y0093457D02*
X0103895Y0093708D01*
X0103395Y0093708D01*
X0103144Y0093457D01*
X0103144Y0093207D01*
X0103395Y0092707D01*
X0102644Y0092707D01*
X0102644Y0093708D01*
X0102894Y0092234D02*
X0102644Y0091984D01*
X0102644Y0091484D01*
X0102894Y0091233D01*
X0103144Y0091233D01*
X0103395Y0091484D01*
X0103395Y0091984D01*
X0103645Y0092234D01*
X0103895Y0092234D01*
X0104145Y0091984D01*
X0104145Y0091484D01*
X0103895Y0091233D01*
X0103895Y0090761D02*
X0102644Y0090761D01*
X0102644Y0089760D02*
X0103895Y0089760D01*
X0104145Y0090010D01*
X0104145Y0090511D01*
X0103895Y0090761D01*
X0104395Y0091734D02*
X0102394Y0091734D01*
X0103895Y0092707D02*
X0104145Y0092957D01*
X0104145Y0093457D01*
X0082545Y0093457D02*
X0082545Y0092957D01*
X0082295Y0092707D01*
X0082295Y0092234D02*
X0082545Y0091984D01*
X0082545Y0091484D01*
X0082295Y0091233D01*
X0082545Y0090761D02*
X0082545Y0089760D01*
X0081544Y0090761D01*
X0081294Y0090761D01*
X0081044Y0090511D01*
X0081044Y0090010D01*
X0081294Y0089760D01*
X0081294Y0089288D02*
X0082295Y0088287D01*
X0082545Y0088537D01*
X0082545Y0089037D01*
X0082295Y0089288D01*
X0081294Y0089288D01*
X0081044Y0089037D01*
X0081044Y0088537D01*
X0081294Y0088287D01*
X0082295Y0088287D01*
X0081294Y0087814D02*
X0082295Y0086814D01*
X0082545Y0086814D01*
X0082045Y0086341D02*
X0081044Y0086341D01*
X0081044Y0086814D02*
X0081044Y0087814D01*
X0081294Y0087814D01*
X0082045Y0086341D02*
X0082545Y0085841D01*
X0082045Y0085340D01*
X0081044Y0085340D01*
X0082545Y0084868D02*
X0082545Y0083867D01*
X0081044Y0083867D01*
X0081044Y0083395D02*
X0081044Y0082394D01*
X0081044Y0082894D02*
X0082545Y0082894D01*
X0081294Y0091233D02*
X0081044Y0091484D01*
X0081044Y0091984D01*
X0081294Y0092234D01*
X0081544Y0092234D01*
X0081795Y0091984D01*
X0082045Y0092234D01*
X0082295Y0092234D01*
X0081795Y0091984D02*
X0081795Y0091734D01*
X0081294Y0092707D02*
X0081044Y0092957D01*
X0081044Y0093457D01*
X0081294Y0093707D01*
X0081544Y0093707D01*
X0081795Y0093457D01*
X0082045Y0093707D01*
X0082295Y0093707D01*
X0082545Y0093457D01*
X0081795Y0093457D02*
X0081795Y0093207D01*
X0051592Y0088806D02*
X0050592Y0088806D01*
X0051092Y0088806D02*
X0051092Y0090307D01*
X0050592Y0089807D01*
X0050119Y0090057D02*
X0050119Y0089557D01*
X0049869Y0089306D01*
X0049118Y0089306D01*
X0049118Y0088806D02*
X0049118Y0090307D01*
X0049869Y0090307D01*
X0050119Y0090057D01*
X0048646Y0090307D02*
X0048146Y0090307D01*
X0048396Y0090307D02*
X0048396Y0089056D01*
X0048146Y0088806D01*
X0047895Y0088806D01*
X0047645Y0089056D01*
X0091894Y0069333D02*
X0092144Y0069583D01*
X0092645Y0069583D01*
X0092895Y0069333D01*
X0092895Y0068583D01*
X0092895Y0069083D02*
X0093395Y0069583D01*
X0093395Y0068583D02*
X0091894Y0068583D01*
X0091894Y0069333D01*
X0092645Y0068110D02*
X0092645Y0067109D01*
X0092895Y0066637D02*
X0092645Y0066387D01*
X0092645Y0065636D01*
X0093145Y0065636D01*
X0093395Y0065886D01*
X0093395Y0066387D01*
X0093145Y0066637D01*
X0092895Y0066637D01*
X0092144Y0066136D02*
X0092645Y0065636D01*
X0092394Y0065164D02*
X0092144Y0065164D01*
X0091894Y0064913D01*
X0091894Y0064413D01*
X0092144Y0064163D01*
X0092645Y0063690D02*
X0092645Y0062690D01*
X0091894Y0062217D02*
X0091894Y0061216D01*
X0091894Y0061717D02*
X0093395Y0061717D01*
X0093145Y0060744D02*
X0092144Y0060744D01*
X0091894Y0060494D01*
X0091894Y0059993D01*
X0092144Y0059743D01*
X0093145Y0059743D01*
X0093395Y0059993D01*
X0093395Y0060494D01*
X0093145Y0060744D01*
X0093145Y0059271D02*
X0092895Y0059271D01*
X0092645Y0059020D01*
X0092645Y0058520D01*
X0092394Y0058270D01*
X0092144Y0058270D01*
X0091894Y0058520D01*
X0091894Y0059020D01*
X0092144Y0059271D01*
X0093145Y0059271D02*
X0093395Y0059020D01*
X0093395Y0058520D01*
X0093145Y0058270D01*
X0092144Y0057797D02*
X0093145Y0056797D01*
X0093395Y0056797D01*
X0093145Y0056324D02*
X0092645Y0056324D01*
X0092394Y0056074D01*
X0092394Y0055824D01*
X0092645Y0055323D01*
X0091894Y0055323D01*
X0091894Y0056324D01*
X0091894Y0056797D02*
X0091894Y0057797D01*
X0092144Y0057797D01*
X0093145Y0056324D02*
X0093395Y0056074D01*
X0093395Y0055573D01*
X0093145Y0055323D01*
X0093145Y0054851D02*
X0092144Y0054851D01*
X0093145Y0053850D01*
X0093395Y0054100D01*
X0093395Y0054601D01*
X0093145Y0054851D01*
X0092144Y0054851D02*
X0091894Y0054601D01*
X0091894Y0054100D01*
X0092144Y0053850D01*
X0093145Y0053850D01*
X0092645Y0053378D02*
X0092645Y0052377D01*
X0091894Y0053127D01*
X0093395Y0053127D01*
X0092645Y0051904D02*
X0092895Y0051654D01*
X0092895Y0050904D01*
X0093395Y0050904D02*
X0091894Y0050904D01*
X0091894Y0051654D01*
X0092144Y0051904D01*
X0092645Y0051904D01*
X0091894Y0050431D02*
X0091894Y0049430D01*
X0091894Y0049931D02*
X0093395Y0049931D01*
X0101044Y0061306D02*
X0101044Y0062057D01*
X0101294Y0062307D01*
X0101795Y0062307D01*
X0102045Y0062057D01*
X0102045Y0061306D01*
X0102545Y0061306D02*
X0101044Y0061306D01*
X0102045Y0061806D02*
X0102545Y0062307D01*
X0102545Y0062779D02*
X0102295Y0062779D01*
X0101294Y0063780D01*
X0101044Y0063780D01*
X0101044Y0062779D01*
X0093395Y0064163D02*
X0092394Y0065164D01*
X0093395Y0065164D02*
X0093395Y0064163D01*
X0101144Y0065136D02*
X0102395Y0065136D01*
X0102645Y0065386D01*
X0102645Y0065887D01*
X0102395Y0066137D01*
X0101144Y0066137D01*
X0101394Y0066609D02*
X0101144Y0066860D01*
X0101144Y0067360D01*
X0101394Y0067610D01*
X0101394Y0068083D02*
X0101144Y0068333D01*
X0101144Y0068833D01*
X0101394Y0069083D01*
X0101644Y0069083D01*
X0102645Y0068083D01*
X0102645Y0069083D01*
X0102395Y0067610D02*
X0102145Y0067610D01*
X0101895Y0067360D01*
X0101895Y0066860D01*
X0101644Y0066609D01*
X0101394Y0066609D01*
X0100894Y0067110D02*
X0102895Y0067110D01*
X0102645Y0067360D02*
X0102395Y0067610D01*
X0102645Y0067360D02*
X0102645Y0066860D01*
X0102395Y0066609D01*
X0092144Y0066136D02*
X0091894Y0066637D01*
X0056012Y0050057D02*
X0056012Y0049807D01*
X0055762Y0049557D01*
X0055011Y0049557D01*
X0054539Y0050057D02*
X0054289Y0050307D01*
X0053788Y0050307D01*
X0053538Y0050057D01*
X0053538Y0049056D01*
X0053788Y0048806D01*
X0054289Y0048806D01*
X0054539Y0049056D01*
X0055011Y0048806D02*
X0055762Y0048806D01*
X0056012Y0049056D01*
X0056012Y0049306D01*
X0055762Y0049557D01*
X0056012Y0050057D02*
X0055762Y0050307D01*
X0055011Y0050307D01*
X0055011Y0048806D01*
X0053066Y0049557D02*
X0052816Y0049306D01*
X0052065Y0049306D01*
X0051592Y0049306D02*
X0051592Y0049056D01*
X0051342Y0048806D01*
X0050592Y0048806D01*
X0050592Y0050307D01*
X0051342Y0050307D01*
X0051592Y0050057D01*
X0051592Y0049807D01*
X0051342Y0049557D01*
X0050592Y0049557D01*
X0050119Y0049306D02*
X0049869Y0049557D01*
X0049369Y0049557D01*
X0049118Y0049807D01*
X0049118Y0050057D01*
X0049369Y0050307D01*
X0049869Y0050307D01*
X0050119Y0050057D01*
X0050119Y0049306D02*
X0050119Y0049056D01*
X0049869Y0048806D01*
X0049369Y0048806D01*
X0049118Y0049056D01*
X0048646Y0049056D02*
X0048646Y0050307D01*
X0047645Y0050307D02*
X0047645Y0049056D01*
X0047895Y0048806D01*
X0048396Y0048806D01*
X0048646Y0049056D01*
X0051342Y0049557D02*
X0051592Y0049306D01*
X0052065Y0048806D02*
X0052065Y0050307D01*
X0052816Y0050307D01*
X0053066Y0050057D01*
X0053066Y0049557D01*
X0090644Y0029396D02*
X0091144Y0029396D01*
X0090894Y0029396D02*
X0090894Y0028145D01*
X0090644Y0027895D01*
X0090394Y0027895D01*
X0090143Y0028145D01*
X0091617Y0027895D02*
X0091617Y0029396D01*
X0092367Y0029396D01*
X0092617Y0029146D01*
X0092617Y0028646D01*
X0092367Y0028395D01*
X0091617Y0028395D01*
X0093090Y0027895D02*
X0094091Y0027895D01*
X0093590Y0027895D02*
X0093590Y0029396D01*
X0093090Y0028896D01*
X0094563Y0028646D02*
X0095564Y0028646D01*
X0096036Y0029146D02*
X0096287Y0029396D01*
X0096787Y0029396D01*
X0097037Y0029146D01*
X0097037Y0028896D01*
X0096787Y0028646D01*
X0097037Y0028395D01*
X0097037Y0028145D01*
X0096787Y0027895D01*
X0096287Y0027895D01*
X0096036Y0028145D01*
X0096537Y0028646D02*
X0096787Y0028646D01*
X0097510Y0028395D02*
X0097510Y0029396D01*
X0098510Y0029396D02*
X0098510Y0028395D01*
X0098010Y0027895D01*
X0097510Y0028395D01*
X0098983Y0028145D02*
X0099233Y0027895D01*
X0099734Y0027895D01*
X0099984Y0028145D01*
X0099984Y0028395D01*
X0099734Y0028646D01*
X0099483Y0028646D01*
X0099734Y0028646D02*
X0099984Y0028896D01*
X0099984Y0029146D01*
X0099734Y0029396D01*
X0099233Y0029396D01*
X0098983Y0029146D01*
X0127699Y0024457D02*
X0127699Y0023456D01*
X0127949Y0023206D01*
X0128449Y0023206D01*
X0128699Y0023456D01*
X0129172Y0023206D02*
X0130173Y0024207D01*
X0130173Y0024457D01*
X0129923Y0024707D01*
X0129422Y0024707D01*
X0129172Y0024457D01*
X0128699Y0024457D02*
X0128449Y0024707D01*
X0127949Y0024707D01*
X0127699Y0024457D01*
X0129172Y0023206D02*
X0130173Y0023206D01*
X0152645Y0026306D02*
X0152645Y0027807D01*
X0153396Y0027807D01*
X0153646Y0027557D01*
X0153646Y0027057D01*
X0153396Y0026806D01*
X0152645Y0026806D01*
X0153146Y0026806D02*
X0153646Y0026306D01*
X0154118Y0026306D02*
X0155119Y0026306D01*
X0155592Y0026306D02*
X0156592Y0027307D01*
X0156592Y0027557D01*
X0156342Y0027807D01*
X0155842Y0027807D01*
X0155592Y0027557D01*
X0154619Y0027807D02*
X0154619Y0026306D01*
X0155592Y0026306D02*
X0156592Y0026306D01*
X0154619Y0027807D02*
X0154118Y0027307D01*
X0182645Y0036306D02*
X0182645Y0037807D01*
X0183396Y0037807D01*
X0183646Y0037557D01*
X0183646Y0037057D01*
X0183396Y0036806D01*
X0182645Y0036806D01*
X0183146Y0036806D02*
X0183646Y0036306D01*
X0184118Y0036306D02*
X0185119Y0036306D01*
X0184619Y0036306D02*
X0184619Y0037807D01*
X0184118Y0037307D01*
X0185592Y0037557D02*
X0185842Y0037807D01*
X0186342Y0037807D01*
X0186592Y0037557D01*
X0185592Y0036556D01*
X0185842Y0036306D01*
X0186342Y0036306D01*
X0186592Y0036556D01*
X0186592Y0037557D01*
X0185592Y0037557D02*
X0185592Y0036556D01*
X0197645Y0027807D02*
X0198396Y0027807D01*
X0198646Y0027557D01*
X0198646Y0027057D01*
X0198396Y0026806D01*
X0197645Y0026806D01*
X0197645Y0026306D02*
X0197645Y0027807D01*
X0198146Y0026806D02*
X0198646Y0026306D01*
X0199118Y0026556D02*
X0199369Y0026306D01*
X0199869Y0026306D01*
X0200119Y0026556D01*
X0200119Y0027057D01*
X0199869Y0027307D01*
X0199619Y0027307D01*
X0199118Y0027057D01*
X0199118Y0027807D01*
X0200119Y0027807D01*
X0207645Y0017807D02*
X0208396Y0017807D01*
X0208646Y0017557D01*
X0208646Y0017057D01*
X0208396Y0016806D01*
X0207645Y0016806D01*
X0207645Y0016306D02*
X0207645Y0017807D01*
X0208146Y0016806D02*
X0208646Y0016306D01*
X0209118Y0016556D02*
X0209369Y0016306D01*
X0209869Y0016306D01*
X0210119Y0016556D01*
X0210119Y0016806D01*
X0209869Y0017057D01*
X0209369Y0017057D01*
X0209118Y0017307D01*
X0209118Y0017557D01*
X0209369Y0017807D01*
X0209869Y0017807D01*
X0210119Y0017557D01*
X0210119Y0017307D01*
X0209869Y0017057D01*
X0209369Y0017057D02*
X0209118Y0016806D01*
X0209118Y0016556D01*
X0172173Y0004706D02*
X0171172Y0004706D01*
X0170699Y0004706D02*
X0169699Y0004706D01*
X0169226Y0004706D02*
X0168726Y0005206D01*
X0168976Y0005206D02*
X0168225Y0005206D01*
X0168225Y0004706D02*
X0168225Y0006207D01*
X0168976Y0006207D01*
X0169226Y0005957D01*
X0169226Y0005457D01*
X0168976Y0005206D01*
X0169699Y0005707D02*
X0170199Y0006207D01*
X0170199Y0004706D01*
X0171172Y0005707D02*
X0171672Y0006207D01*
X0171672Y0004706D01*
X0264699Y0004706D02*
X0264699Y0006207D01*
X0265449Y0006207D01*
X0265699Y0005957D01*
X0265699Y0005457D01*
X0265449Y0005206D01*
X0264699Y0005206D01*
X0265199Y0005206D02*
X0265699Y0004706D01*
X0266172Y0004706D02*
X0267173Y0005707D01*
X0267173Y0005957D01*
X0266923Y0006207D01*
X0266422Y0006207D01*
X0266172Y0005957D01*
X0266172Y0004706D02*
X0267173Y0004706D01*
X0274699Y0014706D02*
X0274699Y0016207D01*
X0275449Y0016207D01*
X0275699Y0015957D01*
X0275699Y0015457D01*
X0275449Y0015206D01*
X0274699Y0015206D01*
X0275199Y0015206D02*
X0275699Y0014706D01*
X0276172Y0014956D02*
X0276422Y0014706D01*
X0276923Y0014706D01*
X0277173Y0014956D01*
X0277173Y0015206D01*
X0276923Y0015457D01*
X0276672Y0015457D01*
X0276923Y0015457D02*
X0277173Y0015707D01*
X0277173Y0015957D01*
X0276923Y0016207D01*
X0276422Y0016207D01*
X0276172Y0015957D01*
X0279699Y0024706D02*
X0279699Y0026207D01*
X0280449Y0026207D01*
X0280699Y0025957D01*
X0280699Y0025457D01*
X0280449Y0025206D01*
X0279699Y0025206D01*
X0280199Y0025206D02*
X0280699Y0024706D01*
X0281172Y0025457D02*
X0282173Y0025457D01*
X0281923Y0026207D02*
X0281172Y0025457D01*
X0281923Y0026207D02*
X0281923Y0024706D01*
X0330644Y0056671D02*
X0330644Y0057422D01*
X0330894Y0057672D01*
X0331895Y0057672D01*
X0332145Y0057422D01*
X0332145Y0056671D01*
X0330644Y0056671D01*
X0330644Y0058145D02*
X0330644Y0058645D01*
X0330644Y0058395D02*
X0332145Y0058395D01*
X0332145Y0058145D02*
X0332145Y0058645D01*
X0331895Y0059127D02*
X0332145Y0059377D01*
X0332145Y0059877D01*
X0331895Y0060128D01*
X0330894Y0060128D01*
X0330644Y0059877D01*
X0330644Y0059377D01*
X0330894Y0059127D01*
X0331895Y0059127D01*
X0332145Y0060600D02*
X0332145Y0061351D01*
X0331895Y0061601D01*
X0330894Y0061601D01*
X0330644Y0061351D01*
X0330644Y0060600D01*
X0332145Y0060600D01*
X0332145Y0062073D02*
X0332145Y0063074D01*
X0331395Y0063547D02*
X0331395Y0064547D01*
X0331895Y0065020D02*
X0332145Y0065020D01*
X0332145Y0066021D01*
X0332145Y0066493D02*
X0332145Y0067494D01*
X0332145Y0067966D02*
X0330644Y0067966D01*
X0332145Y0068967D01*
X0330644Y0068967D01*
X0330644Y0069440D02*
X0332145Y0069440D01*
X0332145Y0070440D01*
X0332145Y0070913D02*
X0330644Y0070913D01*
X0330644Y0071663D01*
X0330894Y0071914D01*
X0331395Y0071914D01*
X0331645Y0071663D01*
X0331645Y0070913D01*
X0331645Y0071413D02*
X0332145Y0071914D01*
X0332145Y0072386D02*
X0330644Y0072386D01*
X0330644Y0073137D01*
X0330894Y0073387D01*
X0331395Y0073387D01*
X0331645Y0073137D01*
X0331645Y0072386D01*
X0330644Y0073859D02*
X0330644Y0074860D01*
X0330644Y0075333D02*
X0332145Y0075333D01*
X0331395Y0075333D02*
X0331395Y0076333D01*
X0332145Y0076333D02*
X0330644Y0076333D01*
X0330644Y0074360D02*
X0332145Y0074360D01*
X0337644Y0078359D02*
X0337644Y0079110D01*
X0337894Y0079360D01*
X0338895Y0079360D01*
X0339145Y0079110D01*
X0339145Y0078359D01*
X0337644Y0078359D01*
X0337894Y0079833D02*
X0337644Y0080083D01*
X0337644Y0080583D01*
X0337894Y0080833D01*
X0338144Y0080833D01*
X0338395Y0080583D01*
X0338645Y0080833D01*
X0338895Y0080833D01*
X0339145Y0080583D01*
X0339145Y0080083D01*
X0338895Y0079833D01*
X0338395Y0080333D02*
X0338395Y0080583D01*
X0330644Y0070440D02*
X0330644Y0069440D01*
X0331395Y0069440D02*
X0331395Y0069940D01*
X0330644Y0067494D02*
X0330644Y0066493D01*
X0332145Y0066493D01*
X0331395Y0066493D02*
X0331395Y0066993D01*
X0330894Y0066021D02*
X0331895Y0065020D01*
X0330644Y0065020D02*
X0330644Y0066021D01*
X0330894Y0066021D01*
X0330644Y0063074D02*
X0330644Y0062073D01*
X0332145Y0062073D01*
X0331395Y0062073D02*
X0331395Y0062574D01*
X0357699Y0059457D02*
X0357699Y0058456D01*
X0357949Y0058206D01*
X0358449Y0058206D01*
X0358699Y0058456D01*
X0359172Y0058206D02*
X0360173Y0058206D01*
X0359672Y0058206D02*
X0359672Y0059707D01*
X0359172Y0059207D01*
X0358699Y0059457D02*
X0358449Y0059707D01*
X0357949Y0059707D01*
X0357699Y0059457D01*
X0364699Y0094706D02*
X0365449Y0094706D01*
X0365699Y0094956D01*
X0365699Y0095957D01*
X0365449Y0096207D01*
X0364699Y0096207D01*
X0364699Y0094706D01*
X0366172Y0094706D02*
X0367173Y0094706D01*
X0366672Y0094706D02*
X0366672Y0096207D01*
X0366172Y0095707D01*
X0359674Y0128117D02*
X0358674Y0128117D01*
X0358674Y0129618D01*
X0358201Y0129368D02*
X0357951Y0129618D01*
X0357451Y0129618D01*
X0357200Y0129368D01*
X0357200Y0128367D01*
X0357451Y0128117D01*
X0357951Y0128117D01*
X0358201Y0128367D01*
X0358201Y0129368D01*
X0356728Y0129368D02*
X0356478Y0129618D01*
X0355977Y0129618D01*
X0355727Y0129368D01*
X0355727Y0129118D01*
X0355977Y0128868D01*
X0356478Y0128868D01*
X0356728Y0128617D01*
X0356728Y0128367D01*
X0356478Y0128117D01*
X0355977Y0128117D01*
X0355727Y0128367D01*
X0355255Y0128868D02*
X0354254Y0128868D01*
X0353781Y0128117D02*
X0352781Y0128117D01*
X0353281Y0128117D02*
X0353281Y0129618D01*
X0352781Y0129118D01*
X0352308Y0129368D02*
X0352308Y0128868D01*
X0352058Y0128617D01*
X0351307Y0128617D01*
X0351307Y0128117D02*
X0351307Y0129618D01*
X0352058Y0129618D01*
X0352308Y0129368D01*
X0350835Y0129618D02*
X0350335Y0129618D01*
X0350585Y0129618D02*
X0350585Y0128367D01*
X0350335Y0128117D01*
X0350084Y0128117D01*
X0349834Y0128367D01*
X0265119Y0131556D02*
X0265119Y0132557D01*
X0264869Y0132807D01*
X0264369Y0132807D01*
X0264118Y0132557D01*
X0264118Y0132307D01*
X0264369Y0132057D01*
X0265119Y0132057D01*
X0265119Y0131556D02*
X0264869Y0131306D01*
X0264369Y0131306D01*
X0264118Y0131556D01*
X0263646Y0131306D02*
X0263146Y0131806D01*
X0263396Y0131806D02*
X0262645Y0131806D01*
X0262645Y0131306D02*
X0262645Y0132807D01*
X0263396Y0132807D01*
X0263646Y0132557D01*
X0263646Y0132057D01*
X0263396Y0131806D01*
X0241672Y0121207D02*
X0241672Y0119706D01*
X0241172Y0119706D02*
X0242173Y0119706D01*
X0241172Y0120707D02*
X0241672Y0121207D01*
X0240699Y0120957D02*
X0240449Y0121207D01*
X0239699Y0121207D01*
X0239699Y0119706D01*
X0239699Y0120206D02*
X0240449Y0120206D01*
X0240699Y0120457D01*
X0240699Y0120957D01*
X0240199Y0120206D02*
X0240699Y0119706D01*
X0232173Y0111207D02*
X0231672Y0110957D01*
X0231172Y0110457D01*
X0231923Y0110457D01*
X0232173Y0110206D01*
X0232173Y0109956D01*
X0231923Y0109706D01*
X0231422Y0109706D01*
X0231172Y0109956D01*
X0231172Y0110457D01*
X0230699Y0110457D02*
X0230449Y0110206D01*
X0229699Y0110206D01*
X0230199Y0110206D02*
X0230699Y0109706D01*
X0230699Y0110457D02*
X0230699Y0110957D01*
X0230449Y0111207D01*
X0229699Y0111207D01*
X0229699Y0109706D01*
D14*
X0191544Y0113810D02*
X0188541Y0113810D01*
X0190042Y0113810D02*
X0190042Y0109306D01*
X0186940Y0109306D02*
X0185439Y0110807D01*
X0186189Y0110807D02*
X0183937Y0110807D01*
X0183937Y0109306D02*
X0183937Y0113810D01*
X0186189Y0113810D01*
X0186940Y0113059D01*
X0186940Y0111558D01*
X0186189Y0110807D01*
X0182336Y0110057D02*
X0181585Y0109306D01*
X0180084Y0109306D01*
X0179333Y0110057D01*
X0182336Y0113059D01*
X0182336Y0110057D01*
X0179333Y0110057D02*
X0179333Y0113059D01*
X0180084Y0113810D01*
X0181585Y0113810D01*
X0182336Y0113059D01*
X0177732Y0113810D02*
X0177732Y0110807D01*
X0176231Y0109306D01*
X0174729Y0110807D01*
X0174729Y0113810D01*
X0173128Y0113059D02*
X0172377Y0113810D01*
X0170876Y0113810D01*
X0170125Y0113059D01*
X0170125Y0110057D01*
X0170876Y0109306D01*
X0172377Y0109306D01*
X0173128Y0110057D01*
X0173128Y0111558D01*
X0171627Y0111558D01*
X0183225Y0102752D02*
X0183225Y0039760D01*
X0269839Y0039760D01*
X0269839Y0102752D01*
X0183225Y0102752D01*
X0095745Y0091846D02*
X0089446Y0091846D01*
X0089446Y0080665D02*
X0095745Y0080665D01*
X0080666Y0027161D02*
X0080666Y0013382D01*
X0114524Y0013382D01*
X0114524Y0027161D01*
X0080666Y0027161D01*
X0090705Y0013382D02*
X0090705Y0004720D01*
X0096611Y0004720D01*
X0096611Y0013382D01*
X0104485Y0013382D02*
X0104485Y0004720D01*
X0096611Y0004720D01*
X0308658Y0081099D02*
X0308418Y0080999D01*
X0308180Y0080894D01*
X0307944Y0080782D01*
X0307712Y0080665D01*
X0307483Y0080543D01*
X0307256Y0080415D01*
X0307033Y0080281D01*
X0306813Y0080142D01*
X0306597Y0079997D01*
X0306384Y0079847D01*
X0306175Y0079692D01*
X0305970Y0079532D01*
X0305769Y0079367D01*
X0305572Y0079197D01*
X0305379Y0079022D01*
X0305191Y0078843D01*
X0305007Y0078659D01*
X0304828Y0078471D01*
X0304653Y0078278D01*
X0304483Y0078081D01*
X0304318Y0077880D01*
X0304158Y0077674D01*
X0304003Y0077466D01*
X0303853Y0077253D01*
X0303709Y0077036D01*
X0303569Y0076817D01*
X0303436Y0076593D01*
X0303307Y0076367D01*
X0303185Y0076138D01*
X0303068Y0075905D01*
X0302957Y0075670D01*
X0302851Y0075432D01*
X0302752Y0075192D01*
X0302658Y0074949D01*
X0302570Y0074704D01*
X0302489Y0074457D01*
X0302413Y0074208D01*
X0302344Y0073957D01*
X0302281Y0073705D01*
X0302224Y0073451D01*
X0302173Y0073196D01*
X0302129Y0072940D01*
X0302090Y0072682D01*
X0302059Y0072424D01*
X0302033Y0072165D01*
X0302014Y0071906D01*
X0302001Y0071646D01*
X0301995Y0071386D01*
X0301995Y0071125D01*
X0302001Y0070865D01*
X0302014Y0070605D01*
X0302033Y0070346D01*
X0302059Y0070087D01*
X0302090Y0069829D01*
X0302129Y0069572D01*
X0302173Y0069315D01*
X0302224Y0069060D01*
X0302281Y0068806D01*
X0302344Y0068554D01*
X0302414Y0068303D01*
X0302489Y0068054D01*
X0302571Y0067807D01*
X0302658Y0067562D01*
X0302752Y0067319D01*
X0302852Y0067079D01*
X0302957Y0066841D01*
X0303068Y0066606D01*
X0303185Y0066374D01*
X0303308Y0066144D01*
X0303436Y0065918D01*
X0303570Y0065695D01*
X0303709Y0065475D01*
X0303854Y0065258D01*
X0304004Y0065046D01*
X0304159Y0064837D01*
X0304319Y0064632D01*
X0304484Y0064431D01*
X0304654Y0064234D01*
X0304828Y0064041D01*
X0305008Y0063852D01*
X0305192Y0063668D01*
X0305380Y0063489D01*
X0305573Y0063314D01*
X0305770Y0063144D01*
X0305971Y0062979D01*
X0306176Y0062819D01*
X0306385Y0062664D01*
X0306598Y0062514D01*
X0306814Y0062370D01*
X0307034Y0062231D01*
X0307257Y0062097D01*
X0307484Y0061969D01*
X0307713Y0061846D01*
X0307945Y0061729D01*
X0308181Y0061618D01*
X0308418Y0061512D01*
X0308659Y0061413D01*
X0308902Y0061319D01*
X0309146Y0061232D01*
X0309394Y0061150D01*
X0309642Y0061074D01*
X0309893Y0061005D01*
X0310146Y0060942D01*
X0310399Y0060885D01*
X0310655Y0060834D01*
X0310911Y0060790D01*
X0311168Y0060751D01*
X0311427Y0060720D01*
X0311685Y0060694D01*
X0311945Y0060675D01*
X0312205Y0060662D01*
X0312465Y0060656D01*
X0312725Y0060656D01*
X0312985Y0060662D01*
X0313245Y0060675D01*
X0313505Y0060694D01*
X0313763Y0060720D01*
X0314022Y0060751D01*
X0314279Y0060790D01*
X0314535Y0060834D01*
X0314791Y0060885D01*
X0315044Y0060942D01*
X0315297Y0061005D01*
X0315548Y0061074D01*
X0315796Y0061150D01*
X0316044Y0061232D01*
X0316288Y0061319D01*
X0316531Y0061413D01*
X0316772Y0061512D01*
X0317009Y0061618D01*
X0317245Y0061729D01*
X0317477Y0061846D01*
X0317706Y0061969D01*
X0317933Y0062097D01*
X0318156Y0062231D01*
X0318376Y0062370D01*
X0318592Y0062514D01*
X0318805Y0062664D01*
X0319014Y0062819D01*
X0319219Y0062979D01*
X0319420Y0063144D01*
X0319617Y0063314D01*
X0319810Y0063489D01*
X0319998Y0063668D01*
X0320182Y0063852D01*
X0320362Y0064041D01*
X0320536Y0064234D01*
X0320706Y0064431D01*
X0320871Y0064632D01*
X0321031Y0064837D01*
X0321186Y0065046D01*
X0321336Y0065258D01*
X0321481Y0065475D01*
X0321620Y0065695D01*
X0321754Y0065918D01*
X0321882Y0066144D01*
X0322005Y0066374D01*
X0322122Y0066606D01*
X0322233Y0066841D01*
X0322338Y0067079D01*
X0322438Y0067319D01*
X0322532Y0067562D01*
X0322619Y0067807D01*
X0322701Y0068054D01*
X0322776Y0068303D01*
X0322846Y0068554D01*
X0322909Y0068806D01*
X0322966Y0069060D01*
X0323017Y0069315D01*
X0323061Y0069572D01*
X0323100Y0069829D01*
X0323131Y0070087D01*
X0323157Y0070346D01*
X0323176Y0070605D01*
X0323189Y0070865D01*
X0323195Y0071125D01*
X0323195Y0071386D01*
X0323189Y0071646D01*
X0323176Y0071906D01*
X0323157Y0072165D01*
X0323131Y0072424D01*
X0323100Y0072682D01*
X0323061Y0072940D01*
X0323017Y0073196D01*
X0322966Y0073451D01*
X0322909Y0073705D01*
X0322846Y0073957D01*
X0322777Y0074208D01*
X0322701Y0074457D01*
X0322620Y0074704D01*
X0322532Y0074949D01*
X0322438Y0075192D01*
X0322339Y0075432D01*
X0322233Y0075670D01*
X0322122Y0075905D01*
X0322005Y0076138D01*
X0321883Y0076367D01*
X0321754Y0076593D01*
X0321621Y0076817D01*
X0321481Y0077036D01*
X0321337Y0077253D01*
X0321187Y0077466D01*
X0321032Y0077674D01*
X0320872Y0077880D01*
X0320707Y0078081D01*
X0320537Y0078278D01*
X0320362Y0078471D01*
X0320183Y0078659D01*
X0319999Y0078843D01*
X0319811Y0079022D01*
X0319618Y0079197D01*
X0319421Y0079367D01*
X0319220Y0079532D01*
X0319015Y0079692D01*
X0318806Y0079847D01*
X0318593Y0079997D01*
X0318377Y0080142D01*
X0318157Y0080281D01*
X0317934Y0080415D01*
X0317707Y0080543D01*
X0317478Y0080665D01*
X0317246Y0080782D01*
X0317010Y0080894D01*
X0316772Y0080999D01*
X0316532Y0081099D01*
X0316532Y0081098D02*
X0308658Y0081098D01*
X0294545Y0080725D02*
X0294545Y0081476D01*
X0293795Y0082226D01*
X0290041Y0082226D01*
X0290041Y0081476D02*
X0290041Y0082977D01*
X0290041Y0084578D02*
X0290041Y0086830D01*
X0290792Y0087581D01*
X0292293Y0087581D01*
X0293044Y0086830D01*
X0293044Y0084578D01*
X0294545Y0084578D02*
X0290041Y0084578D01*
X0290792Y0089182D02*
X0290041Y0089933D01*
X0290041Y0091434D01*
X0290792Y0092185D01*
X0291543Y0092185D01*
X0294545Y0089182D01*
X0294545Y0092185D01*
X0292293Y0093786D02*
X0292293Y0096789D01*
X0292293Y0098390D02*
X0292293Y0101393D01*
X0291543Y0101393D02*
X0294545Y0101393D01*
X0294545Y0102994D02*
X0290041Y0102994D01*
X0290041Y0105246D01*
X0290792Y0105997D01*
X0293795Y0105997D01*
X0294545Y0105246D01*
X0294545Y0102994D01*
X0291543Y0101393D02*
X0290041Y0099891D01*
X0291543Y0098390D01*
X0294545Y0098390D01*
X0294545Y0107598D02*
X0290041Y0110601D01*
X0290041Y0112202D02*
X0294545Y0112202D01*
X0294545Y0115204D01*
X0294545Y0110601D02*
X0290041Y0107598D01*
X0294545Y0080725D02*
X0293795Y0079974D01*
X0336845Y0043759D02*
X0337596Y0044510D01*
X0339097Y0044510D01*
X0339848Y0043759D01*
X0339848Y0040757D01*
X0339097Y0040006D01*
X0337596Y0040006D01*
X0336845Y0040757D01*
X0336845Y0043759D01*
X0338346Y0041507D02*
X0339848Y0040006D01*
X0341449Y0040757D02*
X0342200Y0040006D01*
X0343701Y0040006D01*
X0344452Y0040757D01*
X0344452Y0042258D01*
X0343701Y0043008D01*
X0342950Y0043008D01*
X0341449Y0042258D01*
X0341449Y0044510D01*
X0344452Y0044510D01*
X0344804Y0018010D02*
X0344053Y0017259D01*
X0344053Y0016508D01*
X0344804Y0015758D01*
X0346305Y0015758D01*
X0347056Y0015007D01*
X0347056Y0014257D01*
X0346305Y0013506D01*
X0344804Y0013506D01*
X0344053Y0014257D01*
X0342452Y0014257D02*
X0342452Y0017259D01*
X0341701Y0018010D01*
X0340200Y0018010D01*
X0339449Y0017259D01*
X0339449Y0014257D01*
X0340200Y0013506D01*
X0341701Y0013506D01*
X0342452Y0014257D01*
X0337848Y0013506D02*
X0337848Y0018010D01*
X0336346Y0016508D01*
X0334845Y0018010D01*
X0334845Y0013506D01*
X0346305Y0018010D02*
X0347056Y0017259D01*
X0346305Y0018010D02*
X0344804Y0018010D01*
X0348657Y0018010D02*
X0351659Y0018010D01*
X0353261Y0018010D02*
X0353261Y0013506D01*
X0356263Y0013506D01*
X0359366Y0013506D02*
X0359366Y0018010D01*
X0357865Y0018010D02*
X0360867Y0018010D01*
X0356263Y0018010D02*
X0353261Y0018010D01*
X0348657Y0018010D02*
X0348657Y0013506D01*
X0348657Y0015758D02*
X0350158Y0015758D01*
X0353261Y0015758D02*
X0354762Y0015758D01*
X0362469Y0015758D02*
X0365471Y0015758D01*
X0367073Y0015007D02*
X0369325Y0015007D01*
X0370075Y0015758D01*
X0370075Y0017259D01*
X0369325Y0018010D01*
X0367073Y0018010D01*
X0367073Y0013506D01*
X0371677Y0014257D02*
X0372427Y0013506D01*
X0373928Y0013506D01*
X0374679Y0014257D01*
X0376280Y0013506D02*
X0376280Y0018010D01*
X0374679Y0017259D02*
X0373928Y0018010D01*
X0372427Y0018010D01*
X0371677Y0017259D01*
X0371677Y0014257D01*
X0376280Y0015758D02*
X0379283Y0015758D01*
X0380884Y0015758D02*
X0383887Y0015758D01*
X0383887Y0016508D02*
X0383887Y0013506D01*
X0385488Y0013506D02*
X0385488Y0018010D01*
X0388491Y0013506D01*
X0388491Y0018010D01*
X0390092Y0018010D02*
X0393095Y0013506D01*
X0393095Y0018010D01*
X0394696Y0018010D02*
X0394696Y0013506D01*
X0397699Y0013506D01*
X0399300Y0013506D02*
X0402303Y0013506D01*
X0403904Y0013506D02*
X0403904Y0018010D01*
X0406907Y0018010D01*
X0408508Y0017259D02*
X0409259Y0018010D01*
X0410760Y0018010D01*
X0411510Y0017259D01*
X0411510Y0014257D01*
X0410760Y0013506D01*
X0409259Y0013506D01*
X0408508Y0014257D01*
X0408508Y0017259D01*
X0405405Y0015758D02*
X0403904Y0015758D01*
X0410009Y0015007D02*
X0411510Y0013506D01*
X0413112Y0013506D02*
X0413112Y0018010D01*
X0415364Y0018010D01*
X0416114Y0017259D01*
X0416114Y0015758D01*
X0415364Y0015007D01*
X0413112Y0015007D01*
X0417716Y0013506D02*
X0420718Y0016508D01*
X0420718Y0017259D01*
X0419968Y0018010D01*
X0418466Y0018010D01*
X0417716Y0017259D01*
X0422320Y0018010D02*
X0425322Y0018010D01*
X0425322Y0017259D01*
X0422320Y0014257D01*
X0422320Y0013506D01*
X0420718Y0013506D02*
X0417716Y0013506D01*
X0426924Y0013506D02*
X0426924Y0018010D01*
X0429176Y0018010D01*
X0429926Y0017259D01*
X0429926Y0015758D01*
X0429176Y0015007D01*
X0426924Y0015007D01*
X0431528Y0014257D02*
X0432278Y0013506D01*
X0433779Y0013506D01*
X0434530Y0014257D01*
X0434530Y0017259D01*
X0431528Y0014257D01*
X0431528Y0017259D01*
X0432278Y0018010D01*
X0433779Y0018010D01*
X0434530Y0017259D01*
X0436131Y0015758D02*
X0437633Y0017259D01*
X0439134Y0018010D01*
X0438383Y0015758D02*
X0436131Y0015758D01*
X0436131Y0014257D01*
X0436882Y0013506D01*
X0438383Y0013506D01*
X0439134Y0014257D01*
X0439134Y0015007D01*
X0438383Y0015758D01*
X0399300Y0018010D02*
X0399300Y0013506D01*
X0396197Y0015758D02*
X0394696Y0015758D01*
X0394696Y0018010D02*
X0397699Y0018010D01*
X0390092Y0018010D02*
X0390092Y0013506D01*
X0383887Y0016508D02*
X0382386Y0018010D01*
X0380884Y0016508D01*
X0380884Y0013506D01*
X0379283Y0013506D02*
X0379283Y0018010D01*
D15*
X0208963Y0020056D02*
X0207261Y0021190D01*
X0208963Y0022325D01*
X0207261Y0023459D02*
X0207261Y0020056D01*
X0205847Y0020623D02*
X0205280Y0020056D01*
X0204145Y0020056D01*
X0203578Y0020623D01*
X0205847Y0022892D01*
X0205847Y0020623D01*
X0203578Y0020623D02*
X0203578Y0022892D01*
X0204145Y0023459D01*
X0205280Y0023459D01*
X0205847Y0022892D01*
X0201029Y0023459D02*
X0201029Y0020056D01*
X0199895Y0020056D02*
X0202164Y0020056D01*
X0199895Y0022325D02*
X0201029Y0023459D01*
X0193963Y0030056D02*
X0192261Y0031190D01*
X0193963Y0032325D01*
X0192261Y0033459D02*
X0192261Y0030056D01*
X0190847Y0030623D02*
X0190280Y0030056D01*
X0189145Y0030056D01*
X0188578Y0030623D01*
X0190847Y0032892D01*
X0190847Y0030623D01*
X0190847Y0032892D02*
X0190280Y0033459D01*
X0189145Y0033459D01*
X0188578Y0032892D01*
X0188578Y0030623D01*
X0187164Y0030056D02*
X0184895Y0030056D01*
X0186029Y0030056D02*
X0186029Y0033459D01*
X0184895Y0032325D01*
X0165945Y0023459D02*
X0165945Y0020056D01*
X0165945Y0021190D02*
X0167646Y0020056D01*
X0165945Y0021190D02*
X0167646Y0022325D01*
X0164530Y0022892D02*
X0162261Y0020623D01*
X0162829Y0020056D01*
X0163963Y0020056D01*
X0164530Y0020623D01*
X0164530Y0022892D01*
X0163963Y0023459D01*
X0162829Y0023459D01*
X0162261Y0022892D01*
X0162261Y0020623D01*
X0160847Y0020623D02*
X0160280Y0020056D01*
X0159145Y0020056D01*
X0158578Y0020623D01*
X0160847Y0022892D01*
X0160847Y0020623D01*
X0158578Y0020623D02*
X0158578Y0022892D01*
X0159145Y0023459D01*
X0160280Y0023459D01*
X0160847Y0022892D01*
X0156029Y0023459D02*
X0156029Y0020056D01*
X0154895Y0020056D02*
X0157164Y0020056D01*
X0154895Y0022325D02*
X0156029Y0023459D01*
X0157344Y0012459D02*
X0158478Y0012459D01*
X0159045Y0011892D01*
X0159045Y0011325D01*
X0158478Y0010757D01*
X0159045Y0010190D01*
X0159045Y0009623D01*
X0158478Y0009056D01*
X0157344Y0009056D01*
X0156776Y0009623D01*
X0157911Y0010757D02*
X0158478Y0010757D01*
X0156776Y0011892D02*
X0157344Y0012459D01*
X0160460Y0011892D02*
X0161027Y0012459D01*
X0162161Y0012459D01*
X0162728Y0011892D01*
X0160460Y0009623D01*
X0161027Y0009056D01*
X0162161Y0009056D01*
X0162728Y0009623D01*
X0162728Y0011892D01*
X0164143Y0011892D02*
X0164710Y0012459D01*
X0165844Y0012459D01*
X0166411Y0011892D01*
X0164143Y0009623D01*
X0164710Y0009056D01*
X0165844Y0009056D01*
X0166411Y0009623D01*
X0166411Y0011892D01*
X0167826Y0012459D02*
X0167826Y0009056D01*
X0167826Y0010190D02*
X0169527Y0011325D01*
X0167826Y0010190D02*
X0169527Y0009056D01*
X0164143Y0009623D02*
X0164143Y0011892D01*
X0160460Y0011892D02*
X0160460Y0009623D01*
X0108795Y0063556D02*
X0106527Y0065825D01*
X0105959Y0065825D01*
X0105392Y0065257D01*
X0105392Y0064123D01*
X0105959Y0063556D01*
X0108795Y0063556D02*
X0108795Y0065825D01*
X0108795Y0067239D02*
X0105392Y0067239D01*
X0106527Y0068941D02*
X0107661Y0067239D01*
X0108795Y0068941D01*
X0220460Y0114056D02*
X0222728Y0114056D01*
X0221594Y0114056D02*
X0221594Y0117459D01*
X0220460Y0116325D01*
X0224143Y0116892D02*
X0224143Y0114623D01*
X0226411Y0116892D01*
X0226411Y0114623D01*
X0225844Y0114056D01*
X0224710Y0114056D01*
X0224143Y0114623D01*
X0227826Y0114056D02*
X0227826Y0117459D01*
X0226411Y0116892D02*
X0225844Y0117459D01*
X0224710Y0117459D01*
X0224143Y0116892D01*
X0227826Y0115190D02*
X0229527Y0116325D01*
X0227826Y0115190D02*
X0229527Y0114056D01*
X0230460Y0124056D02*
X0232728Y0124056D01*
X0231594Y0124056D02*
X0231594Y0127459D01*
X0230460Y0126325D01*
X0234143Y0126892D02*
X0234143Y0124623D01*
X0236411Y0126892D01*
X0236411Y0124623D01*
X0235844Y0124056D01*
X0234710Y0124056D01*
X0234143Y0124623D01*
X0237826Y0124056D02*
X0237826Y0127459D01*
X0236411Y0126892D02*
X0235844Y0127459D01*
X0234710Y0127459D01*
X0234143Y0126892D01*
X0237826Y0125190D02*
X0239527Y0126325D01*
X0237826Y0125190D02*
X0239527Y0124056D01*
X0264895Y0125056D02*
X0267164Y0125056D01*
X0266029Y0125056D02*
X0266029Y0128459D01*
X0264895Y0127325D01*
X0268578Y0127892D02*
X0268578Y0125623D01*
X0270847Y0127892D01*
X0270847Y0125623D01*
X0270280Y0125056D01*
X0269145Y0125056D01*
X0268578Y0125623D01*
X0272261Y0125056D02*
X0272261Y0128459D01*
X0270847Y0127892D02*
X0270280Y0128459D01*
X0269145Y0128459D01*
X0268578Y0127892D01*
X0272261Y0126190D02*
X0273963Y0127325D01*
X0272261Y0126190D02*
X0273963Y0125056D01*
D16*
X0223816Y0085882D02*
X0223816Y0079744D01*
X0224583Y0080511D02*
X0225350Y0081278D01*
X0225350Y0082046D01*
X0224583Y0082813D01*
X0223048Y0082813D01*
X0222281Y0083580D01*
X0222281Y0084348D01*
X0223048Y0085115D01*
X0224583Y0085115D01*
X0225350Y0084348D01*
X0226885Y0083580D02*
X0228420Y0085115D01*
X0228420Y0080511D01*
X0229954Y0080511D02*
X0226885Y0080511D01*
X0224583Y0080511D02*
X0223048Y0080511D01*
X0222281Y0081278D01*
X0220746Y0081278D02*
X0219979Y0080511D01*
X0218444Y0080511D01*
X0217677Y0081278D01*
X0217677Y0085115D01*
X0220746Y0085115D02*
X0220746Y0081278D01*
D17*
X0090979Y0070556D02*
X0090981Y0070579D01*
X0090987Y0070602D01*
X0090996Y0070623D01*
X0091009Y0070643D01*
X0091025Y0070660D01*
X0091043Y0070674D01*
X0091063Y0070685D01*
X0091085Y0070693D01*
X0091108Y0070697D01*
X0091132Y0070697D01*
X0091155Y0070693D01*
X0091177Y0070685D01*
X0091197Y0070674D01*
X0091215Y0070660D01*
X0091231Y0070643D01*
X0091244Y0070623D01*
X0091253Y0070602D01*
X0091259Y0070579D01*
X0091261Y0070556D01*
X0091259Y0070533D01*
X0091253Y0070510D01*
X0091244Y0070489D01*
X0091231Y0070469D01*
X0091215Y0070452D01*
X0091197Y0070438D01*
X0091177Y0070427D01*
X0091155Y0070419D01*
X0091132Y0070415D01*
X0091108Y0070415D01*
X0091085Y0070419D01*
X0091063Y0070427D01*
X0091043Y0070438D01*
X0091025Y0070452D01*
X0091009Y0070469D01*
X0090996Y0070489D01*
X0090987Y0070510D01*
X0090981Y0070533D01*
X0090979Y0070556D01*
D18*
X0087516Y0086256D02*
X0087477Y0086256D01*
D19*
X0089997Y0091256D02*
X0089997Y0081217D01*
X0095154Y0081217D01*
X0095154Y0091256D01*
X0089997Y0091256D01*
D20*
X0378594Y0099089D02*
X0378827Y0098856D01*
X0379762Y0098856D01*
X0379995Y0099089D01*
X0379995Y0099556D01*
X0379762Y0099790D01*
X0378827Y0099790D01*
X0378594Y0099556D01*
X0378594Y0099089D01*
X0379528Y0099323D02*
X0379995Y0099790D01*
X0379995Y0100329D02*
X0379061Y0101263D01*
X0378827Y0101263D01*
X0378594Y0101030D01*
X0378594Y0100563D01*
X0378827Y0100329D01*
X0379995Y0100329D02*
X0379995Y0101263D01*
X0386094Y0101030D02*
X0386327Y0101263D01*
X0387262Y0101263D01*
X0387495Y0101030D01*
X0387495Y0100563D01*
X0387262Y0100329D01*
X0386327Y0100329D01*
X0386094Y0100563D01*
X0386094Y0101030D01*
X0386327Y0101802D02*
X0386561Y0101802D01*
X0386795Y0102036D01*
X0386795Y0102503D01*
X0387028Y0102737D01*
X0387262Y0102737D01*
X0387495Y0102503D01*
X0387495Y0102036D01*
X0387262Y0101802D01*
X0386327Y0101802D02*
X0386094Y0102036D01*
X0386094Y0102503D01*
X0386327Y0102737D01*
X0386094Y0103276D02*
X0386094Y0104210D01*
X0386094Y0104749D02*
X0387495Y0104749D01*
X0387495Y0105683D01*
X0386795Y0105216D02*
X0386795Y0104749D01*
X0386094Y0104749D02*
X0386094Y0105683D01*
X0386094Y0106222D02*
X0386094Y0107156D01*
X0386094Y0106689D02*
X0387495Y0106689D01*
X0386795Y0107695D02*
X0386795Y0108630D01*
X0387495Y0109169D02*
X0386094Y0109169D01*
X0387495Y0110103D01*
X0386094Y0110103D01*
X0386327Y0110642D02*
X0387262Y0110642D01*
X0387495Y0110875D01*
X0387495Y0111343D01*
X0387262Y0111576D01*
X0387495Y0112115D02*
X0386094Y0112115D01*
X0386327Y0111576D02*
X0386094Y0111343D01*
X0386094Y0110875D01*
X0386327Y0110642D01*
X0386795Y0112115D02*
X0386795Y0113049D01*
X0386795Y0113588D02*
X0386795Y0114523D01*
X0386561Y0114523D02*
X0387495Y0114523D01*
X0387495Y0115062D02*
X0386094Y0115062D01*
X0387495Y0115996D01*
X0386094Y0115996D01*
X0386094Y0116535D02*
X0387495Y0117469D01*
X0386094Y0117469D01*
X0386094Y0118008D02*
X0387495Y0118008D01*
X0387495Y0118942D01*
X0387495Y0119481D02*
X0387495Y0120416D01*
X0387495Y0120955D02*
X0386561Y0121889D01*
X0386327Y0121889D01*
X0386094Y0121655D01*
X0386094Y0121188D01*
X0386327Y0120955D01*
X0387495Y0120955D02*
X0387495Y0121889D01*
X0387495Y0122428D02*
X0386094Y0122428D01*
X0387495Y0123362D01*
X0386094Y0123362D01*
X0386094Y0123901D02*
X0386094Y0124835D01*
X0386327Y0124835D01*
X0387262Y0123901D01*
X0387495Y0123901D01*
X0387262Y0125374D02*
X0386327Y0126309D01*
X0387262Y0126309D01*
X0387495Y0126075D01*
X0387495Y0125608D01*
X0387262Y0125374D01*
X0386327Y0125374D01*
X0386094Y0125608D01*
X0386094Y0126075D01*
X0386327Y0126309D01*
X0386327Y0126848D02*
X0386094Y0127081D01*
X0386094Y0127548D01*
X0386327Y0127782D01*
X0387262Y0126848D01*
X0387495Y0127081D01*
X0387495Y0127548D01*
X0387262Y0127782D01*
X0386327Y0127782D01*
X0386327Y0128321D02*
X0386094Y0128554D01*
X0386094Y0129022D01*
X0386327Y0129255D01*
X0387262Y0128321D01*
X0387495Y0128554D01*
X0387495Y0129022D01*
X0387262Y0129255D01*
X0386327Y0129255D01*
X0386327Y0128321D02*
X0387262Y0128321D01*
X0387262Y0126848D02*
X0386327Y0126848D01*
X0386094Y0119481D02*
X0387495Y0119481D01*
X0386795Y0118475D02*
X0386795Y0118008D01*
X0386094Y0118008D02*
X0386094Y0118942D01*
X0386094Y0116535D02*
X0387495Y0116535D01*
X0386561Y0114523D02*
X0386094Y0114055D01*
X0386561Y0113588D01*
X0387495Y0113588D01*
X0387495Y0113049D02*
X0386094Y0113049D01*
X0386795Y0103743D02*
X0386795Y0103276D01*
X0387495Y0103276D02*
X0386094Y0103276D01*
X0386094Y0099790D02*
X0387495Y0099790D01*
X0387495Y0098856D02*
X0386094Y0098856D01*
X0386561Y0099323D01*
X0386094Y0099790D01*
X0386327Y0089255D02*
X0387262Y0088321D01*
X0387495Y0088554D01*
X0387495Y0089022D01*
X0387262Y0089255D01*
X0386327Y0089255D01*
X0386094Y0089022D01*
X0386094Y0088554D01*
X0386327Y0088321D01*
X0387262Y0088321D01*
X0387262Y0087782D02*
X0387495Y0087548D01*
X0387495Y0087081D01*
X0387262Y0086848D01*
X0386327Y0087782D01*
X0387262Y0087782D01*
X0387262Y0086848D02*
X0386327Y0086848D01*
X0386094Y0087081D01*
X0386094Y0087548D01*
X0386327Y0087782D01*
X0386327Y0086309D02*
X0387262Y0085374D01*
X0387495Y0085608D01*
X0387495Y0086075D01*
X0387262Y0086309D01*
X0386327Y0086309D01*
X0386094Y0086075D01*
X0386094Y0085608D01*
X0386327Y0085374D01*
X0387262Y0085374D01*
X0386327Y0084835D02*
X0387262Y0083901D01*
X0387495Y0083901D01*
X0387495Y0083362D02*
X0386094Y0083362D01*
X0386094Y0083901D02*
X0386094Y0084835D01*
X0386327Y0084835D01*
X0387495Y0083362D02*
X0386094Y0082428D01*
X0387495Y0082428D01*
X0387495Y0081889D02*
X0387495Y0080955D01*
X0386561Y0081889D01*
X0386327Y0081889D01*
X0386094Y0081655D01*
X0386094Y0081188D01*
X0386327Y0080955D01*
X0387495Y0080416D02*
X0387495Y0079481D01*
X0386094Y0079481D01*
X0386094Y0078942D02*
X0386094Y0078008D01*
X0387495Y0078008D01*
X0387495Y0078942D01*
X0386795Y0078475D02*
X0386795Y0078008D01*
X0387495Y0077469D02*
X0386094Y0077469D01*
X0386094Y0076535D02*
X0387495Y0077469D01*
X0387495Y0076535D02*
X0386094Y0076535D01*
X0386094Y0075996D02*
X0387495Y0075996D01*
X0386094Y0075062D01*
X0387495Y0075062D01*
X0387495Y0074523D02*
X0386561Y0074523D01*
X0386094Y0074055D01*
X0386561Y0073588D01*
X0387495Y0073588D01*
X0387495Y0073049D02*
X0386094Y0073049D01*
X0386795Y0073049D02*
X0386795Y0072115D01*
X0387495Y0072115D02*
X0386094Y0072115D01*
X0386327Y0071576D02*
X0386094Y0071343D01*
X0386094Y0070875D01*
X0386327Y0070642D01*
X0387262Y0070642D01*
X0387495Y0070875D01*
X0387495Y0071343D01*
X0387262Y0071576D01*
X0386795Y0073588D02*
X0386795Y0074523D01*
X0387495Y0070103D02*
X0386094Y0070103D01*
X0386094Y0069169D02*
X0387495Y0070103D01*
X0387495Y0069169D02*
X0386094Y0069169D01*
X0386795Y0068630D02*
X0386795Y0067695D01*
X0386094Y0067156D02*
X0386094Y0066222D01*
X0386094Y0066689D02*
X0387495Y0066689D01*
X0387495Y0065683D02*
X0387495Y0064749D01*
X0386094Y0064749D01*
X0386094Y0065683D01*
X0386795Y0065216D02*
X0386795Y0064749D01*
X0386094Y0064210D02*
X0386094Y0063276D01*
X0387495Y0063276D01*
X0387262Y0062737D02*
X0387495Y0062503D01*
X0387495Y0062036D01*
X0387262Y0061802D01*
X0386795Y0062036D02*
X0386561Y0061802D01*
X0386327Y0061802D01*
X0386094Y0062036D01*
X0386094Y0062503D01*
X0386327Y0062737D01*
X0386795Y0062503D02*
X0387028Y0062737D01*
X0387262Y0062737D01*
X0386795Y0062503D02*
X0386795Y0062036D01*
X0387262Y0061263D02*
X0386327Y0061263D01*
X0386094Y0061030D01*
X0386094Y0060563D01*
X0386327Y0060329D01*
X0387262Y0060329D01*
X0387495Y0060563D01*
X0387495Y0061030D01*
X0387262Y0061263D01*
X0387495Y0059790D02*
X0386094Y0059790D01*
X0386561Y0059323D01*
X0386094Y0058856D01*
X0387495Y0058856D01*
X0379995Y0059089D02*
X0379762Y0058856D01*
X0378827Y0058856D01*
X0378594Y0059089D01*
X0378594Y0059556D01*
X0378827Y0059790D01*
X0379762Y0059790D01*
X0379995Y0059556D01*
X0379995Y0059089D01*
X0379528Y0059323D02*
X0379995Y0059790D01*
X0379295Y0060329D02*
X0379295Y0061263D01*
X0379995Y0061030D02*
X0378594Y0061030D01*
X0379295Y0060329D01*
X0386795Y0063276D02*
X0386795Y0063743D01*
D21*
X0347595Y0036256D03*
M02*
