G75*
%MOIN*%
%OFA0B0*%
%FSLAX25Y25*%
%IPPOS*%
%LPD*%
%AMOC8*
5,1,8,0,0,1.08239X$1,22.5*
%
%ADD10C,0.00000*%
%ADD11C,0.06500*%
%ADD12R,0.06500X0.06500*%
%ADD13C,0.07400*%
%ADD14C,0.05000*%
%ADD15C,0.06299*%
%ADD16C,0.05150*%
%ADD17C,0.05543*%
%ADD18C,0.06000*%
%ADD19R,0.07400X0.07400*%
%ADD20C,0.01000*%
%ADD21C,0.04000*%
D10*
X0077595Y0001256D02*
X0396296Y0001256D01*
X0396296Y0136256D01*
X0077595Y0136256D01*
X0067595Y0092717D01*
X0032595Y0092717D01*
X0032595Y0045256D01*
X0067595Y0045256D01*
X0077595Y0001256D01*
D11*
X0132595Y0031256D03*
X0362595Y0066256D03*
X0127595Y0111256D03*
X0097595Y0111256D03*
D12*
X0087595Y0111256D03*
X0117595Y0111256D03*
X0352595Y0066256D03*
X0122595Y0031256D03*
D13*
X0147595Y0021256D03*
X0147595Y0011256D03*
X0177595Y0011256D03*
X0202595Y0011256D03*
X0192595Y0021256D03*
X0177595Y0021256D03*
X0177595Y0031256D03*
X0207595Y0031256D03*
X0222595Y0021256D03*
X0252595Y0021256D03*
X0257595Y0031256D03*
X0287595Y0031256D03*
X0282595Y0021256D03*
X0272595Y0011256D03*
X0242595Y0011256D03*
X0232595Y0011256D03*
X0282095Y0041256D03*
X0283095Y0051256D03*
X0282095Y0061256D03*
X0283095Y0071256D03*
X0282095Y0081256D03*
X0283095Y0091256D03*
X0282095Y0101256D03*
X0237595Y0116256D03*
X0247595Y0126256D03*
X0257595Y0126256D03*
X0287595Y0126256D03*
X0217595Y0126256D03*
X0207595Y0116256D03*
X0187595Y0120756D03*
X0177595Y0121756D03*
X0167595Y0120756D03*
X0157595Y0121756D03*
X0147595Y0120756D03*
X0107595Y0086256D03*
X0107595Y0056256D03*
X0342595Y0101256D03*
X0372595Y0101256D03*
X0382595Y0091256D03*
X0375095Y0086256D03*
X0382595Y0081256D03*
X0382595Y0051256D03*
X0375095Y0046256D03*
X0382595Y0041256D03*
D14*
X0315095Y0063756D02*
X0310095Y0063756D01*
X0310095Y0068756D02*
X0315095Y0068756D01*
X0315095Y0073756D02*
X0310095Y0073756D01*
X0310095Y0078756D02*
X0315095Y0078756D01*
D15*
X0353658Y0114091D03*
X0361532Y0114091D03*
X0096532Y0043421D03*
X0088658Y0043421D03*
X0075430Y0064819D03*
X0075430Y0072693D03*
D16*
X0087753Y0021256D03*
X0097595Y0021256D03*
X0107438Y0021256D03*
D17*
X0332595Y0057256D03*
X0332595Y0085256D03*
D18*
X0337595Y0029256D02*
X0337595Y0023256D01*
X0347595Y0023256D02*
X0347595Y0029256D01*
X0357595Y0029256D02*
X0357595Y0023256D01*
D19*
X0283095Y0111256D03*
D20*
X0283695Y0111056D01*
X0343095Y0111056D01*
X0373695Y0080456D01*
X0381795Y0080456D01*
X0382595Y0081256D01*
X0312595Y0073756D02*
X0312495Y0073256D01*
X0308895Y0073256D01*
X0288195Y0052556D01*
X0288195Y0048956D01*
X0285495Y0046256D01*
X0106395Y0046256D01*
X0098295Y0038156D01*
X0083895Y0038156D01*
X0083895Y0065156D01*
X0091095Y0072356D01*
X0091095Y0076856D01*
X0087495Y0076856D02*
X0075795Y0065156D01*
X0075430Y0064819D01*
X0075795Y0064256D01*
X0075795Y0030056D01*
X0082995Y0022856D01*
X0082995Y0020156D01*
X0086595Y0016556D01*
X0092895Y0016556D01*
X0097595Y0021256D01*
X0087753Y0021256D02*
X0087495Y0021956D01*
X0083895Y0025556D01*
X0083895Y0038156D01*
X0088658Y0043421D02*
X0089295Y0043556D01*
X0089295Y0067856D01*
X0107295Y0085856D01*
X0107595Y0086256D01*
X0108195Y0086756D01*
X0127095Y0105656D01*
X0127095Y0111056D01*
X0127595Y0111256D01*
X0127995Y0111956D01*
X0142395Y0111956D01*
X0142395Y0122756D01*
X0151395Y0131756D01*
X0259395Y0131756D01*
X0264795Y0126356D01*
X0287295Y0126356D01*
X0287595Y0126256D01*
X0259395Y0102056D02*
X0235995Y0125456D01*
X0217995Y0125456D01*
X0217595Y0126256D01*
X0208995Y0127256D02*
X0219795Y0116456D01*
X0236895Y0116456D01*
X0237595Y0116256D01*
X0237795Y0115556D01*
X0262095Y0091256D01*
X0283095Y0091256D01*
X0282095Y0101256D02*
X0281895Y0102056D01*
X0259395Y0102056D01*
X0187595Y0120756D02*
X0187395Y0120056D01*
X0183795Y0120056D01*
X0175695Y0111956D01*
X0142395Y0111956D01*
X0167595Y0120756D02*
X0167595Y0120956D01*
X0169395Y0120956D01*
X0175695Y0127256D01*
X0208995Y0127256D01*
X0087595Y0111256D02*
X0087495Y0111056D01*
X0087495Y0076856D01*
X0281895Y0032756D02*
X0281895Y0021956D01*
X0282595Y0021256D01*
X0281895Y0032756D02*
X0289995Y0040856D01*
X0289995Y0049856D01*
X0308895Y0068756D01*
X0312595Y0068756D01*
X0325995Y0057056D02*
X0274695Y0005756D01*
X0153195Y0005756D01*
X0147795Y0011156D01*
X0147595Y0011256D01*
X0325995Y0057056D02*
X0332295Y0057056D01*
X0332595Y0057256D01*
X0357495Y0046256D02*
X0375095Y0046256D01*
X0357495Y0046256D02*
X0337695Y0026456D01*
X0337595Y0026256D01*
D21*
X0091095Y0076856D03*
M02*
