G75*
%MOIN*%
%OFA0B0*%
%FSLAX25Y25*%
%IPPOS*%
%LPD*%
%AMOC8*
5,1,8,0,0,1.08239X$1,22.5*
%
%ADD10C,0.00000*%
%ADD11C,0.10243*%
%ADD12C,0.06900*%
%ADD13R,0.06900X0.06900*%
%ADD14C,0.07800*%
%ADD15C,0.06700*%
%ADD16C,0.05550*%
%ADD17R,0.05124X0.02565*%
%ADD18R,0.03117X0.04298*%
%ADD19C,0.06400*%
%ADD20R,0.07800X0.07800*%
%ADD21C,0.04337*%
%ADD22C,0.04762*%
%ADD23C,0.03000*%
D10*
X0061333Y0001000D02*
X0082199Y0001000D01*
X0082199Y0012811D01*
X0094010Y0012811D01*
X0094010Y0001000D01*
X0212121Y0001000D01*
X0212121Y0012811D01*
X0223932Y0012811D01*
X0223932Y0001000D01*
X0365664Y0001000D01*
X0365664Y0012811D01*
X0377475Y0012811D01*
X0377475Y0001000D01*
X0405034Y0001000D01*
X0405034Y0174228D01*
X0377475Y0174228D01*
X0377475Y0162417D01*
X0365664Y0162417D01*
X0365664Y0174228D01*
X0223932Y0174228D01*
X0223932Y0162417D01*
X0212121Y0162417D01*
X0212121Y0174228D01*
X0094010Y0174228D01*
X0094010Y0162417D01*
X0082199Y0162417D01*
X0082199Y0174228D01*
X0061333Y0174228D01*
X0050703Y0111236D01*
X0011333Y0111236D01*
X0011333Y0063992D01*
X0050703Y0063992D01*
X0061333Y0001000D01*
X0065467Y0012811D02*
X0065469Y0012951D01*
X0065475Y0013091D01*
X0065485Y0013230D01*
X0065499Y0013369D01*
X0065517Y0013508D01*
X0065538Y0013646D01*
X0065564Y0013784D01*
X0065594Y0013921D01*
X0065627Y0014056D01*
X0065665Y0014191D01*
X0065706Y0014325D01*
X0065751Y0014458D01*
X0065799Y0014589D01*
X0065852Y0014718D01*
X0065908Y0014847D01*
X0065967Y0014973D01*
X0066031Y0015098D01*
X0066097Y0015221D01*
X0066168Y0015342D01*
X0066241Y0015461D01*
X0066318Y0015578D01*
X0066399Y0015692D01*
X0066482Y0015804D01*
X0066569Y0015914D01*
X0066659Y0016022D01*
X0066751Y0016126D01*
X0066847Y0016228D01*
X0066946Y0016328D01*
X0067047Y0016424D01*
X0067151Y0016518D01*
X0067258Y0016608D01*
X0067367Y0016695D01*
X0067479Y0016780D01*
X0067593Y0016861D01*
X0067709Y0016939D01*
X0067827Y0017013D01*
X0067948Y0017084D01*
X0068070Y0017152D01*
X0068195Y0017216D01*
X0068321Y0017277D01*
X0068448Y0017334D01*
X0068578Y0017387D01*
X0068709Y0017437D01*
X0068841Y0017482D01*
X0068974Y0017525D01*
X0069109Y0017563D01*
X0069244Y0017597D01*
X0069381Y0017628D01*
X0069518Y0017655D01*
X0069656Y0017677D01*
X0069795Y0017696D01*
X0069934Y0017711D01*
X0070073Y0017722D01*
X0070213Y0017729D01*
X0070353Y0017732D01*
X0070493Y0017731D01*
X0070633Y0017726D01*
X0070772Y0017717D01*
X0070912Y0017704D01*
X0071051Y0017687D01*
X0071189Y0017666D01*
X0071327Y0017642D01*
X0071464Y0017613D01*
X0071600Y0017581D01*
X0071735Y0017544D01*
X0071869Y0017504D01*
X0072002Y0017460D01*
X0072133Y0017412D01*
X0072263Y0017361D01*
X0072392Y0017306D01*
X0072519Y0017247D01*
X0072644Y0017184D01*
X0072767Y0017119D01*
X0072889Y0017049D01*
X0073008Y0016976D01*
X0073126Y0016900D01*
X0073241Y0016821D01*
X0073354Y0016738D01*
X0073464Y0016652D01*
X0073572Y0016563D01*
X0073677Y0016471D01*
X0073780Y0016376D01*
X0073880Y0016278D01*
X0073977Y0016178D01*
X0074071Y0016074D01*
X0074163Y0015968D01*
X0074251Y0015860D01*
X0074336Y0015749D01*
X0074418Y0015635D01*
X0074497Y0015519D01*
X0074572Y0015402D01*
X0074644Y0015282D01*
X0074712Y0015160D01*
X0074777Y0015036D01*
X0074839Y0014910D01*
X0074897Y0014783D01*
X0074951Y0014654D01*
X0075002Y0014523D01*
X0075048Y0014391D01*
X0075091Y0014258D01*
X0075131Y0014124D01*
X0075166Y0013989D01*
X0075198Y0013852D01*
X0075225Y0013715D01*
X0075249Y0013577D01*
X0075269Y0013439D01*
X0075285Y0013300D01*
X0075297Y0013160D01*
X0075305Y0013021D01*
X0075309Y0012881D01*
X0075309Y0012741D01*
X0075305Y0012601D01*
X0075297Y0012462D01*
X0075285Y0012322D01*
X0075269Y0012183D01*
X0075249Y0012045D01*
X0075225Y0011907D01*
X0075198Y0011770D01*
X0075166Y0011633D01*
X0075131Y0011498D01*
X0075091Y0011364D01*
X0075048Y0011231D01*
X0075002Y0011099D01*
X0074951Y0010968D01*
X0074897Y0010839D01*
X0074839Y0010712D01*
X0074777Y0010586D01*
X0074712Y0010462D01*
X0074644Y0010340D01*
X0074572Y0010220D01*
X0074497Y0010103D01*
X0074418Y0009987D01*
X0074336Y0009873D01*
X0074251Y0009762D01*
X0074163Y0009654D01*
X0074071Y0009548D01*
X0073977Y0009444D01*
X0073880Y0009344D01*
X0073780Y0009246D01*
X0073677Y0009151D01*
X0073572Y0009059D01*
X0073464Y0008970D01*
X0073354Y0008884D01*
X0073241Y0008801D01*
X0073126Y0008722D01*
X0073008Y0008646D01*
X0072889Y0008573D01*
X0072767Y0008503D01*
X0072644Y0008438D01*
X0072519Y0008375D01*
X0072392Y0008316D01*
X0072263Y0008261D01*
X0072133Y0008210D01*
X0072002Y0008162D01*
X0071869Y0008118D01*
X0071735Y0008078D01*
X0071600Y0008041D01*
X0071464Y0008009D01*
X0071327Y0007980D01*
X0071189Y0007956D01*
X0071051Y0007935D01*
X0070912Y0007918D01*
X0070772Y0007905D01*
X0070633Y0007896D01*
X0070493Y0007891D01*
X0070353Y0007890D01*
X0070213Y0007893D01*
X0070073Y0007900D01*
X0069934Y0007911D01*
X0069795Y0007926D01*
X0069656Y0007945D01*
X0069518Y0007967D01*
X0069381Y0007994D01*
X0069244Y0008025D01*
X0069109Y0008059D01*
X0068974Y0008097D01*
X0068841Y0008140D01*
X0068709Y0008185D01*
X0068578Y0008235D01*
X0068448Y0008288D01*
X0068321Y0008345D01*
X0068195Y0008406D01*
X0068070Y0008470D01*
X0067948Y0008538D01*
X0067827Y0008609D01*
X0067709Y0008683D01*
X0067593Y0008761D01*
X0067479Y0008842D01*
X0067367Y0008927D01*
X0067258Y0009014D01*
X0067151Y0009104D01*
X0067047Y0009198D01*
X0066946Y0009294D01*
X0066847Y0009394D01*
X0066751Y0009496D01*
X0066659Y0009600D01*
X0066569Y0009708D01*
X0066482Y0009818D01*
X0066399Y0009930D01*
X0066318Y0010044D01*
X0066241Y0010161D01*
X0066168Y0010280D01*
X0066097Y0010401D01*
X0066031Y0010524D01*
X0065967Y0010649D01*
X0065908Y0010775D01*
X0065852Y0010904D01*
X0065799Y0011033D01*
X0065751Y0011164D01*
X0065706Y0011297D01*
X0065665Y0011431D01*
X0065627Y0011566D01*
X0065594Y0011701D01*
X0065564Y0011838D01*
X0065538Y0011976D01*
X0065517Y0012114D01*
X0065499Y0012253D01*
X0065485Y0012392D01*
X0065475Y0012531D01*
X0065469Y0012671D01*
X0065467Y0012811D01*
X0333616Y0050606D02*
X0333618Y0050694D01*
X0333624Y0050782D01*
X0333634Y0050870D01*
X0333648Y0050958D01*
X0333665Y0051044D01*
X0333687Y0051130D01*
X0333712Y0051214D01*
X0333742Y0051298D01*
X0333774Y0051380D01*
X0333811Y0051460D01*
X0333851Y0051539D01*
X0333895Y0051616D01*
X0333942Y0051691D01*
X0333992Y0051763D01*
X0334046Y0051834D01*
X0334102Y0051901D01*
X0334162Y0051967D01*
X0334224Y0052029D01*
X0334290Y0052089D01*
X0334357Y0052145D01*
X0334428Y0052199D01*
X0334500Y0052249D01*
X0334575Y0052296D01*
X0334652Y0052340D01*
X0334731Y0052380D01*
X0334811Y0052417D01*
X0334893Y0052449D01*
X0334977Y0052479D01*
X0335061Y0052504D01*
X0335147Y0052526D01*
X0335233Y0052543D01*
X0335321Y0052557D01*
X0335409Y0052567D01*
X0335497Y0052573D01*
X0335585Y0052575D01*
X0335673Y0052573D01*
X0335761Y0052567D01*
X0335849Y0052557D01*
X0335937Y0052543D01*
X0336023Y0052526D01*
X0336109Y0052504D01*
X0336193Y0052479D01*
X0336277Y0052449D01*
X0336359Y0052417D01*
X0336439Y0052380D01*
X0336518Y0052340D01*
X0336595Y0052296D01*
X0336670Y0052249D01*
X0336742Y0052199D01*
X0336813Y0052145D01*
X0336880Y0052089D01*
X0336946Y0052029D01*
X0337008Y0051967D01*
X0337068Y0051901D01*
X0337124Y0051834D01*
X0337178Y0051763D01*
X0337228Y0051691D01*
X0337275Y0051616D01*
X0337319Y0051539D01*
X0337359Y0051460D01*
X0337396Y0051380D01*
X0337428Y0051298D01*
X0337458Y0051214D01*
X0337483Y0051130D01*
X0337505Y0051044D01*
X0337522Y0050958D01*
X0337536Y0050870D01*
X0337546Y0050782D01*
X0337552Y0050694D01*
X0337554Y0050606D01*
X0337552Y0050518D01*
X0337546Y0050430D01*
X0337536Y0050342D01*
X0337522Y0050254D01*
X0337505Y0050168D01*
X0337483Y0050082D01*
X0337458Y0049998D01*
X0337428Y0049914D01*
X0337396Y0049832D01*
X0337359Y0049752D01*
X0337319Y0049673D01*
X0337275Y0049596D01*
X0337228Y0049521D01*
X0337178Y0049449D01*
X0337124Y0049378D01*
X0337068Y0049311D01*
X0337008Y0049245D01*
X0336946Y0049183D01*
X0336880Y0049123D01*
X0336813Y0049067D01*
X0336742Y0049013D01*
X0336670Y0048963D01*
X0336595Y0048916D01*
X0336518Y0048872D01*
X0336439Y0048832D01*
X0336359Y0048795D01*
X0336277Y0048763D01*
X0336193Y0048733D01*
X0336109Y0048708D01*
X0336023Y0048686D01*
X0335937Y0048669D01*
X0335849Y0048655D01*
X0335761Y0048645D01*
X0335673Y0048639D01*
X0335585Y0048637D01*
X0335497Y0048639D01*
X0335409Y0048645D01*
X0335321Y0048655D01*
X0335233Y0048669D01*
X0335147Y0048686D01*
X0335061Y0048708D01*
X0334977Y0048733D01*
X0334893Y0048763D01*
X0334811Y0048795D01*
X0334731Y0048832D01*
X0334652Y0048872D01*
X0334575Y0048916D01*
X0334500Y0048963D01*
X0334428Y0049013D01*
X0334357Y0049067D01*
X0334290Y0049123D01*
X0334224Y0049183D01*
X0334162Y0049245D01*
X0334102Y0049311D01*
X0334046Y0049378D01*
X0333992Y0049449D01*
X0333942Y0049521D01*
X0333895Y0049596D01*
X0333851Y0049673D01*
X0333811Y0049752D01*
X0333774Y0049832D01*
X0333742Y0049914D01*
X0333712Y0049998D01*
X0333687Y0050082D01*
X0333665Y0050168D01*
X0333648Y0050254D01*
X0333634Y0050342D01*
X0333624Y0050430D01*
X0333618Y0050518D01*
X0333616Y0050606D01*
X0343616Y0060606D02*
X0343618Y0060694D01*
X0343624Y0060782D01*
X0343634Y0060870D01*
X0343648Y0060958D01*
X0343665Y0061044D01*
X0343687Y0061130D01*
X0343712Y0061214D01*
X0343742Y0061298D01*
X0343774Y0061380D01*
X0343811Y0061460D01*
X0343851Y0061539D01*
X0343895Y0061616D01*
X0343942Y0061691D01*
X0343992Y0061763D01*
X0344046Y0061834D01*
X0344102Y0061901D01*
X0344162Y0061967D01*
X0344224Y0062029D01*
X0344290Y0062089D01*
X0344357Y0062145D01*
X0344428Y0062199D01*
X0344500Y0062249D01*
X0344575Y0062296D01*
X0344652Y0062340D01*
X0344731Y0062380D01*
X0344811Y0062417D01*
X0344893Y0062449D01*
X0344977Y0062479D01*
X0345061Y0062504D01*
X0345147Y0062526D01*
X0345233Y0062543D01*
X0345321Y0062557D01*
X0345409Y0062567D01*
X0345497Y0062573D01*
X0345585Y0062575D01*
X0345673Y0062573D01*
X0345761Y0062567D01*
X0345849Y0062557D01*
X0345937Y0062543D01*
X0346023Y0062526D01*
X0346109Y0062504D01*
X0346193Y0062479D01*
X0346277Y0062449D01*
X0346359Y0062417D01*
X0346439Y0062380D01*
X0346518Y0062340D01*
X0346595Y0062296D01*
X0346670Y0062249D01*
X0346742Y0062199D01*
X0346813Y0062145D01*
X0346880Y0062089D01*
X0346946Y0062029D01*
X0347008Y0061967D01*
X0347068Y0061901D01*
X0347124Y0061834D01*
X0347178Y0061763D01*
X0347228Y0061691D01*
X0347275Y0061616D01*
X0347319Y0061539D01*
X0347359Y0061460D01*
X0347396Y0061380D01*
X0347428Y0061298D01*
X0347458Y0061214D01*
X0347483Y0061130D01*
X0347505Y0061044D01*
X0347522Y0060958D01*
X0347536Y0060870D01*
X0347546Y0060782D01*
X0347552Y0060694D01*
X0347554Y0060606D01*
X0347552Y0060518D01*
X0347546Y0060430D01*
X0347536Y0060342D01*
X0347522Y0060254D01*
X0347505Y0060168D01*
X0347483Y0060082D01*
X0347458Y0059998D01*
X0347428Y0059914D01*
X0347396Y0059832D01*
X0347359Y0059752D01*
X0347319Y0059673D01*
X0347275Y0059596D01*
X0347228Y0059521D01*
X0347178Y0059449D01*
X0347124Y0059378D01*
X0347068Y0059311D01*
X0347008Y0059245D01*
X0346946Y0059183D01*
X0346880Y0059123D01*
X0346813Y0059067D01*
X0346742Y0059013D01*
X0346670Y0058963D01*
X0346595Y0058916D01*
X0346518Y0058872D01*
X0346439Y0058832D01*
X0346359Y0058795D01*
X0346277Y0058763D01*
X0346193Y0058733D01*
X0346109Y0058708D01*
X0346023Y0058686D01*
X0345937Y0058669D01*
X0345849Y0058655D01*
X0345761Y0058645D01*
X0345673Y0058639D01*
X0345585Y0058637D01*
X0345497Y0058639D01*
X0345409Y0058645D01*
X0345321Y0058655D01*
X0345233Y0058669D01*
X0345147Y0058686D01*
X0345061Y0058708D01*
X0344977Y0058733D01*
X0344893Y0058763D01*
X0344811Y0058795D01*
X0344731Y0058832D01*
X0344652Y0058872D01*
X0344575Y0058916D01*
X0344500Y0058963D01*
X0344428Y0059013D01*
X0344357Y0059067D01*
X0344290Y0059123D01*
X0344224Y0059183D01*
X0344162Y0059245D01*
X0344102Y0059311D01*
X0344046Y0059378D01*
X0343992Y0059449D01*
X0343942Y0059521D01*
X0343895Y0059596D01*
X0343851Y0059673D01*
X0343811Y0059752D01*
X0343774Y0059832D01*
X0343742Y0059914D01*
X0343712Y0059998D01*
X0343687Y0060082D01*
X0343665Y0060168D01*
X0343648Y0060254D01*
X0343634Y0060342D01*
X0343624Y0060430D01*
X0343618Y0060518D01*
X0343616Y0060606D01*
X0333616Y0070606D02*
X0333618Y0070694D01*
X0333624Y0070782D01*
X0333634Y0070870D01*
X0333648Y0070958D01*
X0333665Y0071044D01*
X0333687Y0071130D01*
X0333712Y0071214D01*
X0333742Y0071298D01*
X0333774Y0071380D01*
X0333811Y0071460D01*
X0333851Y0071539D01*
X0333895Y0071616D01*
X0333942Y0071691D01*
X0333992Y0071763D01*
X0334046Y0071834D01*
X0334102Y0071901D01*
X0334162Y0071967D01*
X0334224Y0072029D01*
X0334290Y0072089D01*
X0334357Y0072145D01*
X0334428Y0072199D01*
X0334500Y0072249D01*
X0334575Y0072296D01*
X0334652Y0072340D01*
X0334731Y0072380D01*
X0334811Y0072417D01*
X0334893Y0072449D01*
X0334977Y0072479D01*
X0335061Y0072504D01*
X0335147Y0072526D01*
X0335233Y0072543D01*
X0335321Y0072557D01*
X0335409Y0072567D01*
X0335497Y0072573D01*
X0335585Y0072575D01*
X0335673Y0072573D01*
X0335761Y0072567D01*
X0335849Y0072557D01*
X0335937Y0072543D01*
X0336023Y0072526D01*
X0336109Y0072504D01*
X0336193Y0072479D01*
X0336277Y0072449D01*
X0336359Y0072417D01*
X0336439Y0072380D01*
X0336518Y0072340D01*
X0336595Y0072296D01*
X0336670Y0072249D01*
X0336742Y0072199D01*
X0336813Y0072145D01*
X0336880Y0072089D01*
X0336946Y0072029D01*
X0337008Y0071967D01*
X0337068Y0071901D01*
X0337124Y0071834D01*
X0337178Y0071763D01*
X0337228Y0071691D01*
X0337275Y0071616D01*
X0337319Y0071539D01*
X0337359Y0071460D01*
X0337396Y0071380D01*
X0337428Y0071298D01*
X0337458Y0071214D01*
X0337483Y0071130D01*
X0337505Y0071044D01*
X0337522Y0070958D01*
X0337536Y0070870D01*
X0337546Y0070782D01*
X0337552Y0070694D01*
X0337554Y0070606D01*
X0337552Y0070518D01*
X0337546Y0070430D01*
X0337536Y0070342D01*
X0337522Y0070254D01*
X0337505Y0070168D01*
X0337483Y0070082D01*
X0337458Y0069998D01*
X0337428Y0069914D01*
X0337396Y0069832D01*
X0337359Y0069752D01*
X0337319Y0069673D01*
X0337275Y0069596D01*
X0337228Y0069521D01*
X0337178Y0069449D01*
X0337124Y0069378D01*
X0337068Y0069311D01*
X0337008Y0069245D01*
X0336946Y0069183D01*
X0336880Y0069123D01*
X0336813Y0069067D01*
X0336742Y0069013D01*
X0336670Y0068963D01*
X0336595Y0068916D01*
X0336518Y0068872D01*
X0336439Y0068832D01*
X0336359Y0068795D01*
X0336277Y0068763D01*
X0336193Y0068733D01*
X0336109Y0068708D01*
X0336023Y0068686D01*
X0335937Y0068669D01*
X0335849Y0068655D01*
X0335761Y0068645D01*
X0335673Y0068639D01*
X0335585Y0068637D01*
X0335497Y0068639D01*
X0335409Y0068645D01*
X0335321Y0068655D01*
X0335233Y0068669D01*
X0335147Y0068686D01*
X0335061Y0068708D01*
X0334977Y0068733D01*
X0334893Y0068763D01*
X0334811Y0068795D01*
X0334731Y0068832D01*
X0334652Y0068872D01*
X0334575Y0068916D01*
X0334500Y0068963D01*
X0334428Y0069013D01*
X0334357Y0069067D01*
X0334290Y0069123D01*
X0334224Y0069183D01*
X0334162Y0069245D01*
X0334102Y0069311D01*
X0334046Y0069378D01*
X0333992Y0069449D01*
X0333942Y0069521D01*
X0333895Y0069596D01*
X0333851Y0069673D01*
X0333811Y0069752D01*
X0333774Y0069832D01*
X0333742Y0069914D01*
X0333712Y0069998D01*
X0333687Y0070082D01*
X0333665Y0070168D01*
X0333648Y0070254D01*
X0333634Y0070342D01*
X0333624Y0070430D01*
X0333618Y0070518D01*
X0333616Y0070606D01*
X0384365Y0012811D02*
X0384367Y0012951D01*
X0384373Y0013091D01*
X0384383Y0013230D01*
X0384397Y0013369D01*
X0384415Y0013508D01*
X0384436Y0013646D01*
X0384462Y0013784D01*
X0384492Y0013921D01*
X0384525Y0014056D01*
X0384563Y0014191D01*
X0384604Y0014325D01*
X0384649Y0014458D01*
X0384697Y0014589D01*
X0384750Y0014718D01*
X0384806Y0014847D01*
X0384865Y0014973D01*
X0384929Y0015098D01*
X0384995Y0015221D01*
X0385066Y0015342D01*
X0385139Y0015461D01*
X0385216Y0015578D01*
X0385297Y0015692D01*
X0385380Y0015804D01*
X0385467Y0015914D01*
X0385557Y0016022D01*
X0385649Y0016126D01*
X0385745Y0016228D01*
X0385844Y0016328D01*
X0385945Y0016424D01*
X0386049Y0016518D01*
X0386156Y0016608D01*
X0386265Y0016695D01*
X0386377Y0016780D01*
X0386491Y0016861D01*
X0386607Y0016939D01*
X0386725Y0017013D01*
X0386846Y0017084D01*
X0386968Y0017152D01*
X0387093Y0017216D01*
X0387219Y0017277D01*
X0387346Y0017334D01*
X0387476Y0017387D01*
X0387607Y0017437D01*
X0387739Y0017482D01*
X0387872Y0017525D01*
X0388007Y0017563D01*
X0388142Y0017597D01*
X0388279Y0017628D01*
X0388416Y0017655D01*
X0388554Y0017677D01*
X0388693Y0017696D01*
X0388832Y0017711D01*
X0388971Y0017722D01*
X0389111Y0017729D01*
X0389251Y0017732D01*
X0389391Y0017731D01*
X0389531Y0017726D01*
X0389670Y0017717D01*
X0389810Y0017704D01*
X0389949Y0017687D01*
X0390087Y0017666D01*
X0390225Y0017642D01*
X0390362Y0017613D01*
X0390498Y0017581D01*
X0390633Y0017544D01*
X0390767Y0017504D01*
X0390900Y0017460D01*
X0391031Y0017412D01*
X0391161Y0017361D01*
X0391290Y0017306D01*
X0391417Y0017247D01*
X0391542Y0017184D01*
X0391665Y0017119D01*
X0391787Y0017049D01*
X0391906Y0016976D01*
X0392024Y0016900D01*
X0392139Y0016821D01*
X0392252Y0016738D01*
X0392362Y0016652D01*
X0392470Y0016563D01*
X0392575Y0016471D01*
X0392678Y0016376D01*
X0392778Y0016278D01*
X0392875Y0016178D01*
X0392969Y0016074D01*
X0393061Y0015968D01*
X0393149Y0015860D01*
X0393234Y0015749D01*
X0393316Y0015635D01*
X0393395Y0015519D01*
X0393470Y0015402D01*
X0393542Y0015282D01*
X0393610Y0015160D01*
X0393675Y0015036D01*
X0393737Y0014910D01*
X0393795Y0014783D01*
X0393849Y0014654D01*
X0393900Y0014523D01*
X0393946Y0014391D01*
X0393989Y0014258D01*
X0394029Y0014124D01*
X0394064Y0013989D01*
X0394096Y0013852D01*
X0394123Y0013715D01*
X0394147Y0013577D01*
X0394167Y0013439D01*
X0394183Y0013300D01*
X0394195Y0013160D01*
X0394203Y0013021D01*
X0394207Y0012881D01*
X0394207Y0012741D01*
X0394203Y0012601D01*
X0394195Y0012462D01*
X0394183Y0012322D01*
X0394167Y0012183D01*
X0394147Y0012045D01*
X0394123Y0011907D01*
X0394096Y0011770D01*
X0394064Y0011633D01*
X0394029Y0011498D01*
X0393989Y0011364D01*
X0393946Y0011231D01*
X0393900Y0011099D01*
X0393849Y0010968D01*
X0393795Y0010839D01*
X0393737Y0010712D01*
X0393675Y0010586D01*
X0393610Y0010462D01*
X0393542Y0010340D01*
X0393470Y0010220D01*
X0393395Y0010103D01*
X0393316Y0009987D01*
X0393234Y0009873D01*
X0393149Y0009762D01*
X0393061Y0009654D01*
X0392969Y0009548D01*
X0392875Y0009444D01*
X0392778Y0009344D01*
X0392678Y0009246D01*
X0392575Y0009151D01*
X0392470Y0009059D01*
X0392362Y0008970D01*
X0392252Y0008884D01*
X0392139Y0008801D01*
X0392024Y0008722D01*
X0391906Y0008646D01*
X0391787Y0008573D01*
X0391665Y0008503D01*
X0391542Y0008438D01*
X0391417Y0008375D01*
X0391290Y0008316D01*
X0391161Y0008261D01*
X0391031Y0008210D01*
X0390900Y0008162D01*
X0390767Y0008118D01*
X0390633Y0008078D01*
X0390498Y0008041D01*
X0390362Y0008009D01*
X0390225Y0007980D01*
X0390087Y0007956D01*
X0389949Y0007935D01*
X0389810Y0007918D01*
X0389670Y0007905D01*
X0389531Y0007896D01*
X0389391Y0007891D01*
X0389251Y0007890D01*
X0389111Y0007893D01*
X0388971Y0007900D01*
X0388832Y0007911D01*
X0388693Y0007926D01*
X0388554Y0007945D01*
X0388416Y0007967D01*
X0388279Y0007994D01*
X0388142Y0008025D01*
X0388007Y0008059D01*
X0387872Y0008097D01*
X0387739Y0008140D01*
X0387607Y0008185D01*
X0387476Y0008235D01*
X0387346Y0008288D01*
X0387219Y0008345D01*
X0387093Y0008406D01*
X0386968Y0008470D01*
X0386846Y0008538D01*
X0386725Y0008609D01*
X0386607Y0008683D01*
X0386491Y0008761D01*
X0386377Y0008842D01*
X0386265Y0008927D01*
X0386156Y0009014D01*
X0386049Y0009104D01*
X0385945Y0009198D01*
X0385844Y0009294D01*
X0385745Y0009394D01*
X0385649Y0009496D01*
X0385557Y0009600D01*
X0385467Y0009708D01*
X0385380Y0009818D01*
X0385297Y0009930D01*
X0385216Y0010044D01*
X0385139Y0010161D01*
X0385066Y0010280D01*
X0384995Y0010401D01*
X0384929Y0010524D01*
X0384865Y0010649D01*
X0384806Y0010775D01*
X0384750Y0010904D01*
X0384697Y0011033D01*
X0384649Y0011164D01*
X0384604Y0011297D01*
X0384563Y0011431D01*
X0384525Y0011566D01*
X0384492Y0011701D01*
X0384462Y0011838D01*
X0384436Y0011976D01*
X0384415Y0012114D01*
X0384397Y0012253D01*
X0384383Y0012392D01*
X0384373Y0012531D01*
X0384367Y0012671D01*
X0384365Y0012811D01*
X0384365Y0162417D02*
X0384367Y0162557D01*
X0384373Y0162697D01*
X0384383Y0162836D01*
X0384397Y0162975D01*
X0384415Y0163114D01*
X0384436Y0163252D01*
X0384462Y0163390D01*
X0384492Y0163527D01*
X0384525Y0163662D01*
X0384563Y0163797D01*
X0384604Y0163931D01*
X0384649Y0164064D01*
X0384697Y0164195D01*
X0384750Y0164324D01*
X0384806Y0164453D01*
X0384865Y0164579D01*
X0384929Y0164704D01*
X0384995Y0164827D01*
X0385066Y0164948D01*
X0385139Y0165067D01*
X0385216Y0165184D01*
X0385297Y0165298D01*
X0385380Y0165410D01*
X0385467Y0165520D01*
X0385557Y0165628D01*
X0385649Y0165732D01*
X0385745Y0165834D01*
X0385844Y0165934D01*
X0385945Y0166030D01*
X0386049Y0166124D01*
X0386156Y0166214D01*
X0386265Y0166301D01*
X0386377Y0166386D01*
X0386491Y0166467D01*
X0386607Y0166545D01*
X0386725Y0166619D01*
X0386846Y0166690D01*
X0386968Y0166758D01*
X0387093Y0166822D01*
X0387219Y0166883D01*
X0387346Y0166940D01*
X0387476Y0166993D01*
X0387607Y0167043D01*
X0387739Y0167088D01*
X0387872Y0167131D01*
X0388007Y0167169D01*
X0388142Y0167203D01*
X0388279Y0167234D01*
X0388416Y0167261D01*
X0388554Y0167283D01*
X0388693Y0167302D01*
X0388832Y0167317D01*
X0388971Y0167328D01*
X0389111Y0167335D01*
X0389251Y0167338D01*
X0389391Y0167337D01*
X0389531Y0167332D01*
X0389670Y0167323D01*
X0389810Y0167310D01*
X0389949Y0167293D01*
X0390087Y0167272D01*
X0390225Y0167248D01*
X0390362Y0167219D01*
X0390498Y0167187D01*
X0390633Y0167150D01*
X0390767Y0167110D01*
X0390900Y0167066D01*
X0391031Y0167018D01*
X0391161Y0166967D01*
X0391290Y0166912D01*
X0391417Y0166853D01*
X0391542Y0166790D01*
X0391665Y0166725D01*
X0391787Y0166655D01*
X0391906Y0166582D01*
X0392024Y0166506D01*
X0392139Y0166427D01*
X0392252Y0166344D01*
X0392362Y0166258D01*
X0392470Y0166169D01*
X0392575Y0166077D01*
X0392678Y0165982D01*
X0392778Y0165884D01*
X0392875Y0165784D01*
X0392969Y0165680D01*
X0393061Y0165574D01*
X0393149Y0165466D01*
X0393234Y0165355D01*
X0393316Y0165241D01*
X0393395Y0165125D01*
X0393470Y0165008D01*
X0393542Y0164888D01*
X0393610Y0164766D01*
X0393675Y0164642D01*
X0393737Y0164516D01*
X0393795Y0164389D01*
X0393849Y0164260D01*
X0393900Y0164129D01*
X0393946Y0163997D01*
X0393989Y0163864D01*
X0394029Y0163730D01*
X0394064Y0163595D01*
X0394096Y0163458D01*
X0394123Y0163321D01*
X0394147Y0163183D01*
X0394167Y0163045D01*
X0394183Y0162906D01*
X0394195Y0162766D01*
X0394203Y0162627D01*
X0394207Y0162487D01*
X0394207Y0162347D01*
X0394203Y0162207D01*
X0394195Y0162068D01*
X0394183Y0161928D01*
X0394167Y0161789D01*
X0394147Y0161651D01*
X0394123Y0161513D01*
X0394096Y0161376D01*
X0394064Y0161239D01*
X0394029Y0161104D01*
X0393989Y0160970D01*
X0393946Y0160837D01*
X0393900Y0160705D01*
X0393849Y0160574D01*
X0393795Y0160445D01*
X0393737Y0160318D01*
X0393675Y0160192D01*
X0393610Y0160068D01*
X0393542Y0159946D01*
X0393470Y0159826D01*
X0393395Y0159709D01*
X0393316Y0159593D01*
X0393234Y0159479D01*
X0393149Y0159368D01*
X0393061Y0159260D01*
X0392969Y0159154D01*
X0392875Y0159050D01*
X0392778Y0158950D01*
X0392678Y0158852D01*
X0392575Y0158757D01*
X0392470Y0158665D01*
X0392362Y0158576D01*
X0392252Y0158490D01*
X0392139Y0158407D01*
X0392024Y0158328D01*
X0391906Y0158252D01*
X0391787Y0158179D01*
X0391665Y0158109D01*
X0391542Y0158044D01*
X0391417Y0157981D01*
X0391290Y0157922D01*
X0391161Y0157867D01*
X0391031Y0157816D01*
X0390900Y0157768D01*
X0390767Y0157724D01*
X0390633Y0157684D01*
X0390498Y0157647D01*
X0390362Y0157615D01*
X0390225Y0157586D01*
X0390087Y0157562D01*
X0389949Y0157541D01*
X0389810Y0157524D01*
X0389670Y0157511D01*
X0389531Y0157502D01*
X0389391Y0157497D01*
X0389251Y0157496D01*
X0389111Y0157499D01*
X0388971Y0157506D01*
X0388832Y0157517D01*
X0388693Y0157532D01*
X0388554Y0157551D01*
X0388416Y0157573D01*
X0388279Y0157600D01*
X0388142Y0157631D01*
X0388007Y0157665D01*
X0387872Y0157703D01*
X0387739Y0157746D01*
X0387607Y0157791D01*
X0387476Y0157841D01*
X0387346Y0157894D01*
X0387219Y0157951D01*
X0387093Y0158012D01*
X0386968Y0158076D01*
X0386846Y0158144D01*
X0386725Y0158215D01*
X0386607Y0158289D01*
X0386491Y0158367D01*
X0386377Y0158448D01*
X0386265Y0158533D01*
X0386156Y0158620D01*
X0386049Y0158710D01*
X0385945Y0158804D01*
X0385844Y0158900D01*
X0385745Y0159000D01*
X0385649Y0159102D01*
X0385557Y0159206D01*
X0385467Y0159314D01*
X0385380Y0159424D01*
X0385297Y0159536D01*
X0385216Y0159650D01*
X0385139Y0159767D01*
X0385066Y0159886D01*
X0384995Y0160007D01*
X0384929Y0160130D01*
X0384865Y0160255D01*
X0384806Y0160381D01*
X0384750Y0160510D01*
X0384697Y0160639D01*
X0384649Y0160770D01*
X0384604Y0160903D01*
X0384563Y0161037D01*
X0384525Y0161172D01*
X0384492Y0161307D01*
X0384462Y0161444D01*
X0384436Y0161582D01*
X0384415Y0161720D01*
X0384397Y0161859D01*
X0384383Y0161998D01*
X0384373Y0162137D01*
X0384367Y0162277D01*
X0384365Y0162417D01*
X0065467Y0162417D02*
X0065469Y0162557D01*
X0065475Y0162697D01*
X0065485Y0162836D01*
X0065499Y0162975D01*
X0065517Y0163114D01*
X0065538Y0163252D01*
X0065564Y0163390D01*
X0065594Y0163527D01*
X0065627Y0163662D01*
X0065665Y0163797D01*
X0065706Y0163931D01*
X0065751Y0164064D01*
X0065799Y0164195D01*
X0065852Y0164324D01*
X0065908Y0164453D01*
X0065967Y0164579D01*
X0066031Y0164704D01*
X0066097Y0164827D01*
X0066168Y0164948D01*
X0066241Y0165067D01*
X0066318Y0165184D01*
X0066399Y0165298D01*
X0066482Y0165410D01*
X0066569Y0165520D01*
X0066659Y0165628D01*
X0066751Y0165732D01*
X0066847Y0165834D01*
X0066946Y0165934D01*
X0067047Y0166030D01*
X0067151Y0166124D01*
X0067258Y0166214D01*
X0067367Y0166301D01*
X0067479Y0166386D01*
X0067593Y0166467D01*
X0067709Y0166545D01*
X0067827Y0166619D01*
X0067948Y0166690D01*
X0068070Y0166758D01*
X0068195Y0166822D01*
X0068321Y0166883D01*
X0068448Y0166940D01*
X0068578Y0166993D01*
X0068709Y0167043D01*
X0068841Y0167088D01*
X0068974Y0167131D01*
X0069109Y0167169D01*
X0069244Y0167203D01*
X0069381Y0167234D01*
X0069518Y0167261D01*
X0069656Y0167283D01*
X0069795Y0167302D01*
X0069934Y0167317D01*
X0070073Y0167328D01*
X0070213Y0167335D01*
X0070353Y0167338D01*
X0070493Y0167337D01*
X0070633Y0167332D01*
X0070772Y0167323D01*
X0070912Y0167310D01*
X0071051Y0167293D01*
X0071189Y0167272D01*
X0071327Y0167248D01*
X0071464Y0167219D01*
X0071600Y0167187D01*
X0071735Y0167150D01*
X0071869Y0167110D01*
X0072002Y0167066D01*
X0072133Y0167018D01*
X0072263Y0166967D01*
X0072392Y0166912D01*
X0072519Y0166853D01*
X0072644Y0166790D01*
X0072767Y0166725D01*
X0072889Y0166655D01*
X0073008Y0166582D01*
X0073126Y0166506D01*
X0073241Y0166427D01*
X0073354Y0166344D01*
X0073464Y0166258D01*
X0073572Y0166169D01*
X0073677Y0166077D01*
X0073780Y0165982D01*
X0073880Y0165884D01*
X0073977Y0165784D01*
X0074071Y0165680D01*
X0074163Y0165574D01*
X0074251Y0165466D01*
X0074336Y0165355D01*
X0074418Y0165241D01*
X0074497Y0165125D01*
X0074572Y0165008D01*
X0074644Y0164888D01*
X0074712Y0164766D01*
X0074777Y0164642D01*
X0074839Y0164516D01*
X0074897Y0164389D01*
X0074951Y0164260D01*
X0075002Y0164129D01*
X0075048Y0163997D01*
X0075091Y0163864D01*
X0075131Y0163730D01*
X0075166Y0163595D01*
X0075198Y0163458D01*
X0075225Y0163321D01*
X0075249Y0163183D01*
X0075269Y0163045D01*
X0075285Y0162906D01*
X0075297Y0162766D01*
X0075305Y0162627D01*
X0075309Y0162487D01*
X0075309Y0162347D01*
X0075305Y0162207D01*
X0075297Y0162068D01*
X0075285Y0161928D01*
X0075269Y0161789D01*
X0075249Y0161651D01*
X0075225Y0161513D01*
X0075198Y0161376D01*
X0075166Y0161239D01*
X0075131Y0161104D01*
X0075091Y0160970D01*
X0075048Y0160837D01*
X0075002Y0160705D01*
X0074951Y0160574D01*
X0074897Y0160445D01*
X0074839Y0160318D01*
X0074777Y0160192D01*
X0074712Y0160068D01*
X0074644Y0159946D01*
X0074572Y0159826D01*
X0074497Y0159709D01*
X0074418Y0159593D01*
X0074336Y0159479D01*
X0074251Y0159368D01*
X0074163Y0159260D01*
X0074071Y0159154D01*
X0073977Y0159050D01*
X0073880Y0158950D01*
X0073780Y0158852D01*
X0073677Y0158757D01*
X0073572Y0158665D01*
X0073464Y0158576D01*
X0073354Y0158490D01*
X0073241Y0158407D01*
X0073126Y0158328D01*
X0073008Y0158252D01*
X0072889Y0158179D01*
X0072767Y0158109D01*
X0072644Y0158044D01*
X0072519Y0157981D01*
X0072392Y0157922D01*
X0072263Y0157867D01*
X0072133Y0157816D01*
X0072002Y0157768D01*
X0071869Y0157724D01*
X0071735Y0157684D01*
X0071600Y0157647D01*
X0071464Y0157615D01*
X0071327Y0157586D01*
X0071189Y0157562D01*
X0071051Y0157541D01*
X0070912Y0157524D01*
X0070772Y0157511D01*
X0070633Y0157502D01*
X0070493Y0157497D01*
X0070353Y0157496D01*
X0070213Y0157499D01*
X0070073Y0157506D01*
X0069934Y0157517D01*
X0069795Y0157532D01*
X0069656Y0157551D01*
X0069518Y0157573D01*
X0069381Y0157600D01*
X0069244Y0157631D01*
X0069109Y0157665D01*
X0068974Y0157703D01*
X0068841Y0157746D01*
X0068709Y0157791D01*
X0068578Y0157841D01*
X0068448Y0157894D01*
X0068321Y0157951D01*
X0068195Y0158012D01*
X0068070Y0158076D01*
X0067948Y0158144D01*
X0067827Y0158215D01*
X0067709Y0158289D01*
X0067593Y0158367D01*
X0067479Y0158448D01*
X0067367Y0158533D01*
X0067258Y0158620D01*
X0067151Y0158710D01*
X0067047Y0158804D01*
X0066946Y0158900D01*
X0066847Y0159000D01*
X0066751Y0159102D01*
X0066659Y0159206D01*
X0066569Y0159314D01*
X0066482Y0159424D01*
X0066399Y0159536D01*
X0066318Y0159650D01*
X0066241Y0159767D01*
X0066168Y0159886D01*
X0066097Y0160007D01*
X0066031Y0160130D01*
X0065967Y0160255D01*
X0065908Y0160381D01*
X0065852Y0160510D01*
X0065799Y0160639D01*
X0065751Y0160770D01*
X0065706Y0160903D01*
X0065665Y0161037D01*
X0065627Y0161172D01*
X0065594Y0161307D01*
X0065564Y0161444D01*
X0065538Y0161582D01*
X0065517Y0161720D01*
X0065499Y0161859D01*
X0065485Y0161998D01*
X0065475Y0162137D01*
X0065469Y0162277D01*
X0065467Y0162417D01*
D11*
X0070388Y0162417D03*
X0389286Y0162417D03*
X0389286Y0012811D03*
X0070388Y0012811D03*
D12*
X0119207Y0062496D03*
X0118932Y0096039D03*
X0084995Y0127535D03*
X0256412Y0030921D03*
D13*
X0266412Y0030921D03*
X0109207Y0062496D03*
X0108932Y0096039D03*
X0074995Y0127535D03*
D14*
X0101136Y0123598D03*
X0101136Y0137535D03*
X0131136Y0137535D03*
X0131136Y0123598D03*
X0094089Y0105843D03*
X0094089Y0075843D03*
X0139010Y0061709D03*
X0169010Y0061709D03*
X0182199Y0061079D03*
X0180423Y0049270D03*
X0206023Y0049270D03*
X0212199Y0061079D03*
X0271857Y0055173D03*
X0272857Y0065173D03*
X0271857Y0075173D03*
X0272857Y0085173D03*
X0271857Y0095173D03*
X0272857Y0105173D03*
X0271857Y0115173D03*
X0242239Y0117417D03*
X0230822Y0125449D03*
X0220034Y0133087D03*
X0238144Y0148272D03*
X0248144Y0147272D03*
X0258144Y0148272D03*
X0268144Y0147272D03*
X0278144Y0148272D03*
X0364877Y0136512D03*
X0364877Y0106512D03*
X0242239Y0087417D03*
X0230822Y0095449D03*
X0220034Y0103087D03*
X0206023Y0031470D03*
X0180423Y0031470D03*
D15*
X0078223Y0042732D03*
X0078223Y0057732D03*
X0382160Y0116787D03*
X0382160Y0131787D03*
D16*
X0117672Y0036748D03*
X0107829Y0036748D03*
X0097987Y0036748D03*
D17*
X0075389Y0096945D03*
X0075389Y0100685D03*
X0075389Y0104425D03*
X0065152Y0104425D03*
X0065152Y0100685D03*
X0065152Y0096945D03*
D18*
X0068105Y0085803D03*
X0075585Y0085803D03*
X0075585Y0075606D03*
X0071845Y0075606D03*
X0068105Y0075606D03*
D19*
X0368294Y0073441D02*
X0374294Y0073441D01*
X0374294Y0063441D02*
X0368294Y0063441D01*
X0368294Y0083441D02*
X0374294Y0083441D01*
D20*
X0272857Y0125173D03*
D21*
X0335585Y0070606D03*
X0345585Y0060606D03*
X0335585Y0050606D03*
D22*
X0156034Y0047260D02*
X0151672Y0047260D01*
X0151672Y0042142D02*
X0156034Y0042142D01*
X0156034Y0037024D02*
X0151672Y0037024D01*
X0151672Y0031906D02*
X0156034Y0031906D01*
D23*
X0165664Y0029346D03*
X0068026Y0063205D03*
X0060152Y0074228D03*
X0082199Y0086039D03*
X0057790Y0097063D03*
X0082199Y0104937D03*
X0131806Y0095488D03*
M02*
