G75*
%MOIN*%
%OFA0B0*%
%FSLAX25Y25*%
%IPPOS*%
%LPD*%
%AMOC8*
5,1,8,0,0,1.08239X$1,22.5*
%
%ADD10C,0.00000*%
%ADD11C,0.00600*%
%ADD12C,0.00500*%
%ADD13C,0.00800*%
%ADD14C,0.01000*%
%ADD15C,0.00100*%
%ADD16C,0.00039*%
%ADD17C,0.00295*%
D10*
X0061333Y0001000D02*
X0082199Y0001000D01*
X0082199Y0012811D01*
X0094010Y0012811D01*
X0094010Y0001000D01*
X0212121Y0001000D01*
X0212121Y0012811D01*
X0223932Y0012811D01*
X0223932Y0001000D01*
X0365664Y0001000D01*
X0365664Y0012811D01*
X0377475Y0012811D01*
X0377475Y0001000D01*
X0405034Y0001000D01*
X0405034Y0174228D01*
X0377475Y0174228D01*
X0377475Y0162417D01*
X0365664Y0162417D01*
X0365664Y0174228D01*
X0223932Y0174228D01*
X0223932Y0162417D01*
X0212121Y0162417D01*
X0212121Y0174228D01*
X0094010Y0174228D01*
X0094010Y0162417D01*
X0082199Y0162417D01*
X0082199Y0174228D01*
X0061333Y0174228D01*
X0050703Y0111236D01*
X0011333Y0111236D01*
X0011333Y0063992D01*
X0050703Y0063992D01*
X0061333Y0001000D01*
X0065467Y0012811D02*
X0065469Y0012951D01*
X0065475Y0013091D01*
X0065485Y0013230D01*
X0065499Y0013369D01*
X0065517Y0013508D01*
X0065538Y0013646D01*
X0065564Y0013784D01*
X0065594Y0013921D01*
X0065627Y0014056D01*
X0065665Y0014191D01*
X0065706Y0014325D01*
X0065751Y0014458D01*
X0065799Y0014589D01*
X0065852Y0014718D01*
X0065908Y0014847D01*
X0065967Y0014973D01*
X0066031Y0015098D01*
X0066097Y0015221D01*
X0066168Y0015342D01*
X0066241Y0015461D01*
X0066318Y0015578D01*
X0066399Y0015692D01*
X0066482Y0015804D01*
X0066569Y0015914D01*
X0066659Y0016022D01*
X0066751Y0016126D01*
X0066847Y0016228D01*
X0066946Y0016328D01*
X0067047Y0016424D01*
X0067151Y0016518D01*
X0067258Y0016608D01*
X0067367Y0016695D01*
X0067479Y0016780D01*
X0067593Y0016861D01*
X0067709Y0016939D01*
X0067827Y0017013D01*
X0067948Y0017084D01*
X0068070Y0017152D01*
X0068195Y0017216D01*
X0068321Y0017277D01*
X0068448Y0017334D01*
X0068578Y0017387D01*
X0068709Y0017437D01*
X0068841Y0017482D01*
X0068974Y0017525D01*
X0069109Y0017563D01*
X0069244Y0017597D01*
X0069381Y0017628D01*
X0069518Y0017655D01*
X0069656Y0017677D01*
X0069795Y0017696D01*
X0069934Y0017711D01*
X0070073Y0017722D01*
X0070213Y0017729D01*
X0070353Y0017732D01*
X0070493Y0017731D01*
X0070633Y0017726D01*
X0070772Y0017717D01*
X0070912Y0017704D01*
X0071051Y0017687D01*
X0071189Y0017666D01*
X0071327Y0017642D01*
X0071464Y0017613D01*
X0071600Y0017581D01*
X0071735Y0017544D01*
X0071869Y0017504D01*
X0072002Y0017460D01*
X0072133Y0017412D01*
X0072263Y0017361D01*
X0072392Y0017306D01*
X0072519Y0017247D01*
X0072644Y0017184D01*
X0072767Y0017119D01*
X0072889Y0017049D01*
X0073008Y0016976D01*
X0073126Y0016900D01*
X0073241Y0016821D01*
X0073354Y0016738D01*
X0073464Y0016652D01*
X0073572Y0016563D01*
X0073677Y0016471D01*
X0073780Y0016376D01*
X0073880Y0016278D01*
X0073977Y0016178D01*
X0074071Y0016074D01*
X0074163Y0015968D01*
X0074251Y0015860D01*
X0074336Y0015749D01*
X0074418Y0015635D01*
X0074497Y0015519D01*
X0074572Y0015402D01*
X0074644Y0015282D01*
X0074712Y0015160D01*
X0074777Y0015036D01*
X0074839Y0014910D01*
X0074897Y0014783D01*
X0074951Y0014654D01*
X0075002Y0014523D01*
X0075048Y0014391D01*
X0075091Y0014258D01*
X0075131Y0014124D01*
X0075166Y0013989D01*
X0075198Y0013852D01*
X0075225Y0013715D01*
X0075249Y0013577D01*
X0075269Y0013439D01*
X0075285Y0013300D01*
X0075297Y0013160D01*
X0075305Y0013021D01*
X0075309Y0012881D01*
X0075309Y0012741D01*
X0075305Y0012601D01*
X0075297Y0012462D01*
X0075285Y0012322D01*
X0075269Y0012183D01*
X0075249Y0012045D01*
X0075225Y0011907D01*
X0075198Y0011770D01*
X0075166Y0011633D01*
X0075131Y0011498D01*
X0075091Y0011364D01*
X0075048Y0011231D01*
X0075002Y0011099D01*
X0074951Y0010968D01*
X0074897Y0010839D01*
X0074839Y0010712D01*
X0074777Y0010586D01*
X0074712Y0010462D01*
X0074644Y0010340D01*
X0074572Y0010220D01*
X0074497Y0010103D01*
X0074418Y0009987D01*
X0074336Y0009873D01*
X0074251Y0009762D01*
X0074163Y0009654D01*
X0074071Y0009548D01*
X0073977Y0009444D01*
X0073880Y0009344D01*
X0073780Y0009246D01*
X0073677Y0009151D01*
X0073572Y0009059D01*
X0073464Y0008970D01*
X0073354Y0008884D01*
X0073241Y0008801D01*
X0073126Y0008722D01*
X0073008Y0008646D01*
X0072889Y0008573D01*
X0072767Y0008503D01*
X0072644Y0008438D01*
X0072519Y0008375D01*
X0072392Y0008316D01*
X0072263Y0008261D01*
X0072133Y0008210D01*
X0072002Y0008162D01*
X0071869Y0008118D01*
X0071735Y0008078D01*
X0071600Y0008041D01*
X0071464Y0008009D01*
X0071327Y0007980D01*
X0071189Y0007956D01*
X0071051Y0007935D01*
X0070912Y0007918D01*
X0070772Y0007905D01*
X0070633Y0007896D01*
X0070493Y0007891D01*
X0070353Y0007890D01*
X0070213Y0007893D01*
X0070073Y0007900D01*
X0069934Y0007911D01*
X0069795Y0007926D01*
X0069656Y0007945D01*
X0069518Y0007967D01*
X0069381Y0007994D01*
X0069244Y0008025D01*
X0069109Y0008059D01*
X0068974Y0008097D01*
X0068841Y0008140D01*
X0068709Y0008185D01*
X0068578Y0008235D01*
X0068448Y0008288D01*
X0068321Y0008345D01*
X0068195Y0008406D01*
X0068070Y0008470D01*
X0067948Y0008538D01*
X0067827Y0008609D01*
X0067709Y0008683D01*
X0067593Y0008761D01*
X0067479Y0008842D01*
X0067367Y0008927D01*
X0067258Y0009014D01*
X0067151Y0009104D01*
X0067047Y0009198D01*
X0066946Y0009294D01*
X0066847Y0009394D01*
X0066751Y0009496D01*
X0066659Y0009600D01*
X0066569Y0009708D01*
X0066482Y0009818D01*
X0066399Y0009930D01*
X0066318Y0010044D01*
X0066241Y0010161D01*
X0066168Y0010280D01*
X0066097Y0010401D01*
X0066031Y0010524D01*
X0065967Y0010649D01*
X0065908Y0010775D01*
X0065852Y0010904D01*
X0065799Y0011033D01*
X0065751Y0011164D01*
X0065706Y0011297D01*
X0065665Y0011431D01*
X0065627Y0011566D01*
X0065594Y0011701D01*
X0065564Y0011838D01*
X0065538Y0011976D01*
X0065517Y0012114D01*
X0065499Y0012253D01*
X0065485Y0012392D01*
X0065475Y0012531D01*
X0065469Y0012671D01*
X0065467Y0012811D01*
X0333616Y0050606D02*
X0333618Y0050694D01*
X0333624Y0050782D01*
X0333634Y0050870D01*
X0333648Y0050958D01*
X0333665Y0051044D01*
X0333687Y0051130D01*
X0333712Y0051214D01*
X0333742Y0051298D01*
X0333774Y0051380D01*
X0333811Y0051460D01*
X0333851Y0051539D01*
X0333895Y0051616D01*
X0333942Y0051691D01*
X0333992Y0051763D01*
X0334046Y0051834D01*
X0334102Y0051901D01*
X0334162Y0051967D01*
X0334224Y0052029D01*
X0334290Y0052089D01*
X0334357Y0052145D01*
X0334428Y0052199D01*
X0334500Y0052249D01*
X0334575Y0052296D01*
X0334652Y0052340D01*
X0334731Y0052380D01*
X0334811Y0052417D01*
X0334893Y0052449D01*
X0334977Y0052479D01*
X0335061Y0052504D01*
X0335147Y0052526D01*
X0335233Y0052543D01*
X0335321Y0052557D01*
X0335409Y0052567D01*
X0335497Y0052573D01*
X0335585Y0052575D01*
X0335673Y0052573D01*
X0335761Y0052567D01*
X0335849Y0052557D01*
X0335937Y0052543D01*
X0336023Y0052526D01*
X0336109Y0052504D01*
X0336193Y0052479D01*
X0336277Y0052449D01*
X0336359Y0052417D01*
X0336439Y0052380D01*
X0336518Y0052340D01*
X0336595Y0052296D01*
X0336670Y0052249D01*
X0336742Y0052199D01*
X0336813Y0052145D01*
X0336880Y0052089D01*
X0336946Y0052029D01*
X0337008Y0051967D01*
X0337068Y0051901D01*
X0337124Y0051834D01*
X0337178Y0051763D01*
X0337228Y0051691D01*
X0337275Y0051616D01*
X0337319Y0051539D01*
X0337359Y0051460D01*
X0337396Y0051380D01*
X0337428Y0051298D01*
X0337458Y0051214D01*
X0337483Y0051130D01*
X0337505Y0051044D01*
X0337522Y0050958D01*
X0337536Y0050870D01*
X0337546Y0050782D01*
X0337552Y0050694D01*
X0337554Y0050606D01*
X0337552Y0050518D01*
X0337546Y0050430D01*
X0337536Y0050342D01*
X0337522Y0050254D01*
X0337505Y0050168D01*
X0337483Y0050082D01*
X0337458Y0049998D01*
X0337428Y0049914D01*
X0337396Y0049832D01*
X0337359Y0049752D01*
X0337319Y0049673D01*
X0337275Y0049596D01*
X0337228Y0049521D01*
X0337178Y0049449D01*
X0337124Y0049378D01*
X0337068Y0049311D01*
X0337008Y0049245D01*
X0336946Y0049183D01*
X0336880Y0049123D01*
X0336813Y0049067D01*
X0336742Y0049013D01*
X0336670Y0048963D01*
X0336595Y0048916D01*
X0336518Y0048872D01*
X0336439Y0048832D01*
X0336359Y0048795D01*
X0336277Y0048763D01*
X0336193Y0048733D01*
X0336109Y0048708D01*
X0336023Y0048686D01*
X0335937Y0048669D01*
X0335849Y0048655D01*
X0335761Y0048645D01*
X0335673Y0048639D01*
X0335585Y0048637D01*
X0335497Y0048639D01*
X0335409Y0048645D01*
X0335321Y0048655D01*
X0335233Y0048669D01*
X0335147Y0048686D01*
X0335061Y0048708D01*
X0334977Y0048733D01*
X0334893Y0048763D01*
X0334811Y0048795D01*
X0334731Y0048832D01*
X0334652Y0048872D01*
X0334575Y0048916D01*
X0334500Y0048963D01*
X0334428Y0049013D01*
X0334357Y0049067D01*
X0334290Y0049123D01*
X0334224Y0049183D01*
X0334162Y0049245D01*
X0334102Y0049311D01*
X0334046Y0049378D01*
X0333992Y0049449D01*
X0333942Y0049521D01*
X0333895Y0049596D01*
X0333851Y0049673D01*
X0333811Y0049752D01*
X0333774Y0049832D01*
X0333742Y0049914D01*
X0333712Y0049998D01*
X0333687Y0050082D01*
X0333665Y0050168D01*
X0333648Y0050254D01*
X0333634Y0050342D01*
X0333624Y0050430D01*
X0333618Y0050518D01*
X0333616Y0050606D01*
X0343616Y0060606D02*
X0343618Y0060694D01*
X0343624Y0060782D01*
X0343634Y0060870D01*
X0343648Y0060958D01*
X0343665Y0061044D01*
X0343687Y0061130D01*
X0343712Y0061214D01*
X0343742Y0061298D01*
X0343774Y0061380D01*
X0343811Y0061460D01*
X0343851Y0061539D01*
X0343895Y0061616D01*
X0343942Y0061691D01*
X0343992Y0061763D01*
X0344046Y0061834D01*
X0344102Y0061901D01*
X0344162Y0061967D01*
X0344224Y0062029D01*
X0344290Y0062089D01*
X0344357Y0062145D01*
X0344428Y0062199D01*
X0344500Y0062249D01*
X0344575Y0062296D01*
X0344652Y0062340D01*
X0344731Y0062380D01*
X0344811Y0062417D01*
X0344893Y0062449D01*
X0344977Y0062479D01*
X0345061Y0062504D01*
X0345147Y0062526D01*
X0345233Y0062543D01*
X0345321Y0062557D01*
X0345409Y0062567D01*
X0345497Y0062573D01*
X0345585Y0062575D01*
X0345673Y0062573D01*
X0345761Y0062567D01*
X0345849Y0062557D01*
X0345937Y0062543D01*
X0346023Y0062526D01*
X0346109Y0062504D01*
X0346193Y0062479D01*
X0346277Y0062449D01*
X0346359Y0062417D01*
X0346439Y0062380D01*
X0346518Y0062340D01*
X0346595Y0062296D01*
X0346670Y0062249D01*
X0346742Y0062199D01*
X0346813Y0062145D01*
X0346880Y0062089D01*
X0346946Y0062029D01*
X0347008Y0061967D01*
X0347068Y0061901D01*
X0347124Y0061834D01*
X0347178Y0061763D01*
X0347228Y0061691D01*
X0347275Y0061616D01*
X0347319Y0061539D01*
X0347359Y0061460D01*
X0347396Y0061380D01*
X0347428Y0061298D01*
X0347458Y0061214D01*
X0347483Y0061130D01*
X0347505Y0061044D01*
X0347522Y0060958D01*
X0347536Y0060870D01*
X0347546Y0060782D01*
X0347552Y0060694D01*
X0347554Y0060606D01*
X0347552Y0060518D01*
X0347546Y0060430D01*
X0347536Y0060342D01*
X0347522Y0060254D01*
X0347505Y0060168D01*
X0347483Y0060082D01*
X0347458Y0059998D01*
X0347428Y0059914D01*
X0347396Y0059832D01*
X0347359Y0059752D01*
X0347319Y0059673D01*
X0347275Y0059596D01*
X0347228Y0059521D01*
X0347178Y0059449D01*
X0347124Y0059378D01*
X0347068Y0059311D01*
X0347008Y0059245D01*
X0346946Y0059183D01*
X0346880Y0059123D01*
X0346813Y0059067D01*
X0346742Y0059013D01*
X0346670Y0058963D01*
X0346595Y0058916D01*
X0346518Y0058872D01*
X0346439Y0058832D01*
X0346359Y0058795D01*
X0346277Y0058763D01*
X0346193Y0058733D01*
X0346109Y0058708D01*
X0346023Y0058686D01*
X0345937Y0058669D01*
X0345849Y0058655D01*
X0345761Y0058645D01*
X0345673Y0058639D01*
X0345585Y0058637D01*
X0345497Y0058639D01*
X0345409Y0058645D01*
X0345321Y0058655D01*
X0345233Y0058669D01*
X0345147Y0058686D01*
X0345061Y0058708D01*
X0344977Y0058733D01*
X0344893Y0058763D01*
X0344811Y0058795D01*
X0344731Y0058832D01*
X0344652Y0058872D01*
X0344575Y0058916D01*
X0344500Y0058963D01*
X0344428Y0059013D01*
X0344357Y0059067D01*
X0344290Y0059123D01*
X0344224Y0059183D01*
X0344162Y0059245D01*
X0344102Y0059311D01*
X0344046Y0059378D01*
X0343992Y0059449D01*
X0343942Y0059521D01*
X0343895Y0059596D01*
X0343851Y0059673D01*
X0343811Y0059752D01*
X0343774Y0059832D01*
X0343742Y0059914D01*
X0343712Y0059998D01*
X0343687Y0060082D01*
X0343665Y0060168D01*
X0343648Y0060254D01*
X0343634Y0060342D01*
X0343624Y0060430D01*
X0343618Y0060518D01*
X0343616Y0060606D01*
X0333616Y0070606D02*
X0333618Y0070694D01*
X0333624Y0070782D01*
X0333634Y0070870D01*
X0333648Y0070958D01*
X0333665Y0071044D01*
X0333687Y0071130D01*
X0333712Y0071214D01*
X0333742Y0071298D01*
X0333774Y0071380D01*
X0333811Y0071460D01*
X0333851Y0071539D01*
X0333895Y0071616D01*
X0333942Y0071691D01*
X0333992Y0071763D01*
X0334046Y0071834D01*
X0334102Y0071901D01*
X0334162Y0071967D01*
X0334224Y0072029D01*
X0334290Y0072089D01*
X0334357Y0072145D01*
X0334428Y0072199D01*
X0334500Y0072249D01*
X0334575Y0072296D01*
X0334652Y0072340D01*
X0334731Y0072380D01*
X0334811Y0072417D01*
X0334893Y0072449D01*
X0334977Y0072479D01*
X0335061Y0072504D01*
X0335147Y0072526D01*
X0335233Y0072543D01*
X0335321Y0072557D01*
X0335409Y0072567D01*
X0335497Y0072573D01*
X0335585Y0072575D01*
X0335673Y0072573D01*
X0335761Y0072567D01*
X0335849Y0072557D01*
X0335937Y0072543D01*
X0336023Y0072526D01*
X0336109Y0072504D01*
X0336193Y0072479D01*
X0336277Y0072449D01*
X0336359Y0072417D01*
X0336439Y0072380D01*
X0336518Y0072340D01*
X0336595Y0072296D01*
X0336670Y0072249D01*
X0336742Y0072199D01*
X0336813Y0072145D01*
X0336880Y0072089D01*
X0336946Y0072029D01*
X0337008Y0071967D01*
X0337068Y0071901D01*
X0337124Y0071834D01*
X0337178Y0071763D01*
X0337228Y0071691D01*
X0337275Y0071616D01*
X0337319Y0071539D01*
X0337359Y0071460D01*
X0337396Y0071380D01*
X0337428Y0071298D01*
X0337458Y0071214D01*
X0337483Y0071130D01*
X0337505Y0071044D01*
X0337522Y0070958D01*
X0337536Y0070870D01*
X0337546Y0070782D01*
X0337552Y0070694D01*
X0337554Y0070606D01*
X0337552Y0070518D01*
X0337546Y0070430D01*
X0337536Y0070342D01*
X0337522Y0070254D01*
X0337505Y0070168D01*
X0337483Y0070082D01*
X0337458Y0069998D01*
X0337428Y0069914D01*
X0337396Y0069832D01*
X0337359Y0069752D01*
X0337319Y0069673D01*
X0337275Y0069596D01*
X0337228Y0069521D01*
X0337178Y0069449D01*
X0337124Y0069378D01*
X0337068Y0069311D01*
X0337008Y0069245D01*
X0336946Y0069183D01*
X0336880Y0069123D01*
X0336813Y0069067D01*
X0336742Y0069013D01*
X0336670Y0068963D01*
X0336595Y0068916D01*
X0336518Y0068872D01*
X0336439Y0068832D01*
X0336359Y0068795D01*
X0336277Y0068763D01*
X0336193Y0068733D01*
X0336109Y0068708D01*
X0336023Y0068686D01*
X0335937Y0068669D01*
X0335849Y0068655D01*
X0335761Y0068645D01*
X0335673Y0068639D01*
X0335585Y0068637D01*
X0335497Y0068639D01*
X0335409Y0068645D01*
X0335321Y0068655D01*
X0335233Y0068669D01*
X0335147Y0068686D01*
X0335061Y0068708D01*
X0334977Y0068733D01*
X0334893Y0068763D01*
X0334811Y0068795D01*
X0334731Y0068832D01*
X0334652Y0068872D01*
X0334575Y0068916D01*
X0334500Y0068963D01*
X0334428Y0069013D01*
X0334357Y0069067D01*
X0334290Y0069123D01*
X0334224Y0069183D01*
X0334162Y0069245D01*
X0334102Y0069311D01*
X0334046Y0069378D01*
X0333992Y0069449D01*
X0333942Y0069521D01*
X0333895Y0069596D01*
X0333851Y0069673D01*
X0333811Y0069752D01*
X0333774Y0069832D01*
X0333742Y0069914D01*
X0333712Y0069998D01*
X0333687Y0070082D01*
X0333665Y0070168D01*
X0333648Y0070254D01*
X0333634Y0070342D01*
X0333624Y0070430D01*
X0333618Y0070518D01*
X0333616Y0070606D01*
X0384365Y0012811D02*
X0384367Y0012951D01*
X0384373Y0013091D01*
X0384383Y0013230D01*
X0384397Y0013369D01*
X0384415Y0013508D01*
X0384436Y0013646D01*
X0384462Y0013784D01*
X0384492Y0013921D01*
X0384525Y0014056D01*
X0384563Y0014191D01*
X0384604Y0014325D01*
X0384649Y0014458D01*
X0384697Y0014589D01*
X0384750Y0014718D01*
X0384806Y0014847D01*
X0384865Y0014973D01*
X0384929Y0015098D01*
X0384995Y0015221D01*
X0385066Y0015342D01*
X0385139Y0015461D01*
X0385216Y0015578D01*
X0385297Y0015692D01*
X0385380Y0015804D01*
X0385467Y0015914D01*
X0385557Y0016022D01*
X0385649Y0016126D01*
X0385745Y0016228D01*
X0385844Y0016328D01*
X0385945Y0016424D01*
X0386049Y0016518D01*
X0386156Y0016608D01*
X0386265Y0016695D01*
X0386377Y0016780D01*
X0386491Y0016861D01*
X0386607Y0016939D01*
X0386725Y0017013D01*
X0386846Y0017084D01*
X0386968Y0017152D01*
X0387093Y0017216D01*
X0387219Y0017277D01*
X0387346Y0017334D01*
X0387476Y0017387D01*
X0387607Y0017437D01*
X0387739Y0017482D01*
X0387872Y0017525D01*
X0388007Y0017563D01*
X0388142Y0017597D01*
X0388279Y0017628D01*
X0388416Y0017655D01*
X0388554Y0017677D01*
X0388693Y0017696D01*
X0388832Y0017711D01*
X0388971Y0017722D01*
X0389111Y0017729D01*
X0389251Y0017732D01*
X0389391Y0017731D01*
X0389531Y0017726D01*
X0389670Y0017717D01*
X0389810Y0017704D01*
X0389949Y0017687D01*
X0390087Y0017666D01*
X0390225Y0017642D01*
X0390362Y0017613D01*
X0390498Y0017581D01*
X0390633Y0017544D01*
X0390767Y0017504D01*
X0390900Y0017460D01*
X0391031Y0017412D01*
X0391161Y0017361D01*
X0391290Y0017306D01*
X0391417Y0017247D01*
X0391542Y0017184D01*
X0391665Y0017119D01*
X0391787Y0017049D01*
X0391906Y0016976D01*
X0392024Y0016900D01*
X0392139Y0016821D01*
X0392252Y0016738D01*
X0392362Y0016652D01*
X0392470Y0016563D01*
X0392575Y0016471D01*
X0392678Y0016376D01*
X0392778Y0016278D01*
X0392875Y0016178D01*
X0392969Y0016074D01*
X0393061Y0015968D01*
X0393149Y0015860D01*
X0393234Y0015749D01*
X0393316Y0015635D01*
X0393395Y0015519D01*
X0393470Y0015402D01*
X0393542Y0015282D01*
X0393610Y0015160D01*
X0393675Y0015036D01*
X0393737Y0014910D01*
X0393795Y0014783D01*
X0393849Y0014654D01*
X0393900Y0014523D01*
X0393946Y0014391D01*
X0393989Y0014258D01*
X0394029Y0014124D01*
X0394064Y0013989D01*
X0394096Y0013852D01*
X0394123Y0013715D01*
X0394147Y0013577D01*
X0394167Y0013439D01*
X0394183Y0013300D01*
X0394195Y0013160D01*
X0394203Y0013021D01*
X0394207Y0012881D01*
X0394207Y0012741D01*
X0394203Y0012601D01*
X0394195Y0012462D01*
X0394183Y0012322D01*
X0394167Y0012183D01*
X0394147Y0012045D01*
X0394123Y0011907D01*
X0394096Y0011770D01*
X0394064Y0011633D01*
X0394029Y0011498D01*
X0393989Y0011364D01*
X0393946Y0011231D01*
X0393900Y0011099D01*
X0393849Y0010968D01*
X0393795Y0010839D01*
X0393737Y0010712D01*
X0393675Y0010586D01*
X0393610Y0010462D01*
X0393542Y0010340D01*
X0393470Y0010220D01*
X0393395Y0010103D01*
X0393316Y0009987D01*
X0393234Y0009873D01*
X0393149Y0009762D01*
X0393061Y0009654D01*
X0392969Y0009548D01*
X0392875Y0009444D01*
X0392778Y0009344D01*
X0392678Y0009246D01*
X0392575Y0009151D01*
X0392470Y0009059D01*
X0392362Y0008970D01*
X0392252Y0008884D01*
X0392139Y0008801D01*
X0392024Y0008722D01*
X0391906Y0008646D01*
X0391787Y0008573D01*
X0391665Y0008503D01*
X0391542Y0008438D01*
X0391417Y0008375D01*
X0391290Y0008316D01*
X0391161Y0008261D01*
X0391031Y0008210D01*
X0390900Y0008162D01*
X0390767Y0008118D01*
X0390633Y0008078D01*
X0390498Y0008041D01*
X0390362Y0008009D01*
X0390225Y0007980D01*
X0390087Y0007956D01*
X0389949Y0007935D01*
X0389810Y0007918D01*
X0389670Y0007905D01*
X0389531Y0007896D01*
X0389391Y0007891D01*
X0389251Y0007890D01*
X0389111Y0007893D01*
X0388971Y0007900D01*
X0388832Y0007911D01*
X0388693Y0007926D01*
X0388554Y0007945D01*
X0388416Y0007967D01*
X0388279Y0007994D01*
X0388142Y0008025D01*
X0388007Y0008059D01*
X0387872Y0008097D01*
X0387739Y0008140D01*
X0387607Y0008185D01*
X0387476Y0008235D01*
X0387346Y0008288D01*
X0387219Y0008345D01*
X0387093Y0008406D01*
X0386968Y0008470D01*
X0386846Y0008538D01*
X0386725Y0008609D01*
X0386607Y0008683D01*
X0386491Y0008761D01*
X0386377Y0008842D01*
X0386265Y0008927D01*
X0386156Y0009014D01*
X0386049Y0009104D01*
X0385945Y0009198D01*
X0385844Y0009294D01*
X0385745Y0009394D01*
X0385649Y0009496D01*
X0385557Y0009600D01*
X0385467Y0009708D01*
X0385380Y0009818D01*
X0385297Y0009930D01*
X0385216Y0010044D01*
X0385139Y0010161D01*
X0385066Y0010280D01*
X0384995Y0010401D01*
X0384929Y0010524D01*
X0384865Y0010649D01*
X0384806Y0010775D01*
X0384750Y0010904D01*
X0384697Y0011033D01*
X0384649Y0011164D01*
X0384604Y0011297D01*
X0384563Y0011431D01*
X0384525Y0011566D01*
X0384492Y0011701D01*
X0384462Y0011838D01*
X0384436Y0011976D01*
X0384415Y0012114D01*
X0384397Y0012253D01*
X0384383Y0012392D01*
X0384373Y0012531D01*
X0384367Y0012671D01*
X0384365Y0012811D01*
X0384365Y0162417D02*
X0384367Y0162557D01*
X0384373Y0162697D01*
X0384383Y0162836D01*
X0384397Y0162975D01*
X0384415Y0163114D01*
X0384436Y0163252D01*
X0384462Y0163390D01*
X0384492Y0163527D01*
X0384525Y0163662D01*
X0384563Y0163797D01*
X0384604Y0163931D01*
X0384649Y0164064D01*
X0384697Y0164195D01*
X0384750Y0164324D01*
X0384806Y0164453D01*
X0384865Y0164579D01*
X0384929Y0164704D01*
X0384995Y0164827D01*
X0385066Y0164948D01*
X0385139Y0165067D01*
X0385216Y0165184D01*
X0385297Y0165298D01*
X0385380Y0165410D01*
X0385467Y0165520D01*
X0385557Y0165628D01*
X0385649Y0165732D01*
X0385745Y0165834D01*
X0385844Y0165934D01*
X0385945Y0166030D01*
X0386049Y0166124D01*
X0386156Y0166214D01*
X0386265Y0166301D01*
X0386377Y0166386D01*
X0386491Y0166467D01*
X0386607Y0166545D01*
X0386725Y0166619D01*
X0386846Y0166690D01*
X0386968Y0166758D01*
X0387093Y0166822D01*
X0387219Y0166883D01*
X0387346Y0166940D01*
X0387476Y0166993D01*
X0387607Y0167043D01*
X0387739Y0167088D01*
X0387872Y0167131D01*
X0388007Y0167169D01*
X0388142Y0167203D01*
X0388279Y0167234D01*
X0388416Y0167261D01*
X0388554Y0167283D01*
X0388693Y0167302D01*
X0388832Y0167317D01*
X0388971Y0167328D01*
X0389111Y0167335D01*
X0389251Y0167338D01*
X0389391Y0167337D01*
X0389531Y0167332D01*
X0389670Y0167323D01*
X0389810Y0167310D01*
X0389949Y0167293D01*
X0390087Y0167272D01*
X0390225Y0167248D01*
X0390362Y0167219D01*
X0390498Y0167187D01*
X0390633Y0167150D01*
X0390767Y0167110D01*
X0390900Y0167066D01*
X0391031Y0167018D01*
X0391161Y0166967D01*
X0391290Y0166912D01*
X0391417Y0166853D01*
X0391542Y0166790D01*
X0391665Y0166725D01*
X0391787Y0166655D01*
X0391906Y0166582D01*
X0392024Y0166506D01*
X0392139Y0166427D01*
X0392252Y0166344D01*
X0392362Y0166258D01*
X0392470Y0166169D01*
X0392575Y0166077D01*
X0392678Y0165982D01*
X0392778Y0165884D01*
X0392875Y0165784D01*
X0392969Y0165680D01*
X0393061Y0165574D01*
X0393149Y0165466D01*
X0393234Y0165355D01*
X0393316Y0165241D01*
X0393395Y0165125D01*
X0393470Y0165008D01*
X0393542Y0164888D01*
X0393610Y0164766D01*
X0393675Y0164642D01*
X0393737Y0164516D01*
X0393795Y0164389D01*
X0393849Y0164260D01*
X0393900Y0164129D01*
X0393946Y0163997D01*
X0393989Y0163864D01*
X0394029Y0163730D01*
X0394064Y0163595D01*
X0394096Y0163458D01*
X0394123Y0163321D01*
X0394147Y0163183D01*
X0394167Y0163045D01*
X0394183Y0162906D01*
X0394195Y0162766D01*
X0394203Y0162627D01*
X0394207Y0162487D01*
X0394207Y0162347D01*
X0394203Y0162207D01*
X0394195Y0162068D01*
X0394183Y0161928D01*
X0394167Y0161789D01*
X0394147Y0161651D01*
X0394123Y0161513D01*
X0394096Y0161376D01*
X0394064Y0161239D01*
X0394029Y0161104D01*
X0393989Y0160970D01*
X0393946Y0160837D01*
X0393900Y0160705D01*
X0393849Y0160574D01*
X0393795Y0160445D01*
X0393737Y0160318D01*
X0393675Y0160192D01*
X0393610Y0160068D01*
X0393542Y0159946D01*
X0393470Y0159826D01*
X0393395Y0159709D01*
X0393316Y0159593D01*
X0393234Y0159479D01*
X0393149Y0159368D01*
X0393061Y0159260D01*
X0392969Y0159154D01*
X0392875Y0159050D01*
X0392778Y0158950D01*
X0392678Y0158852D01*
X0392575Y0158757D01*
X0392470Y0158665D01*
X0392362Y0158576D01*
X0392252Y0158490D01*
X0392139Y0158407D01*
X0392024Y0158328D01*
X0391906Y0158252D01*
X0391787Y0158179D01*
X0391665Y0158109D01*
X0391542Y0158044D01*
X0391417Y0157981D01*
X0391290Y0157922D01*
X0391161Y0157867D01*
X0391031Y0157816D01*
X0390900Y0157768D01*
X0390767Y0157724D01*
X0390633Y0157684D01*
X0390498Y0157647D01*
X0390362Y0157615D01*
X0390225Y0157586D01*
X0390087Y0157562D01*
X0389949Y0157541D01*
X0389810Y0157524D01*
X0389670Y0157511D01*
X0389531Y0157502D01*
X0389391Y0157497D01*
X0389251Y0157496D01*
X0389111Y0157499D01*
X0388971Y0157506D01*
X0388832Y0157517D01*
X0388693Y0157532D01*
X0388554Y0157551D01*
X0388416Y0157573D01*
X0388279Y0157600D01*
X0388142Y0157631D01*
X0388007Y0157665D01*
X0387872Y0157703D01*
X0387739Y0157746D01*
X0387607Y0157791D01*
X0387476Y0157841D01*
X0387346Y0157894D01*
X0387219Y0157951D01*
X0387093Y0158012D01*
X0386968Y0158076D01*
X0386846Y0158144D01*
X0386725Y0158215D01*
X0386607Y0158289D01*
X0386491Y0158367D01*
X0386377Y0158448D01*
X0386265Y0158533D01*
X0386156Y0158620D01*
X0386049Y0158710D01*
X0385945Y0158804D01*
X0385844Y0158900D01*
X0385745Y0159000D01*
X0385649Y0159102D01*
X0385557Y0159206D01*
X0385467Y0159314D01*
X0385380Y0159424D01*
X0385297Y0159536D01*
X0385216Y0159650D01*
X0385139Y0159767D01*
X0385066Y0159886D01*
X0384995Y0160007D01*
X0384929Y0160130D01*
X0384865Y0160255D01*
X0384806Y0160381D01*
X0384750Y0160510D01*
X0384697Y0160639D01*
X0384649Y0160770D01*
X0384604Y0160903D01*
X0384563Y0161037D01*
X0384525Y0161172D01*
X0384492Y0161307D01*
X0384462Y0161444D01*
X0384436Y0161582D01*
X0384415Y0161720D01*
X0384397Y0161859D01*
X0384383Y0161998D01*
X0384373Y0162137D01*
X0384367Y0162277D01*
X0384365Y0162417D01*
X0065467Y0162417D02*
X0065469Y0162557D01*
X0065475Y0162697D01*
X0065485Y0162836D01*
X0065499Y0162975D01*
X0065517Y0163114D01*
X0065538Y0163252D01*
X0065564Y0163390D01*
X0065594Y0163527D01*
X0065627Y0163662D01*
X0065665Y0163797D01*
X0065706Y0163931D01*
X0065751Y0164064D01*
X0065799Y0164195D01*
X0065852Y0164324D01*
X0065908Y0164453D01*
X0065967Y0164579D01*
X0066031Y0164704D01*
X0066097Y0164827D01*
X0066168Y0164948D01*
X0066241Y0165067D01*
X0066318Y0165184D01*
X0066399Y0165298D01*
X0066482Y0165410D01*
X0066569Y0165520D01*
X0066659Y0165628D01*
X0066751Y0165732D01*
X0066847Y0165834D01*
X0066946Y0165934D01*
X0067047Y0166030D01*
X0067151Y0166124D01*
X0067258Y0166214D01*
X0067367Y0166301D01*
X0067479Y0166386D01*
X0067593Y0166467D01*
X0067709Y0166545D01*
X0067827Y0166619D01*
X0067948Y0166690D01*
X0068070Y0166758D01*
X0068195Y0166822D01*
X0068321Y0166883D01*
X0068448Y0166940D01*
X0068578Y0166993D01*
X0068709Y0167043D01*
X0068841Y0167088D01*
X0068974Y0167131D01*
X0069109Y0167169D01*
X0069244Y0167203D01*
X0069381Y0167234D01*
X0069518Y0167261D01*
X0069656Y0167283D01*
X0069795Y0167302D01*
X0069934Y0167317D01*
X0070073Y0167328D01*
X0070213Y0167335D01*
X0070353Y0167338D01*
X0070493Y0167337D01*
X0070633Y0167332D01*
X0070772Y0167323D01*
X0070912Y0167310D01*
X0071051Y0167293D01*
X0071189Y0167272D01*
X0071327Y0167248D01*
X0071464Y0167219D01*
X0071600Y0167187D01*
X0071735Y0167150D01*
X0071869Y0167110D01*
X0072002Y0167066D01*
X0072133Y0167018D01*
X0072263Y0166967D01*
X0072392Y0166912D01*
X0072519Y0166853D01*
X0072644Y0166790D01*
X0072767Y0166725D01*
X0072889Y0166655D01*
X0073008Y0166582D01*
X0073126Y0166506D01*
X0073241Y0166427D01*
X0073354Y0166344D01*
X0073464Y0166258D01*
X0073572Y0166169D01*
X0073677Y0166077D01*
X0073780Y0165982D01*
X0073880Y0165884D01*
X0073977Y0165784D01*
X0074071Y0165680D01*
X0074163Y0165574D01*
X0074251Y0165466D01*
X0074336Y0165355D01*
X0074418Y0165241D01*
X0074497Y0165125D01*
X0074572Y0165008D01*
X0074644Y0164888D01*
X0074712Y0164766D01*
X0074777Y0164642D01*
X0074839Y0164516D01*
X0074897Y0164389D01*
X0074951Y0164260D01*
X0075002Y0164129D01*
X0075048Y0163997D01*
X0075091Y0163864D01*
X0075131Y0163730D01*
X0075166Y0163595D01*
X0075198Y0163458D01*
X0075225Y0163321D01*
X0075249Y0163183D01*
X0075269Y0163045D01*
X0075285Y0162906D01*
X0075297Y0162766D01*
X0075305Y0162627D01*
X0075309Y0162487D01*
X0075309Y0162347D01*
X0075305Y0162207D01*
X0075297Y0162068D01*
X0075285Y0161928D01*
X0075269Y0161789D01*
X0075249Y0161651D01*
X0075225Y0161513D01*
X0075198Y0161376D01*
X0075166Y0161239D01*
X0075131Y0161104D01*
X0075091Y0160970D01*
X0075048Y0160837D01*
X0075002Y0160705D01*
X0074951Y0160574D01*
X0074897Y0160445D01*
X0074839Y0160318D01*
X0074777Y0160192D01*
X0074712Y0160068D01*
X0074644Y0159946D01*
X0074572Y0159826D01*
X0074497Y0159709D01*
X0074418Y0159593D01*
X0074336Y0159479D01*
X0074251Y0159368D01*
X0074163Y0159260D01*
X0074071Y0159154D01*
X0073977Y0159050D01*
X0073880Y0158950D01*
X0073780Y0158852D01*
X0073677Y0158757D01*
X0073572Y0158665D01*
X0073464Y0158576D01*
X0073354Y0158490D01*
X0073241Y0158407D01*
X0073126Y0158328D01*
X0073008Y0158252D01*
X0072889Y0158179D01*
X0072767Y0158109D01*
X0072644Y0158044D01*
X0072519Y0157981D01*
X0072392Y0157922D01*
X0072263Y0157867D01*
X0072133Y0157816D01*
X0072002Y0157768D01*
X0071869Y0157724D01*
X0071735Y0157684D01*
X0071600Y0157647D01*
X0071464Y0157615D01*
X0071327Y0157586D01*
X0071189Y0157562D01*
X0071051Y0157541D01*
X0070912Y0157524D01*
X0070772Y0157511D01*
X0070633Y0157502D01*
X0070493Y0157497D01*
X0070353Y0157496D01*
X0070213Y0157499D01*
X0070073Y0157506D01*
X0069934Y0157517D01*
X0069795Y0157532D01*
X0069656Y0157551D01*
X0069518Y0157573D01*
X0069381Y0157600D01*
X0069244Y0157631D01*
X0069109Y0157665D01*
X0068974Y0157703D01*
X0068841Y0157746D01*
X0068709Y0157791D01*
X0068578Y0157841D01*
X0068448Y0157894D01*
X0068321Y0157951D01*
X0068195Y0158012D01*
X0068070Y0158076D01*
X0067948Y0158144D01*
X0067827Y0158215D01*
X0067709Y0158289D01*
X0067593Y0158367D01*
X0067479Y0158448D01*
X0067367Y0158533D01*
X0067258Y0158620D01*
X0067151Y0158710D01*
X0067047Y0158804D01*
X0066946Y0158900D01*
X0066847Y0159000D01*
X0066751Y0159102D01*
X0066659Y0159206D01*
X0066569Y0159314D01*
X0066482Y0159424D01*
X0066399Y0159536D01*
X0066318Y0159650D01*
X0066241Y0159767D01*
X0066168Y0159886D01*
X0066097Y0160007D01*
X0066031Y0160130D01*
X0065967Y0160255D01*
X0065908Y0160381D01*
X0065852Y0160510D01*
X0065799Y0160639D01*
X0065751Y0160770D01*
X0065706Y0160903D01*
X0065665Y0161037D01*
X0065627Y0161172D01*
X0065594Y0161307D01*
X0065564Y0161444D01*
X0065538Y0161582D01*
X0065517Y0161720D01*
X0065499Y0161859D01*
X0065485Y0161998D01*
X0065475Y0162137D01*
X0065469Y0162277D01*
X0065467Y0162417D01*
D11*
X0296785Y0134692D02*
X0296785Y0133624D01*
X0301055Y0133624D01*
X0301055Y0132557D02*
X0301055Y0134692D01*
X0299988Y0135759D01*
X0297853Y0135759D01*
X0296785Y0134692D01*
X0297853Y0131489D02*
X0299988Y0131489D01*
X0301055Y0132557D01*
X0303217Y0131489D02*
X0304285Y0132557D01*
X0304285Y0136827D01*
X0305352Y0135759D02*
X0303217Y0135759D01*
X0308582Y0135759D02*
X0308582Y0131489D01*
X0309649Y0131489D02*
X0307514Y0131489D01*
X0311825Y0131489D02*
X0311825Y0134692D01*
X0312892Y0135759D01*
X0316095Y0135759D01*
X0316095Y0131489D01*
X0318257Y0131489D02*
X0320392Y0131489D01*
X0319324Y0131489D02*
X0319324Y0135759D01*
X0320392Y0135759D01*
X0319324Y0137894D02*
X0319324Y0138962D01*
X0322554Y0137894D02*
X0323621Y0136827D01*
X0323621Y0131489D01*
X0326864Y0131489D02*
X0326864Y0134692D01*
X0327932Y0135759D01*
X0331134Y0135759D01*
X0331134Y0131489D01*
X0333296Y0131489D02*
X0335431Y0131489D01*
X0334364Y0131489D02*
X0334364Y0135759D01*
X0335431Y0135759D01*
X0334364Y0137894D02*
X0334364Y0138962D01*
X0340803Y0139854D02*
X0340803Y0146259D01*
X0337600Y0146259D01*
X0336532Y0145192D01*
X0336532Y0143057D01*
X0337600Y0141989D01*
X0340803Y0141989D01*
X0342978Y0143057D02*
X0342978Y0145192D01*
X0344045Y0146259D01*
X0346181Y0146259D01*
X0347248Y0145192D01*
X0347248Y0143057D01*
X0346181Y0141989D01*
X0344045Y0141989D01*
X0342978Y0143057D01*
X0349417Y0146259D02*
X0350484Y0146259D01*
X0352619Y0144124D01*
X0352619Y0141989D02*
X0352619Y0146259D01*
X0354795Y0145192D02*
X0354795Y0143057D01*
X0355862Y0141989D01*
X0359065Y0141989D01*
X0355862Y0146259D02*
X0354795Y0145192D01*
X0355862Y0146259D02*
X0359065Y0146259D01*
X0359065Y0139854D01*
X0357997Y0136827D02*
X0357997Y0132557D01*
X0356930Y0131489D01*
X0354768Y0131489D02*
X0354768Y0137894D01*
X0353700Y0135759D02*
X0351565Y0135759D01*
X0350498Y0134692D01*
X0350498Y0131489D01*
X0348322Y0132557D02*
X0348322Y0134692D01*
X0347255Y0135759D01*
X0345120Y0135759D01*
X0344052Y0134692D01*
X0344052Y0133624D01*
X0348322Y0133624D01*
X0348322Y0132557D02*
X0347255Y0131489D01*
X0345120Y0131489D01*
X0353700Y0135759D02*
X0354768Y0134692D01*
X0356930Y0135759D02*
X0359065Y0135759D01*
X0359065Y0125259D02*
X0357997Y0125259D01*
X0356930Y0124192D01*
X0355862Y0125259D01*
X0354795Y0124192D01*
X0354795Y0120989D01*
X0356930Y0120989D02*
X0356930Y0124192D01*
X0359065Y0125259D02*
X0359065Y0120989D01*
X0352619Y0122057D02*
X0351552Y0123124D01*
X0348349Y0123124D01*
X0348349Y0124192D02*
X0348349Y0120989D01*
X0351552Y0120989D01*
X0352619Y0122057D01*
X0349417Y0125259D02*
X0348349Y0124192D01*
X0349417Y0125259D02*
X0351552Y0125259D01*
X0346174Y0125259D02*
X0346174Y0122057D01*
X0345106Y0120989D01*
X0341904Y0120989D01*
X0341904Y0119921D02*
X0342971Y0118854D01*
X0344039Y0118854D01*
X0341904Y0119921D02*
X0341904Y0125259D01*
X0333283Y0125259D02*
X0332215Y0125259D01*
X0332215Y0120989D01*
X0331148Y0120989D02*
X0333283Y0120989D01*
X0328986Y0122057D02*
X0328986Y0124192D01*
X0327918Y0125259D01*
X0324716Y0125259D01*
X0324716Y0119921D01*
X0325783Y0118854D01*
X0326851Y0118854D01*
X0327918Y0120989D02*
X0324716Y0120989D01*
X0322540Y0120989D02*
X0322540Y0125259D01*
X0319338Y0125259D01*
X0318270Y0124192D01*
X0318270Y0120989D01*
X0316095Y0120989D02*
X0313960Y0120989D01*
X0315027Y0120989D02*
X0315027Y0125259D01*
X0316095Y0125259D01*
X0315027Y0127394D02*
X0315027Y0128462D01*
X0310730Y0126327D02*
X0310730Y0122057D01*
X0309663Y0120989D01*
X0307501Y0122057D02*
X0307501Y0124192D01*
X0306433Y0125259D01*
X0304298Y0125259D01*
X0303231Y0124192D01*
X0303231Y0123124D01*
X0307501Y0123124D01*
X0307501Y0122057D02*
X0306433Y0120989D01*
X0304298Y0120989D01*
X0309663Y0125259D02*
X0311798Y0125259D01*
X0327918Y0120989D02*
X0328986Y0122057D01*
X0332215Y0127394D02*
X0332215Y0128462D01*
X0324689Y0134692D02*
X0322554Y0134692D01*
X0309649Y0135759D02*
X0308582Y0135759D01*
X0308582Y0137894D02*
X0308582Y0138962D01*
X0307521Y0141989D02*
X0306453Y0143057D01*
X0306453Y0145192D01*
X0307521Y0146259D01*
X0309656Y0146259D01*
X0310724Y0145192D01*
X0310724Y0143057D01*
X0309656Y0141989D01*
X0307521Y0141989D01*
X0303211Y0141989D02*
X0303211Y0147327D01*
X0302143Y0148394D01*
X0302143Y0145192D02*
X0304278Y0145192D01*
X0319331Y0146259D02*
X0321466Y0146259D01*
X0320399Y0147327D02*
X0320399Y0143057D01*
X0319331Y0141989D01*
X0323641Y0144124D02*
X0327912Y0144124D01*
X0327912Y0143057D02*
X0327912Y0145192D01*
X0326844Y0146259D01*
X0324709Y0146259D01*
X0323641Y0145192D01*
X0323641Y0144124D01*
X0324709Y0141989D02*
X0326844Y0141989D01*
X0327912Y0143057D01*
X0330087Y0141989D02*
X0330087Y0145192D01*
X0331154Y0146259D01*
X0333290Y0146259D01*
X0334357Y0145192D01*
X0334357Y0148394D02*
X0334357Y0141989D01*
X0338674Y0150354D02*
X0339742Y0150354D01*
X0338674Y0150354D02*
X0337607Y0151421D01*
X0337607Y0156759D01*
X0341877Y0156759D02*
X0341877Y0153557D01*
X0340809Y0152489D01*
X0337607Y0152489D01*
X0344039Y0152489D02*
X0346174Y0152489D01*
X0345106Y0152489D02*
X0345106Y0158894D01*
X0346174Y0158894D01*
X0348349Y0155692D02*
X0349417Y0156759D01*
X0352619Y0156759D01*
X0352619Y0152489D01*
X0354795Y0153557D02*
X0354795Y0157827D01*
X0355862Y0158894D01*
X0357997Y0158894D01*
X0359065Y0157827D01*
X0359065Y0153557D01*
X0357997Y0152489D01*
X0355862Y0152489D01*
X0354795Y0153557D01*
X0348349Y0152489D02*
X0348349Y0155692D01*
X0328986Y0153557D02*
X0327918Y0154624D01*
X0324716Y0154624D01*
X0324716Y0155692D02*
X0324716Y0152489D01*
X0327918Y0152489D01*
X0328986Y0153557D01*
X0327918Y0156759D02*
X0325783Y0156759D01*
X0324716Y0155692D01*
X0347255Y0117962D02*
X0347255Y0116894D01*
X0347255Y0114759D02*
X0347255Y0110489D01*
X0348322Y0110489D02*
X0346187Y0110489D01*
X0344025Y0110489D02*
X0340823Y0110489D01*
X0339755Y0111557D01*
X0340823Y0112624D01*
X0342958Y0112624D01*
X0344025Y0113692D01*
X0342958Y0114759D01*
X0339755Y0114759D01*
X0347255Y0114759D02*
X0348322Y0114759D01*
X0350498Y0113692D02*
X0350498Y0110489D01*
X0350498Y0113692D02*
X0351565Y0114759D01*
X0353700Y0114759D01*
X0354768Y0113692D01*
X0356930Y0114759D02*
X0359065Y0114759D01*
X0357997Y0115827D02*
X0357997Y0111557D01*
X0356930Y0110489D01*
X0354768Y0110489D02*
X0354768Y0116894D01*
X0340809Y0107462D02*
X0340809Y0106394D01*
X0340809Y0104259D02*
X0340809Y0099989D01*
X0339742Y0099989D02*
X0341877Y0099989D01*
X0344045Y0099989D02*
X0347248Y0102124D01*
X0344045Y0104259D01*
X0341877Y0104259D02*
X0340809Y0104259D01*
X0337580Y0104259D02*
X0334377Y0104259D01*
X0333310Y0103192D01*
X0333310Y0099989D01*
X0331134Y0101057D02*
X0331134Y0103192D01*
X0330067Y0104259D01*
X0326864Y0104259D01*
X0326864Y0106394D02*
X0326864Y0099989D01*
X0330067Y0099989D01*
X0331134Y0101057D01*
X0324689Y0099989D02*
X0322554Y0099989D01*
X0323621Y0099989D02*
X0323621Y0106394D01*
X0324689Y0106394D01*
X0320392Y0104259D02*
X0319324Y0104259D01*
X0319324Y0099989D01*
X0318257Y0099989D02*
X0320392Y0099989D01*
X0316095Y0099989D02*
X0316095Y0104259D01*
X0312892Y0104259D01*
X0311825Y0103192D01*
X0311825Y0099989D01*
X0309649Y0101057D02*
X0308582Y0099989D01*
X0305379Y0099989D01*
X0305379Y0098921D02*
X0305379Y0104259D01*
X0308582Y0104259D01*
X0309649Y0103192D01*
X0309649Y0101057D01*
X0306447Y0097854D02*
X0305379Y0098921D01*
X0306447Y0097854D02*
X0307514Y0097854D01*
X0309669Y0093759D02*
X0308602Y0092692D01*
X0308602Y0089489D01*
X0306427Y0089489D02*
X0305359Y0089489D01*
X0305359Y0090557D01*
X0306427Y0090557D01*
X0306427Y0089489D01*
X0309669Y0093759D02*
X0311805Y0093759D01*
X0312872Y0092692D01*
X0315034Y0093759D02*
X0317169Y0093759D01*
X0316102Y0094827D02*
X0316102Y0090557D01*
X0315034Y0089489D01*
X0312872Y0089489D02*
X0312872Y0095894D01*
X0319344Y0093759D02*
X0319344Y0090557D01*
X0320412Y0089489D01*
X0321479Y0090557D01*
X0322547Y0089489D01*
X0323615Y0090557D01*
X0323615Y0093759D01*
X0325790Y0092692D02*
X0326857Y0093759D01*
X0328993Y0093759D01*
X0330060Y0092692D01*
X0330060Y0090557D01*
X0328993Y0089489D01*
X0326857Y0089489D01*
X0325790Y0090557D01*
X0325790Y0092692D01*
X0332229Y0093759D02*
X0333296Y0093759D01*
X0335431Y0091624D01*
X0335431Y0089489D02*
X0335431Y0093759D01*
X0337607Y0093759D02*
X0340809Y0093759D01*
X0341877Y0092692D01*
X0341877Y0090557D01*
X0340809Y0089489D01*
X0337607Y0089489D01*
X0337607Y0088421D02*
X0337607Y0093759D01*
X0337607Y0088421D02*
X0338674Y0087354D01*
X0339742Y0087354D01*
X0350484Y0092692D02*
X0352619Y0092692D01*
X0354795Y0092692D02*
X0354795Y0090557D01*
X0355862Y0089489D01*
X0357997Y0089489D01*
X0359065Y0090557D01*
X0359065Y0092692D01*
X0357997Y0093759D01*
X0355862Y0093759D01*
X0354795Y0092692D01*
X0351552Y0094827D02*
X0351552Y0089489D01*
X0351552Y0094827D02*
X0350484Y0095894D01*
X0350491Y0099989D02*
X0352626Y0099989D01*
X0353694Y0101057D01*
X0353694Y0103192D01*
X0352626Y0104259D01*
X0350491Y0104259D01*
X0349423Y0103192D01*
X0349423Y0102124D01*
X0353694Y0102124D01*
X0355862Y0104259D02*
X0356930Y0104259D01*
X0359065Y0102124D01*
X0359065Y0099989D02*
X0359065Y0104259D01*
X0347248Y0106394D02*
X0347248Y0099989D01*
X0337580Y0099989D02*
X0337580Y0104259D01*
X0319324Y0106394D02*
X0319324Y0107462D01*
D12*
X0083223Y0062732D02*
X0083223Y0037732D01*
X0073223Y0037732D01*
X0073223Y0062732D01*
X0083223Y0062732D01*
X0077436Y0077535D02*
X0077436Y0083835D01*
X0066255Y0083835D02*
X0066255Y0077535D01*
D13*
X0067080Y0095085D02*
X0067080Y0095458D01*
X0067080Y0095085D02*
X0073461Y0095085D01*
X0073461Y0095458D01*
X0073461Y0105912D02*
X0073461Y0106285D01*
X0067080Y0106285D01*
X0067080Y0105912D01*
D14*
X0068654Y0096385D02*
X0068656Y0096408D01*
X0068662Y0096431D01*
X0068671Y0096452D01*
X0068684Y0096472D01*
X0068700Y0096489D01*
X0068718Y0096503D01*
X0068738Y0096514D01*
X0068760Y0096522D01*
X0068783Y0096526D01*
X0068807Y0096526D01*
X0068830Y0096522D01*
X0068852Y0096514D01*
X0068872Y0096503D01*
X0068890Y0096489D01*
X0068906Y0096472D01*
X0068919Y0096452D01*
X0068928Y0096431D01*
X0068934Y0096408D01*
X0068936Y0096385D01*
X0068934Y0096362D01*
X0068928Y0096339D01*
X0068919Y0096318D01*
X0068906Y0096298D01*
X0068890Y0096281D01*
X0068872Y0096267D01*
X0068852Y0096256D01*
X0068830Y0096248D01*
X0068807Y0096244D01*
X0068783Y0096244D01*
X0068760Y0096248D01*
X0068738Y0096256D01*
X0068718Y0096267D01*
X0068700Y0096281D01*
X0068684Y0096298D01*
X0068671Y0096318D01*
X0068662Y0096339D01*
X0068656Y0096362D01*
X0068654Y0096385D01*
D15*
X0069570Y0097485D02*
X0071072Y0097485D01*
X0071072Y0096985D02*
X0071072Y0097986D01*
X0071072Y0098458D02*
X0071072Y0099209D01*
X0070821Y0099459D01*
X0070321Y0099459D01*
X0070071Y0099209D01*
X0070071Y0098458D01*
X0069570Y0098458D02*
X0071072Y0098458D01*
X0070321Y0099932D02*
X0070321Y0100932D01*
X0070821Y0101405D02*
X0071072Y0101655D01*
X0071072Y0102155D01*
X0070821Y0102406D01*
X0069821Y0101405D01*
X0069570Y0101655D01*
X0069570Y0102155D01*
X0069821Y0102406D01*
X0070821Y0102406D01*
X0071072Y0102878D02*
X0070321Y0102878D01*
X0070571Y0103378D01*
X0070571Y0103629D01*
X0070321Y0103879D01*
X0069821Y0103879D01*
X0069570Y0103629D01*
X0069570Y0103128D01*
X0069821Y0102878D01*
X0071072Y0102878D02*
X0071072Y0103879D01*
X0071072Y0104351D02*
X0071072Y0105352D01*
X0070821Y0105352D01*
X0069821Y0104351D01*
X0069570Y0104351D01*
X0069821Y0101405D02*
X0070821Y0101405D01*
X0071072Y0100682D02*
X0070321Y0099932D01*
X0069570Y0100682D02*
X0071072Y0100682D01*
X0071552Y0070636D02*
X0072053Y0070636D01*
X0072303Y0070386D01*
X0072775Y0070386D02*
X0073776Y0069385D01*
X0073526Y0069135D01*
X0073026Y0069135D01*
X0072775Y0069385D01*
X0072775Y0070386D01*
X0073026Y0070636D01*
X0073526Y0070636D01*
X0073776Y0070386D01*
X0073776Y0069385D01*
X0074249Y0070386D02*
X0075249Y0069385D01*
X0075249Y0069135D01*
X0075722Y0069635D02*
X0075722Y0070636D01*
X0075249Y0070636D02*
X0074249Y0070636D01*
X0074249Y0070386D01*
X0075722Y0069635D02*
X0076222Y0069135D01*
X0076723Y0069635D01*
X0076723Y0070636D01*
X0078196Y0070636D02*
X0078196Y0069135D01*
X0077195Y0069135D01*
X0079169Y0069135D02*
X0079169Y0070636D01*
X0079669Y0070636D02*
X0078668Y0070636D01*
X0072303Y0069135D02*
X0071302Y0070136D01*
X0071302Y0070386D01*
X0071552Y0070636D01*
X0070830Y0070386D02*
X0070579Y0070636D01*
X0070079Y0070636D01*
X0069829Y0070386D01*
X0069829Y0070136D01*
X0070079Y0069886D01*
X0069829Y0069635D01*
X0069829Y0069385D01*
X0070079Y0069135D01*
X0070579Y0069135D01*
X0070830Y0069385D01*
X0071302Y0069135D02*
X0072303Y0069135D01*
X0070329Y0069886D02*
X0070079Y0069886D01*
X0069356Y0070386D02*
X0069106Y0070636D01*
X0068606Y0070636D01*
X0068356Y0070386D01*
X0068356Y0070136D01*
X0068606Y0069886D01*
X0068356Y0069635D01*
X0068356Y0069385D01*
X0068606Y0069135D01*
X0069106Y0069135D01*
X0069356Y0069385D01*
X0068856Y0069886D02*
X0068606Y0069886D01*
D16*
X0071845Y0075567D02*
X0071845Y0075606D01*
D17*
X0076845Y0078087D02*
X0066806Y0078087D01*
X0066806Y0083244D01*
X0076845Y0083244D01*
X0076845Y0078087D01*
M02*
