G75*
%MOIN*%
%OFA0B0*%
%FSLAX25Y25*%
%IPPOS*%
%LPD*%
%AMOC8*
5,1,8,0,0,1.08239X$1,22.5*
%
%ADD10C,0.00000*%
%ADD11C,0.06500*%
%ADD12R,0.06500X0.06500*%
%ADD13C,0.07400*%
%ADD14C,0.05000*%
%ADD15C,0.06299*%
%ADD16C,0.05150*%
%ADD17R,0.03937X0.07874*%
%ADD18R,0.04724X0.02165*%
%ADD19R,0.03898X0.02717*%
%ADD20C,0.05543*%
%ADD21C,0.06000*%
%ADD22R,0.29528X0.05906*%
%ADD23R,0.25591X0.03937*%
%ADD24R,0.07400X0.07400*%
%ADD25C,0.01000*%
%ADD26C,0.04000*%
D10*
X0077595Y0001256D02*
X0396296Y0001256D01*
X0396296Y0136256D01*
X0077595Y0136256D01*
X0067595Y0092717D01*
X0032595Y0092717D01*
X0032595Y0045256D01*
X0067595Y0045256D01*
X0077595Y0001256D01*
D11*
X0132595Y0031256D03*
X0362595Y0066256D03*
X0127595Y0111256D03*
X0097595Y0111256D03*
D12*
X0087595Y0111256D03*
X0117595Y0111256D03*
X0352595Y0066256D03*
X0122595Y0031256D03*
D13*
X0147595Y0021256D03*
X0147595Y0011256D03*
X0177595Y0011256D03*
X0202595Y0011256D03*
X0192595Y0021256D03*
X0177595Y0021256D03*
X0177595Y0031256D03*
X0207595Y0031256D03*
X0222595Y0021256D03*
X0252595Y0021256D03*
X0257595Y0031256D03*
X0287595Y0031256D03*
X0282595Y0021256D03*
X0272595Y0011256D03*
X0242595Y0011256D03*
X0232595Y0011256D03*
X0282095Y0041256D03*
X0283095Y0051256D03*
X0282095Y0061256D03*
X0283095Y0071256D03*
X0282095Y0081256D03*
X0283095Y0091256D03*
X0282095Y0101256D03*
X0237595Y0116256D03*
X0247595Y0126256D03*
X0257595Y0126256D03*
X0287595Y0126256D03*
X0217595Y0126256D03*
X0207595Y0116256D03*
X0187595Y0120756D03*
X0177595Y0121756D03*
X0167595Y0120756D03*
X0157595Y0121756D03*
X0147595Y0120756D03*
X0107595Y0086256D03*
X0107595Y0056256D03*
X0342595Y0101256D03*
X0372595Y0101256D03*
X0382595Y0091256D03*
X0375095Y0086256D03*
X0382595Y0081256D03*
X0382595Y0051256D03*
X0375095Y0046256D03*
X0382595Y0041256D03*
D14*
X0315095Y0063756D02*
X0310095Y0063756D01*
X0310095Y0068756D02*
X0315095Y0068756D01*
X0315095Y0073756D02*
X0310095Y0073756D01*
X0310095Y0078756D02*
X0315095Y0078756D01*
D15*
X0353658Y0114091D03*
X0361532Y0114091D03*
X0096532Y0043421D03*
X0088658Y0043421D03*
X0075430Y0064819D03*
X0075430Y0072693D03*
D16*
X0087753Y0021256D03*
X0097595Y0021256D03*
X0107438Y0021256D03*
D17*
X0208422Y0039760D03*
X0216296Y0039760D03*
X0224170Y0039760D03*
X0232044Y0039760D03*
X0239918Y0039760D03*
X0247792Y0039760D03*
X0255666Y0039760D03*
X0263540Y0039760D03*
X0263540Y0102752D03*
X0255666Y0102752D03*
X0247792Y0102752D03*
X0239918Y0102752D03*
X0232044Y0102752D03*
X0224170Y0102752D03*
X0216296Y0102752D03*
X0208422Y0102752D03*
D18*
X0097714Y0069996D03*
X0097714Y0066256D03*
X0097714Y0062516D03*
X0087477Y0062516D03*
X0087477Y0066256D03*
X0087477Y0069996D03*
D19*
X0087516Y0082516D03*
X0087516Y0086256D03*
X0087516Y0089996D03*
X0097713Y0089996D03*
X0097713Y0082516D03*
D20*
X0332595Y0085256D03*
X0332595Y0057256D03*
D21*
X0337595Y0029256D02*
X0337595Y0023256D01*
X0347595Y0023256D02*
X0347595Y0029256D01*
X0357595Y0029256D02*
X0357595Y0023256D01*
D22*
X0051808Y0054976D03*
X0051808Y0082535D03*
D23*
X0053776Y0072693D03*
X0053776Y0064819D03*
D24*
X0283095Y0111256D03*
D25*
X0283695Y0111956D01*
X0287295Y0115556D01*
X0287295Y0125456D01*
X0287595Y0126256D01*
X0257595Y0126256D02*
X0257595Y0125456D01*
X0255795Y0123656D01*
X0255795Y0102956D01*
X0255666Y0102752D01*
X0248595Y0102056D02*
X0247792Y0102752D01*
X0247695Y0102956D01*
X0247695Y0125456D01*
X0247595Y0126256D01*
X0217995Y0125456D02*
X0217595Y0126256D01*
X0217995Y0125456D02*
X0217995Y0109256D01*
X0219795Y0107456D01*
X0219795Y0098456D01*
X0217995Y0096656D01*
X0217995Y0045356D01*
X0258495Y0045356D01*
X0259395Y0044456D01*
X0259395Y0043556D01*
X0262995Y0039956D01*
X0263540Y0039760D01*
X0255795Y0039056D02*
X0255666Y0039760D01*
X0255795Y0039056D02*
X0255795Y0033656D01*
X0257595Y0031856D01*
X0257595Y0031256D01*
X0248595Y0025556D02*
X0252195Y0021956D01*
X0252595Y0021256D01*
X0248595Y0025556D02*
X0248595Y0039056D01*
X0247792Y0039760D01*
X0240495Y0039056D02*
X0239918Y0039760D01*
X0240495Y0039056D02*
X0240495Y0013856D01*
X0242295Y0012056D01*
X0242595Y0011256D01*
X0232595Y0011256D02*
X0232395Y0012056D01*
X0232395Y0039056D01*
X0232044Y0039760D01*
X0224170Y0039760D02*
X0223395Y0039056D01*
X0223395Y0021956D01*
X0222595Y0021256D01*
X0225195Y0011156D02*
X0202695Y0011156D01*
X0202595Y0011256D01*
X0195495Y0012056D02*
X0178395Y0012056D01*
X0177595Y0011256D01*
X0178395Y0012056D02*
X0178395Y0021056D01*
X0177595Y0021256D01*
X0192595Y0021256D02*
X0192795Y0021956D01*
X0192795Y0031856D01*
X0178395Y0031856D01*
X0177595Y0031256D01*
X0177495Y0031856D01*
X0172995Y0036356D01*
X0122595Y0036356D01*
X0122595Y0043556D01*
X0097395Y0043556D01*
X0096532Y0043421D01*
X0089295Y0042656D02*
X0088658Y0043421D01*
X0089295Y0042656D02*
X0105495Y0026456D01*
X0126195Y0026456D01*
X0130695Y0030956D01*
X0132495Y0030956D01*
X0132595Y0031256D01*
X0133395Y0030956D01*
X0137895Y0030956D01*
X0147595Y0021256D01*
X0146895Y0012056D02*
X0147595Y0011256D01*
X0146895Y0012056D02*
X0110895Y0012056D01*
X0101895Y0021056D01*
X0098295Y0021056D01*
X0097595Y0021256D01*
X0122595Y0031256D02*
X0122595Y0036356D01*
X0122595Y0043556D02*
X0122595Y0114656D01*
X0120795Y0116456D01*
X0113595Y0116456D01*
X0098295Y0101156D01*
X0098295Y0090356D01*
X0097713Y0089996D01*
X0093795Y0086756D02*
X0093795Y0080456D01*
X0094695Y0079556D01*
X0094695Y0075056D01*
X0091995Y0072356D01*
X0091995Y0068756D01*
X0090195Y0066956D01*
X0087495Y0066956D01*
X0087477Y0066256D01*
X0086595Y0066956D01*
X0081195Y0066956D01*
X0075795Y0072356D01*
X0075430Y0072693D01*
X0074895Y0073256D01*
X0070395Y0073256D01*
X0061395Y0082256D01*
X0052395Y0082256D01*
X0051808Y0082535D01*
X0083895Y0084056D02*
X0083895Y0088556D01*
X0084795Y0089456D01*
X0087495Y0089456D01*
X0087516Y0089996D01*
X0088395Y0086756D02*
X0087516Y0086256D01*
X0088395Y0086756D02*
X0093795Y0086756D01*
X0093795Y0099356D01*
X0097395Y0102956D01*
X0097395Y0111056D01*
X0097595Y0111256D01*
X0117195Y0111056D02*
X0117595Y0111256D01*
X0117195Y0111056D02*
X0117195Y0088556D01*
X0101895Y0073256D01*
X0095595Y0073256D01*
X0093795Y0071456D01*
X0093795Y0062456D01*
X0097395Y0062456D01*
X0097714Y0062516D01*
X0093795Y0062456D02*
X0092895Y0062456D01*
X0085695Y0055256D01*
X0052395Y0055256D01*
X0051808Y0054976D01*
X0075430Y0064819D02*
X0075795Y0064256D01*
X0076695Y0063356D01*
X0086595Y0063356D01*
X0087477Y0062516D01*
X0097714Y0069996D02*
X0098295Y0069656D01*
X0100095Y0069656D01*
X0107295Y0062456D01*
X0107295Y0057056D01*
X0107595Y0056256D01*
X0091095Y0076856D02*
X0088395Y0079556D01*
X0088395Y0082256D01*
X0087516Y0082516D01*
X0087495Y0083156D01*
X0084795Y0083156D01*
X0083895Y0084056D01*
X0093795Y0086756D02*
X0107295Y0086756D01*
X0107595Y0086256D01*
X0147795Y0120056D02*
X0164895Y0102956D01*
X0208095Y0102956D01*
X0208422Y0102752D01*
X0216195Y0102956D02*
X0216296Y0102752D01*
X0216195Y0102956D02*
X0216195Y0115556D01*
X0204495Y0127256D01*
X0163095Y0127256D01*
X0157595Y0121756D01*
X0147795Y0120056D02*
X0147595Y0120756D01*
X0177595Y0121756D02*
X0178395Y0120956D01*
X0180195Y0120956D01*
X0185595Y0115556D01*
X0207195Y0115556D01*
X0207595Y0116256D01*
X0208095Y0115556D01*
X0211695Y0111956D01*
X0211695Y0099356D01*
X0214395Y0096656D01*
X0217995Y0096656D01*
X0224170Y0102752D02*
X0224295Y0102956D01*
X0229695Y0108356D01*
X0234195Y0108356D01*
X0235995Y0106556D01*
X0235995Y0098456D01*
X0282795Y0051656D01*
X0283095Y0051256D01*
X0288195Y0057956D02*
X0288195Y0031856D01*
X0287595Y0031256D01*
X0282095Y0041256D02*
X0281895Y0041756D01*
X0232395Y0091256D01*
X0232395Y0102056D01*
X0232044Y0102752D01*
X0239595Y0102956D02*
X0239918Y0102752D01*
X0239595Y0102956D02*
X0239595Y0113756D01*
X0237795Y0115556D01*
X0237595Y0116256D01*
X0248595Y0102056D02*
X0269295Y0081356D01*
X0281895Y0081356D01*
X0282095Y0081256D01*
X0288195Y0057956D02*
X0308895Y0078656D01*
X0312495Y0078656D01*
X0312595Y0078756D01*
X0332595Y0085256D02*
X0333195Y0085856D01*
X0352095Y0066956D01*
X0352595Y0066256D01*
X0358395Y0062456D02*
X0361995Y0066056D01*
X0362595Y0066256D01*
X0362895Y0066956D01*
X0374595Y0078656D01*
X0374595Y0085856D01*
X0375095Y0086256D01*
X0382595Y0081256D02*
X0382695Y0080456D01*
X0388095Y0075056D01*
X0388095Y0048956D01*
X0382695Y0043556D01*
X0382695Y0041756D01*
X0382595Y0041256D01*
X0382595Y0051256D02*
X0381795Y0051656D01*
X0358395Y0051656D01*
X0358395Y0026456D01*
X0357595Y0026256D01*
X0347595Y0026256D02*
X0347595Y0026456D01*
X0333195Y0040856D01*
X0333195Y0057056D01*
X0332595Y0057256D01*
X0312495Y0063356D02*
X0312595Y0063756D01*
X0312495Y0063356D02*
X0312495Y0043556D01*
X0280995Y0012056D01*
X0272895Y0012056D01*
X0272595Y0011256D01*
X0230595Y0005756D02*
X0316995Y0005756D01*
X0336795Y0025556D01*
X0337595Y0026256D01*
X0358395Y0051656D02*
X0358395Y0062456D01*
X0333195Y0085856D02*
X0333195Y0092156D01*
X0342195Y0101156D01*
X0342595Y0101256D01*
X0343095Y0102056D01*
X0352995Y0111956D01*
X0352995Y0113756D01*
X0353658Y0114091D01*
X0361532Y0114091D02*
X0361995Y0113756D01*
X0361995Y0111956D01*
X0371895Y0102056D01*
X0372595Y0101256D01*
X0371895Y0101156D01*
X0381795Y0091256D01*
X0382595Y0091256D01*
X0283095Y0111256D02*
X0282795Y0111056D01*
X0274695Y0102956D01*
X0263895Y0102956D01*
X0263540Y0102752D01*
X0217995Y0045356D02*
X0205395Y0045356D01*
X0192795Y0032756D01*
X0192795Y0031856D01*
X0207595Y0031256D02*
X0208095Y0031856D01*
X0208095Y0039056D01*
X0208422Y0039760D01*
X0216195Y0039056D02*
X0216296Y0039760D01*
X0216195Y0039056D02*
X0216195Y0032756D01*
X0195495Y0012056D01*
X0225195Y0011156D02*
X0230595Y0005756D01*
D26*
X0091095Y0076856D03*
M02*
